<svg width="321" height="278" viewBox="0 0 321 278" fill="none" xmlns="http://www.w3.org/2000/svg">
<path d="M320.8 0.625854H0.936035V205.498H320.8V0.625854Z" fill="#E6E6E6"/>
<path d="M311.653 26.3229H10.0825V193.379H311.653V26.3229Z" fill="white"/>
<path d="M320.664 0.444336H0.799805V14.0345H320.664V0.444336Z" fill="#0C61FF"/>
<path d="M10.8975 9.91179C12.2885 9.91179 13.4161 8.78408 13.4161 7.39297C13.4161 6.00186 12.2885 4.87415 10.8975 4.87415C9.50653 4.87415 8.37891 6.00186 8.37891 7.39297C8.37891 8.78408 9.50653 9.91179 10.8975 9.91179Z" fill="white"/>
<path d="M20.4571 9.91179C21.8481 9.91179 22.9757 8.78408 22.9757 7.39297C22.9757 6.00186 21.8481 4.87415 20.4571 4.87415C19.0661 4.87415 17.9385 6.00186 17.9385 7.39297C17.9385 8.78408 19.0661 9.91179 20.4571 9.91179Z" fill="white"/>
<path d="M30.0186 9.91179C31.4096 9.91179 32.5372 8.78408 32.5372 7.39297C32.5372 6.00186 31.4096 4.87415 30.0186 4.87415C28.6276 4.87415 27.5 6.00186 27.5 7.39297C27.5 8.78408 28.6276 9.91179 30.0186 9.91179Z" fill="white"/>
<path d="M114.974 43.6547H37.4844V176.044H114.974V43.6547Z" fill="#7798FF"/>
<path d="M105.743 65.9473H46.7664C46.4769 65.947 46.1993 65.833 45.9945 65.6302C45.7898 65.4275 45.6746 65.1527 45.6743 64.866V50.3818C45.6747 50.0952 45.7899 49.8203 45.9946 49.6177C46.1993 49.415 46.4769 49.3009 46.7664 49.3005H105.743C106.032 49.3009 106.31 49.415 106.515 49.6177C106.72 49.8203 106.835 50.0952 106.835 50.3818V64.8666C106.835 65.1532 106.72 65.428 106.515 65.6307C106.31 65.8334 106.032 65.9475 105.743 65.9478V65.9473Z" fill="white"/>
<path d="M64.882 54.3673C64.6814 54.3719 64.4904 54.4692 64.35 54.6384C64.2095 54.8075 64.1309 55.035 64.1309 55.2719C64.1309 55.5088 64.2095 55.7363 64.35 55.9054C64.4904 56.0745 64.6814 56.1719 64.882 56.1764H100.981C101.183 56.1831 101.379 56.0954 101.526 55.9324C101.673 55.7694 101.76 55.5443 101.768 55.306C101.775 55.0677 101.703 54.8356 101.566 54.66C101.43 54.4844 101.24 54.3796 101.038 54.3683H101.005H64.882V54.3673Z" fill="#3D3D3D"/>
<path d="M64.882 59.071C64.6814 59.0747 64.4904 59.1526 64.35 59.2879C64.2095 59.4232 64.1309 59.6052 64.1309 59.7947C64.1309 59.9842 64.2095 60.1662 64.35 60.3015C64.4904 60.4368 64.6814 60.5147 64.882 60.5184H100.981C101.183 60.5237 101.379 60.4535 101.526 60.3231C101.673 60.1927 101.76 60.0126 101.768 59.822C101.775 59.6314 101.703 59.4456 101.566 59.3052C101.43 59.1647 101.24 59.0808 101.038 59.0719H101.005H64.882V59.071Z" fill="#3D3D3D"/>
<path d="M54.179 61.9674C56.6774 61.9674 58.7027 59.942 58.7027 57.4436C58.7027 54.9453 56.6774 52.9199 54.179 52.9199C51.6806 52.9199 49.6553 54.9453 49.6553 57.4436C49.6553 59.942 51.6806 61.9674 54.179 61.9674Z" fill="#FF8282"/>
<path d="M51.9225 56.5393C51.8698 56.5393 51.8271 56.9444 51.8271 57.4438C51.8271 57.9433 51.8698 58.3487 51.9225 58.3487H56.4243C56.477 58.3568 56.5205 57.9586 56.5213 57.4591C56.5506 57.1481 56.5184 56.8334 56.4274 56.5396H51.9225V56.5393Z" fill="white"/>
<path d="M105.743 92.0043H46.7664C46.4769 92.004 46.1993 91.89 45.9945 91.6872C45.7898 91.4845 45.6746 91.2097 45.6743 90.923V76.4388C45.6747 76.1522 45.7899 75.8774 45.9946 75.6747C46.1993 75.472 46.4769 75.3579 46.7664 75.3575H105.743C106.032 75.3579 106.31 75.472 106.515 75.6747C106.72 75.8774 106.835 76.1522 106.835 76.4388V90.9236C106.835 91.2102 106.72 91.485 106.515 91.6877C106.31 91.8904 106.032 92.0045 105.743 92.0048V92.0043Z" fill="white"/>
<path d="M64.882 80.4243C64.6814 80.4289 64.4904 80.5262 64.35 80.6954C64.2095 80.8645 64.1309 81.092 64.1309 81.3289C64.1309 81.5658 64.2095 81.7933 64.35 81.9624C64.4904 82.1315 64.6814 82.2289 64.882 82.2335H100.981C101.183 82.2401 101.379 82.1524 101.526 81.9894C101.673 81.8264 101.76 81.6013 101.768 81.363C101.775 81.1247 101.703 80.8926 101.566 80.717C101.43 80.5414 101.24 80.4366 101.038 80.4253H101.005H64.882V80.4243Z" fill="#3D3D3D"/>
<path d="M64.882 85.1281C64.6814 85.1317 64.4904 85.2096 64.35 85.3449C64.2095 85.4802 64.1309 85.6622 64.1309 85.8517C64.1309 86.0412 64.2095 86.2232 64.35 86.3585C64.4904 86.4938 64.6814 86.5717 64.882 86.5754H100.981C101.183 86.5807 101.379 86.5105 101.526 86.3801C101.673 86.2497 101.76 86.0696 101.768 85.879C101.775 85.6884 101.703 85.5026 101.566 85.3622C101.43 85.2217 101.24 85.1379 101.038 85.1289H101.005H64.882V85.1281Z" fill="#3D3D3D"/>
<path d="M54.179 88.0244C56.6774 88.0244 58.7027 85.999 58.7027 83.5007C58.7027 81.0023 56.6774 78.9769 54.179 78.9769C51.6806 78.9769 49.6553 81.0023 49.6553 83.5007C49.6553 85.999 51.6806 88.0244 54.179 88.0244Z" fill="#FF8282"/>
<path d="M51.9225 82.5963C51.8698 82.5963 51.8271 83.0014 51.8271 83.5008C51.8271 84.0003 51.8698 84.4057 51.9225 84.4057H56.4243C56.477 84.4138 56.5205 84.0156 56.5213 83.5161C56.5506 83.2051 56.5184 82.8904 56.4274 82.5967H51.9225V82.5963Z" fill="white"/>
<path d="M105.743 118.061H46.7664C46.4769 118.061 46.1993 117.947 45.9945 117.744C45.7898 117.542 45.6746 117.267 45.6743 116.98V102.496C45.6747 102.209 45.7899 101.934 45.9946 101.732C46.1993 101.529 46.4769 101.415 46.7664 101.415H105.743C106.032 101.415 106.31 101.529 106.515 101.732C106.72 101.934 106.835 102.209 106.835 102.496V116.981C106.835 117.267 106.72 117.542 106.515 117.745C106.31 117.947 106.032 118.061 105.743 118.062V118.061Z" fill="white"/>
<path d="M64.882 106.481C64.6814 106.486 64.4904 106.583 64.35 106.752C64.2095 106.922 64.1309 107.149 64.1309 107.386C64.1309 107.623 64.2095 107.85 64.35 108.019C64.4904 108.189 64.6814 108.286 64.882 108.29H100.981C101.183 108.297 101.379 108.209 101.526 108.046C101.673 107.883 101.76 107.658 101.768 107.42C101.775 107.182 101.703 106.95 101.566 106.774C101.43 106.598 101.24 106.494 101.038 106.482H101.005H64.882V106.481Z" fill="#3D3D3D"/>
<path d="M64.882 111.185C64.6814 111.189 64.4904 111.267 64.35 111.402C64.2095 111.537 64.1309 111.719 64.1309 111.909C64.1309 112.098 64.2095 112.28 64.35 112.416C64.4904 112.551 64.6814 112.629 64.882 112.632H100.981C101.183 112.638 101.379 112.568 101.526 112.437C101.673 112.307 101.76 112.127 101.768 111.936C101.775 111.745 101.703 111.56 101.566 111.419C101.43 111.279 101.24 111.195 101.038 111.186H101.005H64.882V111.185Z" fill="#3D3D3D"/>
<path d="M54.179 114.081C56.6774 114.081 58.7027 112.056 58.7027 109.558C58.7027 107.059 56.6774 105.034 54.179 105.034C51.6806 105.034 49.6553 107.059 49.6553 109.558C49.6553 112.056 51.6806 114.081 54.179 114.081Z" fill="#FF8282"/>
<path d="M51.9225 108.653C51.8698 108.653 51.8271 109.058 51.8271 109.558C51.8271 110.057 51.8698 110.463 51.9225 110.463H56.4243C56.477 110.471 56.5205 110.073 56.5213 109.573C56.5506 109.262 56.5184 108.947 56.4274 108.654H51.9225V108.653Z" fill="white"/>
<path d="M105.743 144.118H46.7664C46.4769 144.118 46.1993 144.004 45.9945 143.801C45.7898 143.599 45.6746 143.324 45.6743 143.037V128.553C45.6747 128.266 45.7899 127.991 45.9946 127.789C46.1993 127.586 46.4769 127.472 46.7664 127.472H105.743C106.032 127.472 106.31 127.586 106.515 127.789C106.72 127.991 106.835 128.266 106.835 128.553V143.038C106.835 143.324 106.72 143.599 106.515 143.802C106.31 144.004 106.032 144.118 105.743 144.119V144.118Z" fill="white"/>
<path d="M64.882 132.538C64.6814 132.543 64.4904 132.64 64.35 132.809C64.2095 132.979 64.1309 133.206 64.1309 133.443C64.1309 133.68 64.2095 133.907 64.35 134.076C64.4904 134.246 64.6814 134.343 64.882 134.347H100.981C101.183 134.354 101.379 134.266 101.526 134.103C101.673 133.94 101.76 133.715 101.768 133.477C101.775 133.239 101.703 133.007 101.566 132.831C101.43 132.655 101.24 132.551 101.038 132.539H101.005H64.882V132.538Z" fill="#3D3D3D"/>
<path d="M64.882 137.242C64.6814 137.246 64.4904 137.324 64.35 137.459C64.2095 137.594 64.1309 137.776 64.1309 137.966C64.1309 138.155 64.2095 138.337 64.35 138.473C64.4904 138.608 64.6814 138.686 64.882 138.689H100.981C101.183 138.695 101.379 138.625 101.526 138.494C101.673 138.364 101.76 138.184 101.768 137.993C101.775 137.802 101.703 137.617 101.566 137.476C101.43 137.336 101.24 137.252 101.038 137.243H101.005H64.882V137.242Z" fill="#3D3D3D"/>
<path d="M54.179 140.138C56.6774 140.138 58.7027 138.113 58.7027 135.615C58.7027 133.116 56.6774 131.091 54.179 131.091C51.6806 131.091 49.6553 133.116 49.6553 135.615C49.6553 138.113 51.6806 140.138 54.179 140.138Z" fill="#FF8282"/>
<path d="M51.9225 134.71C51.8698 134.71 51.8271 135.115 51.8271 135.615C51.8271 136.114 51.8698 136.52 51.9225 136.52H56.4243C56.477 136.528 56.5205 136.13 56.5213 135.63C56.5506 135.319 56.5184 135.004 56.4274 134.711H51.9225V134.71Z" fill="white"/>
<path d="M105.743 170.175H46.7664C46.4769 170.175 46.1993 170.061 45.9945 169.858C45.7898 169.656 45.6746 169.381 45.6743 169.094V154.61C45.6747 154.323 45.7899 154.048 45.9946 153.846C46.1993 153.643 46.4769 153.529 46.7664 153.529H105.743C106.032 153.529 106.31 153.643 106.515 153.846C106.72 154.048 106.835 154.323 106.835 154.61V169.095C106.835 169.381 106.72 169.656 106.515 169.859C106.31 170.061 106.032 170.175 105.743 170.176V170.175Z" fill="white"/>
<path d="M64.882 158.595C64.6814 158.6 64.4904 158.697 64.35 158.866C64.2095 159.036 64.1309 159.263 64.1309 159.5C64.1309 159.737 64.2095 159.964 64.35 160.133C64.4904 160.303 64.6814 160.4 64.882 160.404H100.981C101.183 160.411 101.379 160.323 101.526 160.16C101.673 159.997 101.76 159.772 101.768 159.534C101.775 159.296 101.703 159.064 101.566 158.888C101.43 158.712 101.24 158.608 101.038 158.596H101.005H64.882V158.595Z" fill="#3D3D3D"/>
<path d="M64.882 163.299C64.6814 163.303 64.4904 163.381 64.35 163.516C64.2095 163.651 64.1309 163.833 64.1309 164.023C64.1309 164.212 64.2095 164.394 64.35 164.53C64.4904 164.665 64.6814 164.743 64.882 164.746H100.981C101.183 164.752 101.379 164.682 101.526 164.551C101.673 164.421 101.76 164.241 101.768 164.05C101.775 163.859 101.703 163.674 101.566 163.533C101.43 163.393 101.24 163.309 101.038 163.3H101.005H64.882V163.299Z" fill="#3D3D3D"/>
<path d="M54.179 166.195C56.6774 166.195 58.7027 164.17 58.7027 161.672C58.7027 159.173 56.6774 157.148 54.179 157.148C51.6806 157.148 49.6553 159.173 49.6553 161.672C49.6553 164.17 51.6806 166.195 54.179 166.195Z" fill="#FF8282"/>
<path d="M51.9225 160.767C51.8698 160.767 51.8271 161.172 51.8271 161.672C51.8271 162.171 51.8698 162.577 51.9225 162.577H56.4243C56.477 162.585 56.5205 162.187 56.5213 161.687C56.5506 161.376 56.5184 161.061 56.4274 160.768H51.9225V160.767Z" fill="white"/>
<path d="M193.123 43.5104H128.549V79.9519H193.123V43.5104Z" fill="#E6E6E6"/>
<path d="M192.926 90.2444H128.351V129.454H192.926V90.2444Z" fill="#7798FF"/>
<path d="M192.926 139.603H128.351V176.044H192.926V139.603Z" fill="#7798FF"/>
<path d="M284.251 43.6547H206.762V101.349H284.251V43.6547Z" fill="#7798FF"/>
<path d="M284.251 118.35H206.762V176.044H284.251V118.35Z" fill="#7798FF"/>
<path d="M254.4 105.495V93.0738C254.4 88.6596 256.153 84.4261 259.274 81.3048C262.395 78.1835 266.629 76.4299 271.042 76.4299C275.456 76.4299 279.689 78.1835 282.81 81.3048C285.931 84.4261 287.685 88.6596 287.685 93.0738V105.495C287.684 106.087 287.448 106.656 287.029 107.075C286.61 107.494 286.042 107.73 285.449 107.73H256.635C256.043 107.73 255.475 107.494 255.055 107.075C254.636 106.656 254.401 106.087 254.4 105.495Z" fill="#2F2E41"/>
<path d="M295.652 267.135L289.782 268.76L280.723 246.891L289.386 244.493L295.652 267.135Z" fill="#FFB8B8"/>
<path d="M285.124 268.245L296.444 265.111L298.417 272.24L279.969 277.346C279.71 276.41 279.638 275.432 279.756 274.468C279.875 273.504 280.183 272.572 280.662 271.727C281.14 270.882 281.781 270.14 282.546 269.542C283.312 268.945 284.188 268.504 285.124 268.245Z" fill="#2F2E41"/>
<path d="M234.455 271.652H228.364L225.466 248.157H234.456L234.455 271.652Z" fill="#FFB8B8"/>
<path d="M224.012 269.913H235.758V277.309H216.616C216.616 276.338 216.807 275.376 217.179 274.478C217.551 273.581 218.096 272.766 218.782 272.079C219.469 271.392 220.284 270.847 221.182 270.476C222.079 270.104 223.041 269.913 224.012 269.913Z" fill="#2F2E41"/>
<path d="M227.109 140.351C227.544 140.938 228.102 141.423 228.744 141.77C229.386 142.118 230.097 142.321 230.826 142.364C231.555 142.408 232.285 142.291 232.964 142.022C233.643 141.753 234.254 141.338 234.756 140.807L250.946 148.09L249.474 138.982L234.325 133.463C233.377 132.679 232.174 132.271 230.946 132.315C229.717 132.359 228.547 132.853 227.657 133.702C226.768 134.551 226.221 135.697 226.12 136.922C226.019 138.148 226.371 139.368 227.109 140.351H227.109Z" fill="#FFB8B8"/>
<path d="M260.75 195.121C255.664 195.121 250.398 194.363 245.972 192.109C243.622 190.937 241.54 189.291 239.855 187.277C238.17 185.262 236.919 182.922 236.18 180.401C233.874 173.098 236.782 165.924 239.594 158.985C241.337 154.686 242.982 150.625 243.409 146.622L243.559 145.201C244.224 138.818 244.798 133.305 247.979 131.238C249.627 130.166 251.844 130.105 254.755 131.051L282.101 139.935L281.095 191.849L280.929 191.904C280.786 191.952 271.146 195.121 260.75 195.121Z" fill="#2F2E41"/>
<path d="M254.275 114.889C254.275 114.889 267.688 110.915 278.121 112.405C278.121 112.405 272.159 145.196 274.147 156.126C276.134 167.057 239.62 160.349 247.072 149.916L249.555 137.495C249.555 137.495 244.588 132.527 249.059 126.565L254.275 114.889Z" fill="#0C61FF"/>
<path d="M247.678 194.136L231.147 191.036L236.919 146.616C237.307 145.376 246.247 117.232 250.308 115.709C253.256 114.671 256.271 113.833 259.333 113.202L259.921 113.084L256.606 118.057L243.409 149.682L247.678 194.136Z" fill="#3D3D3D"/>
<path d="M239.065 266.209L217.706 262.649L229.692 213.699L247.529 146.757L247.705 147.946C247.719 148.034 249.385 156.779 274.109 152.899L274.327 152.865L274.387 153.077L304.27 258.672L279.932 262.729L257.734 185.687L239.065 266.209Z" fill="#3D3D3D"/>
<path d="M268.67 202.449L268.683 202.074C268.698 201.656 270.168 160.155 269.677 143.464C269.184 126.716 274.606 112.213 274.661 112.068L274.705 111.952L274.825 111.917C281.839 109.913 287.925 115.895 287.985 115.955L288.071 116.041L286.073 132.524L294.626 192.462L268.67 202.449Z" fill="#3D3D3D"/>
<path d="M267.623 107.44C274.361 107.44 279.824 101.977 279.824 95.2376C279.824 88.4982 274.361 83.0349 267.623 83.0349C260.884 83.0349 255.421 88.4982 255.421 95.2376C255.421 101.977 260.884 107.44 267.623 107.44Z" fill="#FFB8B8"/>
<path d="M250.461 94.0679C250.465 90.5772 251.854 87.2307 254.322 84.7625C256.79 82.2942 260.136 80.9058 263.626 80.9019H266.11C269.601 80.9058 272.947 82.2942 275.415 84.7625C277.883 87.2307 279.271 90.5773 279.275 94.0679V94.3163H274.026L272.235 89.3024L271.877 94.3163H269.164L268.261 91.7865L268.08 94.3163H250.461V94.0679Z" fill="#2F2E41"/>
<path d="M266.423 109.126C266.176 108.792 266.029 108.396 265.998 107.982C265.967 107.568 266.054 107.154 266.248 106.788C268.88 101.781 272.566 92.5285 267.674 86.8227L267.322 86.4127H281.524V107.737L268.623 110.013C268.492 110.036 268.36 110.048 268.227 110.048C267.875 110.048 267.528 109.964 267.214 109.804C266.9 109.644 266.629 109.412 266.423 109.126Z" fill="#2F2E41"/>
<path d="M209.242 21.0863C199.304 12.7 187.144 7.38313 174.239 5.78278C161.335 4.18244 148.244 6.36759 136.559 12.0723C124.874 17.7771 115.099 26.7554 108.423 37.9149C101.747 49.0743 98.4588 61.9337 98.9576 74.9283C99.4564 87.9228 103.721 100.492 111.233 111.107C118.744 121.722 129.179 129.924 141.267 134.716C153.355 139.508 166.575 140.683 179.319 138.098C192.062 135.513 203.78 129.279 213.045 120.156L295.323 189.587C296.574 190.645 298.195 191.163 299.829 191.026C301.463 190.889 302.975 190.109 304.033 188.857C305.092 187.605 305.61 185.984 305.473 184.35C305.336 182.717 304.556 181.204 303.304 180.146L303.295 180.138L221.017 110.707C230.575 96.9879 234.666 80.1938 232.488 63.6155C230.31 47.0373 222.02 31.8702 209.242 21.0863ZM203.938 104.021C197.528 111.618 189.01 117.144 179.46 119.899C169.91 122.654 159.758 122.516 150.287 119.501C140.816 116.485 132.451 110.729 126.251 102.96C120.052 95.1908 116.295 85.7574 115.455 75.8527C114.616 65.9481 116.733 56.017 121.538 47.3154C126.342 38.6138 133.619 31.5324 142.448 26.9668C151.277 22.4012 161.261 20.5564 171.138 21.6657C181.016 22.7751 190.342 26.7886 197.939 33.1989H197.939C202.982 37.4552 207.139 42.6634 210.17 48.526C213.201 54.3886 215.048 60.791 215.605 67.3674C216.162 73.9439 215.418 80.5657 213.417 86.8547C211.415 93.1438 208.194 98.9769 203.938 104.021Z" fill="#878787"/>
<path opacity="0.3" d="M133.121 110.02C123.481 101.884 117.252 90.4195 115.672 77.9031C114.093 65.3866 117.277 52.7337 124.594 42.4568C123.633 43.4245 122.704 44.4381 121.807 45.4973C117.551 50.5416 114.33 56.3747 112.329 62.6638C110.327 68.9529 109.583 75.5747 110.14 82.1511C110.697 88.7276 112.544 95.1299 115.575 100.993C118.607 106.855 122.763 112.063 127.807 116.32C132.85 120.576 138.683 123.797 144.972 125.799C151.26 127.801 157.881 128.545 164.457 127.987C171.033 127.43 177.435 125.583 183.297 122.552C189.159 119.52 194.367 115.364 198.623 110.32C199.518 109.259 200.361 108.173 201.151 107.061C192.252 116.003 180.317 121.271 167.714 121.819C155.111 122.367 142.763 118.156 133.121 110.02Z" fill="#3D3D3D"/>
<path d="M271.539 161.684C272.249 161.858 272.988 161.874 273.704 161.731C274.42 161.588 275.096 161.289 275.684 160.857C276.273 160.424 276.759 159.868 277.11 159.227C277.46 158.586 277.665 157.876 277.711 157.147L294.817 152.399L287.864 146.336L272.686 151.774C271.456 151.778 270.271 152.232 269.354 153.052C268.437 153.871 267.852 154.999 267.711 156.22C267.57 157.442 267.881 158.673 268.587 159.68C269.292 160.687 270.343 161.4 271.539 161.684Z" fill="#FFB8B8"/>
<path d="M278.65 159.17L277.609 149.28L291.898 141.396L282.582 130.118L284.102 117.449L287.887 115.826L288.005 115.978C289.79 118.273 305.445 138.475 305.445 140.972C305.445 143.537 302.45 151.069 298.353 153.118C294.4 155.094 279.559 158.936 278.929 159.098L278.65 159.17Z" fill="#3D3D3D"/>
<path d="M320.192 277.949H163.356C163.247 277.949 163.143 277.881 163.065 277.761C162.988 277.641 162.945 277.478 162.945 277.308C162.945 277.138 162.988 276.975 163.065 276.854C163.143 276.734 163.247 276.667 163.356 276.667H320.192C320.301 276.667 320.406 276.734 320.483 276.854C320.56 276.975 320.603 277.138 320.603 277.308C320.603 277.478 320.56 277.641 320.483 277.761C320.406 277.881 320.301 277.949 320.192 277.949Z" fill="#CCCCCC"/>
<path d="M190.252 55.091C195.55 55.091 199.845 50.7958 199.845 45.4975C199.845 40.1992 195.55 35.9041 190.252 35.9041C184.953 35.9041 180.658 40.1992 180.658 45.4975C180.658 50.7958 184.953 55.091 190.252 55.091Z" fill="#FF8282"/>
<path d="M188.18 42.8628L187.618 43.4248L192.325 48.1315L192.887 47.5695L188.18 42.8628Z" fill="white"/>
<path d="M192.887 43.426L192.325 42.864L187.619 47.5707L188.18 48.1327L192.887 43.426Z" fill="white"/>
<path d="M139.645 63.9933V61.2933L144.991 53.5533H149.347L144.199 61.2933L142.219 60.6993H151.975V63.9933H139.645ZM146.179 66.1533V63.9933L146.305 60.6993V58.7733H150.301V66.1533H146.179ZM158.274 66.4413C157.158 66.4413 156.168 66.1833 155.304 65.6673C154.452 65.1513 153.78 64.4013 153.288 63.4173C152.808 62.4333 152.568 61.2453 152.568 59.8533C152.568 58.4613 152.808 57.2733 153.288 56.2893C153.78 55.3053 154.452 54.5553 155.304 54.0393C156.168 53.5233 157.158 53.2653 158.274 53.2653C159.39 53.2653 160.374 53.5233 161.226 54.0393C162.09 54.5553 162.762 55.3053 163.242 56.2893C163.734 57.2733 163.98 58.4613 163.98 59.8533C163.98 61.2453 163.734 62.4333 163.242 63.4173C162.762 64.4013 162.09 65.1513 161.226 65.6673C160.374 66.1833 159.39 66.4413 158.274 66.4413ZM158.274 63.0393C158.55 63.0393 158.796 62.9433 159.012 62.7513C159.228 62.5593 159.396 62.2293 159.516 61.7613C159.648 61.2933 159.714 60.6573 159.714 59.8533C159.714 59.0373 159.648 58.4013 159.516 57.9453C159.396 57.4773 159.228 57.1473 159.012 56.9553C158.796 56.7633 158.55 56.6673 158.274 56.6673C157.998 56.6673 157.752 56.7633 157.536 56.9553C157.32 57.1473 157.146 57.4773 157.014 57.9453C156.894 58.4013 156.834 59.0373 156.834 59.8533C156.834 60.6573 156.894 61.2933 157.014 61.7613C157.146 62.2293 157.32 62.5593 157.536 62.7513C157.752 62.9433 157.998 63.0393 158.274 63.0393ZM164.923 63.9933V61.2933L170.269 53.5533H174.625L169.477 61.2933L167.497 60.6993H177.253V63.9933H164.923ZM171.457 66.1533V63.9933L171.583 60.6993V58.7733H175.579V66.1533H171.457Z" fill="#3D3D3D"/>
</svg>
