<svg width="321" height="215" viewBox="0 0 321 215" fill="none" xmlns="http://www.w3.org/2000/svg">
<path d="M294.39 91.0906H161.17C160.106 91.0894 159.087 90.6662 158.334 89.914C157.582 89.1617 157.159 88.1418 157.158 87.078V42.1365C157.159 41.0727 157.582 40.0528 158.334 39.3005C159.087 38.5483 160.106 38.1251 161.17 38.1239H294.39C295.453 38.1251 296.473 38.5483 297.226 39.3005C297.978 40.0528 298.401 41.0727 298.402 42.1365V87.078C298.401 88.1418 297.978 89.1617 297.226 89.914C296.473 90.6662 295.453 91.0894 294.39 91.0906V91.0906Z" fill="#E5E5E5"/>
<path d="M213.335 50.1615H178.023V54.1741H213.335V50.1615Z" fill="white"/>
<path d="M259.881 54.9766C261.21 54.9766 262.288 53.8987 262.288 52.5691C262.288 51.2394 261.21 50.1615 259.881 50.1615C258.551 50.1615 257.473 51.2394 257.473 52.5691C257.473 53.8987 258.551 54.9766 259.881 54.9766Z" fill="#FF8282"/>
<path d="M267.907 54.9766C269.237 54.9766 270.314 53.8987 270.314 52.5691C270.314 51.2394 269.237 50.1615 267.907 50.1615C266.577 50.1615 265.499 51.2394 265.499 52.5691C265.499 53.8987 266.577 54.9766 267.907 54.9766Z" fill="#FF8282"/>
<path d="M275.931 54.9766C277.261 54.9766 278.339 53.8987 278.339 52.5691C278.339 51.2394 277.261 50.1615 275.931 50.1615C274.602 50.1615 273.524 51.2394 273.524 52.5691C273.524 53.8987 274.602 54.9766 275.931 54.9766Z" fill="#FF8282"/>
<path d="M294.39 148.071H161.17C160.106 148.07 159.087 147.646 158.334 146.894C157.582 146.142 157.159 145.122 157.158 144.058V99.1168C157.159 98.0529 157.582 97.033 158.334 96.2808C159.087 95.5285 160.106 95.1054 161.17 95.1041H294.39C295.453 95.1053 296.473 95.5285 297.226 96.2808C297.978 97.033 298.401 98.0529 298.402 99.1168V144.058C298.401 145.122 297.978 146.142 297.226 146.894C296.473 147.646 295.453 148.07 294.39 148.071V148.071Z" fill="#E5E5E5"/>
<path d="M213.335 107.142H178.023V111.154H213.335V107.142Z" fill="white"/>
<path d="M259.881 111.957C261.21 111.957 262.288 110.879 262.288 109.549C262.288 108.219 261.21 107.142 259.881 107.142C258.551 107.142 257.473 108.219 257.473 109.549C257.473 110.879 258.551 111.957 259.881 111.957Z" fill="#8FC93A"/>
<path d="M267.907 111.957C269.237 111.957 270.314 110.879 270.314 109.549C270.314 108.219 269.237 107.142 267.907 107.142C266.577 107.142 265.499 108.219 265.499 109.549C265.499 110.879 266.577 111.957 267.907 111.957Z" fill="#8FC93A"/>
<path d="M275.931 111.957C277.261 111.957 278.339 110.879 278.339 109.549C278.339 108.219 277.261 107.142 275.931 107.142C274.602 107.142 273.524 108.219 273.524 109.549C273.524 110.879 274.602 111.957 275.931 111.957Z" fill="#FF8282"/>
<path d="M294.39 205.049H161.17C160.106 205.048 159.087 204.625 158.334 203.873C157.582 203.12 157.159 202.1 157.158 201.037V156.095C157.159 155.031 157.582 154.011 158.334 153.259C159.087 152.507 160.106 152.084 161.17 152.083H294.39C295.453 152.084 296.473 152.507 297.226 153.259C297.978 154.011 298.401 155.031 298.402 156.095V201.037C298.401 202.1 297.978 203.12 297.226 203.873C296.473 204.625 295.453 205.048 294.39 205.049Z" fill="#E5E5E5"/>
<path d="M213.335 164.12H178.023V168.133H213.335V164.12Z" fill="white"/>
<path d="M259.881 168.935C261.21 168.935 262.288 167.857 262.288 166.528C262.288 165.198 261.21 164.12 259.881 164.12C258.551 164.12 257.473 165.198 257.473 166.528C257.473 167.857 258.551 168.935 259.881 168.935Z" fill="#8FC93A"/>
<path d="M267.907 168.935C269.237 168.935 270.314 167.857 270.314 166.528C270.314 165.198 269.237 164.12 267.907 164.12C266.577 164.12 265.499 165.198 265.499 166.528C265.499 167.857 266.577 168.935 267.907 168.935Z" fill="#8FC93A"/>
<path d="M275.931 168.935C277.261 168.935 278.339 167.857 278.339 166.528C278.339 165.198 277.261 164.12 275.931 164.12C274.602 164.12 273.524 165.198 273.524 166.528C273.524 167.857 274.602 168.935 275.931 168.935Z" fill="#8FC93A"/>
<path d="M171.48 157.703H123.647L125.268 136.625H169.859L171.48 157.703Z" fill="#878787"/>
<path d="M174.723 155.27H121.215V160.134H174.723V155.27Z" fill="#878787"/>
<path d="M239.175 0.826416H56.3553C55.0652 0.826416 53.828 1.33892 52.9157 2.25117C52.0035 3.16341 51.491 4.40068 51.491 5.69079V5.69079V117.166H244.039V5.69079C244.039 5.05199 243.913 4.41945 243.669 3.82928C243.425 3.2391 243.066 2.70287 242.615 2.25117C242.163 1.79947 241.627 1.44116 241.036 1.1967C240.446 0.95224 239.814 0.826417 239.175 0.826416H239.175Z" fill="#3F3D56"/>
<path d="M51.491 117.167V135.408C51.491 136.047 51.6168 136.68 51.8612 137.27C52.1057 137.86 52.464 138.396 52.9157 138.848C53.3674 139.3 53.9037 139.658 54.4938 139.902C55.084 140.147 55.7165 140.273 56.3553 140.273H239.175C240.465 140.273 241.702 139.76 242.615 138.848C243.527 137.936 244.039 136.698 244.039 135.408V117.167H51.491Z" fill="#878787"/>
<path d="M234.716 10.96H61.2197V108.248H234.716V10.96Z" fill="#E6E6E6"/>
<path d="M147.967 133.38C150.654 133.38 152.832 131.203 152.832 128.516C152.832 125.829 150.654 123.652 147.967 123.652C145.281 123.652 143.103 125.829 143.103 128.516C143.103 131.203 145.281 133.38 147.967 133.38Z" fill="white"/>
<path d="M66.6302 15.069C67.14 15.069 67.5533 14.6557 67.5533 14.1459C67.5533 13.6361 67.14 13.2228 66.6302 13.2228C66.1203 13.2228 65.707 13.6361 65.707 14.1459C65.707 14.6557 66.1203 15.069 66.6302 15.069Z" fill="white"/>
<path d="M70.1326 15.069C70.6424 15.069 71.0557 14.6557 71.0557 14.1459C71.0557 13.6361 70.6424 13.2228 70.1326 13.2228C69.6228 13.2228 69.2095 13.6361 69.2095 14.1459C69.2095 14.6557 69.6228 15.069 70.1326 15.069Z" fill="white"/>
<path d="M73.6368 15.069C74.1466 15.069 74.5599 14.6557 74.5599 14.1459C74.5599 13.6361 74.1466 13.2228 73.6368 13.2228C73.1269 13.2228 72.7136 13.6361 72.7136 14.1459C72.7136 14.6557 73.1269 15.069 73.6368 15.069Z" fill="white"/>
<path d="M229.716 17.2836H65.707V98.9892H229.716V17.2836Z" fill="white"/>
<path d="M75.0514 36.0461C74.9253 36.0463 74.8043 36.0963 74.7151 36.1852C74.626 36.2741 74.5758 36.3947 74.5757 36.5205V60.4985C74.5758 60.6243 74.626 60.7449 74.7151 60.8338C74.8043 60.9227 74.9253 60.9728 75.0514 60.9729H102.82C102.946 60.9728 103.067 60.9227 103.156 60.8338C103.245 60.7449 103.295 60.6243 103.296 60.4985V36.5205C103.295 36.3947 103.245 36.2741 103.156 36.1852C103.067 36.0963 102.946 36.0463 102.82 36.0461H75.0514Z" fill="#E6E6E6"/>
<path d="M75.5611 72.8948C75.2996 72.8953 75.0489 73.0097 74.8642 73.2129C74.6794 73.4161 74.5757 73.6915 74.5757 73.9785C74.5757 74.2656 74.6794 74.541 74.8642 74.7442C75.0489 74.9474 75.2996 75.0618 75.5611 75.0623H101.768C102.03 75.0618 102.28 74.9474 102.465 74.7442C102.65 74.541 102.754 74.2656 102.754 73.9785C102.754 73.6915 102.65 73.4161 102.465 73.2129C102.28 73.0097 102.03 72.8953 101.768 72.8948H75.5611Z" fill="#E6E6E6"/>
<path d="M75.5452 77.7721C75.2879 77.7725 75.0413 77.8583 74.8595 78.0107C74.6778 78.1631 74.5757 78.3696 74.5757 78.5849C74.5757 78.8002 74.6778 79.0067 74.8595 79.1591C75.0413 79.3115 75.2879 79.3973 75.5452 79.3978H87.1534C87.4106 79.3973 87.6572 79.3115 87.839 79.1591C88.0207 79.0067 88.1228 78.8002 88.1228 78.5849C88.1228 78.3696 88.0207 78.1631 87.839 78.0107C87.6572 77.8583 87.4106 77.7725 87.1534 77.7721H75.5452Z" fill="#3F3D56"/>
<path d="M75.5611 68.0176C75.2996 68.0181 75.0489 68.1325 74.8642 68.3357C74.6794 68.5389 74.5757 68.8143 74.5757 69.1013C74.5757 69.3884 74.6794 69.6638 74.8642 69.867C75.0489 70.0702 75.2996 70.1846 75.5611 70.1851H101.768C102.03 70.1846 102.28 70.0702 102.465 69.867C102.65 69.6638 102.754 69.3884 102.754 69.1013C102.754 68.8143 102.65 68.5389 102.465 68.3357C102.28 68.1325 102.03 68.0181 101.768 68.0176H75.5611Z" fill="#E6E6E6"/>
<path d="M115.184 36.0461C115.058 36.0463 114.937 36.0963 114.848 36.1852C114.759 36.2741 114.709 36.3947 114.709 36.5205V60.4985C114.709 60.6243 114.759 60.7449 114.848 60.8338C114.937 60.9227 115.058 60.9728 115.184 60.9729H142.953C143.079 60.9728 143.2 60.9227 143.289 60.8338C143.378 60.7449 143.429 60.6243 143.429 60.4985V36.5205C143.429 36.3947 143.378 36.2741 143.289 36.1852C143.2 36.0963 143.079 36.0463 142.953 36.0461H115.184Z" fill="#FFABAB"/>
<path d="M115.694 72.8948C115.433 72.8953 115.182 73.0097 114.997 73.2129C114.812 73.4161 114.709 73.6915 114.709 73.9785C114.709 74.2656 114.812 74.541 114.997 74.7442C115.182 74.9474 115.433 75.0618 115.694 75.0623H141.901C142.163 75.0618 142.414 74.9474 142.598 74.7442C142.783 74.541 142.887 74.2656 142.887 73.9785C142.887 73.6915 142.783 73.4161 142.598 73.2129C142.414 73.0097 142.163 72.8953 141.901 72.8948H115.694Z" fill="#E6E6E6"/>
<path d="M115.678 77.7721C115.421 77.7725 115.174 77.8583 114.993 78.0107C114.811 78.1631 114.709 78.3696 114.709 78.5849C114.709 78.8002 114.811 79.0067 114.993 79.1591C115.174 79.3115 115.421 79.3973 115.678 79.3978H127.286C127.544 79.3973 127.79 79.3115 127.972 79.1591C128.154 79.0067 128.256 78.8002 128.256 78.5849C128.256 78.3696 128.154 78.1631 127.972 78.0107C127.79 77.8583 127.544 77.7725 127.286 77.7721H115.678Z" fill="#FFABAB"/>
<path d="M115.694 68.0176C115.433 68.0181 115.182 68.1325 114.997 68.3357C114.812 68.5389 114.709 68.8143 114.709 69.1013C114.709 69.3884 114.812 69.6638 114.997 69.867C115.182 70.0702 115.433 70.1846 115.694 70.1851H141.901C142.163 70.1846 142.414 70.0702 142.598 69.867C142.783 69.6638 142.887 69.3884 142.887 69.1013C142.887 68.8143 142.783 68.5389 142.598 68.3357C142.414 68.1325 142.163 68.0181 141.901 68.0176H115.694Z" fill="#E6E6E6"/>
<path d="M155.38 36.0461C155.254 36.0463 155.133 36.0963 155.044 36.1852C154.954 36.2741 154.904 36.3947 154.904 36.5205V60.4985C154.904 60.6243 154.954 60.7449 155.044 60.8338C155.133 60.9227 155.254 60.9728 155.38 60.9729H183.148C183.274 60.9728 183.395 60.9227 183.485 60.8338C183.574 60.7449 183.624 60.6243 183.624 60.4985V36.5205C183.624 36.3947 183.574 36.2741 183.485 36.1852C183.395 36.0963 183.274 36.0463 183.148 36.0461H155.38Z" fill="#E6E6E6"/>
<path d="M155.889 72.8948C155.628 72.8953 155.377 73.0097 155.193 73.2129C155.008 73.4161 154.904 73.6915 154.904 73.9785C154.904 74.2656 155.008 74.541 155.193 74.7442C155.377 74.9474 155.628 75.0618 155.889 75.0623H182.097C182.358 75.0618 182.609 74.9474 182.794 74.7442C182.978 74.541 183.082 74.2656 183.082 73.9785C183.082 73.6915 182.978 73.4161 182.794 73.2129C182.609 73.0097 182.358 72.8953 182.097 72.8948H155.889Z" fill="#E6E6E6"/>
<path d="M155.874 77.7721C155.616 77.7725 155.37 77.8583 155.188 78.0107C155.006 78.1631 154.904 78.3696 154.904 78.5849C154.904 78.8002 155.006 79.0067 155.188 79.1591C155.37 79.3115 155.616 79.3973 155.874 79.3978H167.482C167.739 79.3973 167.986 79.3115 168.167 79.1591C168.349 79.0067 168.451 78.8002 168.451 78.5849C168.451 78.3696 168.349 78.1631 168.167 78.0107C167.986 77.8583 167.739 77.7725 167.482 77.7721H155.874Z" fill="#3F3D56"/>
<path d="M155.889 68.0176C155.628 68.0181 155.377 68.1325 155.193 68.3357C155.008 68.5389 154.904 68.8143 154.904 69.1013C154.904 69.3884 155.008 69.6638 155.193 69.867C155.377 70.0702 155.628 70.1846 155.889 70.1851H182.097C182.358 70.1846 182.609 70.0702 182.794 69.867C182.978 69.6638 183.082 69.3884 183.082 69.1013C183.082 68.8143 182.978 68.5389 182.794 68.3357C182.609 68.1325 182.358 68.0181 182.097 68.0176H155.889Z" fill="#E6E6E6"/>
<path d="M195.577 36.0461C195.451 36.0463 195.33 36.0963 195.241 36.1852C195.151 36.2741 195.101 36.3947 195.101 36.5205V60.4985C195.101 60.6243 195.151 60.7449 195.241 60.8338C195.33 60.9227 195.451 60.9728 195.577 60.9729H223.345C223.471 60.9728 223.592 60.9227 223.682 60.8338C223.771 60.7449 223.821 60.6243 223.821 60.4985V36.5205C223.821 36.3947 223.771 36.2741 223.682 36.1852C223.592 36.0963 223.471 36.0463 223.345 36.0461H195.577Z" fill="#E6E6E6"/>
<path d="M196.086 72.8948C195.825 72.8953 195.574 73.0097 195.39 73.2129C195.205 73.4161 195.101 73.6915 195.101 73.9785C195.101 74.2656 195.205 74.541 195.39 74.7442C195.574 74.9474 195.825 75.0618 196.086 75.0623H222.294C222.555 75.0618 222.806 74.9474 222.991 74.7442C223.175 74.541 223.279 74.2656 223.279 73.9785C223.279 73.6915 223.175 73.4161 222.991 73.2129C222.806 73.0097 222.555 72.8953 222.294 72.8948H196.086Z" fill="#E6E6E6"/>
<path d="M196.071 77.7721C195.813 77.7725 195.567 77.8583 195.385 78.0107C195.203 78.1631 195.101 78.3696 195.101 78.5849C195.101 78.8002 195.203 79.0067 195.385 79.1591C195.567 79.3115 195.813 79.3973 196.071 79.3978H207.679C207.936 79.3973 208.183 79.3115 208.364 79.1591C208.546 79.0067 208.648 78.8002 208.648 78.5849C208.648 78.3696 208.546 78.1631 208.364 78.0107C208.183 77.8583 207.936 77.7725 207.679 77.7721H196.071Z" fill="#3F3D56"/>
<path d="M196.086 68.0176C195.825 68.0181 195.574 68.1325 195.39 68.3357C195.205 68.5389 195.101 68.8143 195.101 69.1013C195.101 69.3884 195.205 69.6638 195.39 69.867C195.574 70.0702 195.825 70.1846 196.086 70.1851H222.294C222.555 70.1846 222.806 70.0702 222.991 69.867C223.175 69.6638 223.279 69.3884 223.279 69.1013C223.279 68.8143 223.175 68.5389 222.991 68.3357C222.806 68.1325 222.555 68.0181 222.294 68.0176H196.086Z" fill="#E6E6E6"/>
<path d="M16.0028 204.7L20.9699 206.135L28.636 186.815L21.305 184.697L16.0028 204.7Z" fill="#FFB8B8"/>
<path d="M13.9559 204.434L3.96952 201.67L2.22937 207.958L18.5035 212.462C18.732 211.637 18.7957 210.774 18.6908 209.924C18.5859 209.073 18.3146 208.252 17.8924 207.506C17.4701 206.761 16.9051 206.106 16.2297 205.579C15.5543 205.051 14.7816 204.662 13.9559 204.434V204.434Z" fill="#2F2E41"/>
<path d="M61.1774 209.198H66.6243L69.2158 188.525H61.1765L61.1774 209.198Z" fill="#FFB8B8"/>
<path d="M70.7469 207.284H60.4106V213.792H77.2549C77.2549 212.937 77.0866 212.091 76.7595 211.301C76.4324 210.511 75.9531 209.794 75.3487 209.19C74.7444 208.585 74.027 208.106 73.2374 207.779C72.4478 207.452 71.6015 207.284 70.7469 207.284V207.284Z" fill="#2F2E41"/>
<path d="M55.0751 76.8053C53.192 72.5187 49.5313 69.2165 44.9181 68.4173C40.8886 67.7192 35.789 67.1977 31.3174 67.8474C31.3174 67.8474 36.5149 96.9221 34.7824 106.614C33.0499 116.305 64.8847 110.358 58.3878 101.107L56.2222 90.094C56.2222 90.094 60.5534 85.6887 56.6553 80.4024L55.0751 76.8053Z" fill="#3D3D3D"/>
<path d="M54.097 141.054V141.054C62.3596 139.519 67.9771 131.788 66.8845 123.455L64.6353 106.303C64.0053 101.499 62.9709 96.7592 61.3732 92.1848C58.6507 84.39 54.2043 72.6954 51.753 71.7845C49.1249 70.8674 46.4371 70.1275 43.7082 69.5699L43.184 69.4659L46.1388 73.858V107.707L54.097 141.054Z" fill="#3D3D3D"/>
<path d="M58.3627 210.728L77.2549 207.583L66.6529 164.35L50.8768 105.225L50.7211 106.275C50.7088 106.353 36.4113 92.3809 27.3664 110.65L27.1741 110.62L27.121 110.807L0.689859 204.071L22.2165 207.654L41.8504 139.609L58.3627 210.728Z" fill="#3D3D3D"/>
<path d="M39.3555 147.561L39.3437 147.231C39.3305 146.864 38.0301 110.351 38.4644 95.6664C38.9003 80.932 34.1024 68.172 34.0539 68.0448L34.0148 67.9424L33.9088 67.9121C27.7013 66.1489 22.3162 71.4113 22.2625 71.4646L22.1868 71.5398L23.9547 86.0413L16.386 138.775L39.3555 147.561Z" fill="#3D3D3D"/>
<path d="M40.3124 63.724C34.4981 63.724 29.7847 58.9249 29.7847 53.0049C29.7847 47.0849 34.4981 42.2858 40.3124 42.2858C46.1267 42.2858 50.8401 47.0849 50.8401 53.0049C50.8401 58.9249 46.1267 63.724 40.3124 63.724Z" fill="#FFB8B8"/>
<path d="M51.9897 51.636C51.9862 48.5478 50.7504 45.5872 48.5534 43.4036C46.3564 41.2199 43.3777 39.9916 40.2707 39.9882H38.0594C34.9524 39.9917 31.9737 41.2199 29.7767 43.4036C27.5797 45.5872 26.3439 48.5479 26.3405 51.636V51.8557H31.0133L32.6071 47.42L32.9259 51.8557H35.3408L36.145 49.6177L36.3058 51.8557H51.9897V51.636Z" fill="#2F2E41"/>
<path d="M48.1514 65.1984C48.3761 64.9011 48.5103 64.5478 48.5386 64.1792C48.5668 63.8107 48.4879 63.4418 48.311 63.1151C45.9104 58.6545 42.5494 50.4124 47.0107 45.3295L47.3313 44.9642H34.3797V63.9605L46.1453 65.9885C46.2644 66.0091 46.3851 66.0195 46.5061 66.0196C46.8272 66.0196 47.1439 65.9452 47.4299 65.8024C47.7159 65.6597 47.9632 65.4527 48.1514 65.1984Z" fill="#2F2E41"/>
<path d="M46.6292 65.5828V54.6449C46.6292 50.7577 45.1166 47.0297 42.4244 44.281C39.7321 41.5323 36.0806 39.9882 32.2732 39.9882C28.4658 39.9882 24.8143 41.5323 22.122 44.281C19.4297 47.0297 17.9173 50.7577 17.9173 54.6449V65.5828C17.9178 66.1047 18.1212 66.6052 18.4827 66.9743C18.8442 67.3434 19.3344 67.551 19.8457 67.5516H44.7007C45.212 67.551 45.7022 67.3434 46.0637 66.9743C46.4252 66.6052 46.6286 66.1047 46.6292 65.5828Z" fill="#2F2E41"/>
<path d="M30.3006 109.216L31.4248 100.482L19.0888 93.1983L27.4854 83.4125L26.428 72.1646L23.1499 70.6476L23.0436 70.7791C21.4318 72.7731 7.29498 90.3235 7.24116 92.5342C7.18589 94.8049 9.64479 101.537 13.1868 103.438C16.6034 105.272 29.5103 108.989 30.058 109.146L30.3006 109.216Z" fill="#3D3D3D"/>
<path d="M8.31146 214.173H140.839C140.931 214.173 141.02 214.113 141.085 214.005C141.15 213.898 141.187 213.752 141.187 213.599C141.187 213.447 141.15 213.301 141.085 213.193C141.02 213.085 140.931 213.025 140.839 213.025H8.31146C8.21921 213.025 8.13075 213.085 8.06552 213.193C8.00029 213.301 7.96363 213.447 7.96363 213.599C7.96363 213.752 8.00029 213.898 8.06552 214.005C8.13075 214.113 8.21921 214.173 8.31146 214.173Z" fill="#CCCCCC"/>
<path d="M211.649 213.893H291.842C291.898 213.893 291.951 213.843 291.991 213.756C292.03 213.668 292.052 213.548 292.052 213.424C292.052 213.3 292.03 213.181 291.991 213.093C291.951 213.005 291.898 212.955 291.842 212.955H211.649C211.593 212.955 211.54 213.005 211.5 213.093C211.461 213.181 211.438 213.3 211.438 213.424C211.438 213.548 211.461 213.668 211.5 213.756C211.54 213.843 211.593 213.893 211.649 213.893Z" fill="#CCCCCC"/>
<path d="M298.056 59.9848C310.556 59.9848 320.69 49.8515 320.69 37.3514C320.69 24.8514 310.556 14.7181 298.056 14.7181C285.556 14.7181 275.423 24.8514 275.423 37.3514C275.423 49.8515 285.556 59.9848 298.056 59.9848Z" fill="#FF8282"/>
<path d="M293.168 31.1346L291.842 32.4604L302.946 43.5647L304.272 42.2388L293.168 31.1346Z" fill="white"/>
<path d="M304.275 32.4627L302.949 31.1368L291.845 42.2411L293.171 43.5669L304.275 32.4627Z" fill="white"/>
<path d="M143.401 42.0792C146.95 42.0792 149.826 39.2025 149.826 35.6539C149.826 32.1053 146.95 29.2286 143.401 29.2286C139.853 29.2286 136.976 32.1053 136.976 35.6539C136.976 39.2025 139.853 42.0792 143.401 42.0792Z" fill="#FF8282"/>
<path d="M142.013 33.8887L141.637 34.2651L144.789 37.4175L145.166 37.0411L142.013 33.8887Z" fill="white"/>
<path d="M145.166 34.2663L144.79 33.8899L141.637 37.0422L142.014 37.4186L145.166 34.2663Z" fill="white"/>
</svg>
