<svg width="2642" height="1262" viewBox="0 0 2642 1262" fill="none" xmlns="http://www.w3.org/2000/svg">
<g clip-path="url(#clip0_7793_21419)">
<path d="M2642 0V1231.66C2642 1248.42 2624.9 1262 2603.79 1262H0V0H2642Z" fill="url(#paint0_linear_7793_21419)"/>
<path d="M61.4259 254.822C64.1162 254.822 66.2971 252.641 66.2971 249.95C66.2971 247.259 64.1162 245.078 61.4259 245.078C58.7356 245.078 56.5547 247.259 56.5547 249.95C56.5547 252.641 58.7356 254.822 61.4259 254.822Z" fill="url(#paint1_linear_7793_21419)"/>
<path d="M108.363 254.822C111.054 254.822 113.235 252.641 113.235 249.95C113.235 247.259 111.054 245.078 108.363 245.078C105.673 245.078 103.492 247.259 103.492 249.95C103.492 252.641 105.673 254.822 108.363 254.822Z" fill="url(#paint2_linear_7793_21419)"/>
<path d="M155.299 254.822C157.989 254.822 160.17 252.641 160.17 249.95C160.17 247.259 157.989 245.078 155.299 245.078C152.609 245.078 150.428 247.259 150.428 249.95C150.428 252.641 152.609 254.822 155.299 254.822Z" fill="url(#paint3_linear_7793_21419)"/>
<path d="M202.236 254.822C204.927 254.822 207.108 252.641 207.108 249.95C207.108 247.259 204.927 245.078 202.236 245.078C199.546 245.078 197.365 247.259 197.365 249.95C197.365 252.641 199.546 254.822 202.236 254.822Z" fill="url(#paint4_linear_7793_21419)"/>
<path d="M249.159 254.822C251.849 254.822 254.03 252.641 254.03 249.95C254.03 247.259 251.849 245.078 249.159 245.078C246.469 245.078 244.288 247.259 244.288 249.95C244.288 252.641 246.469 254.822 249.159 254.822Z" fill="url(#paint5_linear_7793_21419)"/>
<path d="M61.4259 301.324C64.1162 301.324 66.2971 299.143 66.2971 296.452C66.2971 293.761 64.1162 291.58 61.4259 291.58C58.7356 291.58 56.5547 293.761 56.5547 296.452C56.5547 299.143 58.7356 301.324 61.4259 301.324Z" fill="url(#paint6_linear_7793_21419)"/>
<path d="M108.363 301.324C111.054 301.324 113.235 299.143 113.235 296.452C113.235 293.761 111.054 291.58 108.363 291.58C105.673 291.58 103.492 293.761 103.492 296.452C103.492 299.143 105.673 301.324 108.363 301.324Z" fill="url(#paint7_linear_7793_21419)"/>
<path d="M155.299 301.324C157.989 301.324 160.17 299.143 160.17 296.452C160.17 293.761 157.989 291.58 155.299 291.58C152.609 291.58 150.428 293.761 150.428 296.452C150.428 299.143 152.609 301.324 155.299 301.324Z" fill="url(#paint8_linear_7793_21419)"/>
<path d="M202.236 301.324C204.927 301.324 207.108 299.143 207.108 296.452C207.108 293.761 204.927 291.58 202.236 291.58C199.546 291.58 197.365 293.761 197.365 296.452C197.365 299.143 199.546 301.324 202.236 301.324Z" fill="url(#paint9_linear_7793_21419)"/>
<path d="M249.159 301.324C251.849 301.324 254.03 299.143 254.03 296.452C254.03 293.761 251.849 291.58 249.159 291.58C246.469 291.58 244.288 293.761 244.288 296.452C244.288 299.143 246.469 301.324 249.159 301.324Z" fill="url(#paint10_linear_7793_21419)"/>
<path d="M61.4259 347.828C64.1162 347.828 66.2971 345.646 66.2971 342.956C66.2971 340.265 64.1162 338.084 61.4259 338.084C58.7356 338.084 56.5547 340.265 56.5547 342.956C56.5547 345.646 58.7356 347.828 61.4259 347.828Z" fill="url(#paint11_linear_7793_21419)"/>
<path d="M108.363 347.828C111.054 347.828 113.235 345.646 113.235 342.956C113.235 340.265 111.054 338.084 108.363 338.084C105.673 338.084 103.492 340.265 103.492 342.956C103.492 345.646 105.673 347.828 108.363 347.828Z" fill="url(#paint12_linear_7793_21419)"/>
<path d="M155.299 347.828C157.989 347.828 160.17 345.646 160.17 342.956C160.17 340.265 157.989 338.084 155.299 338.084C152.609 338.084 150.428 340.265 150.428 342.956C150.428 345.646 152.609 347.828 155.299 347.828Z" fill="url(#paint13_linear_7793_21419)"/>
<path d="M202.236 347.828C204.927 347.828 207.108 345.646 207.108 342.956C207.108 340.265 204.927 338.084 202.236 338.084C199.546 338.084 197.365 340.265 197.365 342.956C197.365 345.646 199.546 347.828 202.236 347.828Z" fill="url(#paint14_linear_7793_21419)"/>
<path d="M249.159 347.828C251.849 347.828 254.03 345.646 254.03 342.956C254.03 340.265 251.849 338.084 249.159 338.084C246.469 338.084 244.288 340.265 244.288 342.956C244.288 345.646 246.469 347.828 249.159 347.828Z" fill="url(#paint15_linear_7793_21419)"/>
<path d="M61.4259 394.33C64.1162 394.33 66.2971 392.148 66.2971 389.458C66.2971 386.767 64.1162 384.586 61.4259 384.586C58.7356 384.586 56.5547 386.767 56.5547 389.458C56.5547 392.148 58.7356 394.33 61.4259 394.33Z" fill="url(#paint16_linear_7793_21419)"/>
<path d="M108.363 394.33C111.054 394.33 113.235 392.148 113.235 389.458C113.235 386.767 111.054 384.586 108.363 384.586C105.673 384.586 103.492 386.767 103.492 389.458C103.492 392.148 105.673 394.33 108.363 394.33Z" fill="url(#paint17_linear_7793_21419)"/>
<path d="M155.299 394.33C157.989 394.33 160.17 392.148 160.17 389.458C160.17 386.767 157.989 384.586 155.299 384.586C152.609 384.586 150.428 386.767 150.428 389.458C150.428 392.148 152.609 394.33 155.299 394.33Z" fill="url(#paint18_linear_7793_21419)"/>
<path d="M202.236 394.33C204.927 394.33 207.108 392.148 207.108 389.458C207.108 386.767 204.927 384.586 202.236 384.586C199.546 384.586 197.365 386.767 197.365 389.458C197.365 392.148 199.546 394.33 202.236 394.33Z" fill="url(#paint19_linear_7793_21419)"/>
<path d="M249.159 394.33C251.849 394.33 254.03 392.148 254.03 389.458C254.03 386.767 251.849 384.586 249.159 384.586C246.469 384.586 244.288 386.767 244.288 389.458C244.288 392.148 246.469 394.33 249.159 394.33Z" fill="url(#paint20_linear_7793_21419)"/>
<path d="M61.4259 440.82C64.1162 440.82 66.2971 438.639 66.2971 435.948C66.2971 433.257 64.1162 431.076 61.4259 431.076C58.7356 431.076 56.5547 433.257 56.5547 435.948C56.5547 438.639 58.7356 440.82 61.4259 440.82Z" fill="url(#paint21_linear_7793_21419)"/>
<path d="M108.363 440.82C111.054 440.82 113.235 438.639 113.235 435.948C113.235 433.257 111.054 431.076 108.363 431.076C105.673 431.076 103.492 433.257 103.492 435.948C103.492 438.639 105.673 440.82 108.363 440.82Z" fill="url(#paint22_linear_7793_21419)"/>
<path d="M155.299 440.82C157.989 440.82 160.17 438.639 160.17 435.948C160.17 433.257 157.989 431.076 155.299 431.076C152.609 431.076 150.428 433.257 150.428 435.948C150.428 438.639 152.609 440.82 155.299 440.82Z" fill="url(#paint23_linear_7793_21419)"/>
<path d="M202.236 440.82C204.927 440.82 207.108 438.639 207.108 435.948C207.108 433.257 204.927 431.076 202.236 431.076C199.546 431.076 197.365 433.257 197.365 435.948C197.365 438.639 199.546 440.82 202.236 440.82Z" fill="url(#paint24_linear_7793_21419)"/>
<path d="M249.159 440.82C251.849 440.82 254.03 438.639 254.03 435.948C254.03 433.257 251.849 431.076 249.159 431.076C246.469 431.076 244.288 433.257 244.288 435.948C244.288 438.639 246.469 440.82 249.159 440.82Z" fill="url(#paint25_linear_7793_21419)"/>
<path d="M2497.27 967.406C2499.86 966.709 2502.54 968.251 2503.23 970.85C2503.93 973.449 2502.39 976.121 2499.79 976.817C2497.19 977.514 2494.52 975.971 2493.82 973.372C2493.13 970.774 2494.67 968.102 2497.27 967.406Z" fill="url(#paint26_linear_7793_21419)"/>
<path d="M2542.6 955.255C2545.2 954.559 2547.87 956.101 2548.57 958.7C2549.27 961.299 2547.72 963.97 2545.13 964.667C2542.53 965.363 2539.86 963.821 2539.16 961.222C2538.46 958.623 2540.01 955.952 2542.6 955.255Z" fill="url(#paint27_linear_7793_21419)"/>
<path d="M2587.94 943.107C2590.54 942.41 2593.21 943.953 2593.91 946.551C2594.6 949.15 2593.06 951.822 2590.46 952.518C2587.86 953.215 2585.19 951.672 2584.5 949.074C2583.8 946.475 2585.34 943.803 2587.94 943.107Z" fill="url(#paint28_linear_7793_21419)"/>
<path d="M2633.28 930.954C2635.88 930.258 2638.55 931.8 2639.24 934.399C2639.94 936.998 2638.4 939.669 2635.8 940.366C2633.2 941.062 2630.53 939.52 2629.83 936.921C2629.14 934.322 2630.68 931.651 2633.28 930.954Z" fill="url(#paint29_linear_7793_21419)"/>
<path d="M2485.23 922.488C2487.83 921.791 2490.5 923.333 2491.2 925.932C2491.89 928.531 2490.35 931.203 2487.75 931.899C2485.15 932.596 2482.48 931.053 2481.79 928.454C2481.09 925.856 2482.63 923.184 2485.23 922.488Z" fill="url(#paint30_linear_7793_21419)"/>
<path d="M2530.57 910.337C2533.17 909.641 2535.84 911.183 2536.54 913.782C2537.23 916.381 2535.69 919.052 2533.09 919.749C2530.49 920.445 2527.82 918.903 2527.12 916.304C2526.43 913.705 2527.97 911.034 2530.57 910.337Z" fill="url(#paint31_linear_7793_21419)"/>
<path d="M2575.91 898.187C2578.5 897.49 2581.18 899.033 2581.87 901.632C2582.57 904.23 2581.03 906.902 2578.43 907.598C2575.83 908.295 2573.16 906.753 2572.46 904.154C2571.76 901.555 2573.31 898.883 2575.91 898.187Z" fill="url(#paint32_linear_7793_21419)"/>
<path d="M2621.24 886.036C2623.84 885.34 2626.51 886.882 2627.21 889.481C2627.91 892.08 2626.36 894.751 2623.77 895.448C2621.17 896.144 2618.5 894.602 2617.8 892.003C2617.1 889.404 2618.65 886.733 2621.24 886.036Z" fill="url(#paint33_linear_7793_21419)"/>
<path d="M2473.2 877.568C2475.8 876.871 2478.47 878.414 2479.16 881.012C2479.86 883.611 2478.32 886.283 2475.72 886.979C2473.12 887.676 2470.45 886.133 2469.75 883.535C2469.06 880.936 2470.6 878.264 2473.2 877.568Z" fill="url(#paint34_linear_7793_21419)"/>
<path d="M2518.54 865.419C2521.13 864.723 2523.81 866.265 2524.5 868.864C2525.2 871.463 2523.66 874.134 2521.06 874.831C2518.46 875.527 2515.79 873.985 2515.09 871.386C2514.39 868.787 2515.94 866.116 2518.54 865.419Z" fill="url(#paint35_linear_7793_21419)"/>
<path d="M2563.87 853.269C2566.47 852.572 2569.14 854.115 2569.84 856.714C2570.53 859.313 2568.99 861.984 2566.39 862.68C2563.79 863.377 2561.12 861.835 2560.43 859.236C2559.73 856.637 2561.27 853.965 2563.87 853.269Z" fill="url(#paint36_linear_7793_21419)"/>
<path d="M2609.21 841.119C2611.81 840.422 2614.48 841.964 2615.18 844.563C2615.87 847.162 2614.33 849.834 2611.73 850.53C2609.13 851.226 2606.46 849.684 2605.77 847.085C2605.07 844.486 2606.61 841.815 2609.21 841.119Z" fill="url(#paint37_linear_7793_21419)"/>
<path d="M2461.16 832.65C2463.76 831.953 2466.43 833.496 2467.13 836.094C2467.83 838.693 2466.28 841.365 2463.68 842.061C2461.09 842.758 2458.42 841.215 2457.72 838.617C2457.02 836.018 2458.56 833.346 2461.16 832.65Z" fill="url(#paint38_linear_7793_21419)"/>
<path d="M2506.5 820.501C2509.1 819.805 2511.77 821.347 2512.47 823.946C2513.16 826.545 2511.62 829.216 2509.02 829.913C2506.42 830.609 2503.75 829.067 2503.06 826.468C2502.36 823.869 2503.9 821.198 2506.5 820.501Z" fill="url(#paint39_linear_7793_21419)"/>
<path d="M2551.84 808.351C2554.44 807.655 2557.11 809.197 2557.8 811.796C2558.5 814.395 2556.96 817.066 2554.36 817.762C2551.76 818.459 2549.09 816.917 2548.39 814.318C2547.7 811.719 2549.24 809.047 2551.84 808.351Z" fill="url(#paint40_linear_7793_21419)"/>
<path d="M2597.18 796.203C2599.77 795.506 2602.44 797.048 2603.14 799.647C2603.84 802.246 2602.3 804.918 2599.7 805.614C2597.1 806.31 2594.43 804.768 2593.73 802.169C2593.03 799.57 2594.58 796.899 2597.18 796.203Z" fill="url(#paint41_linear_7793_21419)"/>
<path d="M2642.5 784.054C2645.1 783.358 2647.77 784.9 2648.47 787.499C2649.16 790.098 2647.62 792.769 2645.02 793.466C2642.42 794.162 2639.75 792.62 2639.06 790.021C2638.36 787.422 2639.9 784.751 2642.5 784.054Z" fill="url(#paint42_linear_7793_21419)"/>
<path d="M2449.13 787.745C2451.73 787.049 2454.4 788.591 2455.1 791.19C2455.79 793.789 2454.25 796.46 2451.65 797.157C2449.06 797.853 2446.38 796.311 2445.69 793.712C2444.99 791.113 2446.53 788.442 2449.13 787.745Z" fill="url(#paint43_linear_7793_21419)"/>
<path d="M2494.47 775.595C2497.07 774.899 2499.74 776.441 2500.44 779.04C2501.13 781.639 2499.59 784.31 2496.99 785.007C2494.39 785.703 2491.72 784.161 2491.03 781.562C2490.33 778.963 2491.87 776.292 2494.47 775.595Z" fill="url(#paint44_linear_7793_21419)"/>
<path d="M2539.81 763.447C2542.41 762.75 2545.08 764.292 2545.77 766.891C2546.47 769.49 2544.93 772.162 2542.33 772.858C2539.73 773.555 2537.06 772.012 2536.36 769.413C2535.67 766.815 2537.21 764.143 2539.81 763.447Z" fill="url(#paint45_linear_7793_21419)"/>
<path d="M2585.15 751.296C2587.74 750.6 2590.42 752.142 2591.11 754.741C2591.81 757.34 2590.27 760.011 2587.67 760.708C2585.07 761.404 2582.4 759.862 2581.7 757.263C2581.01 754.664 2582.55 751.993 2585.15 751.296Z" fill="url(#paint46_linear_7793_21419)"/>
<path d="M2630.47 739.15C2633.07 738.453 2635.74 739.996 2636.44 742.594C2637.13 745.193 2635.59 747.865 2632.99 748.561C2630.39 749.258 2627.72 747.715 2627.02 745.117C2626.33 742.518 2627.87 739.846 2630.47 739.15Z" fill="url(#paint47_linear_7793_21419)"/>
<path d="M113.221 949.625C115.911 949.625 118.092 947.443 118.092 944.753C118.092 942.062 115.911 939.881 113.221 939.881C110.531 939.881 108.35 942.062 108.35 944.753C108.35 947.443 110.531 949.625 113.221 949.625Z" fill="url(#paint48_linear_7793_21419)"/>
<path d="M160.158 949.625C162.849 949.625 165.029 947.443 165.029 944.753C165.029 942.062 162.849 939.881 160.158 939.881C157.468 939.881 155.287 942.062 155.287 944.753C155.287 947.443 157.468 949.625 160.158 949.625Z" fill="url(#paint49_linear_7793_21419)"/>
<path d="M207.094 949.625C209.784 949.625 211.965 947.443 211.965 944.753C211.965 942.062 209.784 939.881 207.094 939.881C204.404 939.881 202.223 942.062 202.223 944.753C202.223 947.443 204.404 949.625 207.094 949.625Z" fill="url(#paint50_linear_7793_21419)"/>
<path d="M254.031 949.625C256.722 949.625 258.903 947.443 258.903 944.753C258.903 942.062 256.722 939.881 254.031 939.881C251.341 939.881 249.16 942.062 249.16 944.753C249.16 947.443 251.341 949.625 254.031 949.625Z" fill="url(#paint51_linear_7793_21419)"/>
<path d="M300.968 949.625C303.659 949.625 305.84 947.443 305.84 944.753C305.84 942.062 303.659 939.881 300.968 939.881C298.278 939.881 296.097 942.062 296.097 944.753C296.097 947.443 298.278 949.625 300.968 949.625Z" fill="url(#paint52_linear_7793_21419)"/>
<path d="M113.221 996.127C115.911 996.127 118.092 993.945 118.092 991.255C118.092 988.564 115.911 986.383 113.221 986.383C110.531 986.383 108.35 988.564 108.35 991.255C108.35 993.945 110.531 996.127 113.221 996.127Z" fill="url(#paint53_linear_7793_21419)"/>
<path d="M160.158 996.127C162.849 996.127 165.029 993.945 165.029 991.255C165.029 988.564 162.849 986.383 160.158 986.383C157.468 986.383 155.287 988.564 155.287 991.255C155.287 993.945 157.468 996.127 160.158 996.127Z" fill="url(#paint54_linear_7793_21419)"/>
<path d="M207.094 996.127C209.784 996.127 211.965 993.945 211.965 991.255C211.965 988.564 209.784 986.383 207.094 986.383C204.404 986.383 202.223 988.564 202.223 991.255C202.223 993.945 204.404 996.127 207.094 996.127Z" fill="url(#paint55_linear_7793_21419)"/>
<path d="M254.031 996.127C256.722 996.127 258.903 993.945 258.903 991.255C258.903 988.564 256.722 986.383 254.031 986.383C251.341 986.383 249.16 988.564 249.16 991.255C249.16 993.945 251.341 996.127 254.031 996.127Z" fill="url(#paint56_linear_7793_21419)"/>
<path d="M300.968 996.127C303.659 996.127 305.84 993.945 305.84 991.255C305.84 988.564 303.659 986.383 300.968 986.383C298.278 986.383 296.097 988.564 296.097 991.255C296.097 993.945 298.278 996.127 300.968 996.127Z" fill="url(#paint57_linear_7793_21419)"/>
<path d="M113.221 1042.63C115.911 1042.63 118.092 1040.45 118.092 1037.76C118.092 1035.07 115.911 1032.89 113.221 1032.89C110.531 1032.89 108.35 1035.07 108.35 1037.76C108.35 1040.45 110.531 1042.63 113.221 1042.63Z" fill="url(#paint58_linear_7793_21419)"/>
<path d="M160.158 1042.63C162.849 1042.63 165.029 1040.45 165.029 1037.76C165.029 1035.07 162.849 1032.89 160.158 1032.89C157.468 1032.89 155.287 1035.07 155.287 1037.76C155.287 1040.45 157.468 1042.63 160.158 1042.63Z" fill="url(#paint59_linear_7793_21419)"/>
<path d="M207.094 1042.63C209.784 1042.63 211.965 1040.45 211.965 1037.76C211.965 1035.07 209.784 1032.89 207.094 1032.89C204.404 1032.89 202.223 1035.07 202.223 1037.76C202.223 1040.45 204.404 1042.63 207.094 1042.63Z" fill="url(#paint60_linear_7793_21419)"/>
<path d="M254.031 1042.63C256.722 1042.63 258.903 1040.45 258.903 1037.76C258.903 1035.07 256.722 1032.89 254.031 1032.89C251.341 1032.89 249.16 1035.07 249.16 1037.76C249.16 1040.45 251.341 1042.63 254.031 1042.63Z" fill="url(#paint61_linear_7793_21419)"/>
<path d="M300.968 1042.63C303.659 1042.63 305.84 1040.45 305.84 1037.76C305.84 1035.07 303.659 1032.89 300.968 1032.89C298.278 1032.89 296.097 1035.07 296.097 1037.76C296.097 1040.45 298.278 1042.63 300.968 1042.63Z" fill="url(#paint62_linear_7793_21419)"/>
<path d="M113.221 1089.13C115.911 1089.13 118.092 1086.95 118.092 1084.26C118.092 1081.57 115.911 1079.39 113.221 1079.39C110.531 1079.39 108.35 1081.57 108.35 1084.26C108.35 1086.95 110.531 1089.13 113.221 1089.13Z" fill="url(#paint63_linear_7793_21419)"/>
<path d="M160.158 1089.13C162.849 1089.13 165.029 1086.95 165.029 1084.26C165.029 1081.57 162.849 1079.39 160.158 1079.39C157.468 1079.39 155.287 1081.57 155.287 1084.26C155.287 1086.95 157.468 1089.13 160.158 1089.13Z" fill="url(#paint64_linear_7793_21419)"/>
<path d="M207.094 1089.13C209.784 1089.13 211.965 1086.95 211.965 1084.26C211.965 1081.57 209.784 1079.39 207.094 1079.39C204.404 1079.39 202.223 1081.57 202.223 1084.26C202.223 1086.95 204.404 1089.13 207.094 1089.13Z" fill="url(#paint65_linear_7793_21419)"/>
<path d="M254.031 1089.13C256.722 1089.13 258.903 1086.95 258.903 1084.26C258.903 1081.57 256.722 1079.39 254.031 1079.39C251.341 1079.39 249.16 1081.57 249.16 1084.26C249.16 1086.95 251.341 1089.13 254.031 1089.13Z" fill="url(#paint66_linear_7793_21419)"/>
<path d="M300.968 1089.13C303.659 1089.13 305.84 1086.95 305.84 1084.26C305.84 1081.57 303.659 1079.39 300.968 1079.39C298.278 1079.39 296.097 1081.57 296.097 1084.26C296.097 1086.95 298.278 1089.13 300.968 1089.13Z" fill="url(#paint67_linear_7793_21419)"/>
<path d="M113.221 1135.62C115.911 1135.62 118.092 1133.44 118.092 1130.75C118.092 1128.06 115.911 1125.88 113.221 1125.88C110.531 1125.88 108.35 1128.06 108.35 1130.75C108.35 1133.44 110.531 1135.62 113.221 1135.62Z" fill="url(#paint68_linear_7793_21419)"/>
<path d="M160.158 1135.62C162.849 1135.62 165.029 1133.44 165.029 1130.75C165.029 1128.06 162.849 1125.88 160.158 1125.88C157.468 1125.88 155.287 1128.06 155.287 1130.75C155.287 1133.44 157.468 1135.62 160.158 1135.62Z" fill="url(#paint69_linear_7793_21419)"/>
<path d="M207.094 1135.62C209.784 1135.62 211.965 1133.44 211.965 1130.75C211.965 1128.06 209.784 1125.88 207.094 1125.88C204.404 1125.88 202.223 1128.06 202.223 1130.75C202.223 1133.44 204.404 1135.62 207.094 1135.62Z" fill="url(#paint70_linear_7793_21419)"/>
<path d="M254.031 1135.62C256.722 1135.62 258.903 1133.44 258.903 1130.75C258.903 1128.06 256.722 1125.88 254.031 1125.88C251.341 1125.88 249.16 1128.06 249.16 1130.75C249.16 1133.44 251.341 1135.62 254.031 1135.62Z" fill="url(#paint71_linear_7793_21419)"/>
<path d="M300.968 1135.62C303.659 1135.62 305.84 1133.44 305.84 1130.75C305.84 1128.06 303.659 1125.88 300.968 1125.88C298.278 1125.88 296.097 1128.06 296.097 1130.75C296.097 1133.44 298.278 1135.62 300.968 1135.62Z" fill="url(#paint72_linear_7793_21419)"/>
<path d="M2385.3 321.814C2387.9 321.117 2390.57 322.66 2391.27 325.259C2391.96 327.857 2390.42 330.529 2387.82 331.225C2385.22 331.922 2382.55 330.38 2381.86 327.781C2381.16 325.182 2382.7 322.51 2385.3 321.814Z" fill="url(#paint73_linear_7793_21419)"/>
<path d="M2430.64 309.663C2433.24 308.967 2435.91 310.509 2436.6 313.108C2437.3 315.707 2435.76 318.378 2433.16 319.075C2430.56 319.771 2427.89 318.229 2427.19 315.63C2426.5 313.031 2428.04 310.36 2430.64 309.663Z" fill="url(#paint74_linear_7793_21419)"/>
<path d="M2475.97 297.515C2478.57 296.819 2481.24 298.361 2481.94 300.96C2482.64 303.559 2481.09 306.23 2478.5 306.926C2475.9 307.623 2473.23 306.081 2472.53 303.482C2471.83 300.883 2473.38 298.211 2475.97 297.515Z" fill="url(#paint75_linear_7793_21419)"/>
<path d="M2521.31 285.363C2523.91 284.666 2526.58 286.208 2527.28 288.807C2527.97 291.406 2526.43 294.078 2523.83 294.774C2521.23 295.471 2518.56 293.928 2517.87 291.329C2517.17 288.731 2518.71 286.059 2521.31 285.363Z" fill="url(#paint76_linear_7793_21419)"/>
<path d="M2566.65 273.214C2569.25 272.518 2571.92 274.06 2572.62 276.659C2573.31 279.258 2571.77 281.929 2569.17 282.626C2566.57 283.322 2563.9 281.78 2563.2 279.181C2562.51 276.582 2564.05 273.911 2566.65 273.214Z" fill="url(#paint77_linear_7793_21419)"/>
<path d="M2373.27 276.896C2375.86 276.199 2378.54 277.742 2379.23 280.341C2379.93 282.939 2378.39 285.611 2375.79 286.307C2373.19 287.004 2370.52 285.461 2369.82 282.863C2369.13 280.264 2370.67 277.592 2373.27 276.896Z" fill="url(#paint78_linear_7793_21419)"/>
<path d="M2418.6 264.745C2421.2 264.049 2423.87 265.591 2424.57 268.19C2425.27 270.789 2423.72 273.46 2421.12 274.157C2418.53 274.853 2415.85 273.311 2415.16 270.712C2414.46 268.113 2416 265.442 2418.6 264.745Z" fill="url(#paint79_linear_7793_21419)"/>
<path d="M2463.94 252.595C2466.54 251.899 2469.21 253.441 2469.91 256.04C2470.6 258.639 2469.06 261.31 2466.46 262.007C2463.86 262.703 2461.19 261.161 2460.49 258.562C2459.8 255.963 2461.34 253.292 2463.94 252.595Z" fill="url(#paint80_linear_7793_21419)"/>
<path d="M2509.28 240.445C2511.88 239.748 2514.55 241.29 2515.24 243.889C2515.94 246.488 2514.4 249.16 2511.8 249.856C2509.2 250.553 2506.53 249.01 2505.83 246.411C2505.14 243.813 2506.68 241.141 2509.28 240.445Z" fill="url(#paint81_linear_7793_21419)"/>
<path d="M2554.62 228.296C2557.21 227.6 2559.89 229.142 2560.58 231.741C2561.28 234.34 2559.74 237.011 2557.14 237.708C2554.54 238.404 2551.87 236.862 2551.17 234.263C2550.48 231.664 2552.02 228.993 2554.62 228.296Z" fill="url(#paint82_linear_7793_21419)"/>
<path d="M2361.23 231.976C2363.83 231.28 2366.5 232.822 2367.2 235.421C2367.89 238.02 2366.35 240.691 2363.75 241.387C2361.15 242.084 2358.48 240.542 2357.79 237.943C2357.09 235.344 2358.63 232.672 2361.23 231.976Z" fill="url(#paint83_linear_7793_21419)"/>
<path d="M2406.57 219.828C2409.17 219.131 2411.84 220.673 2412.54 223.272C2413.23 225.871 2411.69 228.543 2409.09 229.239C2406.49 229.935 2403.82 228.393 2403.12 225.794C2402.43 223.195 2403.97 220.524 2406.57 219.828Z" fill="url(#paint84_linear_7793_21419)"/>
<path d="M2451.91 207.677C2454.5 206.981 2457.18 208.523 2457.87 211.122C2458.57 213.721 2457.03 216.392 2454.43 217.089C2451.83 217.785 2449.16 216.243 2448.46 213.644C2447.77 211.045 2449.31 208.374 2451.91 207.677Z" fill="url(#paint85_linear_7793_21419)"/>
<path d="M2497.24 195.527C2499.84 194.83 2502.51 196.373 2503.21 198.971C2503.91 201.57 2502.36 204.242 2499.77 204.938C2497.17 205.635 2494.5 204.092 2493.8 201.494C2493.1 198.895 2494.65 196.223 2497.24 195.527Z" fill="url(#paint86_linear_7793_21419)"/>
<path d="M2542.58 183.378C2545.18 182.682 2547.85 184.224 2548.55 186.823C2549.24 189.422 2547.7 192.093 2545.1 192.79C2542.51 193.486 2539.83 191.944 2539.14 189.345C2538.44 186.746 2539.98 184.075 2542.58 183.378Z" fill="url(#paint87_linear_7793_21419)"/>
<path d="M2349.2 187.058C2351.8 186.362 2354.47 187.904 2355.16 190.503C2355.86 193.102 2354.32 195.773 2351.72 196.469C2349.12 197.166 2346.45 195.624 2345.75 193.025C2345.06 190.426 2346.6 187.754 2349.2 187.058Z" fill="url(#paint88_linear_7793_21419)"/>
<path d="M2394.54 174.91C2397.13 174.213 2399.81 175.755 2400.5 178.354C2401.2 180.953 2399.66 183.625 2397.06 184.321C2394.46 185.017 2391.79 183.475 2391.09 180.876C2390.39 178.277 2391.94 175.606 2394.54 174.91Z" fill="url(#paint89_linear_7793_21419)"/>
<path d="M2439.87 162.759C2442.47 162.063 2445.14 163.605 2445.84 166.204C2446.53 168.803 2444.99 171.474 2442.39 172.171C2439.79 172.867 2437.12 171.325 2436.43 168.726C2435.73 166.127 2437.27 163.456 2439.87 162.759Z" fill="url(#paint90_linear_7793_21419)"/>
<path d="M2485.21 150.611C2487.81 149.914 2490.48 151.457 2491.17 154.055C2491.87 156.654 2490.33 159.326 2487.73 160.022C2485.13 160.719 2482.46 159.176 2481.76 156.578C2481.07 153.979 2482.61 151.307 2485.21 150.611Z" fill="url(#paint91_linear_7793_21419)"/>
<path d="M2530.55 138.458C2533.15 137.762 2535.82 139.304 2536.51 141.903C2537.21 144.502 2535.67 147.173 2533.07 147.87C2530.47 148.566 2527.8 147.024 2527.1 144.425C2526.41 141.826 2527.95 139.155 2530.55 138.458Z" fill="url(#paint92_linear_7793_21419)"/>
<path d="M2337.17 142.154C2339.77 141.457 2342.44 142.999 2343.13 145.598C2343.83 148.197 2342.29 150.869 2339.69 151.565C2337.09 152.262 2334.42 150.719 2333.72 148.12C2333.03 145.522 2334.57 142.85 2337.17 142.154Z" fill="url(#paint93_linear_7793_21419)"/>
<path d="M2382.5 130.003C2385.1 129.307 2387.77 130.849 2388.47 133.448C2389.17 136.047 2387.62 138.718 2385.03 139.415C2382.43 140.111 2379.76 138.569 2379.06 135.97C2378.36 133.371 2379.91 130.7 2382.5 130.003Z" fill="url(#paint94_linear_7793_21419)"/>
<path d="M2427.84 117.855C2430.44 117.158 2433.11 118.701 2433.81 121.3C2434.5 123.898 2432.96 126.57 2430.36 127.266C2427.76 127.963 2425.09 126.421 2424.4 123.822C2423.7 121.223 2425.24 118.551 2427.84 117.855Z" fill="url(#paint95_linear_7793_21419)"/>
<path d="M2473.18 105.705C2475.78 105.008 2478.45 106.55 2479.15 109.149C2479.84 111.748 2478.3 114.419 2475.7 115.116C2473.1 115.812 2470.43 114.27 2469.73 111.671C2469.04 109.072 2470.58 106.401 2473.18 105.705Z" fill="url(#paint96_linear_7793_21419)"/>
<path d="M2518.52 93.5541C2521.12 92.8577 2523.79 94.3999 2524.48 96.9988C2525.18 99.5977 2523.64 102.269 2521.04 102.966C2518.44 103.662 2515.77 102.12 2515.07 99.5209C2514.38 96.922 2515.92 94.2506 2518.52 93.5541Z" fill="url(#paint97_linear_7793_21419)"/>
<path d="M439.219 461.021C439.439 460.801 439.645 460.567 439.852 460.333C445.727 453.865 448.328 446.131 448.259 438.548C448.328 430.951 445.714 423.217 439.852 416.748C439.645 416.514 439.439 416.294 439.219 416.074C439.04 415.895 438.888 415.702 438.696 415.51L272.952 249.743C260.264 237.054 239.679 237.054 226.978 249.743L61.2475 415.496C61.0686 415.675 60.9035 415.868 60.7246 416.06C60.5182 416.28 60.298 416.501 60.0916 416.735C54.2159 423.203 51.6152 430.937 51.6703 438.534C51.6015 446.117 54.2159 453.865 60.0779 460.333C60.2843 460.567 60.4907 460.788 60.7109 461.008C60.8897 461.187 61.0549 461.379 61.2338 461.572L226.978 627.339C239.665 640.027 260.251 640.027 272.952 627.339L438.682 461.586C438.861 461.407 439.026 461.214 439.205 461.035L439.219 461.021Z" fill="url(#paint98_linear_7793_21419)"/>
<path d="M2808.82 684.201C2809.09 684.356 2809.35 684.529 2809.61 684.702C2816.96 689.428 2821.48 696.226 2823.37 703.569C2825.4 710.889 2824.88 719.036 2820.89 726.802C2820.75 727.081 2820.61 727.347 2820.46 727.617C2820.33 727.836 2820.23 728.061 2820.1 728.297L2702.9 931.319C2693.93 946.859 2674.04 952.188 2658.49 943.219L2455.51 826.014C2455.29 825.888 2455.08 825.744 2454.86 825.605C2454.61 825.445 2454.34 825.29 2454.08 825.117C2446.73 820.39 2442.21 813.593 2440.3 806.24C2438.27 798.934 2438.79 790.773 2442.78 783.007C2442.92 782.728 2443.06 782.462 2443.22 782.192C2443.34 781.973 2443.45 781.744 2443.58 781.512L2560.77 578.49C2569.75 562.95 2589.63 557.621 2605.18 566.59L2808.16 683.795C2808.38 683.921 2808.59 684.064 2808.81 684.191L2808.82 684.201Z" fill="url(#paint99_linear_7793_21419)"/>
<path d="M185.04 169.685C185.091 169.634 185.139 169.58 185.187 169.525C186.553 168.022 187.157 166.224 187.141 164.461C187.157 162.695 186.549 160.897 185.187 159.393C185.139 159.338 185.091 159.287 185.04 159.236C184.998 159.194 184.963 159.15 184.918 159.105L146.388 120.568C143.439 117.618 138.653 117.618 135.7 120.568L97.1735 159.102C97.1319 159.143 97.0935 159.188 97.0519 159.233C97.0039 159.284 96.9528 159.335 96.9048 159.39C95.5389 160.893 94.9343 162.691 94.9471 164.457C94.9311 166.22 95.5389 168.022 96.9016 169.525C96.9496 169.58 96.9976 169.631 97.0487 169.682C97.0903 169.724 97.1287 169.769 97.1703 169.813L135.7 208.35C138.65 211.3 143.435 211.3 146.388 208.35L184.915 169.816C184.956 169.775 184.995 169.73 185.036 169.689L185.04 169.685Z" fill="url(#paint100_linear_7793_21419)"/>
<path d="M2638.7 1031.41C2638.76 1031.44 2638.82 1031.48 2638.88 1031.52C2640.59 1032.62 2641.64 1034.2 2642.08 1035.91C2642.55 1037.61 2642.43 1039.51 2641.5 1041.31C2641.47 1041.38 2641.44 1041.44 2641.4 1041.5C2641.37 1041.55 2641.35 1041.6 2641.32 1041.66L2614.07 1088.86C2611.99 1092.47 2607.37 1093.71 2603.75 1091.62L2556.57 1064.37C2556.51 1064.35 2556.47 1064.31 2556.41 1064.28C2556.35 1064.24 2556.29 1064.21 2556.23 1064.17C2554.52 1063.07 2553.47 1061.49 2553.03 1059.78C2552.56 1058.08 2552.68 1056.18 2553.61 1054.38C2553.64 1054.31 2553.67 1054.25 2553.71 1054.19C2553.74 1054.14 2553.76 1054.08 2553.79 1054.03L2581.03 1006.83C2583.12 1003.22 2587.74 1001.98 2591.36 1004.06L2638.54 1031.31C2638.6 1031.34 2638.64 1031.38 2638.69 1031.4L2638.7 1031.41Z" fill="url(#paint101_linear_7793_21419)"/>
<path d="M-33.396 389.913V487.143C-33.396 495.634 -23.117 499.887 -17.1174 493.887L31.4844 445.278C35.2134 441.549 35.2134 435.521 31.4844 431.791L-17.1174 383.183C-23.117 377.183 -33.396 381.435 -33.396 389.926V389.913Z" fill="url(#paint102_linear_7793_21419)"/>
<path d="M2370.71 875.225L2345.55 781.307C2343.36 773.105 2352.18 766.337 2359.53 770.58L2419.06 804.951C2423.62 807.588 2425.18 813.411 2422.55 817.979L2388.18 877.511C2383.94 884.86 2372.91 883.413 2370.71 875.211L2370.71 875.225Z" fill="url(#paint103_linear_7793_21419)"/>
<path d="M66.0498 948.154V989.568C66.0498 993.184 70.4388 994.996 73.0004 992.44L93.7525 971.736C95.3447 970.148 95.3447 967.58 93.7525 965.992L73.0004 945.288C70.4388 942.732 66.0498 944.543 66.0498 948.16V948.154Z" fill="url(#paint104_linear_7793_21419)"/>
<path d="M2340.12 335.443L2329.4 295.441C2328.46 291.947 2332.23 289.062 2335.37 290.867L2360.77 305.494C2362.72 306.616 2363.39 309.096 2362.26 311.043L2347.57 336.413C2345.76 339.544 2341.05 338.931 2340.11 335.438L2340.12 335.443Z" fill="url(#paint105_linear_7793_21419)"/>
<path d="M513.136 513.838C467.438 468.133 467.438 393.762 513.136 348.058C558.834 302.353 633.196 302.353 678.894 348.058C724.592 393.762 724.592 468.133 678.894 513.838C633.196 559.542 558.834 559.542 513.136 513.838ZM648.883 378.073C619.724 348.911 572.292 348.911 543.148 378.073C514.003 407.222 514.003 454.674 543.148 483.822C572.292 512.971 619.738 512.985 648.883 483.822C678.027 454.66 678.041 407.222 648.883 378.073Z" fill="url(#paint106_linear_7793_21419)"/>
<path d="M-133.603 768.44C-179.302 722.735 -179.302 648.364 -133.603 602.659C-87.9049 556.955 -13.5436 556.955 32.1548 602.659C77.8531 648.364 77.8531 722.735 32.1548 768.44C-13.5436 814.144 -87.9049 814.144 -133.603 768.44ZM2.14331 632.675C-27.015 603.512 -74.4472 603.512 -103.592 632.675C-132.736 661.823 -132.736 709.276 -103.592 738.424C-74.4472 767.572 -27.0013 767.586 2.14331 738.424C31.2879 709.262 31.3016 661.823 2.14331 632.675Z" fill="url(#paint107_linear_7793_21419)"/>
<path d="M293.127 853.232C280.244 840.348 280.244 819.383 293.127 806.499C306.009 793.615 326.971 793.615 339.853 806.499C352.735 819.383 352.735 840.348 339.853 853.232C326.971 866.116 306.009 866.116 293.127 853.232ZM331.393 814.96C323.173 806.739 309.802 806.739 301.587 814.96C293.371 823.177 293.371 836.554 301.587 844.771C309.802 852.987 323.177 852.991 331.393 844.771C339.609 836.55 339.613 823.177 331.393 814.96Z" fill="url(#paint108_linear_7793_21419)"/>
<path d="M2576.9 341.765C2567.79 357.545 2573.21 377.795 2588.99 386.906C2604.77 396.016 2625.02 390.59 2634.12 374.81C2643.23 359.031 2637.81 338.78 2622.03 329.67C2606.25 320.559 2586.01 325.985 2576.9 341.765ZM2623.76 368.827C2617.95 378.895 2605.04 382.357 2594.97 376.543C2584.91 370.732 2581.45 357.812 2587.26 347.748C2593.07 337.684 2605.99 334.219 2616.05 340.033C2626.11 345.846 2629.58 358.763 2623.76 368.827Z" fill="url(#paint109_linear_7793_21419)"/>
<path d="M151.626 1104.38C151.626 1104.3 151.626 1104.22 151.626 1104.13C151.516 1101.82 150.552 1099.88 149.121 1098.48C147.718 1097.05 145.777 1096.08 143.466 1095.97C143.383 1095.97 143.301 1095.97 143.218 1095.97C143.149 1095.97 143.08 1095.97 143.012 1095.97H80.9246C76.1635 1095.97 72.3105 1099.83 72.3105 1104.59V1166.68C72.3105 1166.68 72.3105 1166.82 72.3105 1166.89C72.3105 1166.97 72.3105 1167.05 72.3105 1167.14C72.4206 1169.45 73.3839 1171.39 74.8149 1172.79C76.2185 1174.22 78.1587 1175.19 80.4705 1175.3C80.553 1175.3 80.6356 1175.3 80.7182 1175.3C80.787 1175.3 80.8558 1175.3 80.9246 1175.3H143.012C147.773 1175.3 151.626 1171.44 151.626 1166.68V1104.59C151.626 1104.59 151.626 1104.45 151.626 1104.38Z" fill="url(#paint110_linear_7793_21419)"/>
<path d="M2382.35 162.388C2382.37 162.468 2382.39 162.547 2382.41 162.627C2382.9 164.889 2382.48 167.013 2381.46 168.739C2380.47 170.485 2378.85 171.917 2376.64 172.622C2376.56 172.644 2376.48 172.665 2376.4 172.686C2376.34 172.704 2376.27 172.722 2376.2 172.74L2316.23 188.811C2311.63 190.044 2306.91 187.319 2305.68 182.719L2289.61 122.74C2289.61 122.74 2289.58 122.607 2289.56 122.54C2289.54 122.461 2289.52 122.381 2289.49 122.301C2289 120.039 2289.43 117.916 2290.45 116.189C2291.44 114.444 2293.06 113.011 2295.26 112.306C2295.34 112.285 2295.42 112.263 2295.5 112.242C2295.57 112.224 2295.64 112.206 2295.7 112.188L2355.67 96.117C2360.27 94.8846 2364.99 97.6094 2366.22 102.209L2382.29 162.188C2382.29 162.188 2382.33 162.321 2382.35 162.388Z" fill="url(#paint111_linear_7793_21419)"/>
<path d="M218.543 1043.25C218.543 1043.11 218.543 1042.97 218.529 1042.84C218.337 1038.94 216.727 1035.67 214.305 1033.3C211.924 1030.88 208.663 1029.25 204.755 1029.07C204.618 1029.07 204.48 1029.07 204.342 1029.06C204.232 1029.06 204.122 1029.06 203.998 1029.06H99.2541C91.2318 1029.06 84.7231 1035.57 84.7231 1043.59V1148.34C84.7231 1148.45 84.7231 1148.57 84.7231 1148.68C84.7231 1148.82 84.7231 1148.96 84.7369 1149.1C84.9296 1152.99 86.5395 1156.27 88.9614 1158.65C91.3419 1161.07 94.6031 1162.69 98.5111 1162.87C98.6487 1162.87 98.7863 1162.87 98.9239 1162.88C99.034 1162.88 99.1441 1162.88 99.2679 1162.88H204.012C212.035 1162.88 218.543 1156.38 218.543 1148.35V1043.61C218.543 1043.5 218.543 1043.39 218.543 1043.26V1043.25Z" fill="url(#paint112_linear_7793_21419)"/>
<path d="M2462.8 204.116C2462.84 204.249 2462.88 204.382 2462.9 204.518C2463.72 208.33 2463.01 211.91 2461.29 214.824C2459.61 217.78 2456.88 220.192 2453.15 221.377C2453.02 221.412 2452.89 221.448 2452.76 221.497C2452.65 221.526 2452.55 221.554 2452.43 221.586L2351.25 248.7C2343.5 250.776 2335.53 246.173 2333.46 238.423L2306.35 137.248C2306.32 137.141 2306.29 137.022 2306.26 136.915C2306.22 136.782 2306.19 136.649 2306.17 136.513C2305.34 132.701 2306.05 129.12 2307.78 126.194C2309.45 123.238 2312.18 120.825 2315.91 119.641C2316.04 119.605 2316.17 119.57 2316.3 119.521C2316.41 119.492 2316.51 119.464 2316.63 119.432L2417.81 92.3182C2425.56 90.2416 2433.53 94.8445 2435.61 102.595L2462.71 203.77C2462.74 203.876 2462.77 203.983 2462.8 204.102L2462.8 204.116Z" fill="url(#paint113_linear_7793_21419)"/>
</g>
<defs>
<linearGradient id="paint0_linear_7793_21419" x1="5045.99" y1="830.068" x2="-201.138" y2="385.279" gradientUnits="userSpaceOnUse">
<stop stop-color="#001F80"/>
<stop offset="1" stop-color="#0C61FF"/>
</linearGradient>
<linearGradient id="paint1_linear_7793_21419" x1="-132.417" y1="-150.629" x2="360.891" y2="868.512" gradientUnits="userSpaceOnUse">
<stop stop-color="#001F80"/>
<stop offset="1" stop-color="#0C61FF"/>
</linearGradient>
<linearGradient id="paint2_linear_7793_21419" x1="-94.3964" y1="-169.029" x2="398.912" y2="850.112" gradientUnits="userSpaceOnUse">
<stop stop-color="#001F80"/>
<stop offset="1" stop-color="#0C61FF"/>
</linearGradient>
<linearGradient id="paint3_linear_7793_21419" x1="-56.3638" y1="-187.443" x2="436.945" y2="831.698" gradientUnits="userSpaceOnUse">
<stop stop-color="#001F80"/>
<stop offset="1" stop-color="#0C61FF"/>
</linearGradient>
<linearGradient id="paint4_linear_7793_21419" x1="-18.3431" y1="-205.843" x2="474.965" y2="813.298" gradientUnits="userSpaceOnUse">
<stop stop-color="#001F80"/>
<stop offset="1" stop-color="#0C61FF"/>
</linearGradient>
<linearGradient id="paint5_linear_7793_21419" x1="19.69" y1="-224.257" x2="512.999" y2="794.884" gradientUnits="userSpaceOnUse">
<stop stop-color="#001F80"/>
<stop offset="1" stop-color="#0C61FF"/>
</linearGradient>
<linearGradient id="paint6_linear_7793_21419" x1="-150.65" y1="-141.808" x2="342.659" y2="877.333" gradientUnits="userSpaceOnUse">
<stop stop-color="#001F80"/>
<stop offset="1" stop-color="#0C61FF"/>
</linearGradient>
<linearGradient id="paint7_linear_7793_21419" x1="-112.629" y1="-160.208" x2="380.68" y2="858.933" gradientUnits="userSpaceOnUse">
<stop stop-color="#001F80"/>
<stop offset="1" stop-color="#0C61FF"/>
</linearGradient>
<linearGradient id="paint8_linear_7793_21419" x1="-74.5964" y1="-178.622" x2="418.712" y2="840.519" gradientUnits="userSpaceOnUse">
<stop stop-color="#001F80"/>
<stop offset="1" stop-color="#0C61FF"/>
</linearGradient>
<linearGradient id="paint9_linear_7793_21419" x1="-36.5757" y1="-197.022" x2="456.733" y2="822.119" gradientUnits="userSpaceOnUse">
<stop stop-color="#001F80"/>
<stop offset="1" stop-color="#0C61FF"/>
</linearGradient>
<linearGradient id="paint10_linear_7793_21419" x1="1.45747" y1="-215.436" x2="494.766" y2="803.718" gradientUnits="userSpaceOnUse">
<stop stop-color="#001F80"/>
<stop offset="1" stop-color="#0C61FF"/>
</linearGradient>
<linearGradient id="paint11_linear_7793_21419" x1="-168.882" y1="-132.985" x2="324.426" y2="886.169" gradientUnits="userSpaceOnUse">
<stop stop-color="#001F80"/>
<stop offset="1" stop-color="#0C61FF"/>
</linearGradient>
<linearGradient id="paint12_linear_7793_21419" x1="-130.848" y1="-151.385" x2="362.447" y2="867.756" gradientUnits="userSpaceOnUse">
<stop stop-color="#001F80"/>
<stop offset="1" stop-color="#0C61FF"/>
</linearGradient>
<linearGradient id="paint13_linear_7793_21419" x1="-92.829" y1="-169.785" x2="400.48" y2="849.355" gradientUnits="userSpaceOnUse">
<stop stop-color="#001F80"/>
<stop offset="1" stop-color="#0C61FF"/>
</linearGradient>
<linearGradient id="paint14_linear_7793_21419" x1="-54.7944" y1="-188.199" x2="438.5" y2="830.941" gradientUnits="userSpaceOnUse">
<stop stop-color="#001F80"/>
<stop offset="1" stop-color="#0C61FF"/>
</linearGradient>
<linearGradient id="paint15_linear_7793_21419" x1="-16.7751" y1="-206.599" x2="476.533" y2="812.541" gradientUnits="userSpaceOnUse">
<stop stop-color="#001F80"/>
<stop offset="1" stop-color="#0C61FF"/>
</linearGradient>
<linearGradient id="paint16_linear_7793_21419" x1="-187.115" y1="-124.149" x2="306.192" y2="894.99" gradientUnits="userSpaceOnUse">
<stop stop-color="#001F80"/>
<stop offset="1" stop-color="#0C61FF"/>
</linearGradient>
<linearGradient id="paint17_linear_7793_21419" x1="-149.08" y1="-142.563" x2="344.213" y2="876.576" gradientUnits="userSpaceOnUse">
<stop stop-color="#001F80"/>
<stop offset="1" stop-color="#0C61FF"/>
</linearGradient>
<linearGradient id="paint18_linear_7793_21419" x1="-111.061" y1="-160.963" x2="382.245" y2="858.176" gradientUnits="userSpaceOnUse">
<stop stop-color="#001F80"/>
<stop offset="1" stop-color="#0C61FF"/>
</linearGradient>
<linearGradient id="paint19_linear_7793_21419" x1="-73.027" y1="-179.377" x2="420.266" y2="839.762" gradientUnits="userSpaceOnUse">
<stop stop-color="#001F80"/>
<stop offset="1" stop-color="#0C61FF"/>
</linearGradient>
<linearGradient id="paint20_linear_7793_21419" x1="-35.0077" y1="-197.777" x2="458.299" y2="821.362" gradientUnits="userSpaceOnUse">
<stop stop-color="#001F80"/>
<stop offset="1" stop-color="#0C61FF"/>
</linearGradient>
<linearGradient id="paint21_linear_7793_21419" x1="-205.347" y1="-115.326" x2="287.959" y2="903.813" gradientUnits="userSpaceOnUse">
<stop stop-color="#001F80"/>
<stop offset="1" stop-color="#0C61FF"/>
</linearGradient>
<linearGradient id="paint22_linear_7793_21419" x1="-167.313" y1="-133.74" x2="325.994" y2="885.413" gradientUnits="userSpaceOnUse">
<stop stop-color="#001F80"/>
<stop offset="1" stop-color="#0C61FF"/>
</linearGradient>
<linearGradient id="paint23_linear_7793_21419" x1="-129.294" y1="-152.14" x2="364.013" y2="866.999" gradientUnits="userSpaceOnUse">
<stop stop-color="#001F80"/>
<stop offset="1" stop-color="#0C61FF"/>
</linearGradient>
<linearGradient id="paint24_linear_7793_21419" x1="-91.2596" y1="-170.554" x2="402.047" y2="848.599" gradientUnits="userSpaceOnUse">
<stop stop-color="#001F80"/>
<stop offset="1" stop-color="#0C61FF"/>
</linearGradient>
<linearGradient id="paint25_linear_7793_21419" x1="-53.2402" y1="-188.954" x2="440.067" y2="830.185" gradientUnits="userSpaceOnUse">
<stop stop-color="#001F80"/>
<stop offset="1" stop-color="#0C61FF"/>
</linearGradient>
<linearGradient id="paint26_linear_7793_21419" x1="2414.94" y1="1409.21" x2="2627.6" y2="297.09" gradientUnits="userSpaceOnUse">
<stop stop-color="#001F80"/>
<stop offset="1" stop-color="#0C61FF"/>
</linearGradient>
<linearGradient id="paint27_linear_7793_21419" x1="2456.42" y1="1417.14" x2="2669.09" y2="305.021" gradientUnits="userSpaceOnUse">
<stop stop-color="#001F80"/>
<stop offset="1" stop-color="#0C61FF"/>
</linearGradient>
<linearGradient id="paint28_linear_7793_21419" x1="2497.93" y1="1425.09" x2="2710.59" y2="312.963" gradientUnits="userSpaceOnUse">
<stop stop-color="#001F80"/>
<stop offset="1" stop-color="#0C61FF"/>
</linearGradient>
<linearGradient id="paint29_linear_7793_21419" x1="2539.41" y1="1433.01" x2="2752.07" y2="320.892" gradientUnits="userSpaceOnUse">
<stop stop-color="#001F80"/>
<stop offset="1" stop-color="#0C61FF"/>
</linearGradient>
<linearGradient id="paint30_linear_7793_21419" x1="2395.04" y1="1405.41" x2="2607.7" y2="293.288" gradientUnits="userSpaceOnUse">
<stop stop-color="#001F80"/>
<stop offset="1" stop-color="#0C61FF"/>
</linearGradient>
<linearGradient id="paint31_linear_7793_21419" x1="2436.53" y1="1413.34" x2="2649.19" y2="301.219" gradientUnits="userSpaceOnUse">
<stop stop-color="#001F80"/>
<stop offset="1" stop-color="#0C61FF"/>
</linearGradient>
<linearGradient id="paint32_linear_7793_21419" x1="2478.03" y1="1421.28" x2="2690.69" y2="309.159" gradientUnits="userSpaceOnUse">
<stop stop-color="#001F80"/>
<stop offset="1" stop-color="#0C61FF"/>
</linearGradient>
<linearGradient id="paint33_linear_7793_21419" x1="2519.52" y1="1429.21" x2="2732.18" y2="317.09" gradientUnits="userSpaceOnUse">
<stop stop-color="#001F80"/>
<stop offset="1" stop-color="#0C61FF"/>
</linearGradient>
<linearGradient id="paint34_linear_7793_21419" x1="2375.15" y1="1401.61" x2="2587.8" y2="289.471" gradientUnits="userSpaceOnUse">
<stop stop-color="#001F80"/>
<stop offset="1" stop-color="#0C61FF"/>
</linearGradient>
<linearGradient id="paint35_linear_7793_21419" x1="2416.65" y1="1409.54" x2="2629.29" y2="297.417" gradientUnits="userSpaceOnUse">
<stop stop-color="#001F80"/>
<stop offset="1" stop-color="#0C61FF"/>
</linearGradient>
<linearGradient id="paint36_linear_7793_21419" x1="2458.13" y1="1417.47" x2="2670.79" y2="305.344" gradientUnits="userSpaceOnUse">
<stop stop-color="#001F80"/>
<stop offset="1" stop-color="#0C61FF"/>
</linearGradient>
<linearGradient id="paint37_linear_7793_21419" x1="2499.63" y1="1425.41" x2="2712.28" y2="313.288" gradientUnits="userSpaceOnUse">
<stop stop-color="#001F80"/>
<stop offset="1" stop-color="#0C61FF"/>
</linearGradient>
<linearGradient id="paint38_linear_7793_21419" x1="2355.25" y1="1397.79" x2="2567.91" y2="285.67" gradientUnits="userSpaceOnUse">
<stop stop-color="#001F80"/>
<stop offset="1" stop-color="#0C61FF"/>
</linearGradient>
<linearGradient id="paint39_linear_7793_21419" x1="2396.75" y1="1405.73" x2="2609.4" y2="293.616" gradientUnits="userSpaceOnUse">
<stop stop-color="#001F80"/>
<stop offset="1" stop-color="#0C61FF"/>
</linearGradient>
<linearGradient id="paint40_linear_7793_21419" x1="2438.23" y1="1413.66" x2="2650.89" y2="301.543" gradientUnits="userSpaceOnUse">
<stop stop-color="#001F80"/>
<stop offset="1" stop-color="#0C61FF"/>
</linearGradient>
<linearGradient id="paint41_linear_7793_21419" x1="2479.74" y1="1421.61" x2="2692.38" y2="309.489" gradientUnits="userSpaceOnUse">
<stop stop-color="#001F80"/>
<stop offset="1" stop-color="#0C61FF"/>
</linearGradient>
<linearGradient id="paint42_linear_7793_21419" x1="2521.22" y1="1429.54" x2="2733.88" y2="317.415" gradientUnits="userSpaceOnUse">
<stop stop-color="#001F80"/>
<stop offset="1" stop-color="#0C61FF"/>
</linearGradient>
<linearGradient id="paint43_linear_7793_21419" x1="2335.35" y1="1393.99" x2="2548.01" y2="281.869" gradientUnits="userSpaceOnUse">
<stop stop-color="#001F80"/>
<stop offset="1" stop-color="#0C61FF"/>
</linearGradient>
<linearGradient id="paint44_linear_7793_21419" x1="2376.85" y1="1401.93" x2="2589.51" y2="289.796" gradientUnits="userSpaceOnUse">
<stop stop-color="#001F80"/>
<stop offset="1" stop-color="#0C61FF"/>
</linearGradient>
<linearGradient id="paint45_linear_7793_21419" x1="2418.34" y1="1409.86" x2="2631" y2="297.742" gradientUnits="userSpaceOnUse">
<stop stop-color="#001F80"/>
<stop offset="1" stop-color="#0C61FF"/>
</linearGradient>
<linearGradient id="paint46_linear_7793_21419" x1="2459.84" y1="1417.8" x2="2672.5" y2="305.669" gradientUnits="userSpaceOnUse">
<stop stop-color="#001F80"/>
<stop offset="1" stop-color="#0C61FF"/>
</linearGradient>
<linearGradient id="paint47_linear_7793_21419" x1="2501.33" y1="1425.73" x2="2713.99" y2="313.613" gradientUnits="userSpaceOnUse">
<stop stop-color="#001F80"/>
<stop offset="1" stop-color="#0C61FF"/>
</linearGradient>
<linearGradient id="paint48_linear_7793_21419" x1="-80.6222" y1="544.173" x2="412.688" y2="1563.32" gradientUnits="userSpaceOnUse">
<stop stop-color="#001F80"/>
<stop offset="1" stop-color="#0C61FF"/>
</linearGradient>
<linearGradient id="paint49_linear_7793_21419" x1="-42.5877" y1="525.773" x2="450.709" y2="1544.92" gradientUnits="userSpaceOnUse">
<stop stop-color="#001F80"/>
<stop offset="1" stop-color="#0C61FF"/>
</linearGradient>
<linearGradient id="paint50_linear_7793_21419" x1="-4.56848" y1="507.359" x2="488.742" y2="1526.5" gradientUnits="userSpaceOnUse">
<stop stop-color="#001F80"/>
<stop offset="1" stop-color="#0C61FF"/>
</linearGradient>
<linearGradient id="paint51_linear_7793_21419" x1="33.4661" y1="488.959" x2="526.777" y2="1508.1" gradientUnits="userSpaceOnUse">
<stop stop-color="#001F80"/>
<stop offset="1" stop-color="#0C61FF"/>
</linearGradient>
<linearGradient id="paint52_linear_7793_21419" x1="71.4858" y1="470.545" x2="564.796" y2="1489.69" gradientUnits="userSpaceOnUse">
<stop stop-color="#001F80"/>
<stop offset="1" stop-color="#0C61FF"/>
</linearGradient>
<linearGradient id="paint53_linear_7793_21419" x1="-98.8548" y1="552.994" x2="394.455" y2="1572.14" gradientUnits="userSpaceOnUse">
<stop stop-color="#001F80"/>
<stop offset="1" stop-color="#0C61FF"/>
</linearGradient>
<linearGradient id="paint54_linear_7793_21419" x1="-60.8203" y1="534.594" x2="432.49" y2="1553.74" gradientUnits="userSpaceOnUse">
<stop stop-color="#001F80"/>
<stop offset="1" stop-color="#0C61FF"/>
</linearGradient>
<linearGradient id="paint55_linear_7793_21419" x1="-22.801" y1="516.18" x2="470.51" y2="1535.32" gradientUnits="userSpaceOnUse">
<stop stop-color="#001F80"/>
<stop offset="1" stop-color="#0C61FF"/>
</linearGradient>
<linearGradient id="paint56_linear_7793_21419" x1="15.2335" y1="497.78" x2="508.544" y2="1516.92" gradientUnits="userSpaceOnUse">
<stop stop-color="#001F80"/>
<stop offset="1" stop-color="#0C61FF"/>
</linearGradient>
<linearGradient id="paint57_linear_7793_21419" x1="53.2533" y1="479.366" x2="546.564" y2="1498.51" gradientUnits="userSpaceOnUse">
<stop stop-color="#001F80"/>
<stop offset="1" stop-color="#0C61FF"/>
</linearGradient>
<linearGradient id="paint58_linear_7793_21419" x1="-117.087" y1="561.821" x2="376.216" y2="1580.97" gradientUnits="userSpaceOnUse">
<stop stop-color="#001F80"/>
<stop offset="1" stop-color="#0C61FF"/>
</linearGradient>
<linearGradient id="paint59_linear_7793_21419" x1="-79.0528" y1="543.421" x2="414.251" y2="1562.56" gradientUnits="userSpaceOnUse">
<stop stop-color="#001F80"/>
<stop offset="1" stop-color="#0C61FF"/>
</linearGradient>
<linearGradient id="paint60_linear_7793_21419" x1="-41.0197" y1="525.021" x2="452.271" y2="1544.16" gradientUnits="userSpaceOnUse">
<stop stop-color="#001F80"/>
<stop offset="1" stop-color="#0C61FF"/>
</linearGradient>
<linearGradient id="paint61_linear_7793_21419" x1="-2.999" y1="506.607" x2="490.305" y2="1525.74" gradientUnits="userSpaceOnUse">
<stop stop-color="#001F80"/>
<stop offset="1" stop-color="#0C61FF"/>
</linearGradient>
<linearGradient id="paint62_linear_7793_21419" x1="35.0345" y1="488.207" x2="528.324" y2="1507.34" gradientUnits="userSpaceOnUse">
<stop stop-color="#001F80"/>
<stop offset="1" stop-color="#0C61FF"/>
</linearGradient>
<linearGradient id="paint63_linear_7793_21419" x1="-135.306" y1="570.651" x2="357.99" y2="1589.79" gradientUnits="userSpaceOnUse">
<stop stop-color="#001F80"/>
<stop offset="1" stop-color="#0C61FF"/>
</linearGradient>
<linearGradient id="paint64_linear_7793_21419" x1="-97.2854" y1="552.237" x2="396.025" y2="1571.38" gradientUnits="userSpaceOnUse">
<stop stop-color="#001F80"/>
<stop offset="1" stop-color="#0C61FF"/>
</linearGradient>
<linearGradient id="paint65_linear_7793_21419" x1="-59.2523" y1="533.837" x2="434.045" y2="1552.98" gradientUnits="userSpaceOnUse">
<stop stop-color="#001F80"/>
<stop offset="1" stop-color="#0C61FF"/>
</linearGradient>
<linearGradient id="paint66_linear_7793_21419" x1="-21.2315" y1="515.423" x2="472.079" y2="1534.56" gradientUnits="userSpaceOnUse">
<stop stop-color="#001F80"/>
<stop offset="1" stop-color="#0C61FF"/>
</linearGradient>
<linearGradient id="paint67_linear_7793_21419" x1="16.8019" y1="497.023" x2="510.098" y2="1516.16" gradientUnits="userSpaceOnUse">
<stop stop-color="#001F80"/>
<stop offset="1" stop-color="#0C61FF"/>
</linearGradient>
<linearGradient id="paint68_linear_7793_21419" x1="-153.539" y1="579.479" x2="339.751" y2="1598.62" gradientUnits="userSpaceOnUse">
<stop stop-color="#001F80"/>
<stop offset="1" stop-color="#0C61FF"/>
</linearGradient>
<linearGradient id="paint69_linear_7793_21419" x1="-115.518" y1="561.063" x2="377.785" y2="1580.21" gradientUnits="userSpaceOnUse">
<stop stop-color="#001F80"/>
<stop offset="1" stop-color="#0C61FF"/>
</linearGradient>
<linearGradient id="paint70_linear_7793_21419" x1="-77.4848" y1="542.663" x2="415.819" y2="1561.8" gradientUnits="userSpaceOnUse">
<stop stop-color="#001F80"/>
<stop offset="1" stop-color="#0C61FF"/>
</linearGradient>
<linearGradient id="paint71_linear_7793_21419" x1="-39.464" y1="524.251" x2="453.84" y2="1543.4" gradientUnits="userSpaceOnUse">
<stop stop-color="#001F80"/>
<stop offset="1" stop-color="#0C61FF"/>
</linearGradient>
<linearGradient id="paint72_linear_7793_21419" x1="-1.43064" y1="505.849" x2="491.873" y2="1524.99" gradientUnits="userSpaceOnUse">
<stop stop-color="#001F80"/>
<stop offset="1" stop-color="#0C61FF"/>
</linearGradient>
<linearGradient id="paint73_linear_7793_21419" x1="2302.97" y1="763.621" x2="2515.64" y2="-348.5" gradientUnits="userSpaceOnUse">
<stop stop-color="#001F80"/>
<stop offset="1" stop-color="#0C61FF"/>
</linearGradient>
<linearGradient id="paint74_linear_7793_21419" x1="2344.47" y1="771.549" x2="2557.12" y2="-340.572" gradientUnits="userSpaceOnUse">
<stop stop-color="#001F80"/>
<stop offset="1" stop-color="#0C61FF"/>
</linearGradient>
<linearGradient id="paint75_linear_7793_21419" x1="2385.96" y1="779.495" x2="2598.62" y2="-332.629" gradientUnits="userSpaceOnUse">
<stop stop-color="#001F80"/>
<stop offset="1" stop-color="#0C61FF"/>
</linearGradient>
<linearGradient id="paint76_linear_7793_21419" x1="2427.46" y1="787.42" x2="2640.12" y2="-324.704" gradientUnits="userSpaceOnUse">
<stop stop-color="#001F80"/>
<stop offset="1" stop-color="#0C61FF"/>
</linearGradient>
<linearGradient id="paint77_linear_7793_21419" x1="2468.95" y1="795.366" x2="2681.61" y2="-316.758" gradientUnits="userSpaceOnUse">
<stop stop-color="#001F80"/>
<stop offset="1" stop-color="#0C61FF"/>
</linearGradient>
<linearGradient id="paint78_linear_7793_21419" x1="2283.08" y1="759.82" x2="2495.74" y2="-352.304" gradientUnits="userSpaceOnUse">
<stop stop-color="#001F80"/>
<stop offset="1" stop-color="#0C61FF"/>
</linearGradient>
<linearGradient id="paint79_linear_7793_21419" x1="2324.58" y1="767.747" x2="2537.24" y2="-344.377" gradientUnits="userSpaceOnUse">
<stop stop-color="#001F80"/>
<stop offset="1" stop-color="#0C61FF"/>
</linearGradient>
<linearGradient id="paint80_linear_7793_21419" x1="2366.06" y1="775.691" x2="2578.73" y2="-336.433" gradientUnits="userSpaceOnUse">
<stop stop-color="#001F80"/>
<stop offset="1" stop-color="#0C61FF"/>
</linearGradient>
<linearGradient id="paint81_linear_7793_21419" x1="2407.56" y1="783.618" x2="2620.23" y2="-328.505" gradientUnits="userSpaceOnUse">
<stop stop-color="#001F80"/>
<stop offset="1" stop-color="#0C61FF"/>
</linearGradient>
<linearGradient id="paint82_linear_7793_21419" x1="2449.05" y1="791.564" x2="2661.72" y2="-320.56" gradientUnits="userSpaceOnUse">
<stop stop-color="#001F80"/>
<stop offset="1" stop-color="#0C61FF"/>
</linearGradient>
<linearGradient id="paint83_linear_7793_21419" x1="2263.18" y1="756.012" x2="2475.83" y2="-356.118" gradientUnits="userSpaceOnUse">
<stop stop-color="#001F80"/>
<stop offset="1" stop-color="#0C61FF"/>
</linearGradient>
<linearGradient id="paint84_linear_7793_21419" x1="2304.68" y1="763.941" x2="2517.34" y2="-348.176" gradientUnits="userSpaceOnUse">
<stop stop-color="#001F80"/>
<stop offset="1" stop-color="#0C61FF"/>
</linearGradient>
<linearGradient id="paint85_linear_7793_21419" x1="2346.18" y1="771.868" x2="2558.82" y2="-340.245" gradientUnits="userSpaceOnUse">
<stop stop-color="#001F80"/>
<stop offset="1" stop-color="#0C61FF"/>
</linearGradient>
<linearGradient id="paint86_linear_7793_21419" x1="2387.67" y1="779.812" x2="2600.33" y2="-332.304" gradientUnits="userSpaceOnUse">
<stop stop-color="#001F80"/>
<stop offset="1" stop-color="#0C61FF"/>
</linearGradient>
<linearGradient id="paint87_linear_7793_21419" x1="2429.17" y1="787.741" x2="2641.81" y2="-324.372" gradientUnits="userSpaceOnUse">
<stop stop-color="#001F80"/>
<stop offset="1" stop-color="#0C61FF"/>
</linearGradient>
<linearGradient id="paint88_linear_7793_21419" x1="2243.3" y1="752.198" x2="2455.94" y2="-359.923" gradientUnits="userSpaceOnUse">
<stop stop-color="#001F80"/>
<stop offset="1" stop-color="#0C61FF"/>
</linearGradient>
<linearGradient id="paint89_linear_7793_21419" x1="2284.79" y1="760.144" x2="2497.45" y2="-351.98" gradientUnits="userSpaceOnUse">
<stop stop-color="#001F80"/>
<stop offset="1" stop-color="#0C61FF"/>
</linearGradient>
<linearGradient id="paint90_linear_7793_21419" x1="2326.28" y1="768.071" x2="2538.93" y2="-344.049" gradientUnits="userSpaceOnUse">
<stop stop-color="#001F80"/>
<stop offset="1" stop-color="#0C61FF"/>
</linearGradient>
<linearGradient id="paint91_linear_7793_21419" x1="2367.77" y1="776.017" x2="2580.44" y2="-336.107" gradientUnits="userSpaceOnUse">
<stop stop-color="#001F80"/>
<stop offset="1" stop-color="#0C61FF"/>
</linearGradient>
<linearGradient id="paint92_linear_7793_21419" x1="2409.27" y1="783.942" x2="2621.92" y2="-328.178" gradientUnits="userSpaceOnUse">
<stop stop-color="#001F80"/>
<stop offset="1" stop-color="#0C61FF"/>
</linearGradient>
<linearGradient id="paint93_linear_7793_21419" x1="2223.4" y1="748.392" x2="2436.04" y2="-363.722" gradientUnits="userSpaceOnUse">
<stop stop-color="#001F80"/>
<stop offset="1" stop-color="#0C61FF"/>
</linearGradient>
<linearGradient id="paint94_linear_7793_21419" x1="2264.89" y1="756.336" x2="2477.54" y2="-355.795" gradientUnits="userSpaceOnUse">
<stop stop-color="#001F80"/>
<stop offset="1" stop-color="#0C61FF"/>
</linearGradient>
<linearGradient id="paint95_linear_7793_21419" x1="2306.39" y1="764.265" x2="2519.05" y2="-347.852" gradientUnits="userSpaceOnUse">
<stop stop-color="#001F80"/>
<stop offset="1" stop-color="#0C61FF"/>
</linearGradient>
<linearGradient id="paint96_linear_7793_21419" x1="2347.88" y1="772.209" x2="2560.53" y2="-339.921" gradientUnits="userSpaceOnUse">
<stop stop-color="#001F80"/>
<stop offset="1" stop-color="#0C61FF"/>
</linearGradient>
<linearGradient id="paint97_linear_7793_21419" x1="2389.37" y1="780.136" x2="2602.03" y2="-331.981" gradientUnits="userSpaceOnUse">
<stop stop-color="#001F80"/>
<stop offset="1" stop-color="#0C61FF"/>
</linearGradient>
<linearGradient id="paint98_linear_7793_21419" x1="240.367" y1="1696.51" x2="256.543" y2="-417.732" gradientUnits="userSpaceOnUse">
<stop stop-color="#001F80"/>
<stop offset="1" stop-color="#0C61FF"/>
</linearGradient>
<linearGradient id="paint99_linear_7793_21419" x1="2297.02" y1="-457.716" x2="2859.92" y2="1580.26" gradientUnits="userSpaceOnUse">
<stop stop-color="#001F80"/>
<stop offset="1" stop-color="#0C61FF"/>
</linearGradient>
<linearGradient id="paint100_linear_7793_21419" x1="138.813" y1="456.908" x2="142.574" y2="-34.6052" gradientUnits="userSpaceOnUse">
<stop stop-color="#001F80"/>
<stop offset="1" stop-color="#0C61FF"/>
</linearGradient>
<linearGradient id="paint101_linear_7793_21419" x1="2519.72" y1="765.937" x2="2650.58" y2="1239.72" gradientUnits="userSpaceOnUse">
<stop stop-color="#001F80"/>
<stop offset="1" stop-color="#0C61FF"/>
</linearGradient>
<linearGradient id="paint102_linear_7793_21419" x1="-9.33514" y1="1694.59" x2="6.83088" y2="-419.639" gradientUnits="userSpaceOnUse">
<stop stop-color="#001F80"/>
<stop offset="1" stop-color="#0C61FF"/>
</linearGradient>
<linearGradient id="paint103_linear_7793_21419" x1="2056.32" y1="-391.229" x2="2619.21" y2="1646.74" gradientUnits="userSpaceOnUse">
<stop stop-color="#001F80"/>
<stop offset="1" stop-color="#0C61FF"/>
</linearGradient>
<linearGradient id="paint104_linear_7793_21419" x1="76.3233" y1="1503.86" x2="83.192" y2="603.341" gradientUnits="userSpaceOnUse">
<stop stop-color="#001F80"/>
<stop offset="1" stop-color="#0C61FF"/>
</linearGradient>
<linearGradient id="paint105_linear_7793_21419" x1="2206.23" y1="-203.985" x2="2445.96" y2="664.054" gradientUnits="userSpaceOnUse">
<stop stop-color="#001F80"/>
<stop offset="1" stop-color="#0C61FF"/>
</linearGradient>
<linearGradient id="paint106_linear_7793_21419" x1="583.753" y1="2034.12" x2="599.919" y2="-80.1168" gradientUnits="userSpaceOnUse">
<stop stop-color="#001F80"/>
<stop offset="1" stop-color="#0C61FF"/>
</linearGradient>
<linearGradient id="paint107_linear_7793_21419" x1="-62.9867" y1="2288.72" x2="-46.8207" y2="174.485" gradientUnits="userSpaceOnUse">
<stop stop-color="#001F80"/>
<stop offset="1" stop-color="#0C61FF"/>
</linearGradient>
<linearGradient id="paint108_linear_7793_21419" x1="313.033" y1="1281.79" x2="317.59" y2="685.798" gradientUnits="userSpaceOnUse">
<stop stop-color="#001F80"/>
<stop offset="1" stop-color="#0C61FF"/>
</linearGradient>
<linearGradient id="paint109_linear_7793_21419" x1="2485.22" y1="-77.3467" x2="2643.89" y2="497.151" gradientUnits="userSpaceOnUse">
<stop stop-color="#001F80"/>
<stop offset="1" stop-color="#0C61FF"/>
</linearGradient>
<linearGradient id="paint110_linear_7793_21419" x1="409.867" y1="935.587" x2="-276.092" y2="1396.1" gradientUnits="userSpaceOnUse">
<stop stop-color="#001F80"/>
<stop offset="1" stop-color="#0C61FF"/>
</linearGradient>
<linearGradient id="paint111_linear_7793_21419" x1="2675.47" y1="258.584" x2="1893.72" y2="-8.70475" gradientUnits="userSpaceOnUse">
<stop stop-color="#001F80"/>
<stop offset="1" stop-color="#0C61FF"/>
</linearGradient>
<linearGradient id="paint112_linear_7793_21419" x1="403.841" y1="926.6" x2="-282.132" y2="1387.11" gradientUnits="userSpaceOnUse">
<stop stop-color="#001F80"/>
<stop offset="1" stop-color="#0C61FF"/>
</linearGradient>
<linearGradient id="paint113_linear_7793_21419" x1="2671.98" y1="268.825" x2="1890.22" y2="1.53999" gradientUnits="userSpaceOnUse">
<stop stop-color="#001F80"/>
<stop offset="1" stop-color="#0C61FF"/>
</linearGradient>
<clipPath id="clip0_7793_21419">
<rect width="2642" height="1262" fill="white"/>
</clipPath>
</defs>
</svg>
