<svg width="11" height="15" viewBox="0 0 11 15" fill="none" xmlns="http://www.w3.org/2000/svg">
<path id="path23973" fill-rule="evenodd" clip-rule="evenodd" d="M6.63078 14.8713C6.28629 15.0354 5.94181 15.0551 5.59731 14.8573L2.3042 12.9595C1.17975 12.1832 0.332574 11.1998 0.341873 9.57646V2.11327L1.79132 1.27647V4.98479L2.55867 4.54104V0.836839L4.00809 0L4.00928 3.70811L4.02383 3.6997L5.03496 3.11593C5.32778 2.94688 5.74603 2.95818 6.06326 3.14101L8.82261 4.73119C9.71727 5.24679 10.6583 6.54608 10.6583 7.96331V11.9433C10.6583 12.4306 10.453 12.6679 9.64971 13.1316L8.74751 13.6525C9.05789 13.4345 9.20892 12.8636 9.20892 11.9656V8.90611C9.20892 7.34303 8.48307 6.20766 7.28411 5.51673L4.64277 3.99454C4.24776 3.75815 3.89449 3.77438 3.48957 4.00817L3.56684 3.96355L3.53845 3.97867L2.87893 4.35792V4.35795C3.11791 4.26209 3.53973 4.26274 3.8465 4.41745L6.60583 6.00763C7.50051 6.52322 8.44158 7.82251 8.44158 9.23977V13.2198C8.44158 13.7071 8.23618 13.9443 7.43294 14.4081L6.63982 14.866C6.64576 14.8626 6.65154 14.8591 6.6573 14.8555C6.64853 14.8608 6.63967 14.8661 6.63072 14.8713L6.63078 14.8713ZM1.79132 5.10486V8.80364C1.79132 10.5901 2.50352 11.4022 3.72839 12.108L6.98791 13.983C6.99218 13.8688 6.99221 13.751 6.99221 13.6335V13.107L6.9855 13.1033L4.52096 11.683C3.39653 10.9068 2.55866 10.2466 2.55866 8.29999V5.34743L2.42606 5.27098C2.20695 5.13987 2.00068 5.08652 1.79132 5.10486H1.79132ZM6.99222 11.435V10.1826C6.99222 8.6195 6.26636 7.48413 5.0674 6.79317L4.00809 6.18269V7.80999C4.00809 9.64691 4.46496 9.96752 5.94518 10.8316L6.99222 11.435Z" fill="white"/>
</svg>
