<svg width="11" height="16" viewBox="0 0 11 16" fill="none" xmlns="http://www.w3.org/2000/svg">
<path fill-rule="evenodd" clip-rule="evenodd" d="M6.28899 15.3713C5.94449 15.5354 5.60001 15.5551 5.25551 15.3573L1.96241 13.4595C0.837957 12.6832 -0.00922331 11.6998 7.58161e-05 10.0765V2.61327L1.44952 1.77647V5.48479L2.21687 5.04104V1.33684L3.66629 0.5L3.66748 4.20811L3.68204 4.1997L4.69316 3.61593C4.98598 3.44688 5.40423 3.45818 5.72147 3.64101L8.48081 5.23119C9.37547 5.74679 10.3165 7.04608 10.3165 8.46331V12.4433C10.3165 12.9306 10.1112 13.1679 9.30792 13.6316L8.40571 14.1525C8.7161 13.9345 8.86712 13.3636 8.86712 12.4656V9.40611C8.86712 7.84303 8.14127 6.70766 6.94231 6.01673L4.30097 4.49454C3.90596 4.25815 3.55269 4.27438 3.14777 4.50817L3.22505 4.46355L3.19666 4.47867L2.53713 4.85792V4.85795C2.77611 4.76209 3.19794 4.76274 3.50471 4.91745L6.26403 6.50763C7.15871 7.02322 8.09979 8.32251 8.09979 9.73977V13.7198C8.09979 14.2071 7.89438 14.4443 7.09114 14.9081L6.29802 15.366C6.30396 15.3626 6.30974 15.3591 6.3155 15.3555C6.30673 15.3608 6.29787 15.3661 6.28893 15.3713L6.28899 15.3713ZM1.44952 5.60486V9.30364C1.44952 11.0901 2.16172 11.9022 3.38659 12.608L6.64612 14.483C6.65038 14.3688 6.65041 14.251 6.65041 14.1335V13.607L6.6437 13.6033L4.17916 12.183C3.05474 11.4068 2.21686 10.7466 2.21686 8.79999V5.84743L2.08427 5.77098C1.86515 5.63987 1.65888 5.58652 1.44952 5.60486H1.44952ZM6.65042 11.935V10.6826C6.65042 9.1195 5.92456 7.98413 4.7256 7.29317L3.66629 6.68269V8.30999C3.66629 10.1469 4.12316 10.4675 5.60339 11.3316L6.65042 11.935Z" fill="#0C61FF"/>
</svg>
