<svg width="105" height="66" viewBox="0 0 105 66" fill="none" xmlns="http://www.w3.org/2000/svg">
<path fill-rule="evenodd" clip-rule="evenodd" d="M27.2942 65.1221C25.7991 65.8344 24.304 65.9198 22.8089 65.0613L8.51684 56.8249C3.63673 53.4561 -0.0400292 49.1881 0.000329042 42.1426V9.75242L6.29093 6.12068V22.2148L9.62122 20.2889V4.21269L15.9117 0.580811L15.9169 16.674L15.98 16.6375L20.3683 14.1039C21.6392 13.3703 23.4544 13.4193 24.8312 14.2128L36.8067 21.1142C40.6896 23.3519 44.7738 28.9908 44.7738 35.1416V52.4149C44.7738 54.5297 43.8825 55.5594 40.3964 57.5721L36.4808 59.8328C37.8279 58.8865 38.4833 56.409 38.4833 52.5115V39.2333C38.4833 32.4495 35.3331 27.5221 30.1296 24.5234L18.6662 17.9171C16.9519 16.8912 15.4187 16.9616 13.6613 17.9763L13.9967 17.7826L13.8735 17.8482L11.0111 19.4942V19.4943C12.0483 19.0783 13.879 19.0811 15.2104 19.7525L27.1859 26.6539C31.0688 28.8916 35.1531 34.5305 35.1531 40.6814V57.9547C35.1531 60.0694 34.2616 61.0992 30.7755 63.112L27.3334 65.0993C27.3592 65.0844 27.3843 65.0692 27.4093 65.0535C27.3712 65.0767 27.3328 65.0996 27.2939 65.1221L27.2942 65.1221ZM6.29093 22.7359V38.7886C6.29093 46.5417 9.38186 50.0662 14.6978 53.1297L28.8441 61.2671C28.8627 60.7712 28.8628 60.26 28.8628 59.75V57.4651L28.8337 57.4492L18.1376 51.285C13.2576 47.9162 9.62118 45.0511 9.62118 36.6028V23.7887L9.04572 23.4569C8.09475 22.8879 7.19954 22.6563 6.29091 22.7359H6.29093ZM28.8628 50.2088V44.7732C28.8628 37.9895 25.7126 33.0619 20.5091 30.0632L15.9117 27.4137V34.4762C15.9117 42.4484 17.8945 43.8398 24.3187 47.59L28.8628 50.2088Z" fill="white"/>
<path fill-rule="evenodd" clip-rule="evenodd" d="M54.6279 41.5551V37.6946C54.6279 36.7532 54.8534 36.0518 55.2961 35.582C55.7388 35.1122 56.3237 34.8761 57.048 34.8761C57.8004 34.8761 58.4012 35.1114 58.8449 35.582C59.2884 36.0527 59.5131 36.7605 59.5131 37.6946V41.3863C59.5131 45.1563 60.3723 48.1969 64.7913 48.1969C69.2988 48.1969 70.0245 45.2412 70.0245 41.4772V37.6946C70.0245 36.7479 70.2435 36.0366 70.6815 35.5713C71.1194 35.1061 71.7091 34.8761 72.4447 34.8761C73.1746 34.8761 73.7699 35.1061 74.2247 35.5713C74.6794 36.0366 74.9097 36.7496 74.9097 37.6946V41.5551C74.9097 43.3503 74.7251 45.3052 74.3593 46.5015C73.9916 47.7044 73.3 48.5513 72.2762 49.4572C70.0963 51.386 68.0639 51.8286 65.1393 51.8286C62.0662 51.8286 59.3474 51.4707 57.0818 49.3343C56.236 48.5367 55.6126 47.7207 55.2175 46.4749C54.8229 45.2305 54.6279 43.2879 54.6279 41.5551Z" fill="white"/>
<path fill-rule="evenodd" clip-rule="evenodd" d="M56.7598 24.3749V27.0954C57.9266 25.5812 60.8139 25.3439 62.4753 26.318C63.5576 26.9529 64.2365 28.3071 64.2213 29.4826C64.2015 31.0008 63.4389 31.9611 61.9944 32.5838C60.6375 33.1687 58.787 32.8719 57.6894 32.5293C57.1092 32.3483 56.7598 32.078 56.7598 32.085C56.7598 32.4783 56.6588 32.5305 56.4549 32.7318C56.2502 32.9347 55.9897 33.0365 55.6766 33.0365C55.358 33.0365 55.1026 32.9344 54.9122 32.7318C54.723 32.5308 54.6274 32.2303 54.6274 31.8364V24.4669C54.6274 24.0414 54.7201 23.8682 54.9038 23.6513C55.0886 23.4331 55.3467 23.3257 55.6766 23.3257C56.0237 23.3257 56.291 23.4316 56.4777 23.6382C56.6657 23.846 56.7598 23.9922 56.7598 24.3749V24.3749ZM59.5815 31.6403C61.0666 31.6403 62.1629 30.7204 62.0995 29.244C62.0385 27.823 60.95 27.3587 59.7799 27.3209C58.1455 27.2681 56.8983 28.0976 56.848 29.2714C56.7895 30.6349 58.2366 31.6403 59.5815 31.6403ZM71.442 31.9551C70.81 32.4101 69.4127 33.0364 67.8776 33.0364C65.4668 33.0364 64.0819 29.9628 67.6262 28.5881C68.8051 28.1307 70.5273 28.1426 71.2925 28.17C71.2644 27.6159 71.1458 27.5549 70.9343 27.2979C70.3618 26.6021 68.0928 26.671 67.4156 27.6511C67.2105 27.9481 67.0645 28.1435 66.9785 28.2392C66.8925 28.335 66.7077 28.3813 66.4285 28.3813C66.1745 28.3813 65.9552 28.3042 65.7712 28.1528C65.5886 28.0023 65.4949 27.8086 65.4949 27.5723C65.4949 26.2309 68.0074 25.8432 69.455 25.8432C70.4449 25.8432 71.3884 25.9537 71.9553 26.1716C72.5221 26.3895 72.9228 26.7336 73.157 27.2062C73.3912 27.6789 73.5096 28.0023 73.5096 28.7821C73.5096 29.2759 73.5044 29.09 73.5044 29.4338C73.4979 30.286 73.3244 30.5239 73.5997 31.3584C73.7898 31.9351 74.0355 32.4925 73.484 32.8244C72.9762 33.13 72.5004 33.1853 72.0568 32.7878C71.8316 32.5859 71.6963 32.3387 71.4425 31.9551L71.442 31.9551ZM71.2925 28.933C70.9527 28.9473 69.943 28.9618 69.1697 29.1602C68.0583 29.4455 67.5142 29.9073 67.486 30.4579C67.4302 31.5493 69.1716 31.7035 69.9916 31.4766C70.5552 31.3206 71.1208 31.077 71.1978 30.7839C71.3225 30.3092 71.2925 29.7424 71.2925 29.2325V28.933ZM77.6769 27.0198V27.2745C78.0747 26.7859 78.5091 26.4288 78.9801 26.2005C79.4511 25.9719 80.3168 25.859 80.929 25.859C81.5241 25.859 82.0544 25.9798 82.5255 26.2213C82.9935 26.4604 83.3434 26.8019 83.5747 27.243C83.7242 27.5003 83.8216 27.7764 83.865 28.0755C83.9084 28.3718 83.93 28.4496 83.93 28.9109V31.7709C83.93 32.1905 83.8256 32.509 83.6197 32.7242C83.414 32.9395 83.143 33.0471 82.8131 33.0471C82.4773 33.0471 82.2028 32.9371 81.9923 32.7163C81.7831 32.4966 81.6792 32.1806 81.6792 31.7709V29.318C81.6792 26.9769 78.4729 27.1217 77.9843 28.4356C77.8688 28.7459 77.818 29.3316 77.818 30.1899V31.7709C77.818 32.1957 77.7104 32.5144 77.4992 32.7268C77.2881 32.9394 77.0141 33.0471 76.6813 33.0471C76.3569 33.0471 76.0887 32.9367 75.8802 32.7163C75.6717 32.4959 75.5671 32.1806 75.5671 31.7709V27.0513C75.5671 26.6521 75.6596 26.3519 75.8463 26.1559C76.0345 25.9583 76.2891 25.859 76.6136 25.859C76.811 25.859 76.9916 25.9036 77.1495 25.9903C77.3102 26.0769 77.4372 26.2083 77.5331 26.3816C77.629 26.5549 77.6769 26.7708 77.6769 27.0198ZM92.9278 32.292C92.5838 32.5597 92.1486 32.7764 91.6247 32.9406C91.1026 33.1044 90.5134 33.1875 89.8562 33.1875C88.4628 33.1875 87.2127 32.8082 86.4307 32.053C84.5229 30.2104 85.1133 27.5758 87.3473 26.3869C88.0274 26.0249 88.9987 25.8432 89.9409 25.8432C90.5246 25.8432 91.0609 25.9218 91.5486 26.0823C92.0337 26.2419 92.4484 26.4475 92.7868 26.6995C93.3658 27.1306 94.3058 28.1488 93.3693 28.6404C92.439 29.1287 92.1282 28.407 91.5205 28.01C90.1214 27.0962 87.5815 27.522 87.5584 29.4144C87.5274 31.978 90.7989 32.1792 91.9575 30.8959C92.1424 30.6912 92.2439 30.477 92.4032 30.3444C92.5623 30.2121 92.7585 30.1424 92.9899 30.1424C93.2664 30.1424 93.333 30.2423 93.5133 30.4364C94.131 31.1015 93.5249 31.8272 92.9278 32.292ZM103.457 32.0772C102.477 33.0157 101.216 33.2539 99.8525 33.2539C98.4745 33.2539 97.2527 33.01 96.265 32.0641C95.3886 31.225 95.0228 30.1871 95.0988 29.1946C95.2849 26.7657 97.4984 25.7082 99.8525 25.7082C102.397 25.7082 104.769 27.0579 104.636 29.6394C104.591 30.5104 104.194 31.3714 103.457 32.0772ZM99.8525 27.2681C98.3023 27.2681 97.375 28.2898 97.3263 29.5103C97.2684 30.9636 98.3277 31.6938 99.8525 31.6938C101.298 31.6938 102.439 30.9736 102.422 29.5884C102.404 28.1611 101.385 27.2681 99.8525 27.2681Z" fill="white"/>
<path fill-rule="evenodd" clip-rule="evenodd" d="M84.3217 39.7564V49.2301C84.3217 50.105 84.1139 50.6132 83.704 51.0517C83.2941 51.4902 82.7494 51.7095 82.0756 51.7095C81.4185 51.7095 80.8784 51.4891 80.4641 51.0571C80.0496 50.6249 79.8408 50.1179 79.8408 49.2301V37.4354C79.8408 36.4299 80.1149 35.7519 80.6606 35.4031C81.2076 35.0534 81.952 34.879 82.8786 34.879H84.3947C85.3042 34.879 85.9622 34.96 86.3712 35.1143C86.7802 35.2685 87.0971 35.5513 87.2864 35.9593L92.2614 46.6801L97.2364 35.9593C97.4258 35.5512 97.7371 35.2685 98.1461 35.1143C98.5551 34.96 99.2185 34.879 100.128 34.879H101.639C102.571 34.879 103.315 35.0534 103.862 35.4031C104.408 35.7519 104.682 36.4321 104.682 37.4354V49.2301C104.682 50.1051 104.474 50.6132 104.064 51.0517C103.654 51.4902 103.104 51.7095 102.419 51.7095C101.773 51.7095 101.239 51.4892 100.824 51.0517C100.41 50.6142 100.201 50.1072 100.201 49.2301V39.7564L95.5771 49.6179C94.9753 50.9015 93.8044 51.7095 92.2614 51.7095C90.6898 51.7095 89.4591 50.7109 88.8915 49.3959L84.3217 39.7564Z" fill="white"/>
</svg>
