<svg width="75" height="46" viewBox="0 0 75 46" fill="none" xmlns="http://www.w3.org/2000/svg">
<path fill-rule="evenodd" clip-rule="evenodd" d="M18.6916 44.8184C17.6678 45.3062 16.6439 45.3647 15.62 44.7767L5.83251 39.1363C2.49051 36.8292 -0.0274128 33.9065 0.000225335 29.0816V6.90005L4.30816 4.41296V15.4346L6.58882 14.1157V3.10633L10.8967 0.619141L10.9002 11.6401L10.9435 11.6151L13.9487 9.88006C14.8189 9.37763 16.062 9.41123 17.0049 9.95461L25.206 14.6808C27.8651 16.2132 30.662 20.0749 30.662 24.2871V36.1162C30.662 37.5645 30.0517 38.2696 27.6643 39.648L24.9828 41.1962C25.9053 40.5481 26.3542 38.8514 26.3542 36.1824V27.0892C26.3542 22.4435 24.1969 19.0691 20.6334 17.0156L12.783 12.4914C11.609 11.7888 10.559 11.8371 9.35556 12.5319L9.58524 12.3993L9.50085 12.4442L7.54066 13.5714V13.5715C8.25094 13.2866 9.50466 13.2885 10.4164 13.7483L18.6175 18.4745C21.2766 20.007 24.0736 23.8686 24.0736 28.0809V39.91C24.0736 41.3582 23.4631 42.0634 21.0757 43.4418L18.7185 44.8028C18.7361 44.7926 18.7533 44.7821 18.7704 44.7714C18.7444 44.7873 18.7181 44.803 18.6915 44.8184L18.6916 44.8184ZM4.30816 15.7914V26.7846C4.30816 32.0941 6.4249 34.5078 10.0654 36.6057L19.7531 42.1784C19.7658 41.8388 19.7658 41.4887 19.7658 41.1395V39.5747L19.7459 39.5638L12.421 35.3425C9.07905 33.0354 6.58879 31.0733 6.58879 25.2877V16.5124L6.1947 16.2851C5.54345 15.8955 4.9304 15.7369 4.30815 15.7914H4.30816ZM19.7659 34.6054V30.883C19.7659 26.2374 17.6085 22.8629 14.0451 20.8093L10.8967 18.9949V23.8314C10.8967 29.291 12.2546 30.2438 16.654 32.812L19.7659 34.6054Z" fill="#3CD2A2"/>
<path fill-rule="evenodd" clip-rule="evenodd" d="M38.8705 16.9139V18.7769C39.6696 17.7399 41.6469 17.5774 42.7846 18.2445C43.5258 18.6793 43.9907 19.6067 43.9803 20.4117C43.9667 21.4514 43.4445 22.109 42.4553 22.5355C41.5261 22.936 40.2588 22.7328 39.5071 22.4981C39.1098 22.3742 38.8705 22.1891 38.8705 22.1939C38.8705 22.4632 38.8013 22.499 38.6617 22.6368C38.5215 22.7757 38.3431 22.8455 38.1287 22.8455C37.9105 22.8455 37.7356 22.7756 37.6052 22.6368C37.4756 22.4992 37.4102 22.2934 37.4102 22.0236V16.9769C37.4102 16.6854 37.4737 16.5668 37.5995 16.4183C37.726 16.2689 37.9028 16.1953 38.1287 16.1953C38.3664 16.1953 38.5494 16.2678 38.6773 16.4093C38.806 16.5516 38.8705 16.6517 38.8705 16.9139V16.9139ZM40.8028 21.8893C41.8199 21.8893 42.5707 21.2594 42.5272 20.2483C42.4855 19.2752 41.7401 18.9572 40.9387 18.9313C39.8195 18.8952 38.9653 19.4633 38.9309 20.2671C38.8909 21.2008 39.8819 21.8893 40.8028 21.8893ZM48.9252 22.1049C48.4924 22.4165 47.5355 22.8454 46.4842 22.8454C44.8332 22.8454 43.8848 20.7406 46.312 19.7991C47.1194 19.4859 48.2987 19.494 48.8228 19.5128C48.8035 19.1333 48.7223 19.0916 48.5775 18.9155C48.1854 18.4391 46.6316 18.4863 46.1678 19.1574C46.0273 19.3609 45.9274 19.4946 45.8685 19.5602C45.8096 19.6258 45.683 19.6575 45.4918 19.6575C45.3179 19.6575 45.1677 19.6047 45.0417 19.501C44.9167 19.3979 44.8525 19.2653 44.8525 19.1035C44.8525 18.1849 46.5731 17.9194 47.5645 17.9194C48.2424 17.9194 48.8885 17.995 49.2767 18.1443C49.6649 18.2935 49.9393 18.5291 50.0996 18.8528C50.26 19.1765 50.3411 19.3979 50.3411 19.932C50.3411 20.2702 50.3376 20.1428 50.3376 20.3783C50.3331 20.9619 50.2143 21.1248 50.4028 21.6963C50.533 22.0912 50.7013 22.473 50.3236 22.7002C49.9758 22.9095 49.65 22.9474 49.3462 22.6752C49.192 22.5369 49.0994 22.3676 48.9255 22.105L48.9252 22.1049ZM48.8228 20.0353C48.5901 20.0451 47.8986 20.055 47.3691 20.1909C46.6079 20.3863 46.2354 20.7025 46.216 21.0796C46.1778 21.827 47.3704 21.9326 47.9319 21.7772C48.3179 21.6704 48.7052 21.5036 48.758 21.3029C48.8433 20.9778 48.8228 20.5896 48.8228 20.2404V20.0353ZM53.195 18.7251V18.8996C53.4674 18.565 53.7648 18.3204 54.0874 18.1641C54.41 18.0075 55.0028 17.9302 55.4221 17.9302C55.8296 17.9302 56.1928 18.0129 56.5154 18.1783C56.8359 18.342 57.0755 18.5759 57.2339 18.878C57.3363 19.0542 57.403 19.2432 57.4327 19.4481C57.4624 19.651 57.4772 19.7043 57.4772 20.0202V21.9788C57.4772 22.2661 57.4058 22.4842 57.2647 22.6316C57.1239 22.7791 56.9383 22.8528 56.7123 22.8528C56.4824 22.8528 56.2944 22.7774 56.1503 22.6262C56.007 22.4758 55.9358 22.2593 55.9358 21.9788V20.299C55.9358 18.6957 53.7401 18.7949 53.4055 19.6947C53.3264 19.9072 53.2916 20.3083 53.2916 20.896V21.9788C53.2916 22.2697 53.2179 22.488 53.0733 22.6334C52.9287 22.779 52.7411 22.8528 52.5132 22.8528C52.291 22.8528 52.1074 22.7772 51.9645 22.6262C51.8218 22.4753 51.7501 22.2593 51.7501 21.9788V18.7467C51.7501 18.4733 51.8135 18.2678 51.9413 18.1335C52.0702 17.9982 52.2446 17.9302 52.4668 17.9302C52.602 17.9302 52.7256 17.9607 52.8338 18.0201C52.9439 18.0794 53.0308 18.1694 53.0965 18.288C53.1622 18.4068 53.195 18.5546 53.195 18.7251ZM63.6391 22.3357C63.4036 22.519 63.1055 22.6674 62.7467 22.7798C62.3892 22.892 61.9856 22.9489 61.5356 22.9489C60.5814 22.9489 59.7253 22.6891 59.1897 22.1719C57.8833 20.9101 58.2875 19.1059 59.8175 18.2917C60.2832 18.0438 60.9484 17.9194 61.5936 17.9194C61.9934 17.9194 62.3606 17.9732 62.6946 18.0831C63.0268 18.1924 63.3108 18.3332 63.5425 18.5058C63.9391 18.801 64.5828 19.4983 63.9415 19.8349C63.3044 20.1694 63.0915 19.6751 62.6754 19.4032C61.7172 18.7774 59.9778 19.0691 59.962 20.365C59.9408 22.1206 62.1812 22.2584 62.9746 21.3796C63.1013 21.2394 63.1708 21.0927 63.2799 21.0019C63.3888 20.9113 63.5232 20.8635 63.6816 20.8635C63.871 20.8635 63.9166 20.9319 64.0401 21.0649C64.4631 21.5203 64.048 22.0173 63.6391 22.3357ZM70.8497 22.1885C70.1785 22.8312 69.3148 22.9943 68.3813 22.9943C67.4376 22.9943 66.6009 22.8273 65.9245 22.1796C65.3243 21.6049 65.0738 20.8942 65.1258 20.2145C65.2533 18.5511 66.7691 17.8269 68.3813 17.8269C70.1238 17.8269 71.7481 18.7512 71.6569 20.519C71.6262 21.1155 71.3545 21.7052 70.8497 22.1885ZM68.3813 18.8952C67.3197 18.8952 66.6847 19.5949 66.6513 20.4307C66.6116 21.4259 67.3371 21.926 68.3813 21.926C69.3711 21.926 70.1527 21.4328 70.1409 20.4841C70.1287 19.5067 69.4307 18.8952 68.3813 18.8952Z" fill="#3CD2A2"/>
<path fill-rule="evenodd" clip-rule="evenodd" d="M37.4102 28.6793V26.0355C37.4102 25.3909 37.5646 24.9105 37.8678 24.5889C38.1709 24.2671 38.5715 24.1054 39.0675 24.1054C39.5828 24.1054 39.9943 24.2665 40.2981 24.5889C40.6018 24.9112 40.7557 25.3958 40.7557 26.0355V28.5638C40.7557 31.1455 41.3441 33.2278 44.3703 33.2278C47.4571 33.2278 47.9541 31.2036 47.9541 28.626V26.0355C47.9541 25.3872 48.1041 24.9001 48.404 24.5815C48.7039 24.2629 49.1078 24.1054 49.6115 24.1054C50.1113 24.1054 50.519 24.2629 50.8305 24.5815C51.1419 24.9001 51.2996 25.3884 51.2996 26.0355V28.6793C51.2996 29.9087 51.1732 31.2475 50.9227 32.0667C50.6709 32.8905 50.1972 33.4705 49.4961 34.0909C48.0033 35.4117 46.6115 35.7148 44.6086 35.7148C42.5041 35.7148 40.6422 35.4698 39.0907 34.0067C38.5115 33.4605 38.0845 32.9017 37.814 32.0485C37.5437 31.1963 37.4102 29.866 37.4102 28.6793Z" fill="#3CD2A2"/>
<path fill-rule="evenodd" clip-rule="evenodd" d="M57.7462 27.4471V33.9349C57.7462 34.534 57.6039 34.882 57.3232 35.1823C57.0425 35.4827 56.6695 35.6328 56.208 35.6328C55.7581 35.6328 55.3882 35.4819 55.1044 35.186C54.8206 34.8901 54.6776 34.5429 54.6776 33.9349V25.8576C54.6776 25.1691 54.8653 24.7048 55.239 24.4659C55.6136 24.2264 56.1234 24.107 56.7579 24.107H57.7962C58.4191 24.107 58.8697 24.1624 59.1497 24.2681C59.4299 24.3737 59.6468 24.5674 59.7765 24.8468L63.1835 32.1886L66.5905 24.8468C66.7202 24.5673 66.9334 24.3737 67.2135 24.2681C67.4936 24.1624 67.9479 24.107 68.5708 24.107H69.6053C70.2436 24.107 70.7534 24.2264 71.1279 24.4659C71.5017 24.7048 71.6894 25.1706 71.6894 25.8576V33.9349C71.6894 34.5341 71.5471 34.882 71.2664 35.1823C70.9856 35.4827 70.6088 35.6328 70.1397 35.6328C69.6975 35.6328 69.3315 35.4819 69.0476 35.1823C68.7639 34.8827 68.6208 34.5355 68.6208 33.9349V27.4471L65.4541 34.2005C65.042 35.0795 64.2402 35.6328 63.1835 35.6328C62.1072 35.6328 61.2644 34.949 60.8757 34.0485L57.7462 27.4471Z" fill="#3CD2A2"/>
<path fill-rule="evenodd" clip-rule="evenodd" d="M73.364 22.2456C73.8157 22.2456 74.2247 22.4287 74.5208 22.7247C74.8168 23.0208 75 23.4297 75 23.8815C75 24.3333 74.8168 24.7424 74.5208 25.0384C74.2247 25.3345 73.8157 25.5176 73.364 25.5176C72.9121 25.5176 72.5032 25.3345 72.2071 25.0384C71.9112 24.7424 71.728 24.3333 71.728 23.8815C71.728 23.4297 71.9112 23.0208 72.2071 22.7247C72.5032 22.4287 72.9121 22.2456 73.364 22.2456ZM74.3786 22.867C74.1189 22.6073 73.7602 22.4467 73.364 22.4467C72.9677 22.4467 72.609 22.6073 72.3494 22.867C72.0898 23.1265 71.9291 23.4853 71.9291 23.8815C71.9291 24.2778 72.0897 24.6365 72.3494 24.8962C72.609 25.1558 72.9677 25.3165 73.364 25.3165C73.7602 25.3165 74.1189 25.1558 74.3786 24.8962C74.6383 24.6365 74.7989 24.2778 74.7989 23.8815C74.7989 23.4853 74.6383 23.1265 74.3786 22.867Z" fill="#3CD2A2"/>
<path fill-rule="evenodd" clip-rule="evenodd" d="M73.1559 24.005H73.0184V24.6262C73.0184 24.7083 73.0002 24.7683 72.9643 24.807C72.9282 24.8458 72.8809 24.8652 72.8232 24.8652C72.7606 24.8652 72.7118 24.8449 72.6775 24.8043C72.6433 24.7637 72.6262 24.7047 72.6262 24.6262V23.1364C72.6262 23.0521 72.6453 22.9907 72.683 22.9529C72.7209 22.9151 72.7822 22.8961 72.8665 22.8961H73.5044C73.5922 22.8961 73.6676 22.8997 73.7302 22.9074C73.7929 22.9151 73.8492 22.9299 73.8993 22.9529C73.9601 22.9786 74.0138 23.0151 74.0607 23.0625C74.107 23.1102 74.1427 23.1657 74.1666 23.2284C74.191 23.2915 74.203 23.3582 74.203 23.429C74.203 23.5732 74.1625 23.6886 74.0809 23.7752C73.9993 23.8613 73.8758 23.9225 73.7104 23.9586C73.7798 23.9956 73.8465 24.0502 73.9101 24.1223C73.9732 24.1944 74.0299 24.2715 74.0795 24.3526C74.1292 24.4343 74.1679 24.5072 74.1959 24.5731C74.2234 24.6385 74.2374 24.6835 74.2374 24.7083C74.2374 24.7336 74.2292 24.7588 74.213 24.784C74.1967 24.8093 74.1746 24.8291 74.1462 24.8435C74.1184 24.8579 74.0853 24.8652 74.0484 24.8652C74.0047 24.8652 73.9677 24.8548 73.9375 24.8341C73.9078 24.8134 73.8821 24.7872 73.8604 24.7557C73.8388 24.7241 73.8095 24.6772 73.7725 24.6159L73.6151 24.3545C73.5588 24.2588 73.5083 24.1859 73.4641 24.1358C73.4195 24.0853 73.3744 24.051 73.3284 24.0325C73.2828 24.0141 73.2252 24.005 73.1558 24.005H73.1559ZM73.3804 23.1909H73.0184V23.7238H73.3696C73.4638 23.7238 73.5431 23.7156 73.6077 23.6994C73.6716 23.6832 73.7207 23.6553 73.7545 23.616C73.7883 23.5768 73.8055 23.5228 73.8055 23.4542C73.8055 23.4001 73.792 23.3527 73.7644 23.3117C73.7372 23.2707 73.6996 23.2401 73.6508 23.2198C73.6053 23.2004 73.5152 23.1909 73.3804 23.1909Z" fill="#3CD2A2"/>
</svg>
