<svg width="11" height="16" viewBox="0 0 11 16" fill="none" xmlns="http://www.w3.org/2000/svg">
<path id="path23973" fill-rule="evenodd" clip-rule="evenodd" d="M6.28899 14.9367C5.94449 15.1008 5.60001 15.1205 5.25551 14.9227L1.96241 13.0249C0.837957 12.2487 -0.00922331 11.2653 7.58161e-05 9.64189V2.1787L1.44952 1.3419V5.05022L2.21687 4.60647V0.902269L3.66629 0.0654297L3.66748 3.77354L3.68204 3.76513L4.69316 3.18136C4.98598 3.01231 5.40423 3.02361 5.72147 3.20644L8.48081 4.79662C9.37547 5.31222 10.3165 6.61151 10.3165 8.02874V12.0088C10.3165 12.496 10.1112 12.7333 9.30792 13.1971L8.40571 13.718C8.7161 13.4999 8.86712 12.9291 8.86712 12.031V8.97154C8.86712 7.40846 8.14127 6.27309 6.94231 5.58216L4.30097 4.05997C3.90596 3.82358 3.55269 3.83981 3.14777 4.0736L3.22505 4.02898L3.19666 4.0441L2.53713 4.42335V4.42338C2.77611 4.32752 3.19794 4.32817 3.50471 4.48288L6.26403 6.07306C7.15871 6.58865 8.09979 7.88794 8.09979 9.3052V13.2852C8.09979 13.7725 7.89438 14.0098 7.09114 14.4735L6.29802 14.9314C6.30396 14.928 6.30974 14.9245 6.3155 14.9209C6.30673 14.9262 6.29787 14.9315 6.28893 14.9367L6.28899 14.9367ZM1.44952 5.17029V8.86907C1.44952 10.6555 2.16172 11.4676 3.38659 12.1735L6.64612 14.0485C6.65038 13.9342 6.65041 13.8164 6.65041 13.6989V13.1724L6.6437 13.1687L4.17916 11.7484C3.05474 10.9722 2.21686 10.312 2.21686 8.36542V5.41286L2.08427 5.33641C1.86515 5.2053 1.65888 5.15195 1.44952 5.17029H1.44952ZM6.65042 11.5004V10.248C6.65042 8.68493 5.92456 7.54956 4.7256 6.8586L3.66629 6.24812V7.87542C3.66629 9.71234 4.12316 10.0329 5.60339 10.897L6.65042 11.5004Z" fill="#A7A9AC"/>
</svg>
