<svg width="42" height="42" viewBox="0 0 42 42" fill="none" xmlns="http://www.w3.org/2000/svg">
<rect width="42" height="42" rx="21" fill="#F5F6FA"/>
<g clip-path="url(#clip0_1_30)">
<g clip-path="url(#clip1_1_30)">
<path d="M12 12H30C30.2652 12 30.5196 12.1054 30.7071 12.2929C30.8946 12.4804 31 12.7348 31 13V29C31 29.2652 30.8946 29.5196 30.7071 29.7071C30.5196 29.8946 30.2652 30 30 30H12C11.7348 30 11.4804 29.8946 11.2929 29.7071C11.1054 29.5196 11 29.2652 11 29V13C11 12.7348 11.1054 12.4804 11.2929 12.2929C11.4804 12.1054 11.7348 12 12 12V12ZM29 20H13V28H29V20ZM29 18V14H13V18H29ZM23 24H27V26H23V24Z" fill="#0C61FF"/>
</g>
</g>
<defs>
<clipPath id="clip0_1_30">
<rect width="24" height="24" fill="white" transform="translate(9 9)"/>
</clipPath>
<clipPath id="clip1_1_30">
<rect width="24" height="24" fill="white" transform="translate(9 9)"/>
</clipPath>
</defs>
</svg>
