<svg width="21" height="15" viewBox="0 0 21 15" fill="none" xmlns="http://www.w3.org/2000/svg">
<path d="M17.6908 0.0117188H2.21907C1.26966 0.0117188 0.5 0.781375 0.5 1.73079V12.0452C0.5 12.9947 1.26966 13.7643 2.21907 13.7643H17.6908C18.6402 13.7643 19.4098 12.9947 19.4098 12.0452V1.73079C19.4098 0.781375 18.6402 0.0117188 17.6908 0.0117188Z" fill="url(#paint0_linear_8304_23328)"/>
<path fill-rule="evenodd" clip-rule="evenodd" d="M19.4098 6.02962H0.5V4.31055H19.4098V6.02962Z" fill="white"/>
<path fill-rule="evenodd" clip-rule="evenodd" d="M6.28433 11.5803C6.28433 12.0718 5.88592 12.4702 5.39446 12.4702H2.72483C2.23337 12.4702 1.83496 12.0718 1.83496 11.5803C1.83496 11.0888 2.23337 10.6904 2.72483 10.6904H5.39446C5.88592 10.6904 6.28433 11.0888 6.28433 11.5803Z" fill="white"/>
<path d="M14.6492 14.0233C13.7337 13.7195 12.9417 13.1263 12.3926 12.3332C11.8459 11.5436 11.5694 10.5984 11.6043 9.63893L11.6105 8.94543L11.2014 9.32298C10.8731 9.626 10.3613 9.6055 10.0583 9.27718C9.75523 8.94886 9.77574 8.43706 10.1041 8.13403L11.8875 6.48801C11.9693 6.41249 12.0625 6.35707 12.1611 6.32149C12.2283 6.29716 12.2997 6.28151 12.3739 6.27587C12.4097 6.27313 12.4457 6.27277 12.4815 6.27478C12.6839 6.28613 12.8823 6.37309 13.0306 6.53381L14.6766 8.31723C14.9797 8.64555 14.9592 9.15735 14.6308 9.46038C14.3025 9.7634 13.7907 9.7429 13.4877 9.41458L13.2268 9.13192L13.2221 9.66502C13.222 9.67318 13.2218 9.68134 13.2215 9.68949C13.1974 10.3029 13.3734 10.9075 13.7228 11.4122C14.0722 11.9169 14.5762 12.2944 15.1588 12.4877C15.7415 12.6811 16.3711 12.6799 16.953 12.4842C17.5349 12.2886 18.0374 11.9092 18.3849 11.4031C18.7323 10.8971 18.9059 10.2918 18.8795 9.67848C18.853 9.06518 18.628 8.47709 18.2383 8.00281C17.8485 7.52853 17.3152 7.19376 16.7187 7.04895C16.1221 6.90413 15.4947 6.9571 14.9309 7.19989C14.5205 7.3766 14.0446 7.18719 13.8679 6.77683C13.6912 6.36648 13.8806 5.89057 14.291 5.71386C15.1769 5.33234 16.1629 5.24909 17.1004 5.47666C18.0378 5.70423 18.8759 6.2303 19.4883 6.97559C20.1007 7.72089 20.4544 8.64503 20.4959 9.60879C20.5375 10.5725 20.2647 11.5237 19.7187 12.3189C19.1727 13.1142 18.383 13.7104 17.4686 14.0178C16.5543 14.3252 15.5648 14.3272 14.6492 14.0233Z" fill="url(#paint1_linear_8304_23328)"/>
<defs>
<linearGradient id="paint0_linear_8304_23328" x1="35.9392" y1="-8.03503" x2="-1.80367" y2="-5.93375" gradientUnits="userSpaceOnUse">
<stop stop-color="#001F80"/>
<stop offset="1" stop-color="#0C61FF"/>
</linearGradient>
<linearGradient id="paint1_linear_8304_23328" x1="9.6157" y1="8.51418" x2="20.7721" y2="8.58605" gradientUnits="userSpaceOnUse">
<stop stop-color="#8FC93A"/>
<stop offset="1" stop-color="#3CD2A2"/>
</linearGradient>
</defs>
</svg>
