<svg width="1567" height="1415" viewBox="0 0 1567 1415" fill="none" xmlns="http://www.w3.org/2000/svg">
<path d="M445.129 504.272C445.129 533.438 439.383 562.318 428.218 589.263C417.053 616.208 400.689 640.692 380.059 661.315C359.43 681.938 334.939 698.297 307.985 709.458C281.03 720.619 252.141 726.364 222.966 726.364C193.792 726.364 164.902 720.619 137.948 709.458C110.994 698.297 86.5034 681.938 65.8736 661.315C45.2439 640.692 28.8795 616.208 17.7148 589.263C6.55008 562.318 0.80371 533.438 0.803711 504.272C0.80371 475.107 6.55008 446.227 17.7148 419.282C28.8795 392.336 45.2439 367.853 65.8736 347.23C86.5034 326.607 110.994 310.248 137.948 299.086C164.902 287.925 193.792 282.181 222.966 282.181C252.141 282.181 281.03 287.925 307.985 299.086C334.939 310.248 359.43 326.607 380.059 347.23C400.689 367.853 417.053 392.336 428.218 419.282C439.383 446.227 445.129 475.107 445.129 504.272Z" fill="#976D0A"/>
<path d="M425.007 483.565C425.007 539.907 402.618 593.941 362.766 633.78C322.914 673.619 268.863 696.001 212.503 696.001C156.144 696.001 102.093 673.619 62.2407 633.78C22.3886 593.941 4.33003e-06 539.907 0 483.565C4.33003e-06 427.224 22.3886 373.19 62.2407 333.351C102.093 293.511 156.144 271.13 212.503 271.13C268.863 271.13 322.914 293.511 362.766 333.351C402.618 373.19 425.007 427.224 425.007 483.565Z" fill="#F2D330"/>
<path d="M382.657 474.929C382.657 496.7 378.368 518.257 370.034 538.37C361.7 558.483 349.485 576.758 334.086 592.152C318.687 607.546 300.406 619.757 280.287 628.088C260.167 636.419 238.603 640.707 216.826 640.707C195.049 640.707 173.485 636.419 153.365 628.088C133.246 619.757 114.965 607.546 99.5658 592.152C84.1669 576.758 71.9521 558.483 63.6183 538.37C55.2845 518.257 50.9951 496.7 50.9951 474.929C50.9951 453.159 55.2845 431.602 63.6183 411.489C71.9521 391.376 84.1669 373.101 99.5658 357.707C114.965 342.313 133.246 330.102 153.365 321.77C173.485 313.439 195.049 309.151 216.826 309.151C238.603 309.151 260.167 313.439 280.287 321.77C300.406 330.102 318.687 342.313 334.086 357.707C349.485 373.101 361.7 391.376 370.034 411.489C378.368 431.602 382.657 453.159 382.657 474.929Z" fill="#CD940D"/>
<path d="M366.383 466.293C366.383 507.091 350.171 546.218 321.313 575.066C292.456 603.915 253.316 620.122 212.505 620.122C171.694 620.122 132.554 603.915 103.697 575.066C74.8389 546.218 58.627 507.091 58.627 466.293C58.627 425.495 74.8389 386.368 103.697 357.519C132.554 328.671 171.694 312.464 212.505 312.464C253.316 312.464 292.456 328.671 321.313 357.519C350.171 386.368 366.383 425.495 366.383 466.293Z" fill="#F0B018"/>
<path d="M180.905 352.704L176.56 352.755L176.948 354.543L148.279 367.595L160.137 392.138C142.965 403.067 131.715 415.514 126.386 429.476C121.211 443.369 121.817 456.919 128.2 470.129C133.712 481.538 141.191 489.215 150.642 493.155C160.02 496.944 169.609 498.436 179.412 497.637C189.141 496.688 200.888 494.639 214.648 491.489C225.335 489.006 233.163 487.64 238.137 487.39C243.265 487.07 246.627 488.562 248.223 491.864C249.601 494.717 249.029 497.631 246.506 500.611C243.911 503.44 238.826 506.582 231.248 510.032C222.432 514.044 212.613 516.957 201.79 518.769C190.896 520.432 180.528 520.843 170.692 520.009L171.772 566.764C180.763 567.8 191.207 567.354 203.102 565.419C215.152 563.414 227.124 560.07 239.014 555.391L248.645 575.329L246.236 579.205L250.535 579.238L250.543 579.259L283.257 564.369L271.18 539.374C287.051 528.487 297.377 516.28 302.16 502.749C307.025 488.997 306.413 475.819 300.321 463.209C294.809 451.8 287.285 444.236 277.752 440.517C268.374 436.728 258.744 435.339 248.86 436.359C238.903 437.228 227.194 439.355 213.733 442.735C203.273 445.298 195.593 446.781 190.692 447.18C185.718 447.429 182.47 445.976 180.947 442.824C177.756 436.218 183.198 429.713 197.272 423.307C211.501 416.83 228.466 413.87 248.168 414.426L246.038 368.425C229.792 367.213 211.99 370.004 192.632 376.801L180.989 352.704L180.85 352.767L180.905 352.704Z" fill="#1A1A1A"/>
<path d="M295.999 463.207C302.092 475.817 302.705 488.998 297.84 502.749C293.057 516.28 282.73 528.489 266.858 539.376L278.934 564.37L246.223 579.259L234.691 555.391C222.801 560.07 210.831 563.412 198.781 565.417C186.886 567.352 176.443 567.802 167.452 566.766L166.372 520.011C176.208 520.844 186.574 520.43 197.468 518.767C208.29 516.955 218.109 514.042 226.925 510.03C234.504 506.58 239.59 503.441 242.186 500.611C244.708 497.632 245.281 494.716 243.903 491.864C242.307 488.561 238.945 487.07 233.817 487.39C228.843 487.639 221.013 489.005 210.326 491.489C196.565 494.639 184.82 496.689 175.09 497.638C165.288 498.437 155.698 496.942 146.32 493.153C136.869 489.213 129.388 481.539 123.876 470.13C117.494 456.92 116.89 443.368 122.064 429.476C127.393 415.513 138.644 403.067 155.816 392.138L143.957 367.594L176.669 352.705L188.31 376.799C207.667 370.003 225.469 367.211 241.715 368.423L243.846 414.426C224.145 413.87 207.179 416.831 192.95 423.307C178.876 429.714 173.434 436.219 176.625 442.824C178.148 445.977 181.397 447.428 186.371 447.179C191.272 446.78 198.952 445.298 209.412 442.735C222.873 439.355 234.582 437.23 244.539 436.361C254.423 435.341 264.055 436.726 273.432 440.515C282.965 444.234 290.487 451.798 295.999 463.207Z" fill="white"/>
<path d="M173.584 212.454C172.82 205.069 177.634 198.267 184.839 196.479C501.91 117.776 816.776 58.9105 1129.78 16.8129C1137.28 15.8041 1144.35 20.5532 1146.23 27.8855C1171.62 127.096 1190.35 226.306 1201.24 325.517C1202.08 333.121 1197 340.1 1189.52 341.702C877.983 408.458 564.111 466.651 249.549 522.321C242.088 523.642 234.806 519.19 232.649 511.926C203.811 414.846 184.202 314.998 173.584 212.454Z" fill="#8FC93A"/>
<path d="M348.71 470.674C348.566 463.252 353.932 456.876 361.261 455.696C683.802 403.756 1002.49 371.4 1317.91 355.598C1325.47 355.219 1332.13 360.543 1333.38 368.006C1350.39 468.991 1360.76 569.419 1363.32 669.193C1363.52 676.839 1357.88 683.369 1350.29 684.341C1034.26 724.838 716.622 756.607 398.508 785.804C390.962 786.497 384.077 781.452 382.534 774.033C361.913 674.883 350.719 573.746 348.71 470.674Z" fill="#E4CC37"/>
<path d="M407.376 418.514C386.81 422.14 367.53 421.146 349.537 415.532C331.51 409.733 316.416 399.979 304.254 386.271C292.244 372.344 284.506 355.563 281.041 335.928C277.576 316.294 279.118 297.972 285.669 280.964C292.372 263.739 303.217 249.412 318.203 237.984C333.156 226.371 350.915 218.752 371.481 215.126C390.379 211.795 407.828 212.156 423.827 216.212C439.826 220.267 453.755 227.743 465.612 238.641L430.724 282.896C416.001 269.829 400.486 264.734 384.182 267.608C370.472 270.025 360.232 276.414 353.464 286.775C346.663 296.951 344.57 309.449 347.185 324.268C349.8 339.086 356.061 350.206 365.968 357.628C375.842 364.864 387.634 367.273 401.345 364.856C417.649 361.982 430.483 351.889 439.845 334.576L487.776 364.23C480.365 378.525 469.836 390.313 456.191 399.594C442.546 408.876 426.274 415.182 407.376 418.514Z" fill="white"/>
<path d="M636.57 338.564L562.644 351.597L555.564 387.798L488.864 399.557L539.581 190.066L604.058 178.699L723.427 358.205L655.615 370.16L636.57 338.564ZM610.169 294.514L582.64 248.943L572.372 301.177L610.169 294.514Z" fill="white"/>
<path d="M807.316 347.991C791.196 350.832 775.137 351.849 759.138 351.041C743.292 350.014 729.919 347.311 719.021 342.929L731.708 291.415C741.92 295.153 753.064 297.677 765.139 298.986C777.182 300.11 788.484 299.741 799.045 297.879C808.123 296.279 814.461 294.302 818.058 291.949C821.622 289.411 823.093 286.382 822.472 282.862C821.753 278.787 818.619 276.188 813.072 275.065C807.71 273.91 798.98 273.157 786.883 272.806C771.32 272.303 758.225 271.174 747.599 269.418C736.94 267.477 727.186 263.085 718.337 256.241C709.455 249.212 703.771 238.659 701.287 224.581C699.129 212.355 700.595 200.637 705.685 189.426C710.775 178.215 719.576 168.546 732.088 160.419C744.785 152.26 760.861 146.465 780.315 143.036C793.654 140.684 806.978 139.863 820.285 140.573C833.745 141.065 845.875 143.224 856.675 147.05L845.328 198.041C824.545 191.773 805.631 190.142 788.585 193.147C771.725 196.119 764.014 201.68 765.452 209.831C766.139 213.721 769.163 216.243 774.525 217.399C779.855 218.37 788.459 218.954 800.339 219.151C815.651 219.317 828.729 220.354 839.573 222.262C850.385 223.985 860.215 228.268 869.065 235.112C878.099 241.923 883.859 252.367 886.343 266.445C888.501 278.671 887.035 290.389 881.945 301.6C876.822 312.626 867.929 322.312 855.264 330.656C842.752 338.783 826.77 344.561 807.316 347.991Z" fill="white"/>
<path d="M1074.03 95.8308L1108.36 290.328L1042.77 301.891L1030.12 230.205L969.533 240.886L982.184 312.572L916.596 324.135L882.271 129.638L947.859 118.075L960.02 186.982L1020.61 176.301L1008.44 107.394L1074.03 95.8308Z" fill="white"/>
<path d="M596.135 585.933C608.171 589.087 617.78 594.466 624.963 602.07C632.147 609.674 636.314 619.279 637.467 630.883C639.177 648.103 633.391 662.192 620.11 673.149C606.811 683.919 586.681 690.641 559.721 693.315L449.073 704.289L429.558 507.759L534.589 497.341C560.8 494.741 581.016 497.461 595.238 505.502C609.648 513.523 617.624 525.302 619.166 540.837C620.077 550.008 618.555 558.476 614.599 566.24C610.83 573.985 604.676 580.55 596.135 585.933ZM499.311 547.622L502.21 576.82L533.102 573.756C547.518 572.327 554.243 566.745 553.276 557.012C552.31 547.279 544.618 543.128 530.202 544.558L499.311 547.622ZM549.504 647.547C564.108 646.098 570.898 640.227 569.876 629.932C568.854 619.638 561.041 615.215 546.438 616.663L506.56 620.619L509.626 651.502L549.504 647.547Z" fill="white"/>
<path d="M796.719 635.212L722.017 642.622L712.22 678.184L644.82 684.869L711.239 479.813L776.392 473.351L881.843 661.359L813.32 668.156L796.719 635.212ZM773.725 589.294L749.722 541.774L735.532 593.082L773.725 589.294Z" fill="white"/>
<path d="M991.822 654.982C971.04 657.043 951.891 654.595 934.373 647.638C916.837 640.493 902.523 629.627 891.432 615.039C880.51 600.245 874.064 582.928 872.094 563.087C870.123 543.247 873.048 525.095 880.866 508.632C888.853 491.962 900.75 478.496 916.558 468.233C932.347 457.783 950.633 451.528 971.414 449.467C990.511 447.573 1007.88 449.252 1023.53 454.504C1039.18 459.757 1052.5 468.264 1063.5 480.026L1025.36 521.518C1011.67 507.376 996.585 501.123 980.109 502.757C966.255 504.131 955.561 509.728 948.028 519.548C940.477 529.181 937.445 541.484 938.932 556.458C940.418 571.432 945.82 582.993 955.138 591.142C964.436 599.103 976.013 602.397 989.867 601.022C1006.34 599.388 1019.9 590.294 1030.55 573.739L1076.1 606.929C1067.63 620.622 1056.24 631.581 1041.93 639.805C1027.62 648.028 1010.92 653.087 991.822 654.982Z" fill="white"/>
<path d="M1172.23 566.768L1158.99 584.809L1163.81 633.38L1098.66 639.843L1079.14 443.312L1144.29 436.849L1151.38 508.162L1208.89 430.443L1281.06 423.284L1211.01 517.557L1304.51 619.425L1227.84 627.029L1172.23 566.768Z" fill="white"/>
<path d="M1567 242.049C1567 298.537 1543.79 352.711 1502.48 392.654C1461.17 432.597 1405.15 455.037 1346.73 455.037C1288.31 455.037 1232.28 432.597 1190.97 392.654C1149.66 352.711 1126.46 298.537 1126.46 242.049C1126.46 214.079 1132.15 186.383 1143.22 160.542C1154.29 134.702 1170.52 111.222 1190.97 91.4442C1211.43 71.6665 1235.71 55.9779 1262.43 45.2742C1289.16 34.5706 1317.8 29.0615 1346.73 29.0615C1375.65 29.0615 1404.3 34.5706 1431.02 45.2742C1457.75 55.9779 1482.03 71.6665 1502.48 91.4442C1522.94 111.222 1539.16 134.702 1550.23 160.542C1561.3 186.383 1567 214.079 1567 242.049Z" fill="#976D0A"/>
<path d="M1548.77 221.342C1548.77 249.239 1543.27 276.863 1532.59 302.637C1521.91 328.411 1506.26 351.83 1486.53 371.556C1466.79 391.283 1443.37 406.931 1417.58 417.606C1391.8 428.282 1364.17 433.777 1336.26 433.777C1308.36 433.777 1280.72 428.282 1254.94 417.606C1229.16 406.931 1205.73 391.283 1186 371.556C1166.27 351.83 1150.61 328.411 1139.94 302.637C1129.26 276.863 1123.76 249.239 1123.76 221.342C1123.76 165 1146.15 110.966 1186 71.1271C1225.85 31.2878 1279.9 8.90625 1336.26 8.90625C1364.17 8.90624 1391.8 14.4011 1417.58 25.0769C1443.37 35.7528 1466.79 51.4007 1486.53 71.1271C1506.26 90.8536 1521.91 114.272 1532.59 140.046C1543.27 165.82 1548.77 193.444 1548.77 221.342Z" fill="#F2D330"/>
<path d="M1506.41 212.706C1506.41 234.476 1502.13 256.033 1493.79 276.146C1485.46 296.259 1473.24 314.534 1457.84 329.928C1442.45 345.322 1424.16 357.533 1404.04 365.865C1383.93 374.196 1362.36 378.484 1340.58 378.484C1318.81 378.484 1297.24 374.196 1277.12 365.865C1257 357.533 1238.72 345.322 1223.32 329.928C1207.92 314.534 1195.71 296.259 1187.38 276.146C1179.04 256.033 1174.75 234.476 1174.75 212.706C1174.75 190.935 1179.04 169.378 1187.38 149.265C1195.71 129.152 1207.92 110.877 1223.32 95.483C1238.72 80.0891 1257 67.8779 1277.12 59.5468C1297.24 51.2157 1318.81 46.9277 1340.58 46.9277C1362.36 46.9277 1383.93 51.2157 1404.04 59.5468C1424.16 67.8779 1442.45 80.0891 1457.84 95.483C1473.24 110.877 1485.46 129.152 1493.79 149.265C1502.13 169.378 1506.41 190.935 1506.41 212.706Z" fill="#CD940D"/>
<path d="M1490.14 204.068C1490.14 224.269 1486.16 244.273 1478.43 262.936C1470.7 281.599 1459.36 298.557 1445.07 312.842C1430.78 327.126 1413.82 338.457 1395.15 346.188C1376.48 353.918 1356.47 357.897 1336.27 357.897C1295.45 357.897 1256.31 341.69 1227.46 312.842C1198.6 283.993 1182.39 244.866 1182.39 204.068C1182.39 163.27 1198.6 124.143 1227.46 95.2947C1256.31 66.4462 1295.45 50.2393 1336.27 50.2393C1356.47 50.2392 1376.48 54.2181 1395.15 61.9488C1413.82 69.6794 1430.78 81.0104 1445.07 95.2947C1459.36 109.579 1470.7 126.537 1478.43 145.2C1486.16 163.864 1490.14 183.867 1490.14 204.068Z" fill="#F0B018"/>
<path d="M1389.76 97.2017C1389.06 97.2069 1388.53 97.2499 1388.53 97.3705C1388.53 97.5673 1389.23 100.066 1389.87 102.06L1377.6 120.699C1357.78 111.985 1340 109.142 1324.26 112.175C1308.68 115.302 1296.73 123.175 1288.43 135.788C1281.26 146.681 1278.62 157.225 1280.49 167.423C1282.46 177.477 1286.64 186.467 1293.01 194.393C1299.49 202.176 1308.12 211.083 1318.91 221.11C1327.33 228.876 1333.09 234.81 1336.18 238.916C1339.43 243.117 1340.01 246.794 1337.94 249.948C1336.15 252.671 1333.17 253.763 1329.01 253.229C1324.95 252.551 1319.17 249.919 1311.67 245.327C1302.94 239.987 1294.64 233.195 1286.76 224.949C1278.97 216.561 1272.61 207.945 1267.7 199.105C1267.7 199.105 1267.7 199.101 1267.7 199.101L1267.69 199.101L1263.36 199.084C1263.36 199.084 1263.63 200.139 1263.98 201.437L1225.9 225.399C1230.15 233.629 1236.58 242.292 1245.2 251.387C1253.97 260.575 1263.9 268.967 1275 276.568L1260 299.357L1288.23 316.64L1288.02 316.648L1288.04 319.174L1292.37 319.174L1308.08 295.31C1327.11 302.938 1344.14 305.12 1359.17 301.856C1374.45 298.542 1386.05 290.865 1393.97 278.825C1401.14 267.932 1403.67 257.41 1401.54 247.262C1399.57 237.207 1395.28 228.244 1388.65 220.368C1382.12 212.347 1373.44 203.512 1362.61 193.866C1354.25 186.337 1348.48 180.592 1345.29 176.629C1342.2 172.522 1341.64 168.966 1343.62 165.956C1347.77 159.65 1356.81 160.759 1370.74 169.286C1384.82 177.906 1397.29 190.768 1408.15 207.872L1448.64 181.088C1440.38 166.575 1427.58 152.906 1410.25 140.086L1425.39 117.082L1393.02 97.2648L1392.98 97.3238C1392.88 97.3168 1391.04 97.1922 1389.76 97.2017Z" fill="#1A1A1A"/>
<path d="M1389.61 278.833C1381.69 290.874 1370.09 298.551 1354.81 301.866C1339.77 305.13 1322.74 302.948 1303.71 295.32L1288.01 319.186L1255.63 299.367L1270.63 276.576C1259.53 268.975 1249.6 260.58 1240.83 251.391C1232.21 242.295 1225.78 233.633 1221.54 225.403L1263.33 199.104C1268.24 207.946 1274.6 216.562 1282.39 224.951C1290.27 233.198 1298.58 239.992 1307.3 245.333C1314.8 249.925 1320.58 252.559 1324.65 253.237C1328.81 253.771 1331.78 252.677 1333.57 249.953C1335.65 246.8 1335.06 243.123 1331.81 238.923C1328.72 234.816 1322.96 228.879 1314.55 221.112C1303.75 211.085 1295.12 202.18 1288.65 194.397C1282.27 186.47 1278.1 177.479 1276.13 167.424C1274.25 157.225 1276.9 146.679 1284.07 135.785C1292.37 123.172 1304.31 115.301 1319.9 112.174C1335.64 109.141 1353.42 111.982 1373.23 120.696L1388.66 97.2602L1421.03 117.079L1405.89 140.085C1423.22 152.906 1436.02 166.574 1444.29 181.088L1403.79 207.875C1392.93 190.77 1380.46 177.907 1366.38 169.286C1352.45 160.759 1343.41 159.648 1339.26 165.955C1337.28 168.965 1337.83 172.524 1340.93 176.631C1344.12 180.594 1349.89 186.341 1358.25 193.87C1369.08 203.517 1377.76 212.351 1384.29 220.371C1390.91 228.248 1395.21 237.214 1397.18 247.27C1399.31 257.418 1396.78 267.94 1389.61 278.833Z" fill="white"/>
<path fill-rule="evenodd" clip-rule="evenodd" d="M137.67 1052.44C209.325 1052.44 267.414 994.357 267.414 922.701C267.414 851.045 209.325 792.957 137.67 792.957C66.0141 792.957 7.92578 851.045 7.92578 922.701C7.92578 994.357 66.0141 1052.44 137.67 1052.44ZM137.67 1003.56C182.325 1003.56 218.525 967.356 218.525 922.701C218.525 878.046 182.325 841.846 137.67 841.846C93.0147 841.846 56.8147 878.046 56.8147 922.701C56.8147 967.356 93.0147 1003.56 137.67 1003.56Z" fill="#F0B018"/>
<path d="M199.601 816.036C195.205 811.319 189.828 807.623 183.85 805.208C177.872 802.793 171.438 801.717 164.999 802.057C153.146 803.142 143.67 807.165 124.396 815.347L66.5792 839.893C47.4656 848.007 37.8295 852.098 28.8998 859.649C24.1811 864.056 20.4872 869.445 18.0787 875.435C15.6702 881.426 14.6058 887.872 14.9605 894.319C16.0934 906.066 20.151 915.624 28.2654 934.737L52.845 992.635C60.9936 1011.83 65.0163 1021.3 72.5969 1030.3C76.9929 1035.02 82.369 1038.72 88.347 1041.13C94.325 1043.55 100.76 1044.62 107.198 1044.28C118.937 1043.15 128.493 1039.1 147.607 1030.98L205.584 1006.37C224.778 998.219 234.334 994.162 243.255 986.616C247.994 982.211 251.708 976.819 254.131 970.819C256.554 964.82 257.629 958.361 257.278 951.901C256.149 940.161 252.092 930.605 243.977 911.492L219.465 853.753C211.317 834.559 207.262 825.003 199.601 816.036ZM166.118 873.77L161.856 884.321C161.419 885.299 160.635 886.08 159.656 886.513C158.676 886.947 157.571 887.001 156.554 886.667C146.807 883.653 136.309 884.181 126.913 888.157C119.189 891.437 112.547 897.271 115.554 904.353C118.597 911.521 127.893 910.392 138.969 909.915C158.059 908.39 174.894 909.52 181.857 925.921C189.43 943.759 180.771 961.908 158.738 972.862L160.724 983.297C160.913 984.254 160.766 985.247 160.308 986.108C159.85 986.97 159.109 987.647 158.209 988.025L143.97 994.07L143.219 994.294C142.102 994.498 140.948 994.255 140.009 993.616C139.069 992.977 138.419 991.994 138.198 990.88L136.133 979.819C126.636 981.311 116.916 980.359 107.889 977.052L107.855 976.972C106.833 976.558 106.016 975.755 105.585 974.74C105.154 973.725 105.144 972.58 105.556 971.557L110.242 960.466C110.678 959.482 111.472 958.7 112.463 958.279C113.454 957.858 114.568 957.831 115.578 958.201C125.79 961.992 137.077 961.651 147.041 957.25C157.394 952.855 162.464 945.535 159.521 938.603C156.578 931.67 148.795 932.821 133.478 933.493C117.332 934.427 101.023 932.985 93.991 916.42C85.8091 897.148 97.8264 880.955 116.406 872.023L114.238 861.384C114.055 860.433 114.209 859.448 114.674 858.599C115.138 857.75 115.885 857.089 116.784 856.73L130.959 850.713L131.79 850.454C132.326 850.348 132.878 850.349 133.414 850.457C133.949 850.565 134.458 850.778 134.911 851.084C135.364 851.39 135.752 851.782 136.053 852.238C136.354 852.695 136.561 853.206 136.664 853.743L139.145 865.567C147.39 864.898 155.687 865.81 163.589 868.255L163.816 868.346C164.325 868.547 164.789 868.847 165.182 869.229C165.574 869.611 165.886 870.068 166.1 870.572C166.314 871.076 166.425 871.617 166.428 872.165C166.43 872.712 166.324 873.255 166.114 873.761L166.118 873.77Z" fill="#F0B018"/>
<path fill-rule="evenodd" clip-rule="evenodd" d="M386.413 1264.37C424.155 1264.37 454.751 1233.77 454.751 1196.03C454.751 1158.28 424.155 1127.69 386.413 1127.69C348.67 1127.69 318.074 1158.28 318.074 1196.03C318.074 1233.77 348.67 1264.37 386.413 1264.37ZM386.41 1238.61C409.931 1238.61 428.998 1219.55 428.998 1196.03C428.998 1172.51 409.931 1153.44 386.41 1153.44C362.89 1153.44 343.823 1172.51 343.823 1196.03C343.823 1219.55 362.89 1238.61 386.41 1238.61Z" fill="#F0B018"/>
<path d="M417.835 1142.17C415.638 1139.81 412.951 1137.96 409.963 1136.76C406.975 1135.55 403.759 1135.01 400.541 1135.18C394.618 1135.72 389.88 1137.73 380.248 1141.82L351.35 1154.09C341.791 1158.15 336.982 1160.19 332.522 1163.96C330.163 1166.17 328.316 1168.86 327.112 1171.86C325.908 1174.85 325.376 1178.07 325.554 1181.3C326.117 1187.16 328.143 1191.94 332.201 1201.49L344.485 1230.43C348.557 1240.02 350.568 1244.76 354.358 1249.26C356.555 1251.61 359.242 1253.46 362.23 1254.67C365.218 1255.88 368.435 1256.41 371.653 1256.24C377.52 1255.68 382.298 1253.65 391.85 1249.6L420.822 1237.3C430.415 1233.22 435.191 1231.2 439.65 1227.42C442.019 1225.22 443.875 1222.53 445.086 1219.53C446.297 1216.53 446.834 1213.3 446.659 1210.07C446.095 1204.21 444.067 1199.43 440.011 1189.88L427.761 1161.02C423.689 1151.43 421.661 1146.65 417.831 1142.17L417.835 1142.17ZM401.098 1171.02L398.968 1176.29C398.75 1176.78 398.358 1177.17 397.868 1177.39C397.379 1177.61 396.826 1177.63 396.318 1177.47C391.448 1175.96 386.202 1176.22 381.507 1178.21C377.647 1179.85 374.327 1182.76 375.83 1186.3C377.351 1189.89 381.997 1189.32 387.533 1189.09C397.075 1188.32 405.487 1188.89 408.969 1197.09C412.754 1206 408.424 1215.07 397.413 1220.55L398.406 1225.76C398.501 1226.24 398.429 1226.74 398.201 1227.17C397.973 1227.6 397.604 1227.94 397.155 1228.13L390.031 1231.15L389.649 1231.27C389.091 1231.37 388.515 1231.25 388.045 1230.93C387.576 1230.61 387.251 1230.12 387.14 1229.56L386.109 1224.03C381.362 1224.78 376.504 1224.3 371.992 1222.65L371.975 1222.61C371.721 1222.51 371.49 1222.36 371.295 1222.17C371.1 1221.97 370.944 1221.75 370.838 1221.5C370.731 1221.24 370.675 1220.97 370.673 1220.7C370.671 1220.43 370.722 1220.16 370.825 1219.9L373.167 1214.35C373.385 1213.86 373.782 1213.47 374.277 1213.26C374.772 1213.05 375.329 1213.03 375.834 1213.22C380.94 1215.12 386.584 1214.94 391.565 1212.74C396.739 1210.55 399.274 1206.89 397.802 1203.42C396.331 1199.95 392.441 1200.53 384.785 1200.87C376.715 1201.33 368.564 1200.61 365.048 1192.33C360.959 1182.7 366.964 1174.61 376.252 1170.15L375.168 1164.83C375.075 1164.35 375.152 1163.86 375.383 1163.44C375.615 1163.01 375.987 1162.68 376.436 1162.5L383.521 1159.5L383.936 1159.37C384.204 1159.31 384.48 1159.31 384.748 1159.37C385.016 1159.42 385.27 1159.53 385.497 1159.68C385.723 1159.83 385.917 1160.03 386.067 1160.26C386.217 1160.49 386.321 1160.74 386.372 1161.01L387.612 1166.92C391.734 1166.59 395.882 1167.04 399.833 1168.26L399.947 1168.31C400.202 1168.41 400.434 1168.56 400.63 1168.75C400.827 1168.94 400.983 1169.17 401.09 1169.42C401.197 1169.67 401.252 1169.94 401.254 1170.22C401.255 1170.49 401.201 1170.76 401.097 1171.02L401.098 1171.02Z" fill="#F0B018"/>
<path fill-rule="evenodd" clip-rule="evenodd" d="M68.3384 1414.38C106.081 1414.38 136.677 1383.78 136.677 1346.04C136.677 1308.3 106.081 1277.7 68.3384 1277.7C30.5961 1277.7 0 1308.3 0 1346.04C0 1383.78 30.5961 1414.38 68.3384 1414.38ZM68.3363 1388.63C91.8568 1388.63 110.924 1369.56 110.924 1346.04C110.924 1322.52 91.8568 1303.45 68.3363 1303.45C44.8157 1303.45 25.7486 1322.52 25.7486 1346.04C25.7486 1369.56 44.8157 1388.63 68.3363 1388.63Z" fill="#F0B018"/>
<path d="M99.7606 1292.88C97.5636 1290.52 94.8767 1288.67 91.889 1287.47C88.9012 1286.26 85.6851 1285.72 82.4671 1285.89C76.5437 1286.43 71.806 1288.45 62.1734 1292.53L33.2759 1304.8C23.7164 1308.86 18.9074 1310.9 14.4481 1314.68C12.0888 1316.88 10.2419 1319.57 9.0378 1322.57C7.83369 1325.56 7.30174 1328.79 7.4795 1332.01C8.0432 1337.88 10.0685 1342.65 14.1269 1352.21L26.4105 1381.14C30.4828 1390.73 32.4942 1395.47 36.2834 1399.97C38.4806 1402.33 41.1678 1404.17 44.1559 1405.38C47.1441 1406.59 50.3604 1407.12 53.5786 1406.95C59.4456 1406.39 64.2236 1404.36 73.7758 1400.31L102.748 1388.01C112.34 1383.93 117.117 1381.91 121.576 1378.13C123.945 1375.93 125.801 1373.24 127.012 1370.24C128.223 1367.24 128.76 1364.01 128.585 1360.78C128.021 1354.92 125.993 1350.14 121.937 1340.59L109.687 1311.73C105.615 1302.14 103.587 1297.36 99.757 1292.88L99.7606 1292.88ZM83.0238 1321.73L80.8937 1327C80.6755 1327.49 80.2837 1327.88 79.7941 1328.1C79.3046 1328.32 78.7521 1328.34 78.2436 1328.18C73.3736 1326.67 68.1281 1326.93 63.4333 1328.92C59.573 1330.56 56.253 1333.48 57.7555 1337.01C59.2766 1340.6 63.9226 1340.03 69.4593 1339.8C79.0011 1339.03 87.4133 1339.6 90.8947 1347.8C94.6797 1356.71 90.3495 1365.79 79.3387 1371.26L80.332 1376.47C80.4269 1376.95 80.3543 1377.45 80.1264 1377.88C79.8986 1378.31 79.5294 1378.65 79.081 1378.84L71.9569 1381.86L71.575 1381.98C71.0166 1382.08 70.4405 1381.96 69.971 1381.64C69.5016 1381.32 69.1765 1380.83 69.0659 1380.27L68.0344 1374.74C63.2879 1375.49 58.4294 1375.01 53.9176 1373.36L53.9005 1373.32C53.6469 1373.22 53.4159 1373.07 53.2208 1372.88C53.0256 1372.69 52.8702 1372.46 52.7634 1372.21C52.6566 1371.95 52.6005 1371.68 52.5984 1371.41C52.5964 1371.14 52.6483 1370.87 52.7512 1370.61L55.093 1365.06C55.3107 1364.57 55.7074 1364.18 56.2028 1363.97C56.6982 1363.76 57.255 1363.75 57.7602 1363.93C62.8659 1365.83 68.5095 1365.66 73.4909 1363.45C78.6647 1361.26 81.1997 1357.6 79.7282 1354.13C78.2566 1350.66 74.3666 1351.24 66.711 1351.58C58.6406 1352.04 50.4894 1351.32 46.9739 1343.04C42.8846 1333.41 48.8899 1325.32 58.1779 1320.86L57.0934 1315.54C57.0012 1315.06 57.0774 1314.57 57.3089 1314.15C57.5404 1313.72 57.9126 1313.39 58.3614 1313.21L65.4471 1310.21L65.8618 1310.08C66.1299 1310.02 66.4057 1310.03 66.6736 1310.08C66.9414 1310.13 67.1959 1310.24 67.4224 1310.39C67.6488 1310.55 67.8428 1310.74 67.993 1310.97C68.1432 1311.2 68.2467 1311.45 68.2976 1311.72L69.538 1317.63C73.6599 1317.3 77.8078 1317.75 81.7586 1318.97L81.8729 1319.02C82.1277 1319.12 82.36 1319.27 82.5562 1319.46C82.7523 1319.65 82.9085 1319.88 83.0155 1320.13C83.1225 1320.38 83.1782 1320.66 83.1794 1320.93C83.1805 1321.2 83.1271 1321.47 83.0223 1321.73L83.0238 1321.73Z" fill="#F0B018"/>
</svg>
