<svg width="685" height="534" viewBox="0 0 685 534" fill="none" xmlns="http://www.w3.org/2000/svg">
<g filter="url(#filter0_d_25_209)">
<path d="M256.127 190.978C256.127 202.023 253.95 212.961 249.722 223.165C245.494 233.37 239.296 242.642 231.483 250.453C223.67 258.263 214.395 264.459 204.187 268.685C193.979 272.912 183.038 275.088 171.989 275.088C160.94 275.088 149.999 272.912 139.791 268.685C129.583 264.459 120.308 258.263 112.495 250.453C104.682 242.642 98.4847 233.37 94.2564 223.165C90.0281 212.961 87.8518 202.023 87.8518 190.978C87.8518 179.932 90.0281 168.995 94.2564 158.79C98.4847 148.585 104.682 139.313 112.495 131.503C120.308 123.692 129.583 117.497 139.791 113.27C149.999 109.043 160.94 106.867 171.989 106.867C183.038 106.867 193.979 109.043 204.187 113.27C214.395 117.497 223.67 123.692 231.483 131.503C239.296 139.313 245.494 148.585 249.722 158.79C253.95 168.995 256.127 179.932 256.127 190.978V190.978Z" fill="#976D0A"/>
<path d="M248.505 183.136C248.505 204.473 240.026 224.937 224.933 240.025C209.841 255.113 189.37 263.589 168.026 263.589C146.682 263.589 126.211 255.113 111.119 240.025C96.0259 224.937 87.5469 204.473 87.5469 183.136C87.5469 161.798 96.0259 141.334 111.119 126.246C126.211 111.158 146.682 102.682 168.026 102.682C189.37 102.682 209.841 111.158 224.933 126.246C240.026 141.334 248.505 161.798 248.505 183.136V183.136Z" fill="#F2D330"/>
<path d="M232.466 179.865C232.466 188.11 230.841 196.274 227.685 203.891C224.529 211.508 219.903 218.429 214.071 224.259C208.239 230.089 201.316 234.714 193.696 237.869C186.076 241.024 177.91 242.648 169.662 242.648C161.415 242.648 153.248 241.024 145.628 237.869C138.009 234.714 131.085 230.089 125.253 224.259C119.421 218.429 114.795 211.508 111.639 203.891C108.483 196.274 106.859 188.11 106.859 179.865C106.859 171.62 108.483 163.456 111.639 155.839C114.795 148.221 119.421 141.3 125.253 135.47C131.085 129.64 138.009 125.016 145.628 121.86C153.248 118.705 161.415 117.081 169.662 117.081C177.91 117.081 186.076 118.705 193.696 121.86C201.316 125.016 208.239 129.64 214.071 135.47C219.903 141.3 224.529 148.221 227.685 155.839C230.841 163.456 232.466 171.62 232.466 179.865Z" fill="#CD940D"/>
<path d="M226.303 176.594C226.303 192.045 220.163 206.863 209.234 217.789C198.305 228.714 183.482 234.852 168.026 234.852C152.57 234.852 137.747 228.714 126.818 217.789C115.889 206.863 109.749 192.045 109.749 176.594C109.749 161.143 115.889 146.325 126.818 135.399C137.747 124.474 152.57 118.336 168.026 118.336C183.482 118.336 198.305 124.474 209.234 135.399C220.163 146.325 226.303 161.143 226.303 176.594Z" fill="#F0B018"/>
<path d="M156.059 133.576L154.413 133.595L154.56 134.272L143.703 139.215L148.194 148.51C141.69 152.649 137.43 157.363 135.411 162.651C133.452 167.912 133.681 173.044 136.098 178.047C138.186 182.368 141.019 185.275 144.598 186.767C148.149 188.202 151.781 188.768 155.493 188.465C159.178 188.106 163.627 187.329 168.838 186.136C172.885 185.196 175.85 184.679 177.734 184.584C179.676 184.463 180.949 185.028 181.553 186.279C182.075 187.359 181.859 188.463 180.903 189.591C179.92 190.663 177.995 191.853 175.125 193.159C171.786 194.679 168.067 195.782 163.969 196.468C159.843 197.098 155.916 197.253 152.191 196.938L152.6 214.645C156.005 215.037 159.961 214.868 164.465 214.135C169.029 213.376 173.563 212.109 178.066 210.337L181.713 217.888L180.801 219.356L182.429 219.369L182.432 219.377L194.822 213.738L190.248 204.272C196.259 200.149 200.169 195.525 201.981 190.401C203.823 185.193 203.591 180.202 201.284 175.426C199.196 171.106 196.347 168.241 192.737 166.832C189.185 165.397 185.538 164.871 181.795 165.258C178.024 165.587 173.589 166.392 168.491 167.672C164.53 168.643 161.621 169.205 159.765 169.356C157.882 169.45 156.652 168.9 156.075 167.706C154.866 165.204 156.927 162.741 162.258 160.315C167.646 157.862 174.071 156.741 181.533 156.951L180.726 139.53C174.573 139.071 167.831 140.128 160.5 142.702L156.091 133.576L156.038 133.6L156.059 133.576Z" fill="#1A1A1A"/>
<path d="M199.648 175.426C201.955 180.201 202.187 185.193 200.345 190.401C198.533 195.525 194.622 200.149 188.611 204.272L193.185 213.738L180.796 219.377L176.429 210.337C171.926 212.109 167.393 213.375 162.829 214.135C158.324 214.867 154.369 215.038 150.965 214.645L150.555 196.938C154.281 197.254 158.206 197.097 162.332 196.467C166.431 195.781 170.149 194.678 173.488 193.158C176.358 191.852 178.285 190.663 179.267 189.591C180.223 188.463 180.44 187.359 179.918 186.278C179.313 185.028 178.04 184.463 176.098 184.584C174.214 184.678 171.249 185.196 167.202 186.136C161.99 187.329 157.542 188.106 153.857 188.465C150.145 188.768 146.513 188.202 142.961 186.767C139.382 185.275 136.549 182.368 134.461 178.047C132.044 173.044 131.815 167.912 133.775 162.651C135.793 157.363 140.054 152.649 146.558 148.51L142.067 139.215L154.455 133.576L158.864 142.701C166.195 140.127 172.936 139.07 179.089 139.529L179.897 156.951C172.435 156.741 166.01 157.862 160.621 160.315C155.291 162.741 153.23 165.205 154.439 167.706C155.015 168.9 156.246 169.45 158.129 169.355C159.985 169.204 162.894 168.643 166.855 167.672C171.953 166.392 176.388 165.588 180.159 165.258C183.902 164.872 187.55 165.397 191.101 166.832C194.711 168.24 197.56 171.105 199.648 175.426V175.426Z" fill="white"/>
</g>
<path d="M154.163 88.4361C153.307 81.0617 158.129 74.2576 165.339 72.487C280.034 44.3189 393.97 22.9858 507.259 7.47417C514.758 6.44745 521.842 11.1959 523.653 18.5447C531.572 50.6914 537.623 82.838 541.523 114.985C542.444 122.578 537.358 129.56 529.877 131.153C417.255 155.136 303.84 176.214 190.176 196.374C182.715 197.698 175.421 193.249 173.362 185.956C164.403 154.217 158.022 121.705 154.163 88.4361Z" fill="#8FC93A"/>
<g filter="url(#filter1_d_25_209)">
<path d="M219.815 186.274C219.579 178.854 224.952 172.477 232.284 171.315C348.933 152.827 464.254 141.086 578.443 135.093C586.002 134.696 592.665 140.02 593.855 147.495C599.059 180.191 602.402 212.731 603.601 245.091C603.884 252.734 598.233 259.266 590.645 260.229C476.412 274.719 361.632 286.249 246.68 296.844C239.134 297.539 232.237 292.496 230.795 285.057C224.52 252.68 220.88 219.748 219.815 186.274Z" fill="#E4CC37"/>
</g>
<path d="M241.829 158.499C234.04 159.872 226.738 159.496 219.924 157.37C213.097 155.173 207.381 151.479 202.774 146.288C198.226 141.013 195.296 134.658 193.983 127.222C192.671 119.786 193.255 112.847 195.736 106.406C198.275 99.8826 202.382 94.4568 208.057 90.1288C213.72 85.7307 220.446 82.8451 228.235 81.472C235.392 80.2102 242 80.3473 248.059 81.8831C254.118 83.419 259.393 86.2504 263.884 90.3775L250.671 107.138C245.095 102.189 239.22 100.259 233.045 101.348C227.852 102.263 223.974 104.683 221.411 108.607C218.835 112.461 218.043 117.194 219.033 122.806C220.024 128.418 222.395 132.63 226.147 135.44C229.886 138.181 234.352 139.093 239.545 138.178C245.719 137.089 250.58 133.267 254.125 126.71L272.278 137.941C269.471 143.354 265.484 147.819 260.316 151.334C255.148 154.849 248.986 157.237 241.829 158.499V158.499Z" fill="white"/>
<path d="M328.629 128.221L300.632 133.156L297.95 146.866L272.69 151.32L291.897 71.9813L316.316 67.6764L361.523 135.659L335.842 140.186L328.629 128.221ZM318.631 111.538L308.205 94.2791L304.316 114.061L318.631 111.538Z" fill="white"/>
<path d="M393.294 131.79C387.189 132.867 381.107 133.252 375.048 132.946C369.047 132.557 363.982 131.533 359.855 129.874L364.66 110.364C368.527 111.78 372.748 112.736 377.321 113.232C381.882 113.657 386.162 113.517 390.162 112.812C393.6 112.206 396 111.458 397.362 110.566C398.712 109.605 399.269 108.458 399.034 107.125C398.761 105.582 397.575 104.598 395.474 104.172C393.443 103.735 390.137 103.449 385.556 103.317C379.661 103.126 374.702 102.698 370.678 102.033C366.641 101.298 362.947 99.635 359.596 97.0431C356.232 94.3811 354.08 90.3843 353.139 85.0528C352.322 80.4228 352.877 75.9848 354.804 71.7389C356.732 67.493 360.065 63.8312 364.804 60.7534C369.612 57.6633 375.7 55.4688 383.068 54.17C388.12 53.2793 393.166 52.9684 398.206 53.2373C403.303 53.4236 407.897 54.2413 411.987 55.6902L407.69 75.0016C399.819 72.6278 392.656 72.01 386.2 73.1481C379.815 74.2738 376.895 76.38 377.439 79.4667C377.699 80.9398 378.845 81.8952 380.876 82.3329C382.894 82.7005 386.153 82.9216 390.652 82.9965C396.451 83.0592 401.404 83.4518 405.51 84.1745C409.605 84.827 413.328 86.4492 416.679 89.0411C420.101 91.6206 422.282 95.5761 423.223 100.908C424.04 105.538 423.485 109.976 421.557 114.222C419.617 118.397 416.249 122.065 411.453 125.226C406.714 128.303 400.661 130.492 393.294 131.79Z" fill="white"/>
<path d="M494.305 36.2924L507.305 109.952L482.465 114.331L477.674 87.1824L454.729 91.2275L459.52 118.376L434.68 122.756L421.681 49.0957L446.52 44.7166L451.126 70.8132L474.071 66.7681L469.465 40.6715L494.305 36.2924Z" fill="white"/>
<path d="M313.317 221.904C317.875 223.098 321.514 225.136 324.234 228.015C326.955 230.895 328.533 234.533 328.97 238.928C329.617 245.449 327.426 250.785 322.397 254.934C317.36 259.013 309.736 261.559 299.526 262.572L257.621 266.728L250.23 192.298L290.008 188.352C299.934 187.368 307.591 188.398 312.977 191.443C318.434 194.481 321.455 198.942 322.039 204.825C322.384 208.299 321.807 211.505 320.309 214.446C318.882 217.379 316.551 219.865 313.317 221.904ZM276.647 207.395L277.745 218.453L289.445 217.292C294.904 216.751 297.451 214.637 297.085 210.951C296.719 207.265 293.806 205.693 288.347 206.234L276.647 207.395ZM295.657 245.238C301.187 244.69 303.759 242.466 303.372 238.567C302.985 234.669 300.026 232.994 294.495 233.542L279.393 235.04L280.554 246.736L295.657 245.238Z" fill="white"/>
<path d="M389.281 240.567L360.99 243.373L357.28 256.841L331.754 259.373L356.908 181.715L381.583 179.267L421.52 250.47L395.568 253.044L389.281 240.567ZM380.573 223.177L371.483 205.18L366.109 224.612L380.573 223.177Z" fill="white"/>
<path d="M463.17 248.054C455.299 248.835 448.047 247.908 441.413 245.273C434.771 242.567 429.35 238.452 425.15 232.927C421.014 227.324 418.572 220.766 417.826 213.252C417.08 205.738 418.187 198.864 421.148 192.628C424.173 186.315 428.679 181.215 434.666 177.329C440.645 173.371 447.57 171.002 455.441 170.222C462.673 169.504 469.252 170.14 475.178 172.129C481.103 174.119 486.149 177.341 490.315 181.795L475.872 197.509C470.686 192.153 464.973 189.785 458.734 190.404C453.487 190.924 449.437 193.044 446.584 196.763C443.724 200.411 442.576 205.07 443.139 210.741C443.702 216.412 445.748 220.791 449.276 223.877C452.798 226.892 457.182 228.139 462.429 227.619C468.669 227 473.804 223.555 477.836 217.286L495.087 229.856C491.879 235.042 487.565 239.192 482.146 242.306C476.727 245.421 470.402 247.337 463.17 248.054V248.054Z" fill="white"/>
<path d="M531.493 214.646L526.479 221.478L528.306 239.873L503.631 242.321L496.24 167.891L520.915 165.443L523.596 192.451L545.377 163.017L572.71 160.306L546.182 196.009L581.59 234.588L552.555 237.468L531.493 214.646Z" fill="white"/>
<g filter="url(#filter2_d_25_209)">
<path d="M681 91.6681C681 113.061 672.211 133.578 656.567 148.705C640.922 163.832 619.704 172.331 597.579 172.331C575.454 172.331 554.236 163.832 538.591 148.705C522.947 133.578 514.158 113.061 514.158 91.6681C514.158 81.0753 516.316 70.5863 520.508 60.7999C524.7 51.0134 530.845 42.1212 538.591 34.631C546.338 27.1408 555.534 21.1992 565.655 17.1456C575.776 13.0919 586.624 11.0055 597.579 11.0055C608.534 11.0055 619.382 13.0919 629.503 17.1456C639.624 21.1992 648.82 27.1408 656.567 34.631C664.313 42.1212 670.458 51.0134 674.65 60.7999C678.842 70.5863 681 81.0753 681 91.6681V91.6681Z" fill="#976D0A"/>
<path d="M674.095 83.8261C674.095 94.3914 672.014 104.853 667.969 114.614C663.925 124.375 657.997 133.244 650.523 140.715C643.05 148.186 634.178 154.112 624.414 158.155C614.65 162.199 604.185 164.28 593.616 164.28C583.047 164.28 572.582 162.199 562.818 158.155C553.054 154.112 544.182 148.186 536.709 140.715C529.235 133.244 523.307 124.375 519.263 114.614C515.218 104.853 513.137 94.3914 513.137 83.8261C513.137 62.4885 521.616 42.0248 536.709 26.9369C551.801 11.8489 572.272 3.37261 593.616 3.3726C604.185 3.3726 614.65 5.4536 624.414 9.49676C634.178 13.5399 643.05 19.4661 650.523 26.9369C657.997 34.4077 663.925 43.2768 667.969 53.0379C672.014 62.7989 674.095 73.2608 674.095 83.8261V83.8261Z" fill="#F2D330"/>
<path d="M658.055 80.5553C658.055 88.8002 656.431 96.9642 653.275 104.581C650.119 112.199 645.492 119.12 639.661 124.95C633.829 130.78 626.905 135.404 619.286 138.56C611.666 141.715 603.499 143.339 595.252 143.339C587.004 143.339 578.838 141.715 571.218 138.56C563.598 135.404 556.675 130.78 550.843 124.95C545.011 119.12 540.385 112.199 537.229 104.581C534.073 96.9642 532.448 88.8002 532.448 80.5553C532.448 72.3105 534.073 64.1464 537.229 56.5292C540.385 48.912 545.011 41.9908 550.843 36.1608C556.675 30.3308 563.598 25.7062 571.218 22.5511C578.838 19.3959 587.004 17.772 595.252 17.772C603.499 17.772 611.666 19.3959 619.286 22.5511C626.905 25.7062 633.829 30.3308 639.661 36.1608C645.492 41.9908 650.119 48.912 653.275 56.5292C656.431 64.1464 658.055 72.3105 658.055 80.5553V80.5553Z" fill="#CD940D"/>
<path d="M651.893 77.2843C651.893 84.9349 650.385 92.5105 647.456 99.5787C644.528 106.647 640.235 113.069 634.824 118.479C629.412 123.889 622.988 128.18 615.917 131.108C608.847 134.035 601.269 135.542 593.616 135.542C578.16 135.542 563.337 129.405 552.408 118.479C541.479 107.553 535.339 92.7353 535.339 77.2843C535.339 61.8333 541.479 47.0152 552.408 36.0896C563.337 25.1641 578.16 19.0263 593.616 19.0263C601.269 19.0263 608.847 20.5331 615.917 23.4609C622.988 26.3886 629.412 30.6799 634.824 36.0896C640.235 41.4994 644.528 47.9217 647.456 54.9899C650.385 62.0581 651.893 69.6338 651.893 77.2843V77.2843Z" fill="#F0B018"/>
<path d="M613.857 36.8122C613.594 36.8141 613.394 36.8304 613.394 36.8761C613.394 36.9506 613.657 37.897 613.898 38.6519L609.252 45.7109C601.747 42.4109 595.014 41.3343 589.054 42.483C583.151 43.6671 578.628 46.6486 575.484 51.4254C572.769 55.5508 571.766 59.5442 572.477 63.4063C573.223 67.2141 574.804 70.6186 577.219 73.6205C579.67 76.5681 582.939 79.9414 587.027 83.7385C590.214 86.6798 592.395 88.9271 593.567 90.4823C594.797 92.073 595.019 93.4658 594.233 94.66C593.554 95.6914 592.427 96.105 590.852 95.9027C589.314 95.646 587.124 94.6491 584.284 92.9103C580.98 90.8876 577.836 88.3154 574.849 85.1925C571.899 82.0159 569.493 78.7527 567.631 75.4049C567.631 75.4049 567.631 75.4033 567.631 75.4033L567.629 75.4033L565.987 75.397C565.987 75.397 566.09 75.7964 566.225 76.2881L551.804 85.3632C553.411 88.4799 555.847 91.7607 559.11 95.2051C562.431 98.6849 566.193 101.863 570.397 104.742L564.716 113.372L575.408 119.918L575.329 119.921L575.336 120.878L576.975 120.877L582.925 111.84C590.131 114.728 596.58 115.555 602.273 114.319C608.06 113.064 612.454 110.156 615.455 105.597C618.17 101.471 619.126 97.4862 618.322 93.6429C617.575 89.835 615.948 86.4405 613.439 83.4575C610.965 80.4201 607.677 77.074 603.576 73.4209C600.411 70.5694 598.225 68.3937 597.017 66.8927C595.845 65.3375 595.635 63.9907 596.385 62.8507C597.957 60.4624 601.381 60.8826 606.655 64.1118C611.988 67.3765 616.71 72.2474 620.823 78.7251L636.159 68.5816C633.028 63.0851 628.181 57.9086 621.618 53.0532L627.352 44.3412L615.094 36.836L615.079 36.8584C615.039 36.8557 614.345 36.8085 613.857 36.8122Z" fill="#1A1A1A"/>
<path d="M613.82 105.599C610.819 110.159 606.425 113.066 600.638 114.322C594.945 115.558 588.495 114.732 581.288 111.843L575.339 120.881L563.079 113.375L568.76 104.744C564.556 101.865 560.793 98.6859 557.472 95.2058C554.21 91.7612 551.774 88.4805 550.166 85.3635L565.993 75.4036C567.855 78.7523 570.261 82.0153 573.212 85.1927C576.198 88.3158 579.343 90.8888 582.647 92.9116C585.488 94.6505 587.677 95.6483 589.216 95.905C590.791 96.1074 591.918 95.6929 592.596 94.6615C593.382 93.4672 593.16 92.0747 591.93 90.4839C590.758 88.9286 588.579 86.6802 585.391 83.7387C581.304 79.9413 578.034 76.5688 575.583 73.621C573.167 70.6189 571.586 67.2139 570.84 63.4058C570.129 59.5434 571.131 55.5495 573.847 51.4238C576.991 46.6467 581.515 43.666 587.417 42.4818C593.378 41.3331 600.111 42.4089 607.616 45.7091L613.458 36.8335L625.718 44.3393L619.983 53.052C626.546 57.9077 631.394 63.084 634.525 68.5809L619.187 78.7255C615.075 72.2474 610.352 67.376 605.019 64.1111C599.744 60.8817 596.321 60.4612 594.749 62.8497C593.999 63.9897 594.209 65.3374 595.381 66.8927C596.589 68.3937 598.776 70.5701 601.941 73.4218C606.042 77.0751 609.329 80.4205 611.803 83.4581C614.312 86.4413 615.94 89.837 616.687 93.6451C617.491 97.4886 616.536 101.473 613.82 105.599V105.599Z" fill="white"/>
</g>
<path fill-rule="evenodd" clip-rule="evenodd" d="M49.873 385.35C75.8318 385.35 96.8755 364.306 96.8755 338.347C96.8755 312.388 75.8318 291.344 49.873 291.344C23.9141 291.344 2.87036 312.388 2.87036 338.347C2.87036 364.306 23.9141 385.35 49.873 385.35ZM49.8729 367.638C66.0502 367.638 79.1644 354.524 79.1644 338.347C79.1644 322.17 66.0502 309.055 49.8729 309.055C33.6957 309.055 20.5814 322.17 20.5814 338.347C20.5814 354.524 33.6957 367.638 49.8729 367.638Z" fill="white"/>
<path d="M72.3097 299.705C70.7172 297.996 68.7696 296.657 66.6039 295.782C64.4382 294.907 62.107 294.518 59.7745 294.641C55.4805 295.034 52.0477 296.491 45.0652 299.455L24.1198 308.348C17.1955 311.287 13.7046 312.769 10.4696 315.505C8.76015 317.101 7.42195 319.053 6.54941 321.224C5.67687 323.394 5.29126 325.729 5.41979 328.065C5.83018 332.32 7.30014 335.783 10.2398 342.707L19.1443 363.682C22.0963 370.635 23.5536 374.068 26.2998 377.329C27.8924 379.037 29.84 380.376 32.0056 381.251C34.1713 382.126 36.5024 382.515 38.8348 382.392C43.0877 381.983 46.5495 380.513 53.4738 377.574L74.4774 368.657C81.4308 365.705 84.8927 364.235 88.1243 361.501C89.8414 359.906 91.1866 357.952 92.0646 355.779C92.9425 353.605 93.3318 351.265 93.2047 348.925C92.7955 344.672 91.3258 341.21 88.3862 334.286L79.5061 313.369C76.5541 306.415 75.0844 302.954 72.3091 299.705L72.3097 299.705ZM60.18 320.62L58.6358 324.443C58.4776 324.797 58.1936 325.08 57.8388 325.237C57.484 325.394 57.0836 325.414 56.715 325.293C53.184 324.201 49.3808 324.392 45.9771 325.832C43.1789 327.02 40.7727 329.134 41.8619 331.7C42.9643 334.296 46.3321 333.888 50.3445 333.715C57.2605 333.162 63.3593 333.572 65.8817 339.513C68.6252 345.975 65.4884 352.55 57.5062 356.519L58.2258 360.299C58.2942 360.646 58.2409 361.005 58.075 361.317C57.909 361.629 57.6406 361.875 57.3148 362.012L52.1565 364.202L51.8844 364.283C51.4795 364.357 51.0617 364.269 50.7213 364.037C50.3809 363.806 50.1452 363.45 50.0652 363.046L49.3173 359.039C45.8768 359.579 42.3554 359.234 39.0852 358.037L39.0729 358.007C38.7025 357.858 38.4068 357.567 38.2506 357.199C38.0945 356.831 38.0907 356.416 38.2401 356.046L39.9377 352.028C40.0954 351.671 40.383 351.388 40.742 351.236C41.101 351.083 41.5046 351.073 41.8708 351.207C45.5702 352.581 49.6592 352.457 53.2689 350.863C57.0196 349.271 58.8563 346.619 57.7901 344.107C56.7239 341.596 53.9041 342.013 48.3554 342.256C42.506 342.595 36.598 342.072 34.0503 336.071C31.0862 329.09 35.4398 323.223 42.1705 319.988L41.3851 316.133C41.3188 315.789 41.3747 315.432 41.543 315.124C41.7114 314.817 41.9817 314.577 42.3075 314.447L47.4428 312.267L47.744 312.174C47.9381 312.135 48.138 312.136 48.3321 312.175C48.5261 312.214 48.7105 312.291 48.8746 312.402C49.0387 312.513 49.1793 312.655 49.2882 312.82C49.3972 312.985 49.4724 313.171 49.5094 313.365L50.4083 317.649C53.3953 317.406 56.401 317.737 59.2639 318.622L59.3458 318.655C59.5304 318.728 59.6986 318.837 59.8407 318.975C59.9827 319.114 60.0958 319.279 60.1734 319.462C60.2509 319.644 60.2913 319.84 60.2922 320.039C60.293 320.237 60.2544 320.434 60.1786 320.617L60.18 320.62Z" fill="white"/>
<path fill-rule="evenodd" clip-rule="evenodd" d="M62.7896 533.183C76.4625 533.183 87.5466 522.099 87.5466 508.426C87.5466 494.753 76.4625 483.669 62.7896 483.669C49.1166 483.669 38.0325 494.753 38.0325 508.426C38.0325 522.099 49.1166 533.183 62.7896 533.183ZM62.7896 523.854C71.3104 523.854 78.2179 516.947 78.2179 508.426C78.2179 499.905 71.3104 492.998 62.7896 492.998C54.2688 492.998 47.3613 499.905 47.3613 508.426C47.3613 516.947 54.2688 523.854 62.7896 523.854Z" fill="white"/>
<path d="M74.1729 488.914C73.3771 488.06 72.4037 487.391 71.3213 486.954C70.2389 486.517 69.0738 486.322 67.908 486.383C65.7621 486.58 64.0458 487.308 60.5562 488.79L50.0874 493.234C46.6243 494.704 44.8821 495.444 43.2666 496.811C42.4119 497.609 41.7428 498.585 41.3066 499.67C40.8704 500.755 40.6777 501.922 40.7421 503.09C40.9463 505.215 41.68 506.944 43.1503 510.407L47.6003 520.889C49.0756 524.364 49.8042 526.08 51.1769 527.71C51.9729 528.564 52.9464 529.233 54.0289 529.67C55.1114 530.108 56.2766 530.302 57.4425 530.241C59.568 530.037 61.2989 529.302 64.7594 527.833L75.2552 523.377C78.7303 521.901 80.4605 521.167 82.076 519.8C82.9342 519.003 83.6065 518.026 84.0453 516.94C84.484 515.854 84.6786 514.684 84.6151 513.515C84.4109 511.389 83.6761 509.658 82.2069 506.198L77.769 495.744C76.2937 492.269 75.5591 490.539 74.1716 488.915L74.1729 488.914ZM68.1097 499.367L67.338 501.277C67.2589 501.454 67.117 501.596 66.9396 501.674C66.7623 501.753 66.5621 501.762 66.3779 501.702C64.6137 501.156 62.7134 501.252 61.0126 501.971C59.6141 502.565 58.4114 503.621 58.9557 504.904C59.5067 506.202 61.1898 505.997 63.1956 505.912C66.6523 505.635 69.6999 505.839 70.9611 508.81C72.3323 512.04 70.7636 515.327 66.7747 517.309L67.1345 519.199C67.1689 519.372 67.1426 519.551 67.06 519.707C66.9775 519.863 66.8437 519.986 66.6813 520.055L64.1005 521.151L63.9621 521.192C63.7598 521.229 63.5511 521.185 63.381 521.069C63.211 520.954 63.0932 520.776 63.0531 520.574L62.6794 518.571C60.9599 518.842 59.1998 518.67 57.5653 518.071L57.5591 518.056C57.4673 518.02 57.3836 517.965 57.3129 517.896C57.2422 517.826 57.1859 517.744 57.1472 517.653C57.1085 517.561 57.0882 517.464 57.0874 517.365C57.0867 517.266 57.1055 517.167 57.1428 517.076L57.9911 515.065C58.07 514.887 58.2137 514.745 58.3932 514.669C58.5726 514.593 58.7744 514.588 58.9574 514.655C60.807 515.341 62.8516 515.279 64.6562 514.482C66.5305 513.686 67.4489 512.36 66.9158 511.104C66.3827 509.849 64.9734 510.057 62.2 510.179C59.2763 510.348 56.3234 510.087 55.0498 507.088C53.5684 503.598 55.7439 500.666 59.1087 499.05L58.7158 497.123C58.6824 496.951 58.71 496.773 58.7939 496.62C58.8777 496.466 59.0126 496.346 59.1752 496.282L61.7421 495.192L61.8924 495.145C61.9895 495.126 62.0894 495.126 62.1864 495.146C62.2835 495.165 62.3757 495.204 62.4577 495.259C62.5398 495.315 62.61 495.386 62.6644 495.468C62.7188 495.551 62.7563 495.644 62.7748 495.741L63.2241 497.882C64.7174 497.76 66.2201 497.925 67.6513 498.368L67.6927 498.385C67.785 498.421 67.8692 498.475 67.9403 498.545C68.0113 498.614 68.0679 498.696 68.1067 498.788C68.1454 498.879 68.1656 498.977 68.166 499.076C68.1665 499.176 68.1471 499.274 68.1091 499.366L68.1097 499.367Z" fill="white"/>
<path fill-rule="evenodd" clip-rule="evenodd" d="M186.934 468.591C200.607 468.591 211.691 457.507 211.691 443.834C211.691 430.161 200.607 419.077 186.934 419.077C173.261 419.077 162.177 430.161 162.177 443.834C162.177 457.507 173.261 468.591 186.934 468.591ZM186.934 459.262C195.455 459.262 202.362 452.354 202.362 443.834C202.362 435.313 195.455 428.405 186.934 428.405C178.413 428.405 171.506 435.313 171.506 443.834C171.506 452.354 178.413 459.262 186.934 459.262Z" fill="white"/>
<path d="M198.317 424.575C197.521 423.721 196.548 423.052 195.466 422.614C194.383 422.177 193.218 421.982 192.052 422.043C189.906 422.24 188.19 422.969 184.7 424.45L174.232 428.894C170.769 430.365 169.026 431.104 167.411 432.471C166.556 433.269 165.887 434.245 165.451 435.33C165.015 436.415 164.822 437.583 164.886 438.75C165.091 440.876 165.824 442.604 167.295 446.067L171.745 456.549C173.22 460.024 173.949 461.741 175.321 463.37C176.117 464.224 177.091 464.893 178.173 465.331C179.256 465.768 180.421 465.963 181.587 465.901C183.712 465.697 185.443 464.962 188.904 463.493L199.4 459.037C202.875 457.562 204.605 456.827 206.22 455.46C207.078 454.663 207.751 453.686 208.19 452.6C208.628 451.514 208.823 450.345 208.759 449.175C208.555 447.05 207.82 445.319 206.351 441.858L201.913 431.405C200.438 427.929 199.703 426.199 198.316 424.575L198.317 424.575ZM192.254 435.027L191.482 436.937C191.403 437.114 191.261 437.256 191.084 437.334C190.907 437.413 190.706 437.423 190.522 437.362C188.758 436.817 186.858 436.912 185.157 437.631C183.758 438.225 182.556 439.282 183.1 440.564C183.651 441.862 185.334 441.658 187.34 441.572C190.797 441.296 193.844 441.499 195.105 444.47C196.477 447.7 194.908 450.987 190.919 452.97L191.279 454.859C191.313 455.032 191.287 455.212 191.204 455.368C191.122 455.524 190.988 455.646 190.826 455.715L188.245 456.811L188.106 456.852C187.904 456.889 187.695 456.845 187.525 456.73C187.355 456.614 187.237 456.436 187.197 456.235L186.824 454.232C185.104 454.502 183.344 454.33 181.71 453.731L181.703 453.717C181.612 453.68 181.528 453.625 181.457 453.556C181.386 453.487 181.33 453.404 181.291 453.313C181.253 453.222 181.232 453.124 181.232 453.025C181.231 452.926 181.25 452.828 181.287 452.736L182.135 450.725C182.214 450.547 182.358 450.405 182.537 450.329C182.717 450.253 182.919 450.248 183.102 450.315C184.951 451.002 186.996 450.94 188.8 450.142C190.675 449.346 191.593 448.021 191.06 446.765C190.527 445.509 189.118 445.717 186.344 445.839C183.421 446.008 180.468 445.748 179.194 442.748C177.713 439.258 179.888 436.326 183.253 434.71L182.86 432.784C182.827 432.612 182.854 432.434 182.938 432.28C183.022 432.126 183.157 432.007 183.319 431.942L185.886 430.852L186.037 430.806C186.134 430.786 186.234 430.786 186.331 430.806C186.428 430.826 186.52 430.864 186.602 430.92C186.684 430.975 186.754 431.046 186.809 431.129C186.863 431.211 186.901 431.304 186.919 431.401L187.368 433.542C188.862 433.421 190.364 433.586 191.796 434.028L191.837 434.045C191.929 434.081 192.013 434.136 192.085 434.205C192.156 434.274 192.212 434.357 192.251 434.448C192.29 434.539 192.31 434.638 192.31 434.737C192.311 434.836 192.291 434.934 192.253 435.026L192.254 435.027Z" fill="white"/>
<defs>
<filter id="filter0_d_25_209" x="83.5469" y="102.682" width="176.58" height="180.406" filterUnits="userSpaceOnUse" color-interpolation-filters="sRGB">
<feFlood flood-opacity="0" result="BackgroundImageFix"/>
<feColorMatrix in="SourceAlpha" type="matrix" values="0 0 0 0 0 0 0 0 0 0 0 0 0 0 0 0 0 0 127 0" result="hardAlpha"/>
<feOffset dy="4"/>
<feGaussianBlur stdDeviation="2"/>
<feComposite in2="hardAlpha" operator="out"/>
<feColorMatrix type="matrix" values="0 0 0 0 0 0 0 0 0 0 0 0 0 0 0 0 0 0 0.25 0"/>
<feBlend mode="normal" in2="BackgroundImageFix" result="effect1_dropShadow_25_209"/>
<feBlend mode="normal" in="SourceGraphic" in2="effect1_dropShadow_25_209" result="shape"/>
</filter>
<filter id="filter1_d_25_209" x="215.807" y="135.072" width="391.804" height="169.835" filterUnits="userSpaceOnUse" color-interpolation-filters="sRGB">
<feFlood flood-opacity="0" result="BackgroundImageFix"/>
<feColorMatrix in="SourceAlpha" type="matrix" values="0 0 0 0 0 0 0 0 0 0 0 0 0 0 0 0 0 0 127 0" result="hardAlpha"/>
<feOffset dy="4"/>
<feGaussianBlur stdDeviation="2"/>
<feComposite in2="hardAlpha" operator="out"/>
<feColorMatrix type="matrix" values="0 0 0 0 0 0 0 0 0 0 0 0 0 0 0 0 0 0 0.25 0"/>
<feBlend mode="normal" in2="BackgroundImageFix" result="effect1_dropShadow_25_209"/>
<feBlend mode="normal" in="SourceGraphic" in2="effect1_dropShadow_25_209" result="shape"/>
</filter>
<filter id="filter2_d_25_209" x="509.137" y="3.3726" width="175.864" height="176.958" filterUnits="userSpaceOnUse" color-interpolation-filters="sRGB">
<feFlood flood-opacity="0" result="BackgroundImageFix"/>
<feColorMatrix in="SourceAlpha" type="matrix" values="0 0 0 0 0 0 0 0 0 0 0 0 0 0 0 0 0 0 127 0" result="hardAlpha"/>
<feOffset dy="4"/>
<feGaussianBlur stdDeviation="2"/>
<feComposite in2="hardAlpha" operator="out"/>
<feColorMatrix type="matrix" values="0 0 0 0 0 0 0 0 0 0 0 0 0 0 0 0 0 0 0.25 0"/>
<feBlend mode="normal" in2="BackgroundImageFix" result="effect1_dropShadow_25_209"/>
<feBlend mode="normal" in="SourceGraphic" in2="effect1_dropShadow_25_209" result="shape"/>
</filter>
</defs>
</svg>
