<svg width="61" height="60" viewBox="0 0 61 60" fill="none" xmlns="http://www.w3.org/2000/svg">
<path d="M30.5356 60C47.1042 60 60.5356 46.5685 60.5356 30C60.5356 13.4315 47.1042 0 30.5356 0C13.9671 0 0.535645 13.4315 0.535645 30C0.535645 46.5685 13.9671 60 30.5356 60Z" fill="#0A7003"/>
<path d="M28.3058 39.0791C27.7734 39.0795 27.2552 38.9091 26.8295 38.5935L26.8032 38.5741L21.2399 34.3758C20.7196 33.9822 20.3791 33.4008 20.2933 32.7594C20.2074 32.1181 20.3833 31.4694 20.7823 30.956C21.1812 30.4426 21.7705 30.1067 22.4205 30.022C23.0705 29.9373 23.728 30.1109 24.2484 30.5045L27.8514 33.2308L36.3657 22.2706C36.7645 21.7574 37.3535 21.4216 38.0032 21.3369C38.6529 21.2522 39.3101 21.4256 39.8302 21.819L39.7777 21.891L39.8319 21.819C40.3515 22.213 40.6914 22.7942 40.7771 23.4353C40.8627 24.0763 40.6871 24.7246 40.2887 25.238L30.2734 38.1234C30.0414 38.4205 29.7432 38.6608 29.4018 38.8257C29.0604 38.9906 28.6851 39.0757 28.305 39.0742L28.3058 39.0791Z" fill="white"/>
</svg>
