<svg width="94" height="94" viewBox="0 0 94 94" fill="none" xmlns="http://www.w3.org/2000/svg">
<g id="circle-check-regular (6) 1">
<path id="Vector" d="M45.6442 8.55829C55.48 8.55829 64.913 12.4656 71.868 19.4205C78.8229 26.3755 82.7302 35.8084 82.7302 45.6442C82.7302 55.48 78.8229 64.913 71.868 71.868C64.913 78.8229 55.48 82.7302 45.6442 82.7302C35.8084 82.7302 26.3755 78.8229 19.4205 71.868C12.4656 64.913 8.55829 55.48 8.55829 45.6442C8.55829 35.8084 12.4656 26.3755 19.4205 19.4205C26.3755 12.4656 35.8084 8.55829 45.6442 8.55829ZM45.6442 91.2885C57.7498 91.2885 69.3596 86.4795 77.9196 77.9196C86.4795 69.3596 91.2885 57.7498 91.2885 45.6442C91.2885 33.5386 86.4795 21.9288 77.9196 13.3689C69.3596 4.80893 57.7498 0 45.6442 0C33.5386 0 21.9288 4.80893 13.3689 13.3689C4.80893 21.9288 0 33.5386 0 45.6442C0 57.7498 4.80893 69.3596 13.3689 77.9196C21.9288 86.4795 33.5386 91.2885 45.6442 91.2885ZM65.7919 37.2642C67.4679 35.5882 67.4679 32.8781 65.7919 31.2199C64.1159 29.5618 61.4058 29.5439 59.7476 31.2199L39.9565 51.011L31.5765 42.631C29.9005 40.955 27.1904 40.955 25.5322 42.631C23.8741 44.307 23.8562 47.0171 25.5322 48.6753L36.9433 60.0864C38.6193 61.7624 41.3294 61.7624 42.9876 60.0864L65.7919 37.2642Z" fill="url(#paint0_linear_13064_5655)"/>
</g>
<defs>
<linearGradient id="paint0_linear_13064_5655" x1="171.085" y1="-53.4136" x2="-11.3868" y2="-46.0253" gradientUnits="userSpaceOnUse">
<stop stop-color="#001F80"/>
<stop offset="1" stop-color="#0C61FF"/>
</linearGradient>
</defs>
</svg>
