<svg width="323" height="226" viewBox="0 0 323 226" fill="none" xmlns="http://www.w3.org/2000/svg">
<path d="M127.523 156.28C127.441 156.282 127.36 156.263 127.287 156.226C127.215 156.189 127.152 156.134 127.106 156.066C125.164 153.466 122.34 151.663 119.164 150.994C115.988 150.326 112.678 150.837 109.851 152.433C109.78 152.468 109.702 152.486 109.623 152.486C109.544 152.486 109.466 152.468 109.395 152.433C109.322 152.403 109.257 152.358 109.205 152.3C109.152 152.242 109.113 152.173 109.09 152.098C108.009 148.66 105.75 145.713 102.711 143.775C99.6726 141.837 96.0481 141.032 92.4747 141.501C92.4013 141.51 92.3269 141.503 92.2563 141.481C92.1858 141.459 92.1207 141.422 92.0652 141.373C92.0097 141.325 91.9651 141.265 91.9342 141.197C91.9033 141.13 91.8869 141.057 91.886 140.984C91.9976 136.071 87.5519 132.173 83.8167 129.768C76.6957 125.2 68.681 122.207 60.3093 120.988C56.9395 120.501 45.6121 119.506 41.3897 127.078C41.3234 127.195 41.2144 127.281 41.0856 127.319C40.9569 127.357 40.8184 127.343 40.6995 127.281C34.6095 123.972 29.3112 122.582 24.4595 123.008C18.4304 123.556 13.193 127.383 11.7314 132.336C11.6705 132.529 11.6198 132.711 11.569 132.904C11.3987 133.857 10.9902 134.75 10.3815 135.503C9.68595 136.168 8.83973 136.656 7.91501 136.924L7.17406 137.208C5.62006 137.899 4.32034 139.057 3.4561 140.522C2.59186 141.986 2.20618 143.684 2.35281 145.379C2.36708 145.512 2.32814 145.645 2.24449 145.75C2.16083 145.854 2.03924 145.921 1.90621 145.937C1.84005 145.945 1.77286 145.94 1.70864 145.922C1.64443 145.904 1.5845 145.873 1.53241 145.832C1.48033 145.79 1.43716 145.738 1.40547 145.68C1.37379 145.621 1.35422 145.557 1.34796 145.49C1.1828 143.579 1.61692 141.663 2.59004 140.01C3.56316 138.357 5.02697 137.047 6.77821 136.264L7.56991 135.969C8.32268 135.762 9.01737 135.383 9.59991 134.863C10.0892 134.227 10.4166 133.482 10.554 132.691C10.6048 132.498 10.6555 132.295 10.7164 132.102C12.2998 126.763 17.8925 122.622 24.3276 122.054C29.3011 121.607 34.6704 122.967 40.7401 126.205C45.4599 118.522 56.9801 119.516 60.4413 120.024C68.9579 121.263 77.1113 124.308 84.3547 128.956C89.7646 132.437 92.7081 136.406 92.8908 140.456C96.5156 140.126 100.148 141.005 103.22 142.957C106.292 144.909 108.631 147.823 109.872 151.245C112.904 149.712 116.38 149.297 119.688 150.073C122.996 150.849 125.925 152.766 127.959 155.488C127.997 155.542 128.024 155.604 128.038 155.669C128.052 155.734 128.053 155.801 128.041 155.866C128.029 155.931 128.003 155.993 127.967 156.049C127.93 156.104 127.882 156.152 127.827 156.188C127.739 156.253 127.632 156.285 127.523 156.28V156.28Z" fill="#D1D3D4"/>
<path d="M281.691 13.4894H167.544V17.3464H281.691V13.4894Z" fill="white"/>
<path d="M281.691 17.8539H167.544C167.409 17.8539 167.28 17.8004 167.185 17.7053C167.09 17.6101 167.037 17.481 167.037 17.3464V13.53C167.037 13.3954 167.09 13.2663 167.185 13.1711C167.28 13.076 167.409 13.0225 167.544 13.0225H281.691C281.826 13.0225 281.955 13.076 282.05 13.1711C282.145 13.2663 282.198 13.3954 282.198 13.53V17.387C282.188 17.5144 282.13 17.6333 282.036 17.7199C281.942 17.8065 281.819 17.8543 281.691 17.8539V17.8539ZM168.011 16.8389H281.183V13.9969H168.052L168.011 16.8389Z" fill="#D1D3D4"/>
<path d="M281.691 25.4969H167.544V29.3539H281.691V25.4969Z" fill="white"/>
<path d="M281.691 29.8614H167.544C167.409 29.8614 167.28 29.8079 167.185 29.7127C167.09 29.6175 167.037 29.4885 167.037 29.3539V25.4969C167.037 25.3623 167.09 25.2332 167.185 25.138C167.28 25.0428 167.409 24.9894 167.544 24.9894H281.691C281.826 24.9894 281.955 25.0428 282.05 25.138C282.145 25.2332 282.198 25.3623 282.198 25.4969V29.3539C282.198 29.4885 282.145 29.6175 282.05 29.7127C281.955 29.8079 281.826 29.8614 281.691 29.8614ZM168.011 28.8464H281.183V26.0044H168.052L168.011 28.8464Z" fill="#D1D3D4"/>
<path d="M173.198 4.71982H163.515V39.7272H173.198V4.71982Z" fill="white"/>
<path d="M173.187 40.2347H163.515C163.38 40.2347 163.251 40.1812 163.156 40.086C163.06 39.9908 163.007 39.8618 163.007 39.7272V4.71981C163.007 4.58521 163.06 4.45613 163.156 4.36095C163.251 4.26578 163.38 4.21231 163.515 4.21231H173.187C173.322 4.21231 173.451 4.26578 173.546 4.36095C173.641 4.45613 173.695 4.58521 173.695 4.71981V39.7272C173.695 39.8618 173.641 39.9908 173.546 40.086C173.451 40.1812 173.322 40.2347 173.187 40.2347ZM164.052 39.2197H172.71V5.22731H164.022L164.052 39.2197Z" fill="#D1D3D4"/>
<path d="M210.966 4.71982H205.607V39.7272H210.966V4.71982Z" fill="white"/>
<path d="M210.915 40.2347H205.566C205.431 40.2347 205.302 40.1812 205.207 40.086C205.112 39.9908 205.058 39.8618 205.058 39.7272V4.71981C205.058 4.58521 205.112 4.45613 205.207 4.36095C205.302 4.26578 205.431 4.21231 205.566 4.21231H210.915C211.05 4.21231 211.179 4.26578 211.274 4.36095C211.369 4.45613 211.423 4.58521 211.423 4.71981V39.7272C211.423 39.8618 211.369 39.9908 211.274 40.086C211.179 40.1812 211.05 40.2347 210.915 40.2347ZM206.073 39.2197H210.408V5.22731H206.073V39.2197Z" fill="#D1D3D4"/>
<path d="M286.533 4.71982H276.849V39.7272H286.533V4.71982Z" fill="white"/>
<path d="M286.533 40.2347H276.89C276.755 40.2347 276.626 40.1812 276.531 40.086C276.436 39.9908 276.383 39.8618 276.383 39.7272V4.71981C276.383 4.58521 276.436 4.45613 276.531 4.36095C276.626 4.26578 276.755 4.21231 276.89 4.21231H286.573C286.707 4.21491 286.834 4.26921 286.929 4.36383C287.024 4.45845 287.078 4.58603 287.081 4.71981V39.7272C287.081 39.7974 287.067 39.8669 287.039 39.9312C287.011 39.9956 286.969 40.0535 286.918 40.1012C286.866 40.1489 286.806 40.1854 286.739 40.2083C286.673 40.2313 286.603 40.2403 286.533 40.2347ZM277.398 39.2197H286.025V5.22731H277.357L277.398 39.2197Z" fill="#D1D3D4"/>
<path d="M167.006 4.51681C166.872 4.51681 166.742 4.46334 166.647 4.36817C166.552 4.27299 166.499 4.14391 166.499 4.00931V1.41091C166.499 1.27631 166.552 1.14723 166.647 1.05205C166.742 0.95688 166.872 0.903412 167.006 0.903412C167.141 0.903412 167.27 0.95688 167.365 1.05205C167.46 1.14723 167.514 1.27631 167.514 1.41091V4.00931C167.514 4.14391 167.46 4.27299 167.365 4.36817C167.27 4.46334 167.141 4.51681 167.006 4.51681V4.51681Z" fill="#D1D3D4"/>
<path d="M170.833 4.51681C170.698 4.51681 170.569 4.46334 170.474 4.36817C170.379 4.27299 170.325 4.14391 170.325 4.00931V1.41091C170.325 1.27631 170.379 1.14723 170.474 1.05205C170.569 0.95688 170.698 0.903412 170.833 0.903412C170.967 0.903412 171.096 0.95688 171.192 1.05205C171.287 1.14723 171.34 1.27631 171.34 1.41091V4.00931C171.34 4.14391 171.287 4.27299 171.192 4.36817C171.096 4.46334 170.967 4.51681 170.833 4.51681V4.51681Z" fill="#D1D3D4"/>
<path d="M279.813 4.51681C279.679 4.51681 279.55 4.46334 279.454 4.36817C279.359 4.27299 279.306 4.14391 279.306 4.00931V1.41091C279.306 1.27631 279.359 1.14723 279.454 1.05205C279.55 0.95688 279.679 0.903412 279.813 0.903412C279.948 0.903412 280.077 0.95688 280.172 1.05205C280.267 1.14723 280.321 1.27631 280.321 1.41091V4.00931C280.321 4.14391 280.267 4.27299 280.172 4.36817C280.077 4.46334 279.948 4.51681 279.813 4.51681V4.51681Z" fill="#D1D3D4"/>
<path d="M283.65 4.51681C283.515 4.51681 283.386 4.46334 283.291 4.36817C283.196 4.27299 283.142 4.14391 283.142 4.00931V1.41091C283.142 1.27631 283.196 1.14723 283.291 1.05205C283.386 0.95688 283.515 0.903412 283.65 0.903412C283.785 0.903412 283.914 0.95688 284.009 1.05205C284.104 1.14723 284.157 1.27631 284.157 1.41091V4.00931C284.157 4.14391 284.104 4.27299 284.009 4.36817C283.914 4.46334 283.785 4.51681 283.65 4.51681V4.51681Z" fill="#D1D3D4"/>
<path d="M213.442 163.161H203.78V213.84H213.442V163.161Z" fill="white"/>
<path d="M213.442 214.348H203.81C203.675 214.348 203.546 214.294 203.451 214.199C203.356 214.104 203.303 213.975 203.303 213.84V163.161C203.305 163.028 203.359 162.9 203.454 162.805C203.549 162.711 203.676 162.656 203.81 162.654H213.473C213.607 162.654 213.736 162.707 213.832 162.802C213.927 162.898 213.98 163.027 213.98 163.161V213.84C213.98 213.91 213.966 213.978 213.939 214.042C213.912 214.105 213.871 214.163 213.821 214.21C213.771 214.258 213.711 214.295 213.646 214.318C213.581 214.342 213.512 214.352 213.442 214.348ZM204.307 213.333H212.945V163.669H204.297L204.307 213.333Z" fill="#231F20"/>
<path d="M272.607 163.161H262.944V213.84H272.607V163.161Z" fill="white"/>
<path d="M272.597 214.348H262.944C262.809 214.348 262.68 214.294 262.585 214.199C262.49 214.104 262.436 213.975 262.436 213.84V163.161C262.436 163.027 262.49 162.898 262.585 162.802C262.68 162.707 262.809 162.654 262.944 162.654H272.597C272.731 162.654 272.86 162.707 272.955 162.802C273.051 162.898 273.104 163.027 273.104 163.161V213.84C273.104 213.975 273.051 214.104 272.955 214.199C272.86 214.294 272.731 214.348 272.597 214.348ZM263.462 213.333H272.099V163.669H263.462V213.333Z" fill="#231F20"/>
<path d="M302.671 109.519H260.853V156.493H302.671V109.519Z" fill="white"/>
<path d="M302.661 157H260.853C260.718 157 260.589 156.947 260.494 156.852C260.399 156.756 260.346 156.627 260.346 156.493V109.519C260.346 109.384 260.399 109.255 260.494 109.16C260.589 109.065 260.718 109.011 260.853 109.011H302.661C302.795 109.011 302.925 109.065 303.02 109.16C303.115 109.255 303.168 109.384 303.168 109.519V156.493C303.168 156.627 303.115 156.756 303.02 156.852C302.925 156.947 302.795 157 302.661 157ZM261.361 155.985H302.153V110.026H261.361V155.985Z" fill="#D1D3D4"/>
<path d="M260.914 109.519H145.965V156.493H260.914V109.519Z" fill="white"/>
<path d="M260.914 157H145.955C145.82 157 145.691 156.947 145.596 156.852C145.501 156.756 145.448 156.627 145.448 156.493V109.519C145.448 109.384 145.501 109.255 145.596 109.16C145.691 109.065 145.82 109.011 145.955 109.011H260.914C261.049 109.011 261.178 109.065 261.273 109.16C261.368 109.255 261.421 109.384 261.421 109.519V156.493C261.421 156.627 261.368 156.756 261.273 156.852C261.178 156.947 261.049 157 260.914 157ZM146.473 155.985H260.406V110.026H146.473V155.985Z" fill="#D1D3D4"/>
<path d="M293.932 39.2501H252.063V109.407H293.932V39.2501Z" fill="white"/>
<path d="M293.932 109.955H252.063C251.929 109.955 251.799 109.902 251.704 109.806C251.609 109.711 251.556 109.582 251.556 109.448V39.2501C251.556 39.1155 251.609 38.9864 251.704 38.8913C251.799 38.7961 251.929 38.7426 252.063 38.7426H293.932C294.066 38.7426 294.196 38.7961 294.291 38.8913C294.386 38.9864 294.439 39.1155 294.439 39.2501V109.407C294.445 109.477 294.436 109.547 294.413 109.614C294.39 109.68 294.354 109.741 294.306 109.792C294.258 109.844 294.2 109.885 294.136 109.913C294.072 109.941 294.002 109.955 293.932 109.955ZM252.53 108.94H293.384V39.7576H252.53V108.94Z" fill="#D1D3D4"/>
<path d="M322.189 157.284H0.881066C0.746468 157.284 0.617383 157.231 0.522209 157.136C0.427034 157.041 0.373566 156.912 0.373566 156.777C0.373566 156.642 0.427034 156.513 0.522209 156.418C0.617383 156.323 0.746468 156.269 0.881066 156.269H322.189C322.324 156.269 322.453 156.323 322.548 156.418C322.643 156.513 322.697 156.642 322.697 156.777C322.697 156.912 322.643 157.041 322.548 157.136C322.453 157.231 322.324 157.284 322.189 157.284Z" fill="#D1D3D4"/>
<path d="M81.9491 49.3392C81.9491 49.3392 99.4782 86.5288 101.823 91.8982C104.167 97.2675 93.7739 109.691 89.7443 106.666C85.7148 103.642 81.9491 49.3392 81.9491 49.3392Z" fill="#231F20"/>
<path d="M41.6536 207.395C41.6536 207.395 40.9634 211.891 41.9987 213.627C43.4135 216.065 44.2536 218.794 44.455 221.605C43.625 222.531 42.6121 223.276 41.48 223.791C40.348 224.306 39.1215 224.582 37.8778 224.599C33.7265 224.599 29.5751 221.483 29.1082 219.991C28.6413 218.499 32.4577 202.574 32.4577 202.574L41.6536 207.395Z" fill="white"/>
<path d="M37.8474 225.097C33.3915 225.097 29.1184 221.828 28.6007 220.123C28.1237 218.57 31.2905 205.121 31.9299 202.442C31.9498 202.367 31.9854 202.298 32.0345 202.238C32.0835 202.179 32.1448 202.13 32.2141 202.097C32.2834 202.062 32.3599 202.044 32.4374 202.044C32.515 202.044 32.5914 202.062 32.6607 202.097L41.8871 206.938C41.9816 206.987 42.0583 207.064 42.1057 207.159C42.1532 207.254 42.1691 207.361 42.151 207.466C41.9683 208.664 41.6638 212.064 42.4352 213.353C43.8743 215.834 44.725 218.612 44.9219 221.473C44.9316 221.54 44.9267 221.608 44.9074 221.673C44.8881 221.738 44.855 221.798 44.8103 221.849C43.9443 222.85 42.8763 223.658 41.6763 224.217C40.4762 224.777 39.1714 225.077 37.8474 225.097V225.097ZM32.7724 203.315C31.0063 210.765 29.3112 218.915 29.565 219.829C29.9507 221.057 33.899 224.082 37.8474 224.082C38.9888 224.069 40.116 223.827 41.1621 223.37C42.2082 222.913 43.152 222.251 43.9374 221.422C43.7395 218.769 42.9449 216.194 41.613 213.891C40.6589 212.297 40.9939 208.816 41.1563 207.689L32.7724 203.315Z" fill="#231F20"/>
<path d="M76.935 106.443L56.9294 111.985L52.301 54.1909C52.301 54.1909 68.815 50.273 72.875 52.1C76.935 53.927 76.935 106.443 76.935 106.443Z" fill="#231F20"/>
<path d="M56.9294 112.493C56.8252 112.487 56.724 112.456 56.635 112.401C56.5745 112.358 56.5242 112.301 56.4874 112.237C56.4506 112.172 56.4283 112.1 56.4219 112.026L51.7935 54.2315C51.7809 54.1114 51.8134 53.9908 51.8847 53.8933C51.9559 53.7958 52.0609 53.7282 52.1792 53.7037C52.8592 53.5413 68.9368 49.7554 73.0577 51.6737C77.1786 53.5921 77.4121 97.6532 77.4222 106.484C77.4233 106.595 77.3869 106.704 77.3188 106.792C77.2507 106.881 77.1548 106.944 77.0467 106.971L57.0613 112.513L56.9294 112.493ZM52.8694 54.6375L57.4166 111.386L76.4377 106.118C76.4377 80.9362 75.0573 53.724 72.6619 52.6278C69.1804 50.9835 55.4272 53.998 52.8389 54.5867L52.8694 54.6375Z" fill="#231F20"/>
<path d="M70.2563 198.027V211.557L76.7117 213.404L76.5595 210.633L79.4827 213.556C79.4827 213.556 96.829 216.672 96.7377 214.368C96.6463 212.064 94.8904 210.785 92.6777 209.638C90.333 208.4 84.1517 204.908 84.1517 204.908L83.228 194.992" fill="white"/>
<path d="M93.51 215.708C88.7706 215.49 84.0527 214.937 79.3913 214.053C79.2867 214.038 79.1903 213.988 79.1172 213.911L77.0872 211.932L77.1685 213.373C77.1737 213.455 77.1589 213.536 77.1253 213.611C77.0917 213.685 77.0402 213.75 76.9756 213.8C76.9131 213.852 76.8386 213.888 76.7588 213.903C76.6791 213.919 76.5966 213.915 76.5189 213.891L70.0635 212.044C69.958 212.013 69.8654 211.949 69.7996 211.861C69.7337 211.773 69.6981 211.666 69.6981 211.557V198.027C69.6981 197.892 69.7515 197.763 69.8467 197.668C69.9419 197.573 70.071 197.519 70.2056 197.519C70.3402 197.519 70.4692 197.573 70.5644 197.668C70.6596 197.763 70.7131 197.892 70.7131 198.027V211.171L76.1129 212.724L76.0012 210.694C75.9964 210.592 76.0225 210.491 76.076 210.404C76.1294 210.317 76.2079 210.248 76.301 210.207C76.3942 210.165 76.4977 210.152 76.5981 210.17C76.6986 210.189 76.7912 210.237 76.8639 210.308L79.6755 213.12C87.1053 214.439 95.4994 215.292 96.1896 214.368C96.0982 212.45 94.6163 211.272 92.4138 210.115C90.2112 208.958 83.9284 205.416 83.8675 205.375C83.7952 205.336 83.734 205.279 83.6897 205.21C83.6453 205.141 83.6192 205.061 83.6137 204.979L82.6901 195.063C82.6831 194.997 82.6894 194.93 82.7088 194.866C82.7281 194.802 82.76 194.743 82.8026 194.692C82.8452 194.641 82.8976 194.599 82.9567 194.569C83.0158 194.538 83.0805 194.52 83.1468 194.515C83.2804 194.506 83.4125 194.548 83.5161 194.633C83.6198 194.718 83.6873 194.839 83.7051 194.971L84.5983 204.624C85.7452 205.274 90.8304 208.136 92.8908 209.212C94.9513 210.288 97.0929 211.78 97.1944 214.378C97.2025 214.524 97.1753 214.669 97.1152 214.801C97.0551 214.934 96.9639 215.05 96.8493 215.139C96.4027 215.515 95.1441 215.708 93.51 215.708Z" fill="#231F20"/>
<path d="M39.2481 111.904L27.2 206.482C27.2 206.482 27.7075 210.237 35.858 210.704C44.0084 211.171 43.1863 209.252 43.1863 209.252L62.5728 142.049L67.8 201.863L85.4001 202.949L81.8984 104.576L39.2481 111.904Z" fill="#231F20"/>
<path d="M38.2737 211.282C37.5429 211.282 36.741 211.282 35.8681 211.201C27.403 210.724 26.7331 206.725 26.7331 206.553V206.38L38.7406 111.802C38.7556 111.695 38.8039 111.595 38.8785 111.517C38.9532 111.439 39.0505 111.386 39.1567 111.366L81.8578 104.038C81.9272 104.024 81.9987 104.026 82.0671 104.044C82.1356 104.061 82.1993 104.094 82.2536 104.139C82.3108 104.184 82.3577 104.241 82.391 104.306C82.4242 104.371 82.4432 104.442 82.4465 104.515L85.9381 202.888C85.9449 202.959 85.9347 203.03 85.9082 203.095C85.8817 203.16 85.8397 203.218 85.7858 203.264C85.7373 203.314 85.6786 203.352 85.6137 203.376C85.5489 203.401 85.4794 203.411 85.4103 203.406L67.8 202.32C67.6802 202.313 67.5669 202.263 67.4811 202.179C67.3953 202.095 67.3427 201.983 67.3331 201.863L62.3393 144.749L43.7445 209.273C43.7765 209.542 43.7078 209.813 43.5517 210.034C42.963 210.866 41.2273 211.282 38.2737 211.282ZM27.7481 206.461C27.8598 206.877 28.8849 209.801 35.929 210.196C41.004 210.481 42.3235 209.821 42.6483 209.527C42.7295 209.455 42.7498 209.405 42.7498 209.395C42.7296 209.35 42.7192 209.301 42.7192 209.252C42.7192 209.203 42.7296 209.155 42.7498 209.11L62.1363 141.907C62.1707 141.794 62.2429 141.696 62.3408 141.629C62.4386 141.563 62.5563 141.532 62.6743 141.542C62.7923 141.551 62.9032 141.602 62.9869 141.686C63.0706 141.77 63.1217 141.881 63.131 141.999L68.3177 201.386L84.9231 202.401L81.4619 105.164L39.7048 112.33L27.7481 206.461Z" fill="#231F20"/>
<path d="M56.0362 46.9235C56.0362 46.9235 62.3089 113.447 59.2334 117.446C56.158 121.445 42.425 126.743 36.2437 121.82C30.0623 116.898 31.4123 66.3202 34.2137 62.0166C41.8566 55.5815 56.0362 46.9235 56.0362 46.9235Z" fill="#0C61FF"/>
<path d="M81.9491 49.3392C81.9491 49.3392 95.0325 114.015 93.175 115.832C91.3176 117.649 78.5996 121.597 75.8287 119.75C73.0577 117.902 67.0489 49.1565 67.0489 49.1565C67.0489 49.1565 77.95 46.01 81.9491 49.3392Z" fill="#0C61FF"/>
<path d="M65.6685 44.2541L68.1045 52.3741C68.1045 52.3741 68.1654 56.4341 62.3495 56.769C56.5335 57.104 54.605 53.653 54.605 53.653L50.545 38.3468C50.545 38.3468 52.0574 32.4293 48.1801 24.0759C48.1801 24.0759 56.1275 23.0609 65.5264 21.2846C65.5264 21.2846 69.4037 32.9368 70.0432 37.3318C70.6826 41.7267 65.6685 44.2541 65.6685 44.2541Z" fill="white"/>
<path d="M61.4969 57.2968C56.1072 57.2968 54.2193 54.0488 54.1381 53.8966C54.1324 53.8596 54.1324 53.8219 54.1381 53.7849L50.139 38.4686C50.1188 38.3852 50.1188 38.2982 50.139 38.2148C50.139 38.2148 51.5499 32.3583 47.8045 24.289C47.7699 24.2172 47.7531 24.1381 47.7554 24.0584C47.7578 23.9787 47.7793 23.9007 47.8181 23.8311C47.8569 23.7614 47.9119 23.7021 47.9784 23.6581C48.045 23.6142 48.1211 23.5869 48.2004 23.5785C48.2816 23.5785 56.2392 22.5635 65.5163 20.7873C65.6371 20.7612 65.7633 20.7811 65.8702 20.843C65.9772 20.905 66.0572 21.0045 66.0948 21.1222C66.2471 21.5993 69.9823 32.8658 70.6319 37.2506C71.2206 41.3106 67.5869 43.7872 66.3181 44.4977L68.6323 52.2218C68.6372 52.2691 68.6372 52.3167 68.6323 52.3639C68.6323 52.3639 68.6323 56.8807 62.4002 57.2664L61.4969 57.2968ZM55.0516 53.45C55.3155 53.8763 57.2237 56.5762 62.319 56.2615C67.2215 55.9469 67.5666 52.9323 67.597 52.435L65.1813 44.3962C65.1476 44.2813 65.1556 44.1581 65.2039 44.0485C65.2521 43.9389 65.3376 43.8499 65.4452 43.7973C65.4452 43.7973 70.165 41.3715 69.5864 37.4028C69.0079 33.4342 65.9223 23.9845 65.2219 21.8632C57.6602 23.2943 51.0119 24.218 48.9819 24.492C52.2705 32.003 51.3164 37.413 51.1236 38.3366L55.0516 53.45Z" fill="#231F20"/>
<path d="M47.7741 37.7276C47.7741 37.7276 41.8059 31.3027 42.5468 26.725C43.2878 22.1474 51.8036 24.695 51.8036 24.695C51.8036 24.695 53.4784 35.7687 51.8036 38.7934C50.1289 41.8181 47.7741 37.7276 47.7741 37.7276Z" fill="#231F20"/>
<path d="M50.3725 40.458C48.8703 40.458 47.6117 38.428 47.3275 38.0321C46.7591 37.413 41.2375 31.2621 42.0089 26.6641C42.0777 26.1825 42.2516 25.722 42.5182 25.315C42.7848 24.9081 43.1377 24.5648 43.5517 24.3093C46.3023 22.6041 51.6717 24.1977 51.9051 24.3093C51.9977 24.3345 52.0809 24.3864 52.1441 24.4587C52.2073 24.5309 52.2477 24.6202 52.2604 24.7153C52.3314 25.1721 53.9453 36.0021 52.2604 39.1385C52.1056 39.5159 51.849 39.8429 51.5192 40.083C51.1895 40.3232 50.7995 40.467 50.3928 40.4986L50.3725 40.458ZM47.0433 24.5326C46.0325 24.4807 45.0263 24.7015 44.1302 25.1721C43.8356 25.3464 43.5852 25.5864 43.3986 25.8733C43.212 26.1603 43.0942 26.4865 43.0543 26.8265C42.354 31.0895 48.1293 37.3216 48.1293 37.3927C48.1554 37.4189 48.1761 37.4499 48.1902 37.484C48.6267 38.2453 49.6011 39.4531 50.3522 39.4531C50.6973 39.4531 51.0322 39.1588 51.3672 38.6107C52.6359 36.3269 51.8341 28.4607 51.3672 25.1518C49.9566 24.7695 48.5045 24.5615 47.0433 24.5326V24.5326Z" fill="#231F20"/>
<path d="M53.0115 37.1186C52.5968 36.4332 51.9695 35.9022 51.2251 35.6063C50.5252 35.3545 49.7866 35.2274 49.0428 35.2307C48.6339 35.1933 48.2218 35.2453 47.835 35.383C47.5755 35.5076 47.3441 35.6837 47.1549 35.9006C46.6568 36.3674 46.3433 36.9979 46.2719 37.6769C46.2764 38.2234 46.4159 38.7603 46.6779 39.24C46.916 39.7835 47.2267 40.2922 47.6015 40.7523C47.9853 41.2053 48.4552 41.5775 48.984 41.8475C49.5127 42.1175 50.0898 42.2799 50.6818 42.3252C51.2737 42.3705 51.8688 42.2979 52.4325 42.1115C52.9962 41.9252 53.5173 41.6288 53.9656 41.2395" fill="white"/>
<path d="M51.0119 42.8432H50.6465C49.3181 42.7344 48.0858 42.1073 47.2158 41.0974C46.805 40.6012 46.4635 40.0515 46.2008 39.4633C45.8992 38.909 45.7421 38.2876 45.7441 37.6566C45.816 36.8562 46.1768 36.1094 46.7591 35.5555C46.9943 35.2907 47.2809 35.0766 47.6015 34.9262C48.0554 34.7588 48.5405 34.693 49.0225 34.7334C49.8282 34.7336 50.6279 34.8709 51.3875 35.1394C52.2326 35.4804 52.9448 36.0857 53.4175 36.8649C53.4875 36.9806 53.5086 37.1194 53.4762 37.2508C53.4439 37.3821 53.3607 37.4952 53.2449 37.5652C53.1292 37.6352 52.9904 37.6563 52.859 37.624C52.7277 37.5916 52.6146 37.5084 52.5446 37.3927C52.1899 36.8009 51.6518 36.3412 51.0119 36.0833C50.3598 35.8548 49.6729 35.7414 48.9819 35.7484C48.6395 35.7102 48.2929 35.7483 47.9669 35.86C47.7688 35.9591 47.5927 36.0972 47.4493 36.266C47.0381 36.6425 46.7753 37.1538 46.7083 37.7073C46.7237 38.1718 46.8452 38.6267 47.0636 39.037C47.2883 39.5375 47.5747 40.0081 47.9162 40.4377C48.6122 41.2423 49.5963 41.7417 50.6567 41.8282C51.1837 41.8601 51.7118 41.7868 52.2101 41.6125C52.7085 41.4382 53.1673 41.1665 53.5596 40.8132C53.6561 40.7196 53.7854 40.6672 53.9199 40.6672C54.0544 40.6672 54.1836 40.7196 54.2802 40.8132C54.3275 40.8595 54.365 40.9148 54.3907 40.9758C54.4163 41.0368 54.4295 41.1023 54.4295 41.1685C54.4295 41.2346 54.4163 41.3001 54.3907 41.3611C54.365 41.4221 54.3275 41.4774 54.2802 41.5237C53.3869 42.3454 52.2253 42.8143 51.0119 42.8432V42.8432Z" fill="#231F20"/>
<path d="M64.1663 30.785C64.1663 30.785 68.4293 33.9924 68.0132 34.9465C67.597 35.9006 65.5772 36.0833 65.5772 36.0833" fill="white"/>
<path d="M65.5772 36.6111C65.4493 36.6115 65.326 36.5637 65.2319 36.4771C65.1378 36.3905 65.0799 36.2716 65.0697 36.1442C65.0583 36.0111 65.1 35.879 65.1855 35.7763C65.271 35.6737 65.3935 35.609 65.5264 35.5961C66.2268 35.5352 67.3534 35.2307 67.5564 34.774C67.5564 34.3578 65.8106 32.6729 63.872 31.2113C63.8186 31.1713 63.7737 31.1212 63.7398 31.0639C63.7058 31.0065 63.6835 30.9431 63.6741 30.8771C63.6646 30.8111 63.6683 30.7439 63.6848 30.6794C63.7014 30.6148 63.7305 30.5541 63.7705 30.5008C63.8104 30.4475 63.8605 30.4026 63.9179 30.3686C63.9752 30.3347 64.0387 30.3123 64.1047 30.3029C64.1707 30.2935 64.2379 30.2971 64.3024 30.3137C64.367 30.3302 64.4276 30.3593 64.481 30.3993C66.5719 31.9726 68.9673 34.0736 68.541 35.1698C68.1147 36.266 65.9121 36.5807 65.6787 36.601L65.5772 36.6111Z" fill="#231F20"/>
<path d="M61.5517 30.8178C61.8959 30.6071 61.933 30.041 61.6345 29.5533C61.336 29.0656 60.8149 28.8411 60.4707 29.0518C60.1264 29.2625 60.0894 29.8286 60.3879 30.3163C60.6864 30.804 61.2074 31.0285 61.5517 30.8178Z" fill="#231F20"/>
<path d="M66.185 29.2333C66.5293 29.0226 66.5663 28.4564 66.2678 27.9688C65.9693 27.4811 65.4483 27.2565 65.1041 27.4673C64.7598 27.678 64.7227 28.2441 65.0212 28.7318C65.3197 29.2195 65.8408 29.444 66.185 29.2333Z" fill="#231F20"/>
<path d="M67.2012 37.8088L63.4761 38.7122C63.4761 38.7122 63.7096 41.473 65.8309 41.6049C67.9523 41.7369 67.2012 37.8088 67.2012 37.8088Z" fill="white"/>
<path d="M65.9324 42.1226H65.77C63.74 41.9906 63.0397 39.8693 62.9483 38.7629C62.938 38.6432 62.9714 38.5238 63.0423 38.4267C63.1132 38.3297 63.2168 38.2616 63.334 38.2351L67.0489 37.3216C67.1851 37.2932 67.327 37.3187 67.4448 37.3927C67.5037 37.4294 67.5541 37.4782 67.5926 37.536C67.6311 37.5938 67.6569 37.6591 67.6681 37.7276C67.6681 38.0017 68.1553 40.458 67.1707 41.5745C67.0155 41.749 66.8246 41.8883 66.611 41.9828C66.3974 42.0774 66.166 42.125 65.9324 42.1226ZM64.0547 39.0776C64.1968 39.7576 64.6332 41.0061 65.8614 41.1076C65.9671 41.1279 66.0764 41.1198 66.178 41.0842C66.2797 41.0485 66.37 40.9865 66.4399 40.9046C66.8272 40.1476 66.9453 39.2813 66.7749 38.4483L64.0547 39.0776Z" fill="#231F20"/>
<path d="M65.6685 44.2541C65.6685 44.2541 61.4258 45.4213 59.1319 44.8123C59.1319 44.8123 62.1059 49.2073 67.0591 49.1565L65.6685 44.2541Z" fill="#231F20"/>
<path d="M66.9779 49.664C61.9029 49.664 58.8579 45.2792 58.7158 45.0965C58.6594 45.0111 58.6302 44.9106 58.632 44.8083C58.6338 44.706 58.6665 44.6066 58.7257 44.5232C58.785 44.4398 58.8681 44.3762 58.9641 44.3409C59.0602 44.3055 59.1646 44.3 59.2639 44.3251C61.3954 44.8935 65.496 43.777 65.5366 43.7669C65.5999 43.7483 65.6662 43.7426 65.7318 43.75C65.7973 43.7573 65.8608 43.7776 65.9184 43.8098C65.976 43.8419 66.0267 43.8851 66.0674 43.937C66.1082 43.9889 66.1382 44.0484 66.1557 44.112L67.5463 49.055C67.5669 49.1298 67.5693 49.2084 67.5534 49.2843C67.5376 49.3602 67.5038 49.4312 67.4549 49.4915C67.411 49.5556 67.3518 49.6077 67.2827 49.6431C67.2136 49.6786 67.1367 49.6962 67.0591 49.6945L66.9779 49.664ZM60.3499 45.4822C61.9061 47.2345 64.0516 48.3542 66.379 48.6287L65.364 44.8631C63.7243 45.2737 62.0403 45.4817 60.3499 45.4822V45.4822Z" fill="#231F20"/>
<path d="M62.725 145.165C62.5936 145.143 62.4762 145.07 62.3983 144.961C62.3204 144.853 62.2883 144.719 62.3089 144.587C62.3089 144.374 65.7599 123.15 65.5366 119.323C65.5325 119.257 65.5416 119.191 65.5635 119.128C65.5854 119.066 65.6195 119.008 65.664 118.959C65.7084 118.91 65.7623 118.87 65.8223 118.842C65.8823 118.814 65.9474 118.798 66.0136 118.796C66.1466 118.79 66.2764 118.837 66.3751 118.926C66.4738 119.015 66.5336 119.14 66.5414 119.273C66.7749 123.201 63.4964 143.866 63.3137 144.749C63.2889 144.881 63.2136 144.999 63.1037 145.077C62.9938 145.154 62.858 145.186 62.725 145.165V145.165Z" fill="white"/>
<path d="M44.5159 129.413C44.4373 129.412 44.3598 129.393 44.2895 129.358C44.2191 129.323 44.1577 129.272 44.1099 129.21C44.0292 129.102 43.9945 128.967 44.0135 128.833C44.0325 128.7 44.1037 128.58 44.2114 128.499C45.7015 127.3 47.2983 126.24 48.9819 125.332C49.0418 125.305 49.1065 125.29 49.1722 125.289C49.2379 125.287 49.3034 125.298 49.3647 125.322C49.4261 125.345 49.4821 125.381 49.5297 125.426C49.5772 125.471 49.6153 125.526 49.6417 125.586C49.6966 125.709 49.7007 125.848 49.6532 125.973C49.6056 126.099 49.5102 126.201 49.3879 126.256C47.7829 127.141 46.2551 128.16 44.8204 129.301C44.7342 129.371 44.627 129.41 44.5159 129.413Z" fill="white"/>
<path d="M81.5634 127.86C81.4712 127.857 81.3808 127.832 81.2995 127.789L75.0776 124.053C74.9643 123.984 74.883 123.872 74.8512 123.743C74.8194 123.614 74.8396 123.477 74.9074 123.363C74.9753 123.248 75.0854 123.165 75.2141 123.131C75.3427 123.097 75.4796 123.115 75.5952 123.18L81.8172 126.916C81.9124 126.972 81.9866 127.058 82.0283 127.161C82.0701 127.263 82.0771 127.377 82.0483 127.484C82.0196 127.591 81.9566 127.685 81.8691 127.753C81.7815 127.821 81.6742 127.858 81.5634 127.86V127.86Z" fill="white"/>
<path d="M70.6928 17.8539L65.6178 18.9298C64.2351 16.1008 61.8655 13.8751 58.9554 12.6723C56.0453 11.4694 52.7958 11.3724 49.8192 12.3996C46.8426 13.4267 44.3444 15.5071 42.7955 18.2486C41.2465 20.9902 40.7538 24.2036 41.41 27.2833L58.1372 23.7409L71.3322 20.9497C71.7468 20.8622 72.1096 20.6136 72.3409 20.2586C72.5722 19.9036 72.6529 19.4713 72.5655 19.0567C72.478 18.6421 72.2294 18.2793 71.8744 18.048C71.5194 17.8168 71.087 17.736 70.6725 17.8235L70.6928 17.8539Z" fill="white"/>
<path d="M41.41 27.7908C41.3096 27.7902 41.2113 27.7621 41.1258 27.7096C41.0703 27.6725 41.0228 27.6246 40.9862 27.5688C40.9496 27.513 40.9246 27.4504 40.9127 27.3848C40.2401 24.2182 40.7358 20.9152 42.3083 18.0856C43.8809 15.256 46.424 13.0909 49.4683 11.99C52.5125 10.8891 55.8523 10.9267 58.871 12.0959C61.8897 13.2651 64.3834 15.487 65.8918 18.3513L70.5811 17.3363C71.1271 17.2213 71.6963 17.3271 72.1645 17.6306C72.3969 17.7808 72.5974 17.9754 72.7544 18.2033C72.9114 18.4312 73.0218 18.6878 73.0794 18.9585C73.1369 19.2292 73.1404 19.5085 73.0896 19.7806C73.0389 20.0526 72.9349 20.3119 72.7837 20.5437C72.6362 20.7787 72.4422 20.981 72.2135 21.1382C71.9848 21.2953 71.7263 21.4039 71.454 21.4572L58.259 24.2484H58.0865L41.5115 27.74L41.41 27.7908ZM54.0468 12.2105C52.2377 12.2078 50.4499 12.6009 48.8088 13.3621C47.1676 14.1234 45.7129 15.2345 44.5466 16.6174C43.3803 18.0004 42.5306 19.6217 42.0572 21.3678C41.5837 23.1138 41.4979 24.9423 41.8059 26.725L58.0459 23.2943H58.2286L71.251 20.5335C71.3918 20.5058 71.5256 20.4502 71.6446 20.37C71.7636 20.2898 71.8653 20.1866 71.9438 20.0665C72.0223 19.9464 72.076 19.8118 72.1017 19.6706C72.1274 19.5294 72.1246 19.3845 72.0935 19.2445C72.0348 18.9619 71.867 18.7139 71.6266 18.5543C71.3826 18.3989 71.0878 18.3444 70.8044 18.402V18.402L65.7294 19.4779C65.6191 19.5006 65.5045 19.486 65.4034 19.4364C65.3023 19.3868 65.2206 19.305 65.1712 19.2039C64.1589 17.1126 62.5791 15.348 60.6121 14.1115C58.6451 12.875 56.3701 12.2162 54.0468 12.2105V12.2105Z" fill="#231F20"/>
<path d="M65.6178 18.9298C65.1509 18.7877 47.3478 22.5737 47.3478 22.5737Z" fill="white"/>
<path d="M47.3579 23.0812C47.2414 23.0793 47.1289 23.0383 47.0387 22.9646C46.9484 22.8909 46.8857 22.7889 46.8606 22.6752C46.8457 22.6105 46.8439 22.5434 46.8553 22.478C46.8668 22.4127 46.8912 22.3502 46.9271 22.2944C46.9631 22.2386 47.0098 22.1905 47.0646 22.1531C47.1195 22.1156 47.1812 22.0895 47.2463 22.0763C65.1813 18.2701 65.5975 18.402 65.7599 18.4426C65.8876 18.4826 65.9948 18.5704 66.0592 18.6877C66.1235 18.8051 66.1399 18.9427 66.105 19.0719C66.0686 19.1859 65.9945 19.2842 65.8949 19.3506C65.7953 19.417 65.6761 19.4476 65.5569 19.4373C64.6637 19.4373 54.2802 21.6196 47.4594 23.0609L47.3579 23.0812Z" fill="#231F20"/>
<path d="M55.823 18.4122C54.992 15.7819 53.1726 13.5768 50.748 12.2613Z" fill="white"/>
<path d="M55.823 18.9197C55.7137 18.9237 55.6062 18.8909 55.5179 18.8265C55.4295 18.762 55.3654 18.6697 55.3358 18.5644C54.5557 16.0639 52.8391 13.9618 50.545 12.6977C50.4866 12.6668 50.4349 12.6246 50.393 12.5736C50.3511 12.5225 50.3198 12.4636 50.3009 12.4003C50.282 12.3369 50.2759 12.2705 50.2829 12.2048C50.29 12.1391 50.3101 12.0755 50.342 12.0177C50.3718 11.9582 50.4135 11.9055 50.4644 11.8628C50.5153 11.8201 50.5745 11.7882 50.6382 11.7692C50.7019 11.7502 50.7688 11.7444 50.8348 11.7522C50.9008 11.76 50.9646 11.7813 51.0221 11.8147C53.5598 13.1937 55.4577 15.5105 56.3102 18.2701C56.3305 18.3333 56.3379 18.4001 56.3319 18.4662C56.326 18.5324 56.3068 18.5968 56.2756 18.6554C56.2444 18.7141 56.2017 18.7659 56.1501 18.8078C56.0986 18.8497 56.0391 18.8808 55.9753 18.8994C55.9265 18.9168 55.8746 18.9238 55.823 18.9197V18.9197Z" fill="#231F20"/>
<path d="M58.665 17.8235C57.7613 15.4765 56.2978 13.3859 54.402 11.7335Z" fill="white"/>
<path d="M58.665 18.331C58.563 18.3325 58.463 18.302 58.3793 18.2438C58.2955 18.1855 58.2321 18.1024 58.1981 18.0062C57.3192 15.729 55.9017 13.6987 54.0671 12.0887C54.0074 12.0486 53.9569 11.9963 53.9189 11.9353C53.881 11.8742 53.8564 11.8058 53.8469 11.7345C53.8374 11.6633 53.8432 11.5908 53.8638 11.5219C53.8844 11.453 53.9194 11.3893 53.9665 11.335C54.0135 11.2807 54.0716 11.237 54.1369 11.2068C54.2021 11.1766 54.273 11.1606 54.3449 11.1599C54.4168 11.1592 54.488 11.1738 54.5539 11.2027C54.6197 11.2315 54.6787 11.2741 54.7268 11.3275C56.6879 13.0435 58.203 15.21 59.1421 17.6408C59.1665 17.7034 59.1783 17.7702 59.1767 17.8374C59.1751 17.9046 59.1602 17.9708 59.1328 18.0322C59.1054 18.0936 59.0661 18.1489 59.0172 18.1949C58.9682 18.241 58.9106 18.2769 58.8477 18.3005L58.665 18.331Z" fill="#231F20"/>
<path d="M47.6624 117.588C47.5303 117.585 47.4042 117.532 47.3098 117.44C47.2155 117.348 47.1601 117.222 47.1549 117.09C47.1549 116.745 46.2516 82.5196 45.8151 73.6789C45.5432 68.2988 44.9467 62.94 44.0287 57.6318C44.005 57.4999 44.0344 57.364 44.1104 57.2537C44.1865 57.1435 44.303 57.0677 44.4347 57.0431C44.5678 57.0191 44.7049 57.0482 44.8168 57.1241C44.9288 57.1999 45.0065 57.3166 45.0336 57.4491C45.9522 62.8018 46.5521 68.2043 46.8301 73.6282C47.2666 82.4891 48.1598 116.715 48.1699 117.06C48.1726 117.127 48.1618 117.195 48.1382 117.258C48.1145 117.321 48.0785 117.379 48.0322 117.428C47.9859 117.478 47.9302 117.517 47.8684 117.544C47.8067 117.572 47.7401 117.587 47.6726 117.588H47.6624Z" fill="#231F20"/>
<path d="M33.7874 105.053C33.6528 105.061 33.5205 105.015 33.4196 104.925C33.3187 104.836 33.2575 104.71 33.2494 104.576C33.2413 104.441 33.2871 104.309 33.3765 104.208C33.466 104.107 33.5919 104.046 33.7265 104.038C33.8889 104.038 49.8041 102.231 54.5847 99.6223C54.643 99.5888 54.7075 99.5674 54.7743 99.5594C54.841 99.5515 54.9087 99.5572 54.9732 99.5762C55.0378 99.5951 55.0978 99.627 55.1496 99.6698C55.2015 99.7127 55.2441 99.7656 55.2749 99.8253C55.3372 99.9442 55.3508 100.083 55.3129 100.211C55.275 100.34 55.1886 100.449 55.0719 100.516C50.1187 103.215 34.508 104.971 33.8381 105.042L33.7874 105.053Z" fill="#231F20"/>
<path d="M82.5784 110.868C82.457 110.867 82.3401 110.823 82.2488 110.742C82.1576 110.662 82.0981 110.552 82.0811 110.432C79.4218 91.8576 72.4183 52.5771 72.3472 52.2015C72.3235 52.0697 72.3529 51.9338 72.4289 51.8235C72.505 51.7132 72.6216 51.6375 72.7532 51.6128C72.8862 51.592 73.022 51.6239 73.1319 51.7016C73.2418 51.7792 73.3171 51.8967 73.3419 52.029C73.413 52.4248 80.4469 91.6952 83.0859 110.29C83.1008 110.424 83.0638 110.558 82.9827 110.666C82.9015 110.774 82.7823 110.846 82.6495 110.868H82.5784Z" fill="#231F20"/>
<path d="M75.8591 99.6832C75.7419 99.6824 75.6287 99.6402 75.5396 99.564C75.4504 99.4879 75.3911 99.3827 75.3719 99.2671C75.3586 99.2018 75.3582 99.1344 75.3709 99.069C75.3836 99.0035 75.409 98.9412 75.4458 98.8856C75.4825 98.83 75.5299 98.7822 75.5851 98.7449C75.6404 98.7076 75.7024 98.6815 75.7678 98.6682L89.1962 95.9886C89.3308 95.963 89.4701 95.992 89.5833 96.0691C89.6966 96.1462 89.7746 96.2651 89.8001 96.3997C89.8257 96.5343 89.7968 96.6735 89.7197 96.7868C89.6426 96.9001 89.5237 96.978 89.3891 97.0036L75.92 99.6731L75.8591 99.6832Z" fill="#231F20"/>
<path d="M34.1832 62.0166C34.1832 62.0166 6.98122 101.967 20.2473 113.051C32.4273 123.201 59.3045 106.331 59.3045 106.331L57.65 92.0606C57.65 92.0606 33.9904 103.297 33.6453 97.9374C33.1378 90.0509 36.8933 87.0871 36.8933 87.0871L34.1832 62.0166Z" fill="#231F20"/>
<path d="M56.635 76.8863L58.9797 125.606C58.9797 125.606 98.179 137.593 110.592 119.131L114.043 68.5329C114.043 68.5329 79.0868 82.2557 56.635 76.8863Z" fill="white"/>
<path d="M84.5171 129.9C83.0758 129.9 81.5939 129.849 80.0612 129.758C72.8465 129.269 65.7026 128.028 58.7462 126.053C58.6467 126.023 58.559 125.963 58.4953 125.882C58.4316 125.8 58.3951 125.7 58.391 125.596L56.0463 76.8762C56.0415 76.7973 56.0556 76.7184 56.0873 76.646C56.1191 76.5736 56.1677 76.5099 56.229 76.46C56.2883 76.4094 56.3589 76.3738 56.4349 76.3561C56.5108 76.3384 56.5899 76.3393 56.6655 76.3585C78.7417 81.6264 113.424 68.1167 113.769 67.9848C113.849 67.9519 113.936 67.9402 114.021 67.9509C114.106 67.9616 114.188 67.9942 114.257 68.0457C114.327 68.0964 114.383 68.1638 114.42 68.2418C114.457 68.3198 114.474 68.4059 114.47 68.4923L111.059 119.09C111.059 119.181 111.03 119.269 110.978 119.344C106.37 126.297 97.235 129.9 84.5171 129.9ZM59.4263 125.18C63.2833 126.286 98.5241 135.807 110.054 118.917L113.475 69.2535C107.066 71.6129 100.525 73.5989 93.8855 75.2014C83.502 77.6882 68.7845 80.0937 57.173 77.5359L59.4263 125.18Z" fill="#231F20"/>
<path d="M53.3566 96.9224C53.1728 95.8502 53.2529 94.7493 53.59 93.715C53.9304 93.009 54.3945 92.3696 54.9603 91.8271C55.9117 90.8265 56.929 89.8906 58.0053 89.0257C58.4484 88.5793 58.9821 88.2332 59.5705 88.0109C60.1588 87.7885 60.7881 87.695 61.4157 87.7367C61.0203 89.5352 59.9668 91.1209 58.462 92.1824C58.9627 91.6122 59.6133 91.1937 60.3398 90.9745C60.8371 90.8223 61.507 90.8527 61.7202 91.3196C61.7629 91.4755 61.7741 91.6384 61.7532 91.7987C61.7322 91.9591 61.6796 92.1136 61.5984 92.2534C61.0243 93.501 60.1402 94.5808 59.0304 95.3897L60.2281 94.6589C60.5284 94.4373 60.8757 94.288 61.2431 94.2225C61.4253 94.1923 61.6124 94.2214 61.7768 94.3054C61.9412 94.3895 62.0744 94.5241 62.1566 94.6894C62.2313 94.9574 62.2023 95.2437 62.0754 95.4913C61.7694 96.2204 61.2536 96.8422 60.5935 97.2776C61.0263 96.9261 61.5386 96.6857 62.0856 96.5773C62.3623 96.5317 62.6463 96.5863 62.8864 96.7315C63.1264 96.8766 63.3068 97.1027 63.3949 97.369C63.43 97.6721 63.3659 97.9784 63.2122 98.2419C62.3292 99.9471 60.1672 100.14 59.1522 101.571C58.391 102.647 58.7462 103.794 57.1831 104.444C53.3769 106.047 53.59 99.1554 53.3566 96.9224Z" fill="white"/>
<path d="M56.1783 105.195C55.7569 105.201 55.3432 105.081 54.9907 104.85C53.2551 103.764 53.0521 100.313 52.9607 98.0288C52.9607 97.6228 52.9607 97.2574 52.8897 97.0138C52.6966 95.8543 52.7943 94.6651 53.1739 93.5526C53.5317 92.789 54.0311 92.1001 54.6456 91.5226C55.6245 90.498 56.6724 89.5417 57.782 88.6603C58.797 87.8585 60.1469 86.9754 61.6187 87.2799C61.7489 87.31 61.8619 87.3903 61.9333 87.5032C61.9718 87.5588 61.9981 87.6219 62.0103 87.6884C62.0226 87.7549 62.0205 87.8233 62.0044 87.8889C61.8171 88.7876 61.4735 89.6465 60.9894 90.4264V90.4264C61.2542 90.4045 61.5194 90.4624 61.751 90.5926C61.9826 90.7229 62.1698 90.9195 62.2886 91.1572C62.3667 91.3777 62.3963 91.6125 62.3752 91.8455C62.3542 92.0785 62.2831 92.3042 62.1668 92.5072C61.9655 92.9406 61.7314 93.3579 61.4664 93.7556C61.7301 93.7463 61.9905 93.8157 62.2147 93.9549C62.4388 94.094 62.6164 94.2967 62.725 94.5372C62.8447 94.9339 62.8121 95.3609 62.6337 95.7349L62.451 96.1104C62.8015 96.1179 63.1402 96.2385 63.4164 96.4544C63.6927 96.6703 63.8917 96.9698 63.9836 97.3081C64.0486 97.7256 63.9661 98.1527 63.7502 98.516C63.1914 99.4322 62.3713 100.16 61.3954 100.607C60.7446 100.893 60.1605 101.311 59.68 101.835C59.4766 102.148 59.3225 102.49 59.2233 102.85C59.1233 103.305 58.9126 103.728 58.6098 104.082C58.307 104.437 57.9216 104.711 57.4876 104.88C57.0766 105.071 56.6314 105.178 56.1783 105.195ZM60.827 88.2036C59.9081 88.365 59.0553 88.7879 58.3707 89.4216C57.2938 90.2712 56.2764 91.1936 55.3257 92.1824C54.8025 92.6766 54.3727 93.2611 54.0569 93.9079C53.7536 94.8689 53.684 95.8885 53.8539 96.8818V96.8818C53.8539 97.1762 53.8539 97.5517 53.925 97.978C54.0265 99.7949 54.2193 103.175 55.5185 103.997C55.7543 104.123 56.0175 104.189 56.2848 104.189C56.5522 104.189 56.8154 104.123 57.0512 103.997C57.351 103.881 57.6154 103.689 57.8183 103.44C58.0213 103.191 58.1557 102.893 58.2083 102.576C58.339 102.121 58.5411 101.689 58.8071 101.297C59.3571 100.622 60.0506 100.077 60.8371 99.7035C61.6374 99.3493 62.3153 98.7667 62.7859 98.0288C62.8887 97.8689 62.9384 97.6806 62.928 97.4908C62.928 97.2269 62.4814 97.0747 62.1769 97.095C61.7588 97.185 61.3666 97.369 61.03 97.6329L60.898 97.7243C60.7861 97.7977 60.6498 97.824 60.5186 97.7974C60.3874 97.7708 60.2721 97.6934 60.1977 97.5822C60.1258 97.4707 60.0994 97.336 60.1239 97.2057C60.1485 97.0754 60.2221 96.9594 60.3296 96.8818L60.4514 96.8006C60.9725 96.4241 61.3798 95.9114 61.6288 95.3187C61.7405 95.065 61.7405 94.9432 61.71 94.8924C61.6681 94.8347 61.6103 94.7904 61.5435 94.7652C61.4768 94.7399 61.4041 94.7348 61.3345 94.7503C61.0494 94.8143 60.7801 94.9351 60.5428 95.1056L59.3451 95.8465C59.2336 95.9063 59.1039 95.9223 58.9813 95.8914C58.8587 95.8606 58.752 95.785 58.6821 95.6796C58.6123 95.5742 58.5843 95.4465 58.6037 95.3216C58.623 95.1966 58.6883 95.0834 58.7868 95.0041C59.8241 94.2441 60.6489 93.2306 61.1822 92.0606C61.304 91.8068 61.3446 91.6343 61.304 91.5531C61.2634 91.4719 60.8777 91.3805 60.5428 91.482C60.273 91.5621 60.014 91.6746 59.7714 91.817C59.46 92.1167 59.12 92.3853 58.7564 92.6188C58.6562 92.6932 58.5317 92.7271 58.4076 92.714C58.2835 92.7008 58.1689 92.6415 58.0865 92.5478C58.0051 92.4552 57.9602 92.3361 57.9602 92.2128C57.9602 92.0895 58.0051 91.9705 58.0865 91.8779C58.3809 91.5423 58.7229 91.2517 59.1015 91.0151C59.8911 90.2277 60.4824 89.2641 60.827 88.2036V88.2036Z" fill="#231F20"/>
<path d="M116.104 90.0813C115.962 88.0513 115.322 85.727 113.516 84.6917C112.96 84.3786 112.335 84.2083 111.698 84.1959C111.06 84.1835 110.429 84.3294 109.862 84.6206C109.756 84.659 109.661 84.7211 109.584 84.802C109.506 84.883 109.449 84.9807 109.415 85.0875C109.344 85.4022 109.648 85.6762 109.933 85.8488C110.524 86.2141 111.167 86.4879 111.841 86.6608C111.295 86.6108 110.747 86.7313 110.273 87.0058C109.798 87.2803 109.42 87.6952 109.192 88.1934C109.861 88.9688 110.794 89.468 111.81 89.5941C111.471 89.5073 111.114 89.5226 110.784 89.6382C110.453 89.7538 110.164 89.9644 109.953 90.2437C109.293 91.1775 109.821 91.4313 110.552 91.9895C110.232 91.9281 109.9 91.9598 109.598 92.0809C109.448 92.1483 109.32 92.2582 109.232 92.3971C109.144 92.536 109.098 92.6978 109.1 92.8624C109.161 93.4613 109.912 93.644 110.43 93.9485C110.85 94.1972 111.169 94.585 111.333 95.0447C111.393 95.3027 111.478 95.5543 111.587 95.7958C112.602 97.5822 114.906 96.0901 115.454 94.8417C116.04 93.3274 116.262 91.697 116.104 90.0813V90.0813Z" fill="white"/>
<path d="M112.927 97.1254C112.561 97.1226 112.203 97.0212 111.891 96.8318C111.578 96.6424 111.322 96.3722 111.151 96.0495C111.045 95.8546 110.967 95.6463 110.917 95.4304L110.856 95.2071C110.734 94.8613 110.493 94.57 110.176 94.3849L109.821 94.2124C109.334 93.9789 108.664 93.6541 108.593 92.903C108.582 92.6365 108.651 92.3727 108.79 92.1451C108.929 91.9175 109.132 91.7362 109.374 91.6241C109.09 91.2283 108.999 90.7106 109.547 89.9494C109.665 89.776 109.808 89.6219 109.973 89.4926C109.53 89.2221 109.135 88.879 108.806 88.4776C108.742 88.4055 108.7 88.3163 108.685 88.2207C108.671 88.1252 108.685 88.0275 108.725 87.9397C109.004 87.3118 109.487 86.7968 110.095 86.4781L109.659 86.2345C108.867 85.7473 108.857 85.2195 108.918 84.9251C108.97 84.7465 109.061 84.5814 109.184 84.4412C109.307 84.301 109.458 84.1891 109.628 84.1131C110.273 83.7876 110.988 83.6257 111.71 83.6417C112.432 83.6576 113.139 83.8509 113.769 84.2045C115.86 85.4022 116.469 88.0209 116.611 90.0001C116.772 91.699 116.536 93.4122 115.921 95.0041C115.646 95.5523 115.24 96.0243 114.739 96.3783C114.238 96.7324 113.657 96.9576 113.049 97.0341L112.927 97.1254ZM110.197 92.4666C110.065 92.4649 109.934 92.4891 109.811 92.5376C109.699 92.5985 109.598 92.7203 109.608 92.8117C109.618 92.903 109.892 93.1162 110.268 93.2989L110.684 93.5019C111.209 93.8116 111.608 94.2969 111.81 94.8721C111.81 94.9736 111.871 95.065 111.892 95.1665C111.925 95.2952 111.969 95.4209 112.024 95.542C112.114 95.7294 112.26 95.8844 112.442 95.986C112.623 96.0877 112.832 96.1311 113.039 96.1104C113.469 96.0427 113.877 95.8741 114.23 95.6183C114.583 95.3625 114.87 95.0268 115.069 94.6387C115.611 93.1987 115.82 91.6542 115.678 90.1219C115.546 88.3863 115.038 86.1127 113.333 85.1281C112.85 84.8592 112.309 84.713 111.757 84.7024C111.205 84.6918 110.659 84.8171 110.166 85.0672C110.092 85.0953 110.026 85.1405 109.973 85.1992C110.064 85.2755 110.159 85.3467 110.257 85.4123C110.811 85.7547 111.413 86.0113 112.044 86.1736C112.167 86.2049 112.274 86.2824 112.342 86.39C112.41 86.4976 112.434 86.6272 112.409 86.7521C112.387 86.8776 112.318 86.9902 112.217 87.0673C112.115 87.1444 111.988 87.1804 111.861 87.1683C111.468 87.1207 111.07 87.1838 110.711 87.3506C110.353 87.5174 110.048 87.7812 109.831 88.1122C110.383 88.6574 111.094 89.0129 111.861 89.1272C111.995 89.145 112.117 89.2144 112.2 89.3205C112.284 89.4267 112.322 89.5613 112.308 89.6956C112.288 89.8284 112.218 89.9485 112.112 90.0315C112.006 90.1145 111.873 90.1541 111.739 90.1422V90.1422C111.039 90.0509 110.653 90.1422 110.369 90.5685C110.085 90.9948 110.054 91.0253 110.674 91.482L110.866 91.6343C110.956 91.7023 111.019 91.7985 111.047 91.9072C111.075 92.0159 111.065 92.1307 111.019 92.2331C110.975 92.336 110.899 92.4216 110.801 92.4767C110.704 92.5318 110.591 92.5532 110.481 92.5376L110.197 92.4666Z" fill="#231F20"/>
<path d="M38.0402 72.5929C37.93 72.5946 37.8223 72.5596 37.7342 72.4934C37.646 72.4273 37.5823 72.3337 37.553 72.2275C37.5181 72.0983 37.5345 71.9606 37.5988 71.8433C37.6631 71.726 37.7704 71.6381 37.8981 71.5982L54.3513 66.8987C54.4859 66.8624 54.6294 66.881 54.7503 66.9505C54.8711 67.0199 54.9595 67.1346 54.9958 67.2692C55.0321 67.4038 55.0135 67.5473 54.944 67.6682C54.8746 67.7891 54.7599 67.8774 54.6253 67.9137L38.1823 72.6132C38.1341 72.6159 38.0858 72.609 38.0402 72.5929V72.5929Z" fill="#231F20"/>
<path d="M71.2713 63.8639C71.1367 63.8639 71.0076 63.8104 70.9125 63.7152C70.8173 63.62 70.7638 63.491 70.7638 63.3564C70.7638 63.2218 70.8173 63.0927 70.9125 62.9975C71.0076 62.9023 71.1367 62.8489 71.2713 62.8489L83.025 61.5091C83.1596 61.4943 83.2946 61.5335 83.4002 61.6182C83.5059 61.7029 83.5735 61.8261 83.5883 61.9607C83.6031 62.0953 83.5639 62.2303 83.4792 62.3359C83.3945 62.4416 83.2713 62.5093 83.1367 62.5241L71.383 63.8639H71.2713Z" fill="#231F20"/>
<path d="M252.185 39.2501H155.912V109.407H252.185V39.2501Z" fill="white"/>
<path d="M252.185 109.955H155.912C155.778 109.955 155.648 109.902 155.553 109.806C155.458 109.711 155.405 109.582 155.405 109.448V39.2501C155.405 39.1155 155.458 38.9864 155.553 38.8913C155.648 38.7961 155.778 38.7426 155.912 38.7426H252.185C252.32 38.7426 252.449 38.7961 252.544 38.8913C252.639 38.9864 252.692 39.1155 252.692 39.2501V109.407C252.698 109.477 252.689 109.547 252.666 109.614C252.643 109.68 252.607 109.741 252.559 109.792C252.511 109.844 252.453 109.885 252.389 109.913C252.325 109.941 252.255 109.955 252.185 109.955ZM156.42 108.94H251.677V39.7576H156.42V108.94Z" fill="#D1D3D4"/>
<path d="M280.067 168.784H194.371V194.505H280.067V168.784Z" fill="white"/>
<path d="M280.067 195.012H194.371C194.236 195.012 194.107 194.959 194.012 194.863C193.916 194.768 193.863 194.639 193.863 194.505V168.825C193.863 168.69 193.916 168.561 194.012 168.466C194.107 168.371 194.236 168.318 194.371 168.318H280.067C280.202 168.318 280.331 168.371 280.426 168.466C280.521 168.561 280.574 168.69 280.574 168.825V194.505C280.574 194.639 280.521 194.768 280.426 194.863C280.331 194.959 280.202 195.012 280.067 195.012ZM194.878 193.997H279.559V169.292H194.878V193.997Z" fill="#231F20"/>
<path d="M225.328 194.505H212.194L195.954 168.784H209.098L225.328 194.505Z" fill="#231F20"/>
<path d="M225.338 195.012H212.194C212.108 195.012 212.023 194.99 211.947 194.95C211.871 194.909 211.806 194.85 211.757 194.779L195.517 169.058C195.47 168.98 195.445 168.891 195.445 168.8C195.445 168.708 195.47 168.619 195.517 168.541C195.562 168.461 195.627 168.395 195.705 168.349C195.784 168.303 195.873 168.278 195.964 168.277H209.108C209.193 168.277 209.277 168.298 209.351 168.339C209.426 168.38 209.489 168.439 209.535 168.51L225.775 194.241C225.821 194.317 225.847 194.404 225.849 194.494C225.85 194.583 225.829 194.672 225.785 194.75C225.742 194.828 225.679 194.894 225.602 194.94C225.525 194.986 225.438 195.011 225.348 195.012H225.338ZM212.468 193.997H224.414L208.814 169.292H196.867L212.468 193.997Z" fill="#231F20"/>
<path d="M251.911 194.505H238.767L222.527 168.784H235.671L251.911 194.505Z" fill="#231F20"/>
<path d="M251.911 195.012H238.767C238.682 195.012 238.598 194.99 238.524 194.95C238.449 194.909 238.386 194.85 238.34 194.779L222.1 169.058C222.053 168.98 222.028 168.891 222.028 168.8C222.028 168.708 222.053 168.619 222.1 168.541C222.142 168.461 222.204 168.394 222.281 168.347C222.358 168.301 222.447 168.276 222.537 168.277H235.681C235.766 168.277 235.849 168.298 235.924 168.339C235.998 168.38 236.061 168.439 236.107 168.51L252.347 194.241C252.392 194.318 252.415 194.405 252.415 194.494C252.415 194.583 252.392 194.671 252.347 194.748C252.304 194.826 252.24 194.891 252.164 194.938C252.087 194.984 252 195.009 251.911 195.012ZM239.051 193.997H250.997L235.397 169.292H223.45L239.051 193.997Z" fill="#231F20"/>
<path d="M278.484 194.505H265.349L249.109 168.784H262.254L278.484 194.505Z" fill="#231F20"/>
<path d="M278.494 195.012H265.349C265.265 195.012 265.181 194.99 265.107 194.95C265.032 194.909 264.969 194.85 264.923 194.779L248.683 169.058C248.636 168.98 248.611 168.891 248.611 168.8C248.611 168.708 248.636 168.619 248.683 168.541C248.728 168.461 248.793 168.395 248.871 168.349C248.949 168.303 249.039 168.278 249.13 168.277H262.274C262.359 168.277 262.442 168.298 262.517 168.339C262.591 168.38 262.654 168.439 262.7 168.51L278.92 194.2C278.967 194.276 278.992 194.364 278.994 194.453C278.996 194.543 278.974 194.631 278.931 194.709C278.887 194.788 278.824 194.853 278.747 194.899C278.671 194.945 278.583 194.97 278.494 194.971V195.012ZM265.624 193.997H277.57L261.97 169.292H250.023L265.624 193.997Z" fill="#231F20"/>
<path d="M152.725 188.252H144.727C144.592 188.252 144.463 188.199 144.368 188.103C144.273 188.008 144.219 187.879 144.219 187.745C144.219 187.61 144.273 187.481 144.368 187.386C144.463 187.291 144.592 187.237 144.727 187.237H152.725C152.86 187.237 152.989 187.291 153.084 187.386C153.179 187.481 153.233 187.61 153.233 187.745C153.233 187.879 153.179 188.008 153.084 188.103C152.989 188.199 152.86 188.252 152.725 188.252Z" fill="#D1D3D4"/>
<path d="M116.713 198.534H109.851C109.717 198.534 109.588 198.481 109.493 198.385C109.397 198.29 109.344 198.161 109.344 198.027C109.347 197.893 109.401 197.765 109.495 197.671C109.59 197.576 109.718 197.522 109.851 197.519H116.713C116.847 197.519 116.977 197.573 117.072 197.668C117.167 197.763 117.22 197.892 117.22 198.027C117.22 198.161 117.167 198.29 117.072 198.385C116.977 198.481 116.847 198.534 116.713 198.534Z" fill="#D1D3D4"/>
<path d="M8.68641 175.108H1.25661C1.12283 175.105 0.995252 175.051 0.900635 174.956C0.806017 174.862 0.751713 174.734 0.749115 174.6C0.749115 174.466 0.802583 174.337 0.897758 174.242C0.992933 174.146 1.12202 174.093 1.25661 174.093H8.68641C8.82101 174.093 8.9501 174.146 9.04527 174.242C9.14045 174.337 9.19391 174.466 9.19391 174.6C9.19391 174.735 9.14045 174.864 9.04527 174.959C8.9501 175.054 8.82101 175.108 8.68641 175.108Z" fill="#D1D3D4"/>
<path d="M279.61 214.5H249.323C249.188 214.5 249.059 214.447 248.964 214.351C248.869 214.256 248.815 214.127 248.815 213.993C248.815 213.858 248.869 213.729 248.964 213.634C249.059 213.538 249.188 213.485 249.323 213.485H279.61C279.745 213.485 279.874 213.538 279.969 213.634C280.064 213.729 280.118 213.858 280.118 213.993C280.118 214.127 280.064 214.256 279.969 214.351C279.874 214.447 279.745 214.5 279.61 214.5V214.5Z" fill="#231F20"/>
<path d="M217.695 214.5H198.065C197.931 214.5 197.801 214.447 197.706 214.351C197.611 214.256 197.558 214.127 197.558 213.993C197.558 213.858 197.611 213.729 197.706 213.634C197.801 213.538 197.931 213.485 198.065 213.485H217.695C217.83 213.485 217.959 213.538 218.054 213.634C218.149 213.729 218.203 213.858 218.203 213.993C218.203 214.127 218.149 214.256 218.054 214.351C217.959 214.447 217.83 214.5 217.695 214.5Z" fill="#231F20"/>
<path d="M127.005 170.53H121.859C121.724 170.53 121.595 170.477 121.5 170.382C121.405 170.286 121.351 170.157 121.351 170.023C121.351 169.888 121.405 169.759 121.5 169.664C121.595 169.569 121.724 169.515 121.859 169.515H127.005C127.14 169.515 127.269 169.569 127.364 169.664C127.459 169.759 127.512 169.888 127.512 170.023C127.512 170.157 127.459 170.286 127.364 170.382C127.269 170.477 127.14 170.53 127.005 170.53Z" fill="#D1D3D4"/>
<path d="M306.477 186.537H298.469C298.335 186.534 298.208 186.48 298.113 186.385C298.018 186.291 297.964 186.163 297.961 186.029C297.961 185.895 298.015 185.766 298.11 185.67C298.205 185.575 298.334 185.522 298.469 185.522H306.477C306.612 185.522 306.741 185.575 306.836 185.67C306.931 185.766 306.985 185.895 306.985 186.029C306.982 186.163 306.928 186.291 306.833 186.385C306.739 186.48 306.611 186.534 306.477 186.537V186.537Z" fill="#D1D3D4"/>
<path d="M180.567 65.7518H171.178C171.043 65.7518 170.914 65.6983 170.819 65.6031C170.724 65.5079 170.67 65.3789 170.67 65.2443V53.7443C170.67 53.6097 170.724 53.4806 170.819 53.3855C170.914 53.2903 171.043 53.2368 171.178 53.2368H180.567C180.701 53.2368 180.83 53.2903 180.925 53.3855C181.021 53.4806 181.074 53.6097 181.074 53.7443V65.295C181.061 65.4206 181.002 65.537 180.909 65.6215C180.815 65.706 180.693 65.7524 180.567 65.7518ZM171.685 64.7368H180.059V54.2518H171.685V64.7368Z" fill="#D1D3D4"/>
<path d="M200.43 65.7518H191.031C190.897 65.7492 190.77 65.6949 190.675 65.6002C190.581 65.5056 190.526 65.378 190.524 65.2443V53.7443C190.524 53.6097 190.577 53.4806 190.672 53.3855C190.767 53.2903 190.897 53.2368 191.031 53.2368H200.43C200.565 53.2368 200.694 53.2903 200.789 53.3855C200.884 53.4806 200.938 53.6097 200.938 53.7443V65.295C200.923 65.4198 200.863 65.5349 200.77 65.6189C200.676 65.703 200.556 65.7502 200.43 65.7518V65.7518ZM191.539 64.7368H199.923V54.2518H191.539V64.7368Z" fill="#D1D3D4"/>
<path d="M220.283 65.7518H210.915C210.78 65.7518 210.651 65.6983 210.556 65.6031C210.461 65.5079 210.408 65.3789 210.408 65.2443V53.7443C210.408 53.6097 210.461 53.4806 210.556 53.3855C210.651 53.2903 210.78 53.2368 210.915 53.2368H220.304C220.438 53.2368 220.567 53.2903 220.663 53.3855C220.758 53.4806 220.811 53.6097 220.811 53.7443V65.295C220.798 65.4242 220.737 65.5436 220.638 65.6285C220.54 65.7135 220.413 65.7576 220.283 65.7518V65.7518ZM211.402 64.7368H219.776V54.2518H211.402V64.7368Z" fill="#D1D3D4"/>
<path d="M240.147 65.7518H230.748C230.614 65.7492 230.487 65.6949 230.392 65.6002C230.297 65.5056 230.243 65.378 230.241 65.2443V53.7443C230.241 53.6097 230.294 53.4806 230.389 53.3855C230.484 53.2903 230.614 53.2368 230.748 53.2368H240.147C240.282 53.2368 240.411 53.2903 240.506 53.3855C240.601 53.4806 240.654 53.6097 240.654 53.7443V65.295C240.642 65.4206 240.583 65.537 240.489 65.6215C240.395 65.706 240.273 65.7524 240.147 65.7518ZM231.256 64.7368H239.639V54.2518H231.215L231.256 64.7368Z" fill="#D1D3D4"/>
<path d="M180.567 87.2292H171.178C171.043 87.2292 170.914 87.1757 170.819 87.0805C170.724 86.9853 170.67 86.8563 170.67 86.7217V75.2217C170.67 75.0871 170.724 74.958 170.819 74.8628C170.914 74.7677 171.043 74.7142 171.178 74.7142H180.567C180.701 74.7142 180.83 74.7677 180.925 74.8628C181.021 74.958 181.074 75.0871 181.074 75.2217V86.7217C181.074 86.8563 181.021 86.9853 180.925 87.0805C180.83 87.1757 180.701 87.2292 180.567 87.2292ZM171.685 86.2142H180.059V75.7292H171.685V86.2142Z" fill="#D1D3D4"/>
<path d="M200.43 87.2292H191.031C190.897 87.2266 190.77 87.1723 190.675 87.0776C190.581 86.983 190.526 86.8554 190.524 86.7217V75.2217C190.524 75.0871 190.577 74.958 190.672 74.8628C190.767 74.7677 190.897 74.7142 191.031 74.7142H200.43C200.565 74.7142 200.694 74.7677 200.789 74.8628C200.884 74.958 200.938 75.0871 200.938 75.2217V86.7217C200.935 86.8554 200.881 86.983 200.786 87.0776C200.691 87.1723 200.564 87.2266 200.43 87.2292V87.2292ZM191.539 86.2142H199.923V75.7292H191.539V86.2142Z" fill="#D1D3D4"/>
<path d="M220.283 87.2292H210.915C210.78 87.2292 210.651 87.1757 210.556 87.0805C210.461 86.9853 210.408 86.8563 210.408 86.7217V75.2217C210.408 75.0871 210.461 74.958 210.556 74.8628C210.651 74.7677 210.78 74.7142 210.915 74.7142H220.304C220.438 74.7142 220.567 74.7677 220.663 74.8628C220.758 74.958 220.811 75.0871 220.811 75.2217V86.7217C220.811 86.79 220.798 86.8577 220.771 86.9207C220.744 86.9836 220.705 87.0405 220.656 87.0879C220.606 87.1353 220.548 87.1722 220.484 87.1965C220.42 87.2208 220.352 87.2319 220.283 87.2292ZM211.402 86.2142H219.776V75.7292H211.402V86.2142Z" fill="#D1D3D4"/>
<path d="M240.147 87.2292H230.748C230.614 87.2266 230.487 87.1723 230.392 87.0776C230.297 86.983 230.243 86.8554 230.241 86.7217V75.2217C230.241 75.0871 230.294 74.958 230.389 74.8628C230.484 74.7677 230.614 74.7142 230.748 74.7142H240.147C240.282 74.7142 240.411 74.7677 240.506 74.8628C240.601 74.958 240.654 75.0871 240.654 75.2217V86.7217C240.654 86.8563 240.601 86.9853 240.506 87.0805C240.411 87.1757 240.282 87.2292 240.147 87.2292ZM231.256 86.2142H239.639V75.7292H231.215L231.256 86.2142Z" fill="#D1D3D4"/>
<path d="M284.726 95.2274H275.337C275.202 95.2274 275.073 95.1739 274.978 95.0787C274.883 94.9835 274.83 94.8545 274.83 94.7199V83.2199C274.83 83.0853 274.883 82.9562 274.978 82.8611C275.073 82.7659 275.202 82.7124 275.337 82.7124H284.726C284.86 82.7124 284.989 82.7659 285.085 82.8611C285.18 82.9562 285.233 83.0853 285.233 83.2199V94.73C285.231 94.8628 285.176 94.9893 285.081 95.0823C284.986 95.1753 284.859 95.2274 284.726 95.2274ZM275.845 94.2124H284.218V83.7274H275.875L275.845 94.2124Z" fill="#D1D3D4"/>
<path d="M287.395 139.39H278.006C277.872 139.39 277.743 139.337 277.648 139.241C277.552 139.146 277.499 139.017 277.499 138.883V127.423C277.499 127.289 277.552 127.159 277.648 127.064C277.743 126.969 277.872 126.916 278.006 126.916H287.395C287.53 126.916 287.659 126.969 287.754 127.064C287.849 127.159 287.903 127.289 287.903 127.423V138.923C287.893 139.051 287.835 139.169 287.74 139.256C287.646 139.343 287.523 139.39 287.395 139.39ZM278.514 138.375H286.888V127.931H278.514V138.375Z" fill="#D1D3D4"/>
<path d="M272.15 64.3612H262.761C262.627 64.3612 262.498 64.3077 262.402 64.2126C262.307 64.1174 262.254 63.9883 262.254 63.8537V52.3639C262.254 52.2293 262.307 52.1002 262.402 52.0051C262.498 51.9099 262.627 51.8564 262.761 51.8564H272.15C272.285 51.8564 272.414 51.9099 272.509 52.0051C272.604 52.1002 272.657 52.2293 272.657 52.3639V63.8537C272.657 63.9883 272.604 64.1174 272.509 64.2126C272.414 64.3077 272.285 64.3612 272.15 64.3612V64.3612ZM263.269 63.3462H271.642V52.8714H263.269V63.3462Z" fill="#D1D3D4"/>
<path d="M188.687 133.726H179.298C179.163 133.726 179.034 133.673 178.939 133.578C178.844 133.483 178.79 133.353 178.79 133.219V121.719C178.79 121.584 178.844 121.455 178.939 121.36C179.034 121.265 179.163 121.211 179.298 121.211H188.687C188.821 121.211 188.95 121.265 189.045 121.36C189.141 121.455 189.194 121.584 189.194 121.719V133.219C189.194 133.353 189.141 133.483 189.045 133.578C188.95 133.673 188.821 133.726 188.687 133.726V133.726ZM179.805 132.711H188.179V122.226H179.805V132.711Z" fill="#D1D3D4"/>
<path d="M208.55 133.726H199.151C199.017 133.724 198.89 133.669 198.795 133.575C198.701 133.48 198.646 133.353 198.644 133.219V121.719C198.646 121.585 198.701 121.457 198.795 121.363C198.89 121.268 199.017 121.214 199.151 121.211H208.55C208.684 121.214 208.811 121.268 208.906 121.363C209.001 121.457 209.055 121.585 209.058 121.719V133.219C209.055 133.353 209.001 133.48 208.906 133.575C208.811 133.669 208.684 133.724 208.55 133.726ZM199.659 132.711H208.043V122.226H199.659V132.711Z" fill="#D1D3D4"/>
<path d="M168.823 133.726H159.434C159.3 133.726 159.171 133.673 159.075 133.578C158.98 133.483 158.927 133.353 158.927 133.219V121.719C158.927 121.584 158.98 121.455 159.075 121.36C159.171 121.265 159.3 121.211 159.434 121.211H168.823C168.958 121.211 169.087 121.265 169.182 121.36C169.277 121.455 169.33 121.584 169.33 121.719V133.219C169.33 133.353 169.277 133.483 169.182 133.578C169.087 133.673 168.958 133.726 168.823 133.726V133.726ZM159.942 132.711H168.285V122.226H159.911L159.942 132.711Z" fill="#D1D3D4"/>
<path d="M228.403 133.726H219.035C218.9 133.726 218.771 133.673 218.676 133.578C218.581 133.483 218.528 133.353 218.528 133.219V121.719C218.528 121.584 218.581 121.455 218.676 121.36C218.771 121.265 218.9 121.211 219.035 121.211H228.424C228.558 121.211 228.687 121.265 228.783 121.36C228.878 121.455 228.931 121.584 228.931 121.719V133.219C228.931 133.287 228.918 133.355 228.891 133.418C228.864 133.481 228.825 133.538 228.776 133.585C228.726 133.632 228.668 133.669 228.604 133.694C228.54 133.718 228.472 133.729 228.403 133.726ZM219.522 132.711H227.896V122.226H219.522V132.711Z" fill="#D1D3D4"/>
<path d="M248.267 133.726H238.868C238.734 133.724 238.607 133.669 238.512 133.575C238.417 133.48 238.363 133.353 238.361 133.219V121.719C238.363 121.585 238.417 121.457 238.512 121.363C238.607 121.268 238.734 121.214 238.868 121.211H248.267C248.402 121.211 248.531 121.265 248.626 121.36C248.721 121.455 248.774 121.584 248.774 121.719V133.219C248.774 133.353 248.721 133.483 248.626 133.578C248.531 133.673 248.402 133.726 248.267 133.726V133.726ZM239.376 132.711H247.759V122.226H239.335L239.376 132.711Z" fill="#D1D3D4"/>
<path d="M15.5783 196.819H10.4018C10.2672 196.819 10.1381 196.765 10.0429 196.67C9.94772 196.575 9.89426 196.446 9.89426 196.311C9.89686 196.177 9.95116 196.05 10.0458 195.955C10.1404 195.861 10.268 195.806 10.4018 195.804H15.5783C15.7129 195.804 15.8419 195.857 15.9371 195.952C16.0323 196.048 16.0858 196.177 16.0858 196.311C16.0858 196.446 16.0323 196.575 15.9371 196.67C15.8419 196.765 15.7129 196.819 15.5783 196.819Z" fill="#D1D3D4"/>
<path d="M177.877 204.249H172.731C172.596 204.249 172.467 204.195 172.372 204.1C172.277 204.005 172.223 203.876 172.223 203.741C172.223 203.606 172.277 203.477 172.372 203.382C172.467 203.287 172.596 203.234 172.731 203.234H177.877C178.011 203.236 178.138 203.29 178.233 203.385C178.327 203.48 178.382 203.607 178.384 203.741C178.384 203.876 178.331 204.005 178.236 204.1C178.14 204.195 178.011 204.249 177.877 204.249Z" fill="#D1D3D4"/>
<path d="M175.014 168.825H169.3C169.165 168.825 169.036 168.772 168.941 168.676C168.846 168.581 168.793 168.452 168.793 168.318C168.793 168.183 168.846 168.054 168.941 167.959C169.036 167.863 169.165 167.81 169.3 167.81H175.014C175.149 167.81 175.278 167.863 175.373 167.959C175.468 168.054 175.522 168.183 175.522 168.318C175.522 168.452 175.468 168.581 175.373 168.676C175.278 168.772 175.149 168.825 175.014 168.825Z" fill="#D1D3D4"/>
<path d="M97.8542 179.107H92.16C92.0254 179.107 91.8963 179.053 91.8012 178.958C91.706 178.863 91.6525 178.734 91.6525 178.599C91.6525 178.465 91.706 178.336 91.8012 178.241C91.8963 178.145 92.0254 178.092 92.16 178.092H97.8745C98.0091 178.092 98.1381 178.145 98.2333 178.241C98.3285 178.336 98.382 178.465 98.382 178.599C98.382 178.668 98.3682 178.736 98.3415 178.798C98.3147 178.861 98.2755 178.918 98.2262 178.966C98.1769 179.013 98.1186 179.05 98.0546 179.074C97.9907 179.099 97.9225 179.11 97.8542 179.107V179.107Z" fill="#D1D3D4"/>
<path d="M312.192 170.53H309.37C309.235 170.53 309.106 170.477 309.011 170.382C308.916 170.286 308.863 170.157 308.863 170.023C308.863 169.888 308.916 169.759 309.011 169.664C309.106 169.569 309.235 169.515 309.37 169.515H312.232C312.367 169.515 312.496 169.569 312.591 169.664C312.686 169.759 312.74 169.888 312.74 170.023C312.74 170.157 312.686 170.286 312.591 170.382C312.496 170.477 312.367 170.53 312.232 170.53H312.192Z" fill="#D1D3D4"/>
</svg>
