<svg width="54" height="53" viewBox="0 0 54 53" fill="none" xmlns="http://www.w3.org/2000/svg">
<path fill-rule="evenodd" clip-rule="evenodd" d="M32.1939 0.831021C32.5037 0.453724 32.9727 0.18546 33.4746 0.25383C33.9143 0.275415 34.2552 0.575735 34.5338 0.887269C37.9642 4.31933 41.3963 7.75055 44.8274 11.1818C45.0429 11.4024 45.2999 11.6041 45.4098 11.9035C45.6167 12.4036 45.486 13.0138 45.0992 13.3911C41.1972 17.287 37.3039 21.1932 33.3985 25.0857C29.153 20.8445 24.9118 16.5999 20.668 12.3569C24.5111 8.51638 28.3533 4.67416 32.1939 0.831021ZM32.7979 9.31253C31.698 9.50894 30.7452 10.3441 30.4025 11.4076C30.0763 12.3751 30.2684 13.4932 30.9019 14.2945C31.7309 15.3987 33.3292 15.8245 34.5927 15.2551C36.0292 14.6753 36.847 12.9333 36.3503 11.4613C35.9263 9.98751 34.3019 8.99497 32.7979 9.31253Z" fill="#E31836"/>
<path fill-rule="evenodd" clip-rule="evenodd" d="M27.3113 36.1449C27.4912 36.1432 27.6712 36.1423 27.8512 36.1423C27.9905 36.5023 28.1316 36.8606 28.2718 37.2206C28.4076 36.8614 28.5496 36.5041 28.6871 36.1449C28.8697 36.1432 29.0524 36.1423 29.2358 36.1432C29.2376 36.7411 29.2367 37.34 29.2367 37.9398C29.106 37.9389 28.977 37.938 28.8472 37.9398C28.8465 37.5261 28.8481 37.1133 28.8472 36.7005C28.6724 37.109 28.5348 37.533 28.3523 37.938C28.3116 37.938 28.2311 37.938 28.1904 37.9389C28.0079 37.5365 27.865 37.1186 27.7049 36.7084C27.698 37.1177 27.7006 37.5288 27.7006 37.9398C27.5708 37.9381 27.441 37.9381 27.3113 37.9398C27.3113 37.341 27.3113 36.743 27.3113 36.145V36.1449ZM25.6679 36.1432C26.143 36.1441 26.6189 36.1432 27.094 36.1441C27.094 36.2583 27.094 36.3734 27.0949 36.4894C26.921 36.4885 26.7488 36.4894 26.5757 36.4911C26.5748 36.9731 26.5757 37.456 26.5757 37.9388C26.4381 37.938 26.3014 37.9388 26.1646 37.9397C26.1638 37.4567 26.1646 36.9739 26.1646 36.491C25.9985 36.4902 25.8324 36.4884 25.667 36.4893C25.667 36.3724 25.667 36.2574 25.6679 36.1431L25.6679 36.1432ZM24.0895 22.7663C23.6066 22.8424 23.141 23.0302 22.7455 23.3192C21.8204 23.9674 21.3116 25.1461 21.4691 26.2641C21.6162 27.4652 22.53 28.5271 23.6966 28.8507C24.9314 29.2358 26.3653 28.7244 27.1027 27.6678C27.7413 26.8007 27.8702 25.5917 27.4289 24.6095C26.8941 23.3383 25.4533 22.5309 24.0895 22.7663ZM14.6568 22.6866C14.2346 22.7888 13.8304 22.9714 13.4834 23.2353C12.5229 23.9527 12.0339 25.2499 12.3203 26.4208C12.5688 27.5769 13.5362 28.5375 14.6958 28.7737C16.1159 29.119 17.6978 28.2952 18.2395 26.9417C18.7622 25.7552 18.4299 24.2694 17.4598 23.4135C16.7156 22.7394 15.6365 22.4435 14.6568 22.6867V22.6866ZM19.9002 13.1069C24.1526 17.3473 28.3946 21.5997 32.6436 25.8444C28.7504 29.7429 24.8518 33.6379 20.9559 37.5339C20.5777 37.9215 19.9642 38.0557 19.4632 37.8428C19.1291 37.7156 18.9007 37.4309 18.6523 37.1886C15.1787 33.7133 11.7025 30.2396 8.22888 26.7643C7.67418 26.2598 7.66982 25.3053 8.21587 24.793C12.1075 20.8945 16.0042 17.0012 19.9002 13.107V13.1069Z" fill="#006490"/>
<path fill-rule="evenodd" clip-rule="evenodd" d="M53.3464 45.7457C53.3454 45.8143 53.3453 45.8837 53.3456 45.9534C53.4095 45.9534 53.4743 45.9568 53.5398 45.9513C53.604 45.9329 53.6383 45.8594 53.6043 45.8001C53.5482 45.7117 53.431 45.7547 53.3463 45.7457H53.3464ZM53.2514 45.6587C53.3956 45.6756 53.5936 45.6028 53.6906 45.7492C53.767 45.8636 53.69 46.013 53.5676 46.0532C53.6227 46.1298 53.6757 46.2089 53.7285 46.2883C53.6862 46.2893 53.6452 46.2908 53.6054 46.2925C53.5527 46.2113 53.5006 46.1306 53.4486 46.0498C53.4136 46.0487 53.3796 46.0484 53.3467 46.0484C53.3457 46.1292 53.3449 46.21 53.3457 46.2914C53.3218 46.2914 53.2743 46.2918 53.2507 46.2918C53.2507 46.0806 53.2496 45.8698 53.2514 45.6587L53.2514 45.6587ZM53.3204 45.5349C53.1494 45.5879 53.0197 45.7478 53.002 45.9256C52.9705 46.1784 53.183 46.4263 53.4372 46.4371C53.7236 46.4593 53.9798 46.169 53.916 45.8872C53.8748 45.6226 53.5724 45.4433 53.3203 45.5349H53.3204ZM53.2753 45.4516C53.5544 45.3487 53.8987 45.504 53.9878 45.7921C54.0007 45.9686 54.0301 46.1742 53.9004 46.3178C53.691 46.6073 53.2025 46.5931 53.0076 46.2946C52.7989 46.0123 52.9362 45.5571 53.2753 45.4516ZM28.3509 45.4586C28.9941 45.4402 29.639 45.4558 30.2828 45.451C30.4181 45.4347 30.5637 45.5349 30.5561 45.6805C30.5589 47.6471 30.5557 49.6138 30.5575 51.5808C30.5734 51.7063 30.4756 51.8357 30.3463 51.8391C29.7 51.8405 29.0537 51.8395 28.4077 51.8395C28.2822 51.8523 28.1609 51.741 28.173 51.6138C28.1726 49.6364 28.1734 47.6593 28.1726 45.6823C28.1616 45.5758 28.2486 45.4763 28.3509 45.4586L28.3509 45.4586ZM49.5313 45.3164C50.4123 45.2727 51.3176 45.3997 52.1103 45.8036C52.2677 45.8858 52.4286 45.9655 52.5742 46.0682C52.6748 46.1493 52.6626 46.3022 52.5919 46.3989C52.3793 46.764 52.173 47.1323 51.9584 47.496C51.8939 47.6045 51.7382 47.6305 51.6387 47.556C51.4248 47.4162 51.2035 47.2848 50.9647 47.1922C50.5864 47.0435 50.1724 46.9991 49.7691 47.0262C49.601 47.0477 49.4061 47.0799 49.3004 47.2273C49.2383 47.3098 49.2573 47.4325 49.3471 47.4866C49.5133 47.5899 49.7147 47.6087 49.9037 47.642C50.5656 47.7345 51.2472 47.7907 51.8672 48.0608C52.3287 48.2553 52.7354 48.6256 52.881 49.1159C53.0652 49.7414 52.9826 50.4675 52.5804 50.9931C52.285 51.3797 51.8488 51.6346 51.3922 51.7836C50.8006 51.9757 50.1717 52.017 49.5542 51.99C48.9262 51.948 48.3042 51.81 47.7189 51.578C47.4492 51.4681 47.1839 51.3412 46.9443 51.1752C46.8431 51.1068 46.8261 50.9567 46.8961 50.8603C47.1437 50.4473 47.3909 50.0344 47.6392 49.6218C47.6971 49.5122 47.8514 49.4727 47.9547 49.5431C48.5095 49.8763 49.1225 50.1357 49.7698 50.2109C50.0618 50.2286 50.3634 50.2306 50.6436 50.1339C50.7476 50.0947 50.8665 50.0333 50.8915 49.9141C50.9099 49.7986 50.818 49.7033 50.7227 49.6564C50.5139 49.5552 50.2819 49.5209 50.0562 49.481C49.4366 49.3822 48.8031 49.308 48.2189 49.066C47.859 48.9162 47.5171 48.6912 47.2956 48.3645C46.9696 47.8781 46.8958 47.2325 47.0858 46.6808C47.2602 46.1815 47.6898 45.8129 48.1665 45.6105C48.5965 45.4232 49.0653 45.3435 49.5313 45.3164ZM33.935 46.1718C34.3889 45.6659 35.0514 45.3827 35.7203 45.3168C36.3742 45.2481 37.0985 45.3275 37.6204 45.7637C38.0455 46.1132 38.2462 46.6707 38.2546 47.2099C38.2546 48.6783 38.2546 50.1464 38.2546 51.6148C38.2646 51.7313 38.1599 51.8405 38.0437 51.8391C37.3964 51.8405 36.7494 51.8391 36.1021 51.8399C35.9807 51.8468 35.8666 51.7376 35.8715 51.6159C35.8698 50.506 35.8707 49.3957 35.8711 48.2859C35.8732 48.022 35.7903 47.7346 35.5694 47.5716C35.3039 47.3882 34.954 47.3719 34.6471 47.4385C34.3608 47.5005 34.1215 47.6878 33.937 47.9083C33.9395 49.1437 33.937 50.3794 33.938 51.6148C33.9471 51.7383 33.8333 51.8475 33.7109 51.8392C33.0646 51.8398 32.4187 51.8402 31.7727 51.8392C31.6535 51.8426 31.5501 51.7313 31.5546 51.6145C31.5536 49.6381 31.5539 47.6621 31.5542 45.6857C31.5428 45.5512 31.6704 45.4427 31.8001 45.452C32.4263 45.4493 33.0525 45.4513 33.6787 45.451C33.8004 45.4392 33.9311 45.5273 33.9366 45.6556C33.9401 45.8276 33.9378 45.9996 33.9349 46.1719L33.935 46.1718ZM20.39 45.3962C20.9118 45.2623 21.4742 45.2523 21.9911 45.4146C22.4638 45.5595 22.8469 45.9419 23.0077 46.4076C23.5688 45.6205 24.5802 45.2079 25.5333 45.3091C26.0226 45.3476 26.5295 45.5383 26.8357 45.9388C27.1089 46.2876 27.206 46.7408 27.2115 47.1756C27.2095 48.6648 27.2153 50.1544 27.2087 51.6432C27.1984 51.7497 27.0981 51.8436 26.9896 51.8391C26.3402 51.8397 25.6908 51.8401 25.0417 51.8391C24.9221 51.8426 24.816 51.731 24.8274 51.612C24.8274 50.5375 24.8274 49.4627 24.8274 48.3878C24.8268 48.1503 24.8499 47.8892 24.7109 47.6815C24.5674 47.4637 24.2882 47.3885 24.0407 47.4044C23.6756 47.4173 23.3489 47.6281 23.1281 47.909C23.1295 49.144 23.1284 50.3794 23.1284 51.6148C23.1392 51.7406 23.0196 51.8513 22.8958 51.8398C22.2589 51.8402 21.6222 51.8391 20.9857 51.8402C20.8609 51.8502 20.7409 51.7424 20.7454 51.6162C20.7436 50.506 20.745 49.3961 20.7446 48.2859C20.7491 48.0709 20.7526 47.8334 20.6146 47.6541C20.4395 47.419 20.1122 47.3726 19.841 47.419C19.5276 47.4627 19.2624 47.6631 19.064 47.8999C19.0616 49.1385 19.064 50.377 19.0626 51.6155C19.0696 51.7372 18.9603 51.8461 18.839 51.8392C18.191 51.8398 17.5433 51.8401 16.8956 51.8392C16.7773 51.8419 16.6716 51.7338 16.6799 51.6155C16.6789 49.6388 16.6791 47.6617 16.6795 45.6847C16.6681 45.5505 16.7964 45.4416 16.9257 45.452C17.5516 45.4492 18.1774 45.4513 18.8032 45.451C18.9229 45.4399 19.0546 45.5238 19.0602 45.6514C19.0678 45.8227 19.0598 45.9947 19.0633 46.1667C19.4069 45.7752 19.892 45.529 20.3899 45.3962L20.39 45.3962ZM42.1185 47.4752C41.9206 47.5109 41.7336 47.6004 41.5811 47.7314C41.2132 48.0358 41.0773 48.5819 41.2628 49.0226C41.4466 49.5032 41.9798 49.8167 42.4899 49.732C42.8529 49.6804 43.1802 49.4412 43.3449 49.1138C43.5103 48.7893 43.5075 48.3833 43.3328 48.0632C43.1105 47.6333 42.5946 47.3777 42.1185 47.4752L42.1185 47.4752ZM42.1483 45.2807C42.8182 45.2453 43.4989 45.4132 44.072 45.763C44.631 46.1035 45.0924 46.607 45.3705 47.2006C45.6888 47.8545 45.7689 48.6142 45.6281 49.325C45.418 50.3998 44.6427 51.3388 43.6317 51.757C42.9344 52.051 42.1379 52.0985 41.4098 51.8943C40.7791 51.7178 40.2025 51.352 39.775 50.8555C39.3967 50.4227 39.1356 49.8895 39.0212 49.3264C38.8593 48.5285 38.9889 47.6725 39.3998 46.9676C39.9532 45.9887 41.0232 45.3272 42.1483 45.2807H42.1483ZM12.3364 47.4772C12.0483 47.5466 11.79 47.7328 11.6333 47.9842C11.3715 48.3912 11.4127 48.9595 11.7293 49.3253C12.0604 49.7338 12.6856 49.8569 13.1447 49.5968C13.6304 49.3465 13.8769 48.7213 13.6817 48.2085C13.5028 47.6711 12.8856 47.3313 12.3364 47.4773V47.4772ZM12.1631 45.2946C12.8603 45.2048 13.5868 45.3317 14.205 45.6687C14.707 45.9395 15.1391 46.3396 15.4456 46.8212C15.8679 47.4752 16.0461 48.2796 15.9497 49.0518C15.8197 50.1942 15.0545 51.2355 14.0052 51.705C13.2553 52.0499 12.377 52.1002 11.5899 51.8544C11.0737 51.69 10.5931 51.404 10.2148 51.0146C9.64302 50.4525 9.29385 49.6745 9.24046 48.8756C9.19089 48.1967 9.35178 47.5043 9.70022 46.9194C10.2172 46.0404 11.1492 45.4187 12.1631 45.2946V45.2946ZM2.67167 45.356C2.67167 46.7398 2.67167 48.1236 2.67167 49.5074C3.11339 49.5077 3.55548 49.507 3.99722 49.5077C4.52702 49.5025 5.06409 49.3108 5.44341 48.9342C5.90597 48.4849 6.11677 47.8119 6.04985 47.1763C6.01103 46.6455 5.78565 46.1098 5.35568 45.7804C4.9528 45.4662 4.43027 45.3546 3.92855 45.3553C3.5097 45.3563 3.09052 45.3553 2.67167 45.356V45.356ZM0.162725 43.0322C0.457455 43.0117 0.754943 43.0297 1.0507 43.0239C1.76703 43.0235 2.48303 43.0235 3.19939 43.0239C3.71463 43.0266 4.23195 43.0065 4.74509 43.0696C5.54989 43.1636 6.34838 43.4136 7.0207 43.8744C7.53317 44.2214 7.96242 44.6913 8.2568 45.2367C8.62399 45.9118 8.78417 46.6874 8.77446 47.4526C8.77723 48.0934 8.65865 48.7383 8.40209 49.3271C8.13997 49.9297 7.72213 50.4643 7.19858 50.8624C6.62854 51.3006 5.94619 51.5763 5.2444 51.7178C4.48161 51.8807 3.69869 51.8329 2.92442 51.8398C2.02154 51.8391 1.11832 51.8408 0.215408 51.8387C0.0978809 51.8425 -0.00821985 51.7333 0.00149232 51.6161C0.00111973 48.8298 0.00223676 46.0438 0.00111899 43.2578C-0.00998418 43.1549 0.0628194 43.0557 0.162673 43.0321L0.162725 43.0322ZM44.8952 43.4434C44.9815 42.889 45.4686 42.4458 46.0172 42.3675C46.6413 42.2614 47.3115 42.6535 47.5133 43.2558C47.6839 43.7693 47.5574 44.3428 47.2845 44.7974C46.9838 45.2981 46.4915 45.6649 45.9506 45.8705C45.8476 45.9021 45.7904 45.7873 45.7422 45.7186C45.6853 45.6247 45.5765 45.5227 45.6389 45.4052C45.8417 45.2779 46.0303 45.1011 46.0914 44.8608C45.7783 44.8313 45.4669 44.7128 45.2429 44.4877C44.9635 44.226 44.8292 43.8203 44.8951 43.4434H44.8952ZM29.1886 42.345C29.7291 42.2402 30.3116 42.5142 30.581 42.9933C30.7773 43.3286 30.8113 43.7509 30.6816 44.116C30.5523 44.4805 30.2565 44.7818 29.8938 44.916C29.3689 45.1219 28.7264 44.9489 28.379 44.5047C28.025 44.0779 27.984 43.4275 28.2802 42.959C28.4785 42.639 28.8155 42.406 29.1886 42.345H29.1886Z" fill="#006490"/>
</svg>
