<svg width="42" height="42" viewBox="0 0 42 42" fill="none" xmlns="http://www.w3.org/2000/svg">
<rect width="42" height="42" rx="21" fill="#F5F6FA"/>
<path d="M25.757 12L23.757 14H14V28H28V18.243L30 16.243V29C30 29.2652 29.8946 29.5196 29.7071 29.7071C29.5196 29.8946 29.2652 30 29 30H13C12.7348 30 12.4804 29.8946 12.2929 29.7071C12.1054 29.5196 12 29.2652 12 29V13C12 12.7348 12.1054 12.4804 12.2929 12.2929C12.4804 12.1054 12.7348 12 13 12H25.757V12ZM29.485 11.1L30.9 12.516L21.708 21.708L20.296 21.711L20.294 20.294L29.485 11.1V11.1Z" fill="#0C61FF"/>
</svg>
