<svg width="33" height="33" viewBox="0 0 33 33" fill="none" xmlns="http://www.w3.org/2000/svg">
<rect x="0.699951" y="0.130859" width="32" height="32" rx="16" fill="#001F80"/>
<path d="M8.69995 20.5744V11.6878C8.69995 11.6776 8.7154 11.5799 8.74629 11.3945L13.9756 15.8714L8.76151 20.8822C8.7287 20.7825 8.70803 20.6791 8.69995 20.5744ZM9.39157 10.779C9.47493 10.746 9.56409 10.7303 9.6537 10.7327H23.7407C23.8348 10.7331 23.9282 10.7487 24.0173 10.779L18.772 15.2683L18.0804 15.8216L16.7076 16.9476L15.3333 15.8223L14.6417 15.269L9.39157 10.779ZM9.41094 21.4832L14.6673 16.4392L16.7034 18.0901L18.7395 16.4392L24.0042 21.4832C23.9203 21.5144 23.8315 21.5301 23.742 21.5296H9.65646C9.57204 21.5292 9.48838 21.5135 9.40956 21.4832H9.41094ZM19.4395 15.8714L24.6536 11.398C24.6848 11.4926 24.7005 11.5916 24.6999 11.6912V20.5744C24.6982 20.6789 24.6826 20.7826 24.6536 20.8829L19.4395 15.8714Z" fill="white"/>
</svg>
