<svg width="282" height="360" viewBox="0 0 282 360" fill="none" xmlns="http://www.w3.org/2000/svg">
<path d="M100.516 52.1227V29.848C100.516 21.9318 97.3964 14.3399 91.8438 8.74229C86.2912 3.14469 78.7603 0 70.9077 0C63.0551 0 55.5242 3.14469 49.9716 8.74229C44.4189 14.3399 41.2996 21.9318 41.2996 29.848V52.1227C41.3007 53.1857 41.7202 54.2048 42.4658 54.9565C43.2114 55.7081 44.2223 56.1309 45.2768 56.1321H96.5387C97.5931 56.1309 98.604 55.7081 99.3496 54.9565C100.095 54.2048 100.515 53.1857 100.516 52.1227Z" fill="#2F2E41"/>
<path d="M27.1145 340.688L37.5433 343.578L53.6384 304.666L38.2467 300.4L27.1145 340.688Z" fill="#FFB8B8"/>
<path d="M45.8604 342.797L25.6389 337.201L22.1152 349.934L55.0689 359.054C55.5316 357.382 55.6605 355.635 55.4482 353.913C55.2358 352.192 54.6864 350.528 53.8314 349.019C52.9763 347.509 51.8322 346.183 50.4646 345.115C49.0969 344.048 47.5325 343.26 45.8604 342.797Z" fill="#2F2E41"/>
<path d="M136.295 349.129H147.161L152.331 307.184H136.293L136.295 349.129Z" fill="#FFB8B8"/>
<path d="M155.023 346.046H133.827V358.999H168.369C168.369 357.298 168.024 355.614 167.353 354.042C166.683 352.471 165.7 351.043 164.46 349.84C163.221 348.637 161.75 347.683 160.131 347.032C158.511 346.381 156.776 346.046 155.023 346.046Z" fill="#2F2E41"/>
<path d="M149.298 114.385C148.521 115.44 147.523 116.312 146.375 116.937C145.227 117.563 143.957 117.927 142.654 118.006C141.35 118.084 140.046 117.873 138.832 117.389C137.618 116.906 136.525 116.16 135.629 115.205L106.685 128.302L109.318 111.922L136.399 101.996C138.094 100.588 140.243 99.8538 142.44 99.9331C144.637 100.012 146.728 100.9 148.318 102.427C149.908 103.954 150.886 106.014 151.067 108.218C151.247 110.422 150.618 112.617 149.298 114.385H149.298Z" fill="#FFB8B8"/>
<path d="M89.4779 212.192C98.6046 212.192 108.053 210.841 115.994 206.826C120.21 204.736 123.946 201.804 126.969 198.215C129.992 194.625 132.236 190.455 133.562 185.964C137.7 172.951 132.482 160.167 127.437 147.805C124.311 140.144 121.357 132.908 120.591 125.776L120.324 123.244C119.13 111.87 118.1 102.047 112.393 98.3632C109.435 96.4535 105.459 96.3446 100.235 98.0295L51.1705 113.859L52.9745 206.361L53.2727 206.46C53.5295 206.546 70.8257 212.192 89.4779 212.192Z" fill="#2F2E41"/>
<path d="M100.788 68.5765C100.788 68.5765 77.0407 61.4661 58.5706 64.1325C58.5706 64.1325 69.1249 122.793 65.6068 142.347C62.0887 161.901 126.734 149.902 113.541 131.237L109.143 109.017C109.143 109.017 117.939 100.129 110.023 89.4633L100.788 68.5765Z" fill="#FF8282"/>
<path d="M112.691 210.341L142.46 204.797L132.067 125.355C131.368 123.137 115.268 72.803 107.956 70.0796C102.647 68.2225 97.2177 66.7243 91.7049 65.5952L90.6459 65.3848L96.6149 74.2781L120.379 130.838L112.691 210.341Z" fill="#3D3D3D"/>
<path d="M128.316 339.26L166.519 332.899L145.08 245.44L113.178 125.834L112.863 127.958C112.838 128.117 109.858 143.741 65.6366 136.808L65.2477 136.748L65.1403 137.126L11.6926 325.795L55.2228 333.043L94.9253 195.391L128.316 339.26Z" fill="#3D3D3D"/>
<path d="M75.2263 225.145L75.2026 224.474C75.176 223.73 72.5568 149.697 73.4317 119.923C74.3096 90.0478 64.6462 64.1759 64.5485 63.918L64.4698 63.7102L64.2562 63.6488C51.7538 60.0739 40.9076 70.7438 40.7995 70.8519L40.6471 71.0043L44.2077 100.407L28.9636 207.329L75.2263 225.145Z" fill="#3D3D3D"/>
<path d="M77.0777 55.5146C65.1543 55.5146 55.4884 45.7107 55.4884 33.6169C55.4884 21.5232 65.1543 11.7192 77.0777 11.7192C89.0011 11.7192 98.667 21.5232 98.667 33.6169C98.667 45.7107 89.0011 55.5146 77.0777 55.5146Z" fill="#FFB8B8"/>
<path d="M107.92 31.6307C107.913 25.3708 105.416 19.3693 100.978 14.9429C96.5398 10.5165 90.5224 8.02661 84.2459 8.01953H79.7789C73.5025 8.02661 67.4851 10.5165 63.047 14.9429C58.6088 19.3693 56.1124 25.3708 56.1054 31.6307V32.0762H65.5451L68.7648 23.0845L69.4086 32.0762H74.2871L75.9115 27.5394L76.2365 32.0762H107.92V31.6307Z" fill="#2F2E41"/>
<path d="M79.3916 58.7894C79.832 58.1884 80.0951 57.4743 80.1504 56.7292C80.2057 55.9842 80.0511 55.2385 79.7044 54.5782C75.0001 45.5615 68.4135 28.9008 77.1562 18.626L77.7846 17.8877H52.4037V56.2871L75.4603 60.3865C75.6937 60.4281 75.9303 60.4492 76.1673 60.4494C76.7968 60.4494 77.4172 60.2989 77.9777 60.0104C78.5382 59.7218 79.0227 59.3033 79.3916 58.7894Z" fill="#2F2E41"/>
<path d="M226.45 89.3055L248.598 196.023L33.7691 240.608L11.6215 133.89L226.45 89.3055Z" fill="white"/>
<path d="M204.323 100.596C209.154 96.1314 215.861 95.0034 218.444 94.7316C217.968 97.2785 216.323 103.883 211.494 108.35C206.665 112.817 199.951 113.944 197.374 114.216C197.846 111.664 199.493 105.063 204.323 100.596Z" fill="#878787"/>
<path d="M192.056 171.835L226.552 164.676C227.573 164.459 228.628 164.445 229.654 164.637C230.681 164.828 231.66 165.22 232.535 165.791C233.409 166.362 234.163 167.1 234.751 167.963C235.34 168.825 235.752 169.796 235.964 170.818C236.176 171.841 236.184 172.896 235.988 173.921C235.791 174.947 235.394 175.924 234.819 176.796C234.244 177.667 233.502 178.417 232.636 179.001C231.77 179.585 230.798 179.992 229.774 180.199L195.278 187.359C194.257 187.577 193.202 187.59 192.175 187.399C191.149 187.208 190.17 186.815 189.295 186.244C188.421 185.674 187.667 184.936 187.079 184.073C186.49 183.21 186.078 182.24 185.866 181.217C185.654 180.194 185.645 179.14 185.842 178.114C186.039 177.088 186.436 176.112 187.011 175.24C187.586 174.368 188.328 173.619 189.194 173.035C190.06 172.451 191.032 172.043 192.056 171.836L192.056 171.835Z" fill="#878787"/>
<path d="M18.8471 122.333L212.251 82.1926C214.501 81.7259 216.82 81.707 219.077 82.1368C221.334 82.5667 223.484 83.4368 225.405 84.6977C227.325 85.9585 228.979 87.5853 230.271 89.4851C231.563 91.385 232.468 93.5207 232.934 95.7704L252.495 189.995C253.438 194.54 252.536 199.272 249.99 203.152C247.443 207.033 243.46 209.743 238.916 210.687L45.5132 250.826C43.2636 251.292 40.9441 251.311 38.6871 250.881C36.4302 250.452 34.28 249.581 32.3594 248.321C30.4388 247.06 28.7853 245.433 27.4934 243.533C26.2015 241.633 25.2965 239.497 24.83 237.248L6.23978 147.693L5.86172 145.863L5.27067 143.016C4.32831 138.473 5.22929 133.742 7.77535 129.863C10.3214 125.984 14.304 123.276 18.8471 122.333ZM35.0977 204.406L38.3197 219.929C38.8966 222.67 40.5361 225.072 42.8793 226.608C45.2226 228.144 48.0788 228.69 50.8232 228.125L76.6977 222.757C79.4396 222.18 81.8413 220.541 83.3773 218.197C84.9134 215.854 85.4588 212.998 84.8942 210.253L81.6721 194.73C81.0943 191.989 79.4546 189.588 77.1116 188.052C74.7687 186.516 71.9129 185.97 69.1686 186.534L43.3038 191.902C40.5635 192.48 38.1628 194.118 36.6255 196.459C35.0883 198.8 34.5393 201.654 35.0982 204.399L35.0977 204.406ZM237.633 170.461C237.109 167.95 235.61 165.748 233.465 164.34C231.32 162.932 228.704 162.433 226.191 162.951L191.697 170.112C190.452 170.369 189.269 170.87 188.217 171.584C187.165 172.299 186.264 173.213 185.565 174.276C184.866 175.339 184.384 176.529 184.145 177.778C183.906 179.027 183.916 180.311 184.173 181.556C184.431 182.802 184.931 183.984 185.645 185.037C186.36 186.089 187.275 186.99 188.337 187.689C189.4 188.387 190.59 188.87 191.839 189.108C193.088 189.347 194.372 189.338 195.618 189.08L195.635 189.078L230.13 181.917C231.375 181.658 232.558 181.156 233.609 180.44C234.661 179.723 235.561 178.807 236.258 177.742C236.954 176.678 237.434 175.486 237.67 174.236C237.906 172.986 237.893 171.701 237.632 170.456L237.633 170.461ZM220.356 93.8496L220.471 92.8446L219.457 92.879C219.06 92.8864 209.693 93.2267 203.124 99.2939C196.555 105.361 195.495 114.683 195.451 115.073L195.345 116.078L196.357 116.052C197.79 115.978 199.214 115.788 200.616 115.484C205.093 114.649 209.263 112.626 212.69 109.628C219.254 103.561 220.32 94.2396 220.363 93.846L220.356 93.8496Z" fill="#BBBBBB"/>
<path d="M65.7242 211.099L76.9357 208.772C77.3321 208.69 77.7408 208.687 78.1385 208.762C78.5363 208.838 78.9152 208.991 79.2536 209.213C79.5921 209.435 79.8835 209.722 80.1112 210.057C80.339 210.392 80.4986 210.768 80.5809 211.164C80.6631 211.561 80.6665 211.969 80.5909 212.367C80.5152 212.765 80.3619 213.144 80.1398 213.482C79.9177 213.821 79.6311 214.112 79.2963 214.34C78.9616 214.568 78.5853 214.727 78.1889 214.809L66.9775 217.136C66.1769 217.302 65.3431 217.144 64.6595 216.695C63.9758 216.247 63.4984 215.545 63.3322 214.744C63.166 213.944 63.3247 213.11 63.7733 212.426C64.2219 211.743 64.9237 211.265 65.7242 211.099Z" fill="#878787"/>
<path d="M45.0277 215.396L56.2392 213.069C57.0397 212.903 57.8735 213.062 58.5571 213.51C59.2407 213.959 59.7181 214.661 59.8843 215.461C60.0505 216.262 59.8918 217.096 59.4433 217.779C58.9947 218.463 58.293 218.94 57.4924 219.106L46.281 221.433C45.8845 221.515 45.4758 221.519 45.0781 221.443C44.6804 221.367 44.3014 221.214 43.9629 220.992C43.6244 220.77 43.333 220.483 43.1053 220.149C42.8776 219.814 42.7181 219.438 42.6358 219.041C42.5535 218.645 42.55 218.236 42.6257 217.838C42.7014 217.441 42.8546 217.062 43.0768 216.723C43.2989 216.385 43.5855 216.093 43.9202 215.866C44.2549 215.638 44.6313 215.478 45.0277 215.396Z" fill="#878787"/>
<path d="M64.1166 203.338L75.328 201.012C76.1286 200.845 76.9624 201.004 77.646 201.453C78.3296 201.901 78.807 202.603 78.9732 203.404C79.1394 204.204 78.9807 205.038 78.5321 205.722C78.0835 206.405 77.3818 206.883 76.5813 207.049L65.3698 209.375C64.5692 209.542 63.7354 209.383 63.0518 208.934C62.3682 208.486 61.8908 207.784 61.7246 206.984C61.5584 206.183 61.7171 205.349 62.1656 204.666C62.6142 203.982 63.316 203.505 64.1166 203.338Z" fill="#878787"/>
<path d="M43.4161 207.631L54.6276 205.305C55.4281 205.138 56.2619 205.297 56.9455 205.746C57.6291 206.194 58.1066 206.896 58.2727 207.696C58.4389 208.497 58.2803 209.331 57.8317 210.014C57.3831 210.698 56.6814 211.175 55.8808 211.342L44.6693 213.668C43.8687 213.835 43.0349 213.676 42.3513 213.227C41.6677 212.779 41.1903 212.077 41.0241 211.277C40.8579 210.476 41.0166 209.642 41.4652 208.959C41.9138 208.275 42.6155 207.798 43.4161 207.631Z" fill="#878787"/>
<path d="M62.5049 195.576L73.7164 193.249C74.1128 193.167 74.5215 193.163 74.9192 193.239C75.3169 193.315 75.6959 193.468 76.0344 193.69C76.3729 193.912 76.6643 194.199 76.892 194.533C77.1197 194.868 77.2793 195.244 77.3616 195.641C77.4439 196.037 77.4473 196.446 77.3716 196.844C77.296 197.241 77.1427 197.62 76.9206 197.959C76.6984 198.297 76.4118 198.589 76.0771 198.816C75.7424 199.044 75.366 199.204 74.9696 199.286L63.7582 201.613C62.9576 201.779 62.1238 201.62 61.4402 201.172C60.7566 200.723 60.2792 200.021 60.113 199.221C59.9468 198.42 60.1055 197.586 60.5541 196.903C61.0026 196.219 61.7044 195.742 62.5049 195.576Z" fill="#878787"/>
<path d="M41.8065 199.872L53.018 197.545C53.8185 197.379 54.6523 197.538 55.3359 197.986C56.0195 198.435 56.4969 199.137 56.6631 199.937C56.8293 200.738 56.6706 201.572 56.2221 202.255C55.7735 202.939 55.0718 203.416 54.2712 203.582L43.0597 205.909C42.2591 206.075 41.4253 205.917 40.7417 205.468C40.0581 205.02 39.5807 204.318 39.4145 203.517C39.2483 202.717 39.407 201.883 39.8556 201.199C40.3041 200.516 41.0059 200.038 41.8065 199.872Z" fill="#878787"/>
<path d="M239.642 125.431L240.022 127.266L12.9807 174.306L12.6006 172.471L239.642 125.431Z" fill="white"/>
<path d="M5.86272 145.861L6.24094 147.692L14.1429 146.056L98.3273 128.613L97.9394 126.782L13.762 144.226L5.86272 145.861Z" fill="white"/>
<path d="M70.1417 152.719C68.8679 153.03 67.5413 153.058 66.2553 152.802C64.9694 152.545 63.7554 152.011 62.6988 151.236C61.6422 150.461 60.7688 149.464 60.14 148.315C59.5112 147.167 59.1424 145.895 59.0595 144.589L28.3451 136.081L40.8304 125.217L68.0832 134.962C70.291 134.969 72.4197 135.783 74.066 137.251C75.7122 138.72 76.7617 140.739 77.0154 142.928C77.2692 145.117 76.7096 147.322 75.4427 149.127C74.1758 150.931 72.2897 152.209 70.1417 152.719Z" fill="#FFB8B8"/>
<path d="M57.342 148.042L59.1875 130.308L33.8566 116.17L50.3718 95.9468L47.677 73.2296L40.9663 70.3203L40.7575 70.5918C37.5932 74.7077 9.84057 110.932 9.84057 115.41C9.84057 120.009 15.1499 133.515 22.4137 137.189C29.4203 140.733 55.731 147.621 56.8476 147.913L57.342 148.042Z" fill="#3D3D3D"/>
<path d="M12.0483 359.999H280.812C280.999 359.999 281.178 359.905 281.311 359.736C281.443 359.567 281.517 359.338 281.517 359.099C281.517 358.86 281.443 358.631 281.311 358.462C281.178 358.293 280.999 358.198 280.812 358.198H12.0483C11.8612 358.198 11.6818 358.293 11.5495 358.462C11.4172 358.631 11.3429 358.86 11.3429 359.099C11.3429 359.338 11.4172 359.567 11.5495 359.736C11.6818 359.905 11.8612 359.999 12.0483 359.999Z" fill="#CCCCCC"/>
<path d="M220.491 94.9933C229.178 94.9933 236.221 87.9511 236.221 79.264C236.221 70.5769 229.178 63.5347 220.491 63.5347C211.804 63.5347 204.762 70.5769 204.762 79.264C204.762 87.9511 211.804 94.9933 220.491 94.9933Z" fill="#FF8282"/>
<path d="M217.093 74.9443L216.172 75.8657L223.889 83.5828L224.81 82.6613L217.093 74.9443Z" fill="white"/>
<path d="M224.812 75.8658L223.891 74.9443L216.174 82.6614L217.095 83.5828L224.812 75.8658Z" fill="white"/>
</svg>
