<svg width="386" height="286" viewBox="0 0 386 286" fill="none" xmlns="http://www.w3.org/2000/svg">
<path d="M385.8 195.161H154.654V196.842H385.8V195.161Z" fill="#E6E6E6"/>
<path d="M283.274 193.051H225.18L227.149 167.451H281.305L283.274 193.051Z" fill="#E6E6E6"/>
<path d="M287.213 190.098H222.226V196.006H287.213V190.098Z" fill="#E6E6E6"/>
<path d="M365.492 2.52148H143.454C141.887 2.52148 140.385 3.14393 139.277 4.25187C138.169 5.35982 137.546 6.8625 137.546 8.42937V143.818H371.4V8.42937C371.4 7.65353 371.247 6.8853 370.951 6.16852C370.654 5.45174 370.218 4.80047 369.67 4.25187C369.121 3.70328 368.47 3.2681 367.753 2.9712C367.036 2.6743 366.268 2.52149 365.492 2.52148H365.492Z" fill="#3F3D56"/>
<path d="M137.546 143.819V165.974C137.546 166.75 137.699 167.518 137.996 168.235C138.293 168.952 138.728 169.603 139.277 170.151C139.825 170.7 140.477 171.135 141.193 171.432C141.91 171.729 142.678 171.882 143.454 171.882H365.492C367.059 171.882 368.562 171.259 369.67 170.151C370.778 169.043 371.4 167.541 371.4 165.974V143.819H137.546Z" fill="#E6E6E6"/>
<path d="M360.077 14.8311H149.362V132.989H360.077V14.8311Z" fill="#E6E6E6"/>
<path d="M254.72 163.512C257.982 163.512 260.628 160.867 260.628 157.604C260.628 154.341 257.982 151.696 254.72 151.696C251.457 151.696 248.812 154.341 248.812 157.604C248.812 160.867 251.457 163.512 254.72 163.512Z" fill="#3F3D56"/>
<path d="M155.932 19.8214C156.551 19.8214 157.053 19.3195 157.053 18.7003C157.053 18.0811 156.551 17.5791 155.932 17.5791C155.313 17.5791 154.811 18.0811 154.811 18.7003C154.811 19.3195 155.313 19.8214 155.932 19.8214Z" fill="white"/>
<path d="M160.188 19.8214C160.807 19.8214 161.309 19.3195 161.309 18.7003C161.309 18.0811 160.807 17.5791 160.188 17.5791C159.569 17.5791 159.067 18.0811 159.067 18.7003C159.067 19.3195 159.569 19.8214 160.188 19.8214Z" fill="white"/>
<path d="M164.444 19.8214C165.063 19.8214 165.565 19.3195 165.565 18.7003C165.565 18.0811 165.063 17.5791 164.444 17.5791C163.824 17.5791 163.323 18.0811 163.323 18.7003C163.323 19.3195 163.824 19.8214 164.444 19.8214Z" fill="white"/>
<path d="M354.004 22.5088H154.811V121.742H354.004V22.5088Z" fill="white"/>
<path d="M24.765 269.636L33.1989 271.974L46.2153 240.505L33.7678 237.055L24.765 269.636Z" fill="#FFB8B8"/>
<path d="M21.9248 269.294L5.57127 264.767L2.72165 275.065L29.3718 282.441C29.746 281.089 29.8503 279.676 29.6785 278.283C29.5068 276.891 29.0625 275.546 28.371 274.325C27.6795 273.104 26.7543 272.031 25.6482 271.168C24.5422 270.305 23.277 269.668 21.9248 269.294Z" fill="#2F2E41"/>
<path d="M99.6984 276.835H108.486L112.667 242.913H99.697L99.6984 276.835Z" fill="#FFB8B8"/>
<path d="M114.844 274.342H97.7016V284.818H125.637C125.637 283.442 125.358 282.08 124.815 280.809C124.273 279.538 123.478 278.383 122.476 277.41C121.473 276.437 120.284 275.666 118.974 275.139C117.665 274.613 116.261 274.342 114.844 274.342Z" fill="#2F2E41"/>
<path d="M87.3289 56.3177C85.4369 52.0387 81.7734 48.7824 77.1975 47.8079C70.2446 46.3271 59.4142 44.6515 50.2058 45.9809C50.2058 45.9809 58.7412 93.421 55.8961 109.234C53.0509 125.048 105.331 115.344 94.6612 100.249L91.1048 82.2798C91.1048 82.2798 98.2177 75.0919 91.8161 66.4664L87.3289 56.3177Z" fill="#3D3D3D"/>
<path d="M87.7924 165.139C101.294 162.625 110.472 149.991 108.69 136.374L105.007 108.219C103.979 100.361 102.291 92.6078 99.6832 85.1238C95.2359 72.3595 87.9689 53.1989 83.9631 51.707C79.6695 50.2051 75.2786 48.9935 70.8203 48.0803L69.9639 47.9102L74.7911 55.1023V110.531L87.7924 165.139Z" fill="#3D3D3D"/>
<path d="M94.515 279.35L125.41 274.206L108.072 203.476L82.2728 106.749L82.0183 108.467C81.9981 108.595 58.6168 85.7358 43.8253 115.624L43.5108 115.575L43.4239 115.881L0.199875 268.46L35.4035 274.322L67.5116 163L94.515 279.35Z" fill="#3D3D3D"/>
<path d="M63.675 176.194L63.6559 175.652C63.6344 175.05 61.5162 115.179 62.2237 91.1002C62.9337 66.9396 55.1187 46.0166 55.0397 45.808L54.9761 45.64L54.8033 45.5903C44.6925 42.6992 35.9209 51.3281 35.8335 51.4156L35.7103 51.5388L38.5898 75.3176L26.2616 161.786L63.675 176.194Z" fill="#3D3D3D"/>
<path d="M65.1717 39.0137C55.5291 39.0137 47.7121 31.0851 47.7121 21.3047C47.7121 11.5243 55.5291 3.5957 65.1717 3.5957C74.8144 3.5957 82.6313 11.5243 82.6313 21.3047C82.6313 31.0851 74.8144 39.0137 65.1717 39.0137Z" fill="#FFB8B8"/>
<path d="M84.1296 19.0947C84.1239 14.0322 82.105 9.17875 78.5158 5.59903C74.9265 2.01932 70.0602 0.00572139 64.9843 0H61.3718C56.2959 0.00572338 51.4295 2.01932 47.8404 5.59903C44.2512 9.17875 42.2323 14.0322 42.2266 19.0947V19.455H49.8606L52.4644 12.1833L52.9851 19.455H56.9304L58.2441 15.7861L58.507 19.455H84.1296V19.0947Z" fill="#2F2E41"/>
<path d="M77.5003 41.4831C77.8564 40.9971 78.0692 40.4196 78.1139 39.817C78.1587 39.2145 78.0336 38.6115 77.7532 38.0774C73.9488 30.7855 68.6221 17.3117 75.6925 9.00233L76.2006 8.40527H55.6747V39.4595L74.321 42.7748C74.5097 42.8084 74.7011 42.8254 74.8928 42.8256C75.4018 42.8256 75.9035 42.7039 76.3568 42.4705C76.8101 42.2372 77.202 41.8988 77.5003 41.4831Z" fill="#2F2E41"/>
<path d="M75.8267 42.1525V24.1386C75.8267 17.7366 73.3039 11.5969 68.8134 7.07003C64.3229 2.54316 58.2326 0 51.8821 0C45.5316 0 39.4411 2.54316 34.9507 7.07003C30.4602 11.5969 27.9375 17.7366 27.9375 24.1386V42.1525C27.9384 43.0121 28.2776 43.8363 28.8806 44.4442C29.4836 45.052 30.3012 45.394 31.1539 45.395H72.6102C73.463 45.394 74.2805 45.052 74.8835 44.4442C75.4865 43.8363 75.8257 43.0121 75.8267 42.1525Z" fill="#2F2E41"/>
<path d="M48.6903 113.364L50.5314 99.0627L30.3302 87.1343L44.0803 71.1093L42.3487 52.69L36.9805 50.2059L36.8064 50.4212C34.1671 53.6866 11.0168 82.4266 10.9287 86.0469C10.8382 89.7653 14.8649 100.789 20.6651 103.903C26.2601 106.906 47.3961 112.992 48.2931 113.25L48.6903 113.364Z" fill="#3D3D3D"/>
<path d="M12.5819 285.254H229.935C230.087 285.254 230.232 285.178 230.339 285.041C230.446 284.905 230.506 284.719 230.506 284.526C230.506 284.333 230.446 284.148 230.339 284.011C230.232 283.875 230.087 283.798 229.935 283.798H12.5819C12.4306 283.798 12.2855 283.875 12.1785 284.011C12.0715 284.148 12.0114 284.333 12.0114 284.526C12.0114 284.719 12.0715 284.905 12.1785 285.041C12.2855 285.178 12.4306 285.254 12.5819 285.254Z" fill="#CCCCCC"/>
<path d="M254.11 108.427C273.08 108.427 288.459 93.0482 288.459 74.0777C288.459 55.1072 273.08 39.7285 254.11 39.7285C235.139 39.7285 219.76 55.1072 219.76 74.0777C219.76 93.0482 235.139 108.427 254.11 108.427Z" fill="#FF8282"/>
<path d="M246.69 64.6431L244.678 66.6553L261.53 83.5075L263.543 81.4953L246.69 64.6431Z" fill="white"/>
<path d="M263.544 66.6577L261.532 64.6455L244.68 81.4977L246.692 83.5099L263.544 66.6577Z" fill="white"/>
</svg>
