<svg width="313" height="370" viewBox="0 0 313 370" fill="none" xmlns="http://www.w3.org/2000/svg">
<path d="M5.42846 258.307C4.40851 257.925 3.49444 257.306 2.7623 256.499C2.03015 255.693 1.50109 254.724 1.21915 253.672C0.937206 252.62 0.910524 251.516 1.14133 250.452C1.37213 249.388 1.85374 248.394 2.54609 247.553L204.387 2.49126C205.186 1.52141 206.236 0.790327 207.423 0.378263C208.61 -0.0337999 209.888 -0.110925 211.115 0.155351C212.343 0.421627 213.474 1.021 214.384 1.88772C215.293 2.75444 215.947 3.855 216.272 5.0686L311.781 361.39C312.106 362.604 312.091 363.883 311.737 365.089C311.382 366.294 310.703 367.379 309.773 368.224C308.843 369.068 307.698 369.641 306.464 369.877C305.23 370.114 303.955 370.007 302.778 369.566L5.42846 258.307Z" fill="url(#paint0_linear_5808_18841)"/>
<path opacity="0.35" d="M262.274 311.715C262.274 314.939 225.1 317.554 179.244 317.554C133.387 317.554 96.2135 314.94 96.2135 311.715C96.2135 308.49 133.387 305.876 179.244 305.876C225.1 305.876 262.274 308.491 262.274 311.715Z" fill="#E6E6E6"/>
<path d="M181.75 289.357L187.621 307.512L197.347 307.608C197.347 307.608 198.352 307.962 198.335 309.72C198.317 311.477 196.898 311.12 192.541 311.076L185.751 311.008C185.751 311.008 184.695 311.127 183.628 307.814C182.56 304.502 180.521 297.577 180.521 297.577L177.643 296.304C177.643 296.304 176.073 292.771 177.279 291.24C178.486 289.709 181.75 289.357 181.75 289.357Z" fill="#474642"/>
<path d="M177.643 296.303L180.109 310.976L180.843 310.984L180.52 297.574L177.643 296.303Z" fill="#474642"/>
<path d="M189.658 287.871L189.59 290.212L192.646 305.508L196.019 307.6L187.62 307.516L181.75 289.359L182.831 282.723L189.658 287.871Z" fill="#F4BB82"/>
<path d="M217.247 283.663L229.446 298.333L238.509 294.81C238.509 294.81 239.574 294.765 240.211 296.403C240.848 298.041 239.399 298.237 235.337 299.815L229.01 302.277C229.01 302.277 228.073 302.777 225.85 300.098C223.628 297.419 219.161 291.751 219.161 291.751L216.017 291.639C216.017 291.639 213.248 288.944 213.799 287.073C214.35 285.203 217.247 283.663 217.247 283.663Z" fill="#474642"/>
<path d="M216.016 291.638L223.761 304.343L224.445 304.077L219.161 291.75L216.016 291.638Z" fill="#474642"/>
<path d="M224.035 279.341L224.84 281.537L233.364 294.601L237.273 295.289L229.445 298.331L217.246 283.664L215.782 277.1L224.035 279.341Z" fill="#F4BB82"/>
<path d="M167.823 194.099L181.034 288.442H190.609L183.692 195.05L186.762 194.649L216.017 282.727L225.09 279.764L202.127 189.512L184.958 185.541L167.823 194.099Z" fill="white"/>
<path d="M204.572 199.122C204.572 199.122 202.002 196.473 197.852 199.122C193.703 201.772 191.704 209.533 191.704 209.533L188.438 199.696L192.172 195.049L203.409 194.55L204.572 199.122Z" fill="#C5C5C5"/>
<path d="M184.343 203.833C184.343 203.833 181.801 199.872 176.12 202.037C170.438 204.203 170.324 211.95 170.324 211.95L168.583 199.528L176.463 196.807L184.072 200.174L184.343 203.833Z" fill="#C5C5C5"/>
<path d="M103.606 117.26C103.606 117.26 100.995 121.952 99.5524 125.289C98.1095 128.626 97.0866 133.133 98.6348 132.909C100.183 132.684 108.931 122.444 108.931 122.444V117.623L103.606 117.26Z" fill="#F4BB82"/>
<path d="M150.223 104.916C150.223 104.916 163.641 114.458 179.56 112.226C195.479 109.993 203.897 98.5515 203.897 98.5515L208.707 101.561C208.707 101.561 199.906 120.06 178.453 122.016C157 123.972 148.343 118.649 148.343 118.649L150.223 104.916Z" fill="#99A5CC"/>
<path d="M203.897 98.5495C203.897 98.5495 203.897 94.6278 204.799 93.4551C205.024 93.1261 205.318 92.8504 205.661 92.6475C206.003 92.4445 206.387 92.3193 206.783 92.2806C206.783 92.2806 208.858 84.0739 209.94 82.8108C211.022 81.5477 212.014 81.0974 211.563 83.4423C211.112 85.7873 209.489 91.832 209.489 91.832C209.489 91.832 214.539 84.0761 215.351 83.4446C216.163 82.8131 217.064 83.3538 216.162 85.2484C215.26 87.143 211.924 92.1929 211.924 92.1929C212.11 92.0947 212.322 92.0551 212.531 92.0794C212.74 92.1037 212.937 92.1908 213.096 92.3291C213.547 92.8254 213.232 93.772 213.232 93.772C213.232 93.772 214.585 93.4996 214.765 94.6736C214.945 95.8477 213.728 97.8304 212.15 99.3636C211.155 100.31 209.986 101.056 208.708 101.56L203.897 98.5495Z" fill="#F4BB82"/>
<path d="M190.609 104.338C190.609 104.338 194.596 105.476 198.285 110.498C201.973 115.521 206.813 123.937 216.536 125.622C226.259 127.307 234.199 120.682 235.642 120.387C237.085 120.092 241.895 124.823 241.895 126.666C241.895 128.509 230.111 137.662 214.717 135.249C199.323 132.836 195.058 122.855 195.058 122.855L190.609 104.338Z" fill="#0C61FF"/>
<path d="M120.325 107.793C120.325 107.793 96.3945 126.105 96.7578 141.254C97.121 156.403 121.006 162.706 121.006 162.706L123.737 156.946C123.737 156.946 107.483 148.573 106.403 142.26C105.322 135.947 118.584 123.048 122.822 122.618C127.059 122.187 126.799 114.561 126.799 114.561L120.325 107.793Z" fill="#99A5CC"/>
<path d="M148.302 297.656L146.814 310.467L169.433 313.093C169.433 313.093 171.352 304.316 165.553 303.643C159.755 302.969 156.033 298.555 156.033 298.555L148.302 297.656Z" fill="#99A5CC"/>
<path d="M146.975 309.083L169.642 311.717L169.733 309.789L147.197 307.171L146.975 309.083Z" fill="white"/>
<path d="M156.912 299.448L153.106 300.499L153.345 301.634L157.664 300.106L156.912 299.448Z" fill="white"/>
<path d="M158.793 300.968L154.376 302.786L154.968 303.888L159.69 301.555L158.793 300.968Z" fill="white"/>
<path d="M131.78 300.604L131.805 313.502L154.575 313.456C154.575 313.456 155.452 304.517 149.615 304.528C143.777 304.538 139.563 300.59 139.563 300.59L131.78 300.604Z" fill="#99A5CC"/>
<path d="M131.8 312.111L154.62 312.066L154.488 310.141L131.8 310.187V312.111Z" fill="white"/>
<path d="M140.542 301.378L136.885 302.867L137.255 303.966L141.365 301.944L140.542 301.378Z" fill="white"/>
<path d="M142.588 302.664L138.414 304.989L139.132 306.014L143.548 303.142L142.588 302.664Z" fill="white"/>
<path d="M125.02 162.529C125.02 162.529 121.034 179.847 123.794 206.671C126.554 233.495 131.727 301.426 131.727 301.426H140.494L140.165 183.167H142.33C142.33 183.167 149.978 221.328 151.325 244.375C152.671 267.422 148.082 298.402 148.082 298.402L157 299.537C157 299.537 164.214 262.888 164.214 231.151C164.214 199.413 154.354 159.409 154.354 159.409L125.02 162.529Z" fill="white"/>
<path d="M140.024 103.097C140.024 103.097 149.915 104.017 150.224 104.913C150.532 105.81 152.626 115.278 152.626 115.278C152.626 115.278 157 119.514 157 123.971C157 128.428 153.543 129.543 152.626 132.44C151.709 135.337 150.7 144.252 151.325 148.486C151.951 152.721 154.355 159.407 154.355 159.407C154.355 159.407 152.333 162.749 142.522 163.641C136.666 164.185 130.761 163.809 125.021 162.527C125.021 162.527 128.52 148.933 127.729 144.698C126.938 140.463 118.603 109.176 118.603 109.176L130.537 103.097H140.024Z" fill="#99A5CC"/>
<path d="M179.723 93.0733L180.747 102.659C180.747 102.659 179.956 105.877 176.042 105.95C174.882 105.953 173.738 105.674 172.709 105.138C171.68 104.603 170.796 103.826 170.133 102.874L170.564 90.4282L179.723 93.0733Z" fill="#F4BB82"/>
<path d="M180.482 100.173C178.383 99.9456 176.373 99.1965 174.637 97.9939C172.892 96.8392 171.458 95.2738 170.46 93.4352L170.465 91.9941L180.125 96.8239L180.482 100.173Z" fill="#E58E63"/>
<path d="M191.843 75.6061V76.7556C191.847 81.2619 191.074 85.7352 189.557 89.9787C188.282 93.5354 185.069 97.1997 183.444 97.3282C176.426 97.8816 171.191 94.4289 168.974 91.9972C166.758 89.5655 165.139 86.0256 165.139 86.0256C165.139 86.0256 161.991 86.9554 160.203 82.3059C158.414 77.6564 160.513 76.6548 160.513 76.6548C160.975 76.4447 161.474 76.328 161.981 76.3117C162.489 76.2953 162.994 76.3795 163.469 76.5595C165.043 77.1792 165.376 77.6564 165.376 77.6564C165.376 77.6564 162.61 68.0236 164.136 63.1594C165.662 58.2951 175.844 54.1246 184.521 58.7005C193.199 63.2765 191.843 75.6061 191.843 75.6061Z" fill="#F4BB82"/>
<path d="M160.775 80.7996C160.775 80.7996 160.37 78.6776 160.966 78.2245C161.562 77.7714 163.851 78.4628 164.399 81.0394C164.948 83.6159 163.97 83.6372 163.374 83.5659C162.778 83.4946 162.206 82.588 162.444 81.4434C162.682 80.2989 163.183 80.4183 163.183 80.4183C163.183 80.4183 162.416 78.5991 161.538 78.797C160.661 78.9949 160.942 80.8396 160.942 80.8396L160.775 80.7996Z" fill="#E58E63"/>
<path d="M170.887 64.4338C171.85 66.8828 171.85 69.6053 170.887 72.0543C169.255 76.0682 165.376 77.6573 165.376 77.6573C165.376 77.6573 163.522 76.485 162.366 76.4505C161.845 76.409 161.322 76.437 160.809 76.5336C160.809 76.5336 159.865 65.6582 159.865 62.1374C159.919 59.9323 160.699 57.8067 162.085 56.0904C162.085 56.0904 163.003 53.947 164.037 53.5643C164.583 53.3481 165.156 53.2065 165.74 53.1434C165.74 53.1434 163.924 54.0624 163.655 54.6362C163.495 54.9721 163.404 55.3363 163.387 55.7077C163.387 55.7077 170.122 51.9571 181.452 54.7129C192.782 57.4688 194.156 63.2856 194.769 67.2636C195.381 71.2417 193.697 72.0521 193.697 72.0521C193.697 72.0521 185.023 72.0861 178.695 69.4324C172.367 66.7787 170.887 64.4338 170.887 64.4338Z" fill="black"/>
<path d="M173.207 54.81C173.207 54.81 174.923 47.9467 167.373 45.8878C159.823 43.8288 152.503 47.9467 152.845 57.2122C153.187 66.4776 162.111 64.7619 162.111 64.7619L173.207 54.81Z" fill="black"/>
<g opacity="0.24">
<g opacity="0.24">
<path opacity="0.24" d="M183.33 55.8026C183.33 55.8026 187.791 57.3462 186.19 59.6345C184.59 61.9227 166.459 60.0349 166.459 60.0349C166.459 60.0349 168.518 61.6934 169.661 62.151C170.805 62.6087 181.752 64.3244 188.204 63.6379C194.655 62.9515 190.423 58.5762 188.564 57.6613C186.865 56.9199 185.116 56.2988 183.33 55.8026" fill="#FFE7D7"/>
</g>
</g>
<path d="M125.798 162.705C125.798 162.705 122.368 179.131 124.353 200.415C126.337 221.699 132.469 301.423 132.469 301.423H133.912C133.912 301.423 126.066 207.088 125.254 197.528C124.443 187.967 124.443 179.986 125.345 172.546C126.248 165.106 126.707 162.888 126.707 162.888L125.798 162.705Z" fill="#B2C5FF"/>
<path d="M140.166 183.166V180.937L151.589 177.691L144.976 184.305L145.878 202.498L142.331 183.166H140.166Z" fill="#C5C5C5"/>
<path d="M123.301 157.864C123.301 157.864 126.851 157.95 126.066 161.818C125.281 165.687 124.68 171.739 123.735 172.881C122.79 174.023 120.325 172.881 119.843 171.378C119.362 169.875 120.084 167.831 120.745 167.59C121.406 167.349 121.527 167.71 121.467 168.492C121.407 169.274 121.347 170.476 121.347 170.476H122.309C122.309 170.476 121.647 167.287 121.888 165.605C122.128 163.923 122.249 162.42 122.249 162.42L121.561 161.534L123.301 157.864Z" fill="#F4BB82"/>
<path d="M160.877 103.102C160.877 103.102 165.711 100.832 177.589 101.565C189.467 102.297 191.164 104.356 192.036 106.034C192.909 107.711 193.948 114.209 195.315 116.19C196.682 118.171 198.847 121.058 199.027 125.387C199.207 129.715 197.141 132.135 196.671 135.252C196.201 138.37 197.307 152.07 199.038 159.41C200.769 166.75 203.175 173.484 203.896 181.421C204.616 189.357 203.896 194.097 203.896 194.097C203.896 194.097 201.467 197.053 191.258 199.217C181.049 201.381 165.962 199.217 165.962 199.217C165.962 199.217 164.214 186.952 164.214 177.693C164.214 168.434 167.822 154.004 167.1 148.232C166.379 142.46 160.539 121.536 159.25 115.044C158.527 110.991 159.096 106.814 160.877 103.102" fill="#0C61FF"/>
<path d="M167.825 101.649C167.825 101.649 170.754 104.055 176.435 103.559C182.117 103.063 182.827 102.045 182.827 102.045L180.992 100.479C179.245 100.812 177.474 100.997 175.696 101.034C171.928 101.215 170.073 100.479 170.073 100.479L167.825 101.649Z" fill="#F9EAAC"/>
<path d="M161.329 123.781L166.921 116.636L174.316 121.503L179.547 115.371L186.13 119.576L189.196 114.109L194.335 118.527L195.313 116.185L196.721 118.288L195.059 122.855L190.189 118.167L186.561 123.781L179.908 119.339L174.949 125.652L167.372 120.602L162.059 126.666L161.329 123.781Z" fill="#001F80"/>
<path d="M163.787 133.479L198.285 130.21L197.688 131.845L164.108 134.761L163.787 133.479Z" fill="#001F80"/>
<path d="M166.122 143.145L196.656 140.62L196.728 141.882L166.458 144.683L166.122 143.145Z" fill="#001F80"/>
<path d="M166.713 156.057L171.701 161.551L176.12 156.057L181.568 160.288L185.5 154.604L192.446 159.409L194.698 153.793L198.83 158.487L199.456 161.127L195.869 158.483L193.795 162.993L186.492 158.393L182.163 164.526L176.481 160.106L171.882 165.878L166.259 159.41L166.713 156.057Z" fill="#001F80"/>
<path d="M164.46 172.903L201.729 169.725L202.127 171.314L164.46 174.711V172.903Z" fill="#001F80"/>
<path d="M164.58 186.258L168.724 181.478L174.136 186.258L178.915 180.847L184.958 185.537L190.008 179.944L196.051 184.635L200.109 178.773L204.031 183.093L204.217 186.258L200.38 182.11L196.321 187.702L190.008 183.237L184.958 189.505L179.276 184.635L174.406 190.095L168.544 184.906L164.821 189.139L164.58 186.258Z" fill="#001F80"/>
<path d="M165.213 193.091C165.213 193.091 176.3 194.334 186.942 193.091C197.584 191.848 204.205 189.504 204.205 189.504L204.165 190.776C198.563 192.838 192.71 194.139 186.761 194.645C176.66 195.546 165.213 194.645 165.213 194.645V193.091Z" fill="#001F80"/>
<path d="M164.561 102.09C164.561 102.09 143.184 89.1234 125.021 95.076C106.857 101.028 101.807 115.818 101.807 115.818C101.807 115.818 107.083 120.293 107.839 119.462C108.595 118.631 122.575 102.33 136.399 103.62C150.223 104.911 159.251 115.037 159.251 115.037C159.251 115.037 162.952 112.211 164.215 109.325C165.478 106.439 164.56 102.09 164.56 102.09" fill="#0C61FF"/>
<path d="M151.224 105.965C151.224 105.965 150.518 99.4137 136.764 100.498C123.01 101.583 121.264 104.604 121.264 104.604L120.419 83.8406L149.411 80.0782L152.016 99.6393L151.224 105.965Z" fill="#151515"/>
<path d="M138.397 93.5026L141.053 104.407C141.053 104.407 140.352 106.377 136.415 106.976C132.479 107.574 129.287 104.358 129.287 104.358L128.809 92.0638L138.397 93.5026Z" fill="#F4BB82"/>
<path d="M140.116 100.564C137.969 100.618 135.843 100.133 133.931 99.1538C132.018 98.2245 130.362 96.8398 129.109 95.1213L128.92 93.6685L139.306 97.2361L140.116 100.564Z" fill="#E58E63"/>
<path d="M148.266 74.2741L148.421 75.4327C149.03 79.974 148.852 84.5865 147.894 89.0671C147.086 92.8236 144.34 96.9488 142.718 97.2965C135.719 98.7975 129.978 96.0208 127.418 93.8674C124.858 91.714 122.748 88.3648 122.748 88.3648C122.748 88.3648 119.701 89.7268 117.273 85.2775C114.846 80.8282 116.827 79.5402 116.827 79.5402C117.264 79.2662 117.752 79.0815 118.261 78.9968C118.77 78.9121 119.291 78.929 119.794 79.0467C121.463 79.4603 121.864 79.8961 121.864 79.8961C121.864 79.8961 117.782 70.5576 118.667 65.4495C119.551 60.3414 129.254 54.7689 138.617 58.2176C147.98 61.6662 148.266 74.2741 148.266 74.2741Z" fill="#F4BB82"/>
<path d="M117.648 83.6875C117.648 83.6875 116.954 81.6027 117.494 81.0661C118.035 80.5294 120.435 80.9181 121.333 83.441C122.232 85.9639 121.25 86.1197 120.639 86.1265C120.029 86.1333 119.331 85.2979 119.417 84.112C119.504 82.9261 120.024 82.9793 120.024 82.9793C120.024 82.9793 119.006 81.2486 118.148 81.5659C117.29 81.8833 117.822 83.7048 117.822 83.7048L117.648 83.6875Z" fill="#E58E63"/>
<path d="M149.036 63.6585C149.036 63.6585 147.344 54.4875 132.292 55.0423C119.75 55.5026 117.234 59.1179 115.689 62.4794C114.144 65.8409 114.412 73.4006 115.396 76.7408C116.379 80.0809 116.667 79.6796 116.667 79.6796C116.667 79.6796 122.244 79.5062 122.504 78.9123C122.764 78.3185 134.656 65.4123 134.656 65.4123L142.538 63.4642L146.854 64.9465L149.036 63.6585Z" fill="#373435"/>
<g opacity="0.24">
<g opacity="0.24">
<path opacity="0.24" d="M135.569 56.0533C135.569 56.0533 139.833 56.8161 138.624 58.9495C137.414 61.0829 120.581 61.6994 120.581 61.6994C120.581 61.6994 122.656 62.8526 123.756 63.1005C124.856 63.3484 135.085 63.4637 140.921 62.0944C146.757 60.7251 142.384 57.5361 140.576 56.9882C138.93 56.5668 137.257 56.2545 135.569 56.0533" fill="#FFE7D7"/>
</g>
</g>
<path d="M137.091 64.8162C137.091 64.8162 130.83 72.8449 127.746 75.1745C124.662 77.504 122.503 78.9182 122.503 78.9182C122.503 78.9182 123.907 100.672 125.602 105.761C127.298 110.849 131.043 112.162 131.043 112.162C131.043 112.162 125.232 111.474 123.928 110.174L122.625 108.874C122.625 108.874 119.15 109.111 118.543 106.252C117.936 103.392 113.182 75.2753 114.593 69.7858C116.004 64.2964 136.537 64.1184 136.537 64.1184L137.091 64.8162Z" fill="#373435"/>
<path d="M137.092 64.8123C137.092 64.8123 140.157 68.592 143.13 69.8923C146.103 71.1925 147.534 71.766 147.534 71.766L151.232 99.516C151.232 99.516 151.91 104.601 149.876 107.16C147.843 109.719 146.898 110.044 146.898 110.044C146.898 110.044 151.145 109.025 151.906 107.736C152.327 107.073 152.632 106.345 152.811 105.58C152.811 105.58 154.386 100.886 151.997 82.9641C149.609 65.0425 149.037 63.66 149.037 63.66L138.427 63.2446L137.092 64.8123Z" fill="#373435"/>
<path d="M237.525 121.189C237.405 121.102 239.067 115.009 240.512 114.108C241.957 113.206 244.39 113.116 244.39 113.116C244.39 113.116 246.555 110.14 247.727 109.508C248.899 108.877 252.687 111.672 252.687 114.559C252.687 117.445 248.899 121.233 247.456 122.044C246.014 122.855 240.812 124.434 240.812 124.434L237.525 121.189Z" fill="#F4BB82"/>
<path d="M245.102 114.561L259.448 89.9402H257.377L242.947 115.012L245.102 114.561Z" fill="#8E8D8D"/>
<path d="M267.117 89.939H247.817V80.8302H267.117L267.117 89.939Z" fill="#494848"/>
<defs>
<linearGradient id="paint0_linear_5808_18841" x1="50.7443" y1="438.439" x2="333.267" y2="96.6266" gradientUnits="userSpaceOnUse">
<stop offset="0.176716" stop-color="#99A5CC"/>
<stop offset="0.864738" stop-color="#B2C5FF"/>
</linearGradient>
</defs>
</svg>
