<svg width="42" height="42" viewBox="0 0 42 42" fill="none" xmlns="http://www.w3.org/2000/svg">
<rect width="42" height="42" rx="21" fill="#F5F6FA"/>
<path d="M21 23V25C19.4087 25 17.8826 25.6321 16.7574 26.7574C15.6321 27.8826 15 29.4087 15 31H13C13 28.8783 13.8429 26.8434 15.3431 25.3431C16.8434 23.8429 18.8783 23 21 23V23ZM21 22C17.685 22 15 19.315 15 16C15 12.685 17.685 10 21 10C24.315 10 27 12.685 27 16C27 19.315 24.315 22 21 22ZM21 20C23.21 20 25 18.21 25 16C25 13.79 23.21 12 21 12C18.79 12 17 13.79 17 16C17 18.21 18.79 20 21 20ZM27 30.5L24.061 32.045L24.622 28.773L22.245 26.455L25.531 25.977L27 23L28.47 25.977L31.755 26.455L29.378 28.773L29.938 32.045L27 30.5Z" fill="#0C61FF"/>
</svg>
