<svg width="357" height="419" viewBox="0 0 357 419" fill="none" xmlns="http://www.w3.org/2000/svg">
<path d="M22.0999 278.331C21.0999 277.931 20.0999 277.331 19.3999 276.431C18.5999 275.631 18.0999 274.631 17.7999 273.531C17.4999 272.431 17.4999 271.331 17.6999 270.231C17.8999 269.131 18.3999 268.131 19.0999 267.231L226.8 15.1311C227.6 14.1311 228.7 13.3311 229.9 12.9311C231.1 12.5311 232.4 12.4311 233.7 12.7311C235 13.0311 236.1 13.6311 237.1 14.5311C238 15.4311 238.7 16.5311 239 17.8311L337.3 384.431C337.6 385.631 337.6 387.031 337.3 388.231C336.9 389.431 336.2 390.631 335.3 391.431C334.3 392.331 333.2 392.931 331.9 393.131C330.6 393.331 329.3 393.231 328.1 392.831L22.0999 278.331Z" fill="#BBBBBB"/>
<path d="M233.8 171.631C233.8 171.631 237.6 175.731 238.5 177.131C239.4 178.631 240.8 183.931 239.4 186.531C237.9 189.131 233.1 189.731 232.4 188.531C231.7 187.331 231.3 183.631 231.3 183.631C231.3 183.631 229.2 182.331 228.3 180.731C227.5 179.231 229.1 172.931 229.2 172.831L233.8 171.631Z" fill="#F4BB82"/>
<path d="M230.9 181.131L231 210.931L232.9 212.031L232.6 182.731L230.9 181.131Z" fill="#8E8D8D"/>
<path d="M235.1 223.931L217.8 214.131L222.4 206.031L239.7 215.831L235.1 223.931Z" fill="#494848"/>
<path opacity="0.35" d="M286.6 332.631C286.6 335.931 248.4 338.631 201.2 338.631C154 338.631 115.8 335.931 115.8 332.631C115.8 329.331 154 326.631 201.2 326.631C248.4 326.631 286.6 329.331 286.6 332.631Z" fill="white"/>
<path d="M203.7 309.631L209.7 328.331L219.7 328.431C219.7 328.431 220.7 328.831 220.7 330.631C220.7 332.431 219.2 332.031 214.7 332.031L207.7 331.931C207.7 331.931 206.6 332.031 205.5 328.631C204.4 325.231 202.3 318.131 202.3 318.131L199.3 316.831C199.3 316.831 197.7 313.231 198.9 311.631C200.4 310.031 203.7 309.631 203.7 309.631Z" fill="#474642"/>
<path d="M199.5 316.73L202 331.83H202.8L202.5 318.03L199.5 316.73Z" fill="#474642"/>
<path d="M211.9 308.131L211.8 310.531L214.9 326.231L218.4 328.431L209.8 328.331L203.8 309.631L204.9 302.831L211.9 308.131Z" fill="#F4BB82"/>
<path d="M223.6 309.631L229 328.531L239 329.031C239 329.031 240 329.431 239.9 331.231C239.8 333.031 238.4 332.631 233.9 332.431L226.9 332.131C226.9 332.131 225.8 332.231 224.8 328.731C223.8 325.331 222 318.131 222 318.131L219.1 316.731C219.1 316.731 217.6 313.031 218.9 311.531C220.2 309.831 223.6 309.631 223.6 309.631Z" fill="#474642"/>
<path d="M219.1 316.631L221.1 331.831H221.9L222 318.031L219.1 316.631Z" fill="#474642"/>
<path d="M231.8 308.33L231.6 310.73L234.2 326.53L237.6 328.83L229 328.43L223.6 309.53L225 302.73L231.8 308.33Z" fill="#F4BB82"/>
<path d="M208.9 212.231L205.7 212.631L212.8 308.731H203L189.4 211.631L207 202.831L224.7 206.931L225.1 212.331L225.5 216.731L232.9 308.731H222.7L210.8 225.431L209.2 214.231L208.9 212.231Z" fill="white"/>
<path d="M225.5 216.731C224.2 216.031 222.2 215.531 219.4 216.631C215.6 218.131 212.4 222.731 210.8 225.431L209.2 214.331L213.7 210.531L225.2 212.331L225.5 216.731Z" fill="#C5C5C5"/>
<path d="M206.4 221.631C206.4 221.631 203.8 217.531 197.9 219.831C192.1 222.031 191.9 230.031 191.9 230.031L190.1 217.231L198.2 214.431L206 217.931L206.4 221.631Z" fill="#C5C5C5"/>
<path d="M213.5 119.831C213.5 119.831 221 133.631 229.4 147.231C237.8 160.831 239.3 175.231 237.5 175.931C235.8 176.631 228.2 176.831 227.9 175.331C227.6 173.831 226.5 161.331 221 152.731C215.5 144.231 213.9 138.931 213.9 138.931L209.2 126.231L213.5 119.831Z" fill="#878787"/>
<path d="M191.9 171.631C191.9 171.631 195.7 175.731 196.6 177.131C197.5 178.631 198.9 183.931 197.5 186.531C196 189.131 191.2 189.731 190.5 188.531C189.8 187.331 189.4 183.631 189.4 183.631C189.4 183.631 187.3 182.331 186.4 180.731C185.6 179.231 187.2 172.931 187.3 172.831L191.9 171.631Z" fill="#F4BB82"/>
<path d="M171.6 119.931C171.6 119.931 179.1 133.731 187.5 147.331C195.9 160.931 197.4 175.331 195.6 176.031C193.9 176.731 186.3 176.931 186 175.431C185.7 173.931 184.6 161.431 179.1 152.831C173.6 144.331 172 139.031 172 139.031L167.3 126.331L171.6 119.931Z" fill="#DBDBDB"/>
<path d="M140.5 122.831C140.5 122.831 115.9 141.631 116.3 157.231C116.7 172.831 141.2 179.331 141.2 179.331L144 173.431C144 173.431 127.3 164.831 126.2 158.331C125.1 151.831 138.7 138.531 143.1 138.131C147.5 137.731 147.2 129.831 147.2 129.831L140.5 122.831Z" fill="#DBDBDB"/>
<path d="M169.3 318.131L167.8 331.331L191.1 334.031C191.1 334.031 193.1 325.031 187.1 324.331C181.1 323.631 177.3 319.131 177.3 319.131L169.3 318.131Z" fill="#E6E6E6"/>
<path d="M167.9 329.931L191.2 332.631L191.3 330.631L168.1 327.931L167.9 329.931Z" fill="white"/>
<path d="M178.2 320.031L174.3 321.131L174.5 322.331L178.9 320.731L178.2 320.031Z" fill="white"/>
<path d="M180.1 321.531L175.6 323.431L176.2 324.531L181.1 322.131L180.1 321.531Z" fill="white"/>
<path d="M152.3 321.23V334.53H175.7C175.7 334.53 176.6 325.33 170.6 325.33C164.6 325.33 160.3 321.23 160.3 321.23H152.3Z" fill="#E6E6E6"/>
<path d="M152.3 333.031H175.8L175.7 331.031H152.4V333.031H152.3Z" fill="white"/>
<path d="M161.3 322.031L157.5 323.531L157.9 324.631L162.1 322.531L161.3 322.031Z" fill="white"/>
<path d="M163.4 323.331L159.1 325.731L159.8 326.831L164.3 323.831L163.4 323.331Z" fill="white"/>
<path d="M145.4 179.131C145.4 179.131 141.3 196.931 144.1 224.531C146.9 252.131 152.3 322.031 152.3 322.031H161.3L161 200.331H163.2C163.2 200.331 171.1 239.631 172.5 263.331C173.9 287.031 169.2 318.931 169.2 318.931L178.4 320.131C178.4 320.131 185.8 282.431 185.8 249.731C185.8 217.031 175.7 175.931 175.7 175.931L145.4 179.131Z" fill="white"/>
<path d="M160.8 118.031C160.8 118.031 171 118.931 171.3 119.931C171.6 120.831 173.8 130.631 173.8 130.631C173.8 130.631 178.3 135.031 178.3 139.531C178.3 144.031 174.7 145.231 173.8 148.231C172.9 151.231 171.8 160.431 172.5 164.731C173.1 169.131 175.6 175.931 175.6 175.931C175.6 175.931 173.5 179.331 163.4 180.331C157.4 180.931 151.3 180.531 145.4 179.231C145.4 179.231 149 165.231 148.2 160.931C147.4 156.531 138.8 124.431 138.8 124.431L151.1 118.131H160.8V118.031Z" fill="#DBDBDB"/>
<path d="M201.6 107.731L202.7 117.631C202.7 117.631 201.9 120.931 197.9 121.031C196.7 121.031 195.5 120.731 194.5 120.231C193.4 119.631 192.5 118.831 191.8 117.931L192.2 105.131L201.6 107.731Z" fill="#F4BB82"/>
<path d="M202.4 115.031C200.2 114.831 198.2 114.031 196.4 112.831C194.6 111.631 193.1 110.031 192.1 108.131V106.631L202 111.631L202.4 115.031Z" fill="#E58E63"/>
<path d="M217.1 95.3311L216.7 96.4311C215.1 100.731 212.7 104.831 209.7 108.331C207.2 111.331 202.8 113.631 201.1 113.231C194.1 111.231 190.4 106.031 189.1 102.831C187.9 99.7311 187.6 95.7311 187.6 95.7311C187.6 95.7311 184.2 95.5311 184.2 90.3311C184.2 85.2311 186.6 85.0311 186.6 85.0311C187.1 85.0311 187.6 85.0311 188.1 85.2311C188.6 85.4311 189.1 85.6311 189.4 86.0311C190.7 87.2311 190.8 87.7311 190.8 87.7311C190.8 87.7311 191.6 77.4311 194.9 73.3311C198.1 69.2311 209.5 68.9311 216.1 76.4311C222.9 83.9311 217.1 95.3311 217.1 95.3311Z" fill="#F4BB82"/>
<path d="M185.3 89.031C185.3 89.031 185.7 86.831 186.4 86.631C187.1 86.431 189.1 87.931 188.7 90.631C188.3 93.331 187.3 92.931 186.8 92.731C186.3 92.431 186 91.331 186.7 90.331C187.3 89.331 187.8 89.631 187.8 89.631C187.8 89.631 187.7 87.631 186.8 87.431C185.9 87.331 185.5 89.131 185.5 89.131L185.3 89.031Z" fill="#E58E63"/>
<path d="M201 76.9307C201 79.6307 200 82.2307 198.2 84.2307C195.2 87.5307 190.9 87.6307 190.9 87.6307C190.9 87.6307 189.5 85.8307 188.4 85.3307C187.9 85.1307 187.4 84.9307 186.9 84.8307C186.9 84.8307 189.9 74.0307 191.2 70.6307C192.1 68.5307 193.6 66.7307 195.5 65.6307C195.5 65.6307 197.2 63.9307 198.3 63.9307C198.9 63.9307 199.5 64.0307 200.1 64.1307C200.1 64.1307 198 64.3307 197.6 64.8307C197.3 65.1307 197.1 65.4307 197 65.7307C197 65.7307 204.8 64.5307 214.8 71.3307C224.7 78.1307 223.9 84.2307 223.1 88.2307C222.2 92.3307 220.3 92.4307 220.3 92.4307C220.3 92.4307 211.9 89.3307 206.8 84.4307C201.6 79.7307 201 76.9307 201 76.9307Z" fill="black"/>
<path d="M206.7 68.5308C206.7 68.5308 210.8 62.5308 204.3 57.8308C197.8 53.1308 189.2 54.4308 186.2 63.4308C183.2 72.4308 192.4 74.0308 192.4 74.0308L206.7 68.5308Z" fill="black"/>
<g opacity="0.24">
<g opacity="0.24">
<path opacity="0.24" d="M205.3 69.3311C205.3 69.3311 209.9 70.9311 208.2 73.2311C206.5 75.5311 188 73.7311 188 73.7311C188 73.7311 190.1 75.4311 191.3 75.9311C192.5 76.4311 203.7 78.1311 210.4 77.4311C217 76.7311 212.7 72.2311 210.8 71.3311C209 70.5311 207.2 69.8311 205.3 69.3311Z" fill="#FFE7D7"/>
</g>
</g>
<path d="M146.2 179.331C146.2 179.331 142.7 196.231 144.7 218.131C146.7 240.031 153.1 322.031 153.1 322.031H154.6C154.6 322.031 146.5 224.931 145.7 215.131C144.9 205.331 144.9 197.131 145.8 189.431C146.7 181.731 147.2 179.531 147.2 179.531L146.2 179.331Z" fill="#A8A8A8"/>
<path d="M160.9 200.33V198.03L172.7 194.73L165.9 201.53L166.8 220.23L163.2 200.33H160.9Z" fill="#C5C5C5"/>
<path d="M143.6 174.331C143.6 174.331 147.3 174.431 146.4 178.431C145.6 182.431 145 188.631 144 189.831C143 191.031 140.5 189.831 140 188.331C139.5 186.831 140.2 184.731 140.9 184.431C141.6 184.231 141.7 184.531 141.6 185.331C141.5 186.131 141.5 187.331 141.5 187.331H142.5C142.5 187.331 141.8 184.031 142.1 182.331C142.3 180.631 142.5 179.031 142.5 179.031L141.8 178.131L143.6 174.331Z" fill="#F4BB82"/>
<path d="M226.5 211.631C226.5 211.631 224 214.631 213.5 216.931C203 219.131 187.5 216.931 187.5 216.931C187.5 216.931 185.7 204.331 185.7 194.731C185.7 190.131 186.6 184.331 187.4 178.931C188 174.631 188.6 170.431 188.8 167.331C188.8 166.231 188.8 165.231 188.7 164.431C188.6 163.231 188.2 161.331 187.7 159.031C187.6 156.931 187.6 154.731 187.9 152.531C189.3 142.431 188.6 137.031 188.6 137.031L187.9 128.431C187.7 125.331 185.9 122.531 183.3 120.931L181.5 119.831C181.7 119.231 182 118.531 182.3 117.931C182.3 117.931 187.3 115.631 199.5 116.331C211.7 117.131 213.5 119.231 214.4 120.931C215.3 122.631 216.4 129.331 217.8 131.431C219.2 133.431 221.4 136.431 221.6 140.931C221.8 145.431 219.7 147.831 219.2 151.131C218.7 154.331 219.8 168.431 221.6 175.931C223.4 183.431 225.9 190.431 226.6 198.631C227.2 206.731 226.5 211.631 226.5 211.631Z" fill="#3D3D3D"/>
<path d="M189.4 116.531C189.4 116.531 192.4 119.031 198.3 118.531C204.1 118.031 204.9 116.931 204.9 116.931L203 115.331C201.2 115.631 199.4 115.831 197.6 115.931C193.7 116.131 191.8 115.331 191.8 115.331L189.4 116.531Z" fill="#BBBBBB"/>
<path d="M182.7 139.23L188.5 131.83L196.1 136.83L201.5 130.53L208.3 134.83L211.5 129.23L216.8 133.73L217.8 131.33L219.2 133.53L217.5 138.23L212.5 133.43L208.8 139.23L202 134.63L196.9 141.13L189.1 135.93L183.6 142.13L182.7 139.23Z" fill="#878787"/>
<path d="M185.2 149.231L220.7 145.831L220.1 147.531L185.6 150.531L185.2 149.231Z" fill="#878787"/>
<path d="M187.6 159.231L219 156.631L219.1 157.931L188 160.831L187.6 159.231Z" fill="#878787"/>
<path d="M188.3 172.53L193.4 178.23L197.9 172.53L203.5 176.93L207.5 171.13L214.6 176.03L216.9 170.23L221.2 175.03L221.8 177.73L218.1 175.03L216 179.63L208.5 174.93L204 181.23L198.2 176.73L193.5 182.63L187.7 175.93L188.3 172.53Z" fill="#878787"/>
<path d="M185.9 189.831L224.2 186.531L224.6 188.131L185.8 191.631V189.831H185.9Z" fill="#878787"/>
<path d="M186.1 203.53L190.4 198.63L196 203.53L200.9 197.93L207.1 202.73L212.3 196.93L218.5 201.73L222.7 195.73L226.7 200.13L226.9 203.43L223 199.13L218.8 204.93L212.3 200.33L207.1 206.73L201.3 201.73L196.3 207.33L190.3 202.03L186.5 206.43L186.1 203.53Z" fill="#878787"/>
<path d="M186.7 210.631C186.7 210.631 198.1 211.931 209.1 210.631C220 209.331 226.9 206.931 226.9 206.931V208.231C221.1 210.331 215.1 211.731 209 212.231C198.6 213.131 186.8 212.231 186.8 212.231V210.631H186.7Z" fill="#878787"/>
<path d="M163.8 125.731C163.8 125.731 165.6 119.231 152.1 115.031C138.5 110.831 135.7 113.031 135.7 113.031L142.8 92.8311L171.9 100.231L166.9 119.931L163.8 125.731Z" fill="#151515"/>
<path d="M159.1 108.131L161.8 119.331C161.8 119.331 161.1 121.331 157 121.931C152.9 122.531 149.7 119.231 149.7 119.231L149.2 106.631L159.1 108.131Z" fill="#F4BB82"/>
<path d="M160.9 115.431C158.7 115.531 156.5 115.031 154.5 113.931C152.5 112.931 150.8 111.531 149.5 109.831L149.3 108.331L160 112.031L160.9 115.431Z" fill="#E58E63"/>
<path d="M173 94.3304L172.7 95.5304C171.6 100.13 169.6 104.43 167 108.33C164.8 111.63 160.6 114.53 158.9 114.23C151.6 113.03 147.2 108.13 145.6 105.13C144 102.13 143.2 98.1304 143.2 98.1304C143.2 98.1304 139.8 98.2304 139.1 93.1304C138.5 87.9304 140.9 87.4304 140.9 87.4304C141.4 87.3304 142 87.3304 142.5 87.4304C143 87.5304 143.5 87.7304 143.9 88.0304C145.3 89.0304 145.6 89.6304 145.6 89.6304C145.6 89.6304 145.3 79.1304 148 74.6304C150.8 70.1304 162.2 68.4304 169.8 75.3304C177.5 82.1304 173 94.3304 173 94.3304Z" fill="#F4BB82"/>
<path d="M137.8 98.031C137.8 98.031 137.1 95.931 137.6 95.331C138.1 94.731 140.6 95.131 141.5 97.731C142.4 100.331 141.4 100.531 140.8 100.531C140.2 100.531 139.5 99.631 139.5 98.431C139.6 97.231 140.1 97.231 140.1 97.231C140.1 97.231 139.1 95.431 138.2 95.731C137.3 96.031 137.9 97.931 137.9 97.931L137.8 98.031Z" fill="#E58E63"/>
<path d="M177.8 84.4305C177.8 84.4305 179.7 75.0305 165.1 69.8305C152.9 65.5305 149.2 68.0305 146.4 70.6305C143.6 73.2305 141 80.6305 140.7 84.1305C140.4 87.7305 140.8 87.4305 140.8 87.4305C140.8 87.4305 146.2 89.4305 146.7 88.9305C147.2 88.4305 163.5 80.6305 163.5 80.6305L171.8 81.7305L175.4 84.8305L177.8 84.4305Z" fill="#373435"/>
<g opacity="0.24">
<g opacity="0.24">
<path opacity="0.24" d="M156.2 69.6309C156.2 69.6309 160.6 70.4309 159.3 72.6309C158.1 74.8309 140.7 75.4309 140.7 75.4309C140.7 75.4309 142.8 76.6309 144 76.8309C145.1 77.1309 155.7 77.2309 161.7 75.8309C167.7 74.4309 163.2 71.1309 161.3 70.5309C159.7 70.1309 157.9 69.8309 156.2 69.6309Z" fill="#FFE7D7"/>
</g>
</g>
<path d="M165.9 81.0307C165.9 81.0307 156.9 86.3307 153 87.3307C149.2 88.4307 146.6 88.9307 146.6 88.9307C146.6 88.9307 139.7 110.231 139.4 115.731C139.1 121.231 142.2 123.931 142.2 123.931C142.2 123.931 136.9 121.031 136.2 119.331L135.4 117.631C135.4 117.631 132 116.531 132.5 113.531C133 110.531 139.2 81.8307 142.6 77.1307C146 72.4307 165.7 80.0307 165.7 80.0307L165.9 81.0307Z" fill="#373435"/>
<path d="M165.9 81.0309C165.9 81.0309 167.4 85.8309 169.7 88.2309C172 90.6309 173.2 91.7309 173.2 91.7309L166.2 119.631C166.2 119.631 164.9 124.731 162 126.431C159.1 128.131 158.1 128.031 158.1 128.031C158.1 128.031 162.5 128.631 163.8 127.731C164.5 127.231 165 126.631 165.5 126.031C165.5 126.031 168.8 122.131 173.3 104.131C177.8 86.1309 177.8 84.5309 177.8 84.5309L167.8 80.1309L165.9 81.0309Z" fill="#373435"/>
<path d="M183.1 179.531C183.1 179.531 184.6 184.831 186 188.331C187.4 191.831 189.9 195.831 190.9 194.531C191.9 193.231 190.8 179.431 190.8 179.431L187.3 175.931L183.1 179.531Z" fill="#F4BB82"/>
<path d="M188.7 167.331C188.2 164.831 187.7 161.931 187.6 159.031C187.5 156.931 187.5 154.731 187.8 152.531C189.2 142.431 188.5 137.031 188.5 137.031L187.8 128.431C187.6 125.331 185.8 122.531 183.2 120.931L181.4 119.831C181 120.831 180.8 121.831 180.6 122.831C180.3 124.331 180.2 125.831 180.2 127.431C179.7 133.431 178.9 142.231 177.8 151.031C175.8 166.931 180.5 180.531 182.4 180.531C183.3 180.531 185.4 179.831 187.2 178.931C189.2 177.931 191.1 176.731 190.9 176.031C190.8 175.231 189.7 171.831 188.7 167.331Z" fill="#878787"/>
</svg>
