<svg width="357" height="418" viewBox="0 0 357 418" fill="none" xmlns="http://www.w3.org/2000/svg">
<g filter="url(#filter0_d_417_1998)">
<path d="M35.0706 277.552C34.0213 277.159 33.0808 276.522 32.3276 275.692C31.5743 274.863 31.03 273.866 30.7399 272.783C30.4498 271.701 30.4224 270.565 30.6598 269.47C30.8973 268.375 31.3928 267.353 32.1051 266.488L239.768 14.3571C240.59 13.3592 241.671 12.6071 242.892 12.1831C244.113 11.7592 245.428 11.6798 246.691 11.9538C247.954 12.2277 249.118 12.8444 250.053 13.7361C250.989 14.6278 251.661 15.7601 251.996 17.0088L350.26 383.609C350.595 384.857 350.579 386.174 350.215 387.414C349.85 388.654 349.151 389.77 348.194 390.639C347.237 391.508 346.059 392.097 344.79 392.341C343.52 392.584 342.208 392.474 340.998 392.021L35.0706 277.552Z" fill="url(#paint0_linear_417_1998)"/>
</g>
<path opacity="0.35" d="M299.325 332.501C299.325 335.818 261.079 338.508 213.9 338.508C166.721 338.508 128.474 335.819 128.474 332.501C128.474 329.183 166.721 326.494 213.9 326.494C261.079 326.494 299.325 329.184 299.325 332.501Z" fill="#FFF3B0"/>
<path d="M216.479 309.498L222.519 328.176L232.525 328.276C232.525 328.276 233.559 328.639 233.541 330.448C233.523 332.256 232.064 331.888 227.58 331.843L220.595 331.774C220.595 331.774 219.508 331.895 218.41 328.487C217.312 325.079 215.213 317.955 215.213 317.955L212.252 316.645C212.252 316.645 210.638 313.011 211.879 311.435C213.12 309.86 216.479 309.498 216.479 309.498Z" fill="#474642"/>
<path d="M212.253 316.644L214.79 331.74L215.545 331.748L215.213 317.951L212.253 316.644Z" fill="#474642"/>
<path d="M224.615 307.969L224.544 310.377L227.688 326.115L231.159 328.268L222.518 328.18L216.479 309.5L217.59 302.673L224.615 307.969Z" fill="#F4BB82"/>
<path d="M252.999 303.639L265.55 318.732L274.875 315.108C274.875 315.108 275.971 315.061 276.626 316.746C277.282 318.431 275.79 318.633 271.611 320.257L265.102 322.79C265.102 322.79 264.138 323.304 261.851 320.548C259.565 317.792 254.968 311.961 254.968 311.961L251.734 311.845C251.734 311.845 248.885 309.072 249.452 307.148C250.019 305.223 252.999 303.639 252.999 303.639Z" fill="#474642"/>
<path d="M251.733 311.846L259.701 324.917L260.405 324.643L254.968 311.961L251.733 311.846Z" fill="#474642"/>
<path d="M259.983 299.192L260.812 301.452L269.581 314.892L273.602 315.6L265.55 318.73L252.998 303.64L251.492 296.887L259.983 299.192Z" fill="#F4BB82"/>
<path d="M202.149 211.491L215.742 308.556H225.593L218.476 212.47L221.634 212.058L251.733 302.676L261.068 299.628L237.443 206.772L219.778 202.687L202.149 211.491Z" fill="white"/>
<path d="M239.958 216.66C239.958 216.66 237.315 213.934 233.045 216.66C228.776 219.386 226.719 227.371 226.719 227.371L223.359 217.25L227.201 212.469L238.762 211.955L239.958 216.66Z" fill="#C5C5C5"/>
<path d="M219.146 221.507C219.146 221.507 216.531 217.432 210.686 219.66C204.84 221.888 204.722 229.858 204.722 229.858L202.932 217.078L211.039 214.279L218.867 217.743L219.146 221.507Z" fill="#C5C5C5"/>
<path d="M136.081 132.437C136.081 132.437 133.394 137.264 131.91 140.697C130.425 144.13 129.373 148.768 130.966 148.536C132.559 148.305 141.559 137.77 141.559 137.77V132.81L136.081 132.437Z" fill="#F4BB82"/>
<path d="M184.042 119.737C184.042 119.737 197.847 129.554 214.225 127.257C230.603 124.961 239.264 113.188 239.264 113.188L244.213 116.285C244.213 116.285 235.158 135.317 213.086 137.329C191.014 139.342 182.107 133.865 182.107 133.865L184.042 119.737Z" fill="#FFE39F"/>
<path d="M239.264 113.187C239.264 113.187 239.264 109.152 240.192 107.945C240.423 107.607 240.726 107.323 241.079 107.114C241.432 106.905 241.826 106.777 242.234 106.737C242.234 106.737 244.368 98.2933 245.482 96.9938C246.595 95.6943 247.616 95.231 247.152 97.6436C246.687 100.056 245.017 106.275 245.017 106.275C245.017 106.275 250.213 98.2957 251.049 97.6459C251.884 96.9962 252.811 97.5525 251.883 99.5017C250.955 101.451 247.522 106.647 247.522 106.647C247.714 106.545 247.932 106.505 248.147 106.53C248.363 106.555 248.565 106.644 248.729 106.787C249.193 107.297 248.869 108.271 248.869 108.271C248.869 108.271 250.261 107.991 250.446 109.199C250.631 110.407 249.379 112.447 247.755 114.024C246.731 114.998 245.529 115.765 244.214 116.284L239.264 113.187Z" fill="#F4BB82"/>
<path d="M225.593 119.142C225.593 119.142 229.695 120.312 233.49 125.48C237.285 130.647 242.264 139.306 252.268 141.04C262.271 142.773 270.44 135.957 271.925 135.654C273.409 135.35 278.358 140.217 278.358 142.113C278.358 144.009 266.234 153.427 250.396 150.945C234.559 148.462 230.171 138.193 230.171 138.193L225.593 119.142Z" fill="#FFF0CA"/>
<path d="M153.282 122.696C153.282 122.696 128.661 141.536 129.034 157.122C129.408 172.708 153.982 179.193 153.982 179.193L156.792 173.267C156.792 173.267 140.069 164.652 138.958 158.157C137.846 151.662 151.491 138.391 155.85 137.948C160.21 137.505 159.942 129.659 159.942 129.659L153.282 122.696Z" fill="#FFE39F"/>
<path d="M182.065 318.037L180.535 331.217L203.805 333.919C203.805 333.919 205.78 324.889 199.815 324.196C193.849 323.503 190.019 318.961 190.019 318.961L182.065 318.037Z" fill="#F2D330"/>
<path d="M180.7 329.793L204.021 332.502L204.115 330.519L180.928 327.825L180.7 329.793Z" fill="white"/>
<path d="M190.924 319.881L187.008 320.961L187.254 322.129L191.697 320.558L190.924 319.881Z" fill="white"/>
<path d="M192.859 321.443L188.314 323.315L188.924 324.448L193.782 322.048L192.859 321.443Z" fill="white"/>
<path d="M165.067 321.071L165.092 334.34L188.52 334.293C188.52 334.293 189.422 325.096 183.416 325.107C177.41 325.118 173.075 321.056 173.075 321.056L165.067 321.071Z" fill="#F2D330"/>
<path d="M165.088 332.908L188.566 332.861L188.43 330.882L165.088 330.929V332.908Z" fill="white"/>
<path d="M174.082 321.866L170.32 323.398L170.701 324.529L174.929 322.448L174.082 321.866Z" fill="white"/>
<path d="M176.186 323.189L171.893 325.581L172.631 326.635L177.175 323.681L176.186 323.189Z" fill="white"/>
<path d="M158.112 179.01C158.112 179.01 154.011 196.828 156.851 224.426C159.69 252.023 165.013 321.914 165.013 321.914H174.032L173.694 200.244H175.921C175.921 200.244 183.79 239.505 185.175 263.217C186.561 286.929 181.839 318.803 181.839 318.803L191.014 319.971C191.014 319.971 198.437 282.264 198.437 249.611C198.437 216.958 188.292 175.8 188.292 175.8L158.112 179.01Z" fill="white"/>
<path d="M173.549 117.866C173.549 117.866 183.725 118.812 184.043 119.735C184.36 120.657 186.515 130.398 186.515 130.398C186.515 130.398 191.015 134.756 191.015 139.342C191.015 143.928 187.458 145.074 186.515 148.055C185.571 151.035 184.532 160.208 185.176 164.564C185.819 168.921 188.293 175.8 188.293 175.8C188.293 175.8 186.213 179.239 176.119 180.156C170.094 180.715 164.018 180.329 158.113 179.011C158.113 179.011 161.713 165.023 160.899 160.667C160.085 156.31 151.51 124.12 151.51 124.12L163.788 117.866H173.549Z" fill="#FFE39F"/>
<path d="M214.393 107.551L215.446 117.413C215.446 117.413 214.633 120.725 210.605 120.8C209.412 120.802 208.236 120.516 207.177 119.965C206.118 119.414 205.209 118.614 204.526 117.635L204.97 104.83L214.393 107.551Z" fill="#F4BB82"/>
<path d="M215.174 114.857C213.014 114.623 210.946 113.852 209.16 112.615C207.365 111.427 205.889 109.817 204.863 107.925L204.868 106.442L214.806 111.411L215.174 114.857Z" fill="#E58E63"/>
<path d="M226.862 89.58V90.7627C226.866 95.399 226.071 100.001 224.511 104.367C223.199 108.027 219.893 111.797 218.221 111.929C211.001 112.498 205.615 108.946 203.334 106.444C201.054 103.942 199.388 100.3 199.388 100.3C199.388 100.3 196.149 101.257 194.309 96.4731C192.469 91.6895 194.628 90.659 194.628 90.659C195.104 90.4428 195.617 90.3228 196.14 90.3059C196.662 90.2891 197.182 90.3758 197.67 90.5609C199.29 91.1985 199.632 91.6895 199.632 91.6895C199.632 91.6895 196.786 81.7788 198.356 76.7743C199.926 71.7697 210.402 67.4788 219.33 72.1868C228.257 76.8948 226.862 89.58 226.862 89.58Z" fill="#F4BB82"/>
<path d="M194.898 94.924C194.898 94.924 194.481 92.7408 195.094 92.2746C195.708 91.8084 198.062 92.5198 198.627 95.1707C199.191 97.8215 198.185 97.8435 197.572 97.7701C196.959 97.6968 196.37 96.764 196.615 95.5864C196.861 94.4088 197.376 94.5317 197.376 94.5317C197.376 94.5317 196.586 92.66 195.684 92.8636C194.781 93.0673 195.07 94.9651 195.07 94.9651L194.898 94.924Z" fill="#E58E63"/>
<path d="M205.302 78.0857C206.292 80.6055 206.292 83.4064 205.302 85.9261C203.623 90.0558 199.632 91.6907 199.632 91.6907C199.632 91.6907 197.724 90.4846 196.535 90.4491C196 90.4064 195.461 90.4352 194.934 90.5346C194.934 90.5346 193.962 79.3455 193.962 75.7231C194.018 73.4544 194.821 71.2675 196.246 69.5017C196.246 69.5017 197.191 67.2965 198.255 66.9027C198.816 66.6803 199.406 66.5346 200.006 66.4697C200.006 66.4697 198.138 67.4152 197.861 68.0056C197.697 68.3511 197.603 68.7258 197.585 69.1079C197.585 69.1079 204.515 65.2492 216.172 68.0845C227.829 70.9199 229.243 76.9044 229.873 80.9972C230.503 85.09 228.77 85.9238 228.77 85.9238C228.77 85.9238 219.845 85.9588 213.335 83.2286C206.825 80.4983 205.302 78.0857 205.302 78.0857Z" fill="black"/>
<path d="M207.689 68.1849C207.689 68.1849 209.454 61.1236 201.687 59.0053C193.919 56.887 186.387 61.1236 186.739 70.6563C187.091 80.1891 196.273 78.4239 196.273 78.4239L207.689 68.1849Z" fill="black"/>
<g opacity="0.24">
<g opacity="0.24">
<path opacity="0.24" d="M218.104 69.2041C218.104 69.2041 222.694 70.7923 221.047 73.1465C219.4 75.5007 200.746 73.5585 200.746 73.5585C200.746 73.5585 202.864 75.2648 204.041 75.7357C205.217 76.2065 216.48 77.9717 223.118 77.2654C229.756 76.5592 225.401 72.0577 223.489 71.1164C221.741 70.3537 219.942 69.7146 218.104 69.2041" fill="#FFE7D7"/>
</g>
</g>
<path d="M158.913 179.191C158.913 179.191 155.384 196.091 157.425 217.989C159.467 239.887 165.776 321.911 165.776 321.911H167.261C167.261 321.911 159.188 224.855 158.353 215.019C157.518 205.182 157.518 196.971 158.446 189.316C159.375 181.661 159.848 179.38 159.848 179.38L158.913 179.191Z" fill="#FFF6C4"/>
<path d="M173.695 200.243V197.95L185.448 194.609L178.644 201.414L179.571 220.133L175.922 200.243H173.695Z" fill="#C5C5C5"/>
<path d="M156.343 174.212C156.343 174.212 159.996 174.3 159.189 178.28C158.381 182.26 157.763 188.487 156.79 189.662C155.818 190.837 153.281 189.662 152.786 188.115C152.291 186.569 153.034 184.466 153.714 184.218C154.394 183.971 154.518 184.342 154.456 185.146C154.395 185.951 154.333 187.188 154.333 187.188H155.322C155.322 187.188 154.642 183.907 154.889 182.176C155.137 180.445 155.261 178.899 155.261 178.899L154.553 177.987L156.343 174.212Z" fill="#F4BB82"/>
<path d="M195.003 117.869C195.003 117.869 199.977 115.534 212.197 116.287C224.418 117.041 226.164 119.159 227.061 120.885C227.959 122.611 229.028 129.296 230.434 131.335C231.841 133.373 234.068 136.343 234.253 140.797C234.439 145.25 232.313 147.739 231.83 150.947C231.346 154.154 232.484 168.249 234.265 175.801C236.046 183.353 238.521 190.281 239.263 198.447C240.004 206.612 239.263 211.488 239.263 211.488C239.263 211.488 236.764 214.53 226.261 216.756C215.757 218.983 200.235 216.756 200.235 216.756C200.235 216.756 198.437 204.138 198.437 194.611C198.437 185.085 202.148 170.239 201.406 164.301C200.664 158.363 194.656 136.835 193.33 130.155C192.585 125.986 193.17 121.688 195.003 117.869" fill="#F0B018"/>
<path d="M202.152 116.375C202.152 116.375 205.165 118.85 211.01 118.34C216.855 117.83 217.586 116.782 217.586 116.782L215.698 115.171C213.901 115.514 212.079 115.705 210.25 115.742C206.373 115.929 204.465 115.171 204.465 115.171L202.152 116.375Z" fill="#F9EAAC"/>
<path d="M195.468 139.145L201.222 131.793L208.83 136.802L214.212 130.492L220.985 134.819L224.14 129.193L229.427 133.74L230.433 131.33L231.881 133.494L230.172 138.193L225.161 133.369L221.428 139.145L214.583 134.575L209.481 141.07L201.685 135.874L196.219 142.113L195.468 139.145Z" fill="#F2D330"/>
<path d="M197.997 149.124L233.49 145.761L232.877 147.442L198.328 150.443L197.997 149.124Z" fill="#F2D330"/>
<path d="M200.4 159.067L231.814 156.469L231.888 157.768L200.745 160.65L200.4 159.067Z" fill="#F2D330"/>
<path d="M201.007 172.351L206.139 178.003L210.686 172.351L216.291 176.704L220.336 170.857L227.483 175.8L229.8 170.022L234.051 174.851L234.695 177.567L231.005 174.848L228.87 179.487L221.356 174.754L216.903 181.064L211.057 176.518L206.325 182.456L200.54 175.801L201.007 172.351Z" fill="#F2D330"/>
<path d="M198.689 189.686L237.034 186.416L237.443 188.051L198.689 191.546V189.686Z" fill="#F2D330"/>
<path d="M198.813 203.424L203.077 198.506L208.644 203.424L213.562 197.857L219.779 202.682L224.974 196.927L231.191 201.754L235.367 195.723L239.402 200.167L239.594 203.424L235.645 199.156L231.47 204.909L224.974 200.316L219.779 206.765L213.933 201.754L208.923 207.371L202.891 202.032L199.061 206.388L198.813 203.424Z" fill="#F2D330"/>
<path d="M199.464 210.454C199.464 210.454 210.871 211.732 221.82 210.454C232.769 209.175 239.581 206.764 239.581 206.764L239.54 208.072C233.776 210.193 227.754 211.532 221.634 212.052C211.242 212.98 199.464 212.052 199.464 212.052V210.454Z" fill="#F2D330"/>
<path d="M198.793 116.829C198.793 116.829 176.8 103.489 158.113 109.613C139.425 115.737 134.229 130.954 134.229 130.954C134.229 130.954 139.657 135.557 140.435 134.702C141.214 133.848 155.596 117.076 169.819 118.404C184.042 119.732 193.331 130.15 193.331 130.15C193.331 130.15 197.138 127.243 198.438 124.273C199.737 121.304 198.793 116.829 198.793 116.829" fill="#FFF0CA"/>
<path d="M185.072 120.816C185.072 120.816 184.345 114.076 170.194 115.192C156.043 116.308 154.248 119.416 154.248 119.416L153.378 98.0535L183.206 94.1826L185.887 114.308L185.072 120.816Z" fill="#151515"/>
<path d="M171.874 107.994L174.607 119.213C174.607 119.213 173.886 121.24 169.836 121.856C165.786 122.471 162.502 119.162 162.502 119.162L162.01 106.514L171.874 107.994Z" fill="#F4BB82"/>
<path d="M173.643 115.259C171.434 115.314 169.246 114.815 167.28 113.808C165.311 112.852 163.608 111.427 162.318 109.659L162.125 108.164L172.81 111.835L173.643 115.259Z" fill="#E58E63"/>
<path d="M182.029 88.2109L182.188 89.403C182.815 94.0753 182.631 98.8207 181.645 103.431C180.814 107.296 177.989 111.54 176.32 111.897C169.119 113.442 163.212 110.585 160.579 108.369C157.945 106.154 155.774 102.708 155.774 102.708C155.774 102.708 152.639 104.109 150.142 99.5317C147.645 94.9541 149.682 93.6289 149.682 93.6289C150.132 93.347 150.634 93.157 151.158 93.0698C151.682 92.9827 152.218 93.0001 152.735 93.1212C154.453 93.5467 154.865 93.9951 154.865 93.9951C154.865 93.9951 150.666 84.3872 151.575 79.1318C152.485 73.8764 162.468 68.1431 172.101 71.6912C181.734 75.2394 182.029 88.2109 182.029 88.2109Z" fill="#F4BB82"/>
<path d="M150.527 97.8957C150.527 97.8957 149.813 95.7507 150.369 95.1986C150.925 94.6465 153.394 95.0463 154.319 97.642C155.243 100.238 154.233 100.398 153.605 100.405C152.977 100.412 152.258 99.5525 152.348 98.3324C152.437 97.1123 152.972 97.167 152.972 97.167C152.972 97.167 151.925 95.3864 151.042 95.7129C150.159 96.0394 150.706 97.9134 150.706 97.9134L150.527 97.8957Z" fill="#E58E63"/>
<path d="M182.82 77.2881C182.82 77.2881 181.08 67.8525 165.594 68.4233C152.69 68.897 150.101 72.6165 148.511 76.075C146.922 79.5335 147.198 87.3113 148.21 90.7478C149.222 94.1843 149.518 93.7714 149.518 93.7714C149.518 93.7714 155.256 93.5929 155.524 92.9819C155.791 92.371 168.026 79.0925 168.026 79.0925L176.136 77.0882L180.576 78.6133L182.82 77.2881Z" fill="#373435"/>
<g opacity="0.24">
<g opacity="0.24">
<path opacity="0.24" d="M168.965 69.4648C168.965 69.4648 173.352 70.2496 172.107 72.4445C170.863 74.6395 153.544 75.2738 153.544 75.2738C153.544 75.2738 155.679 76.4602 156.811 76.7153C157.942 76.9703 168.466 77.089 174.471 75.6802C180.476 74.2714 175.976 70.9904 174.117 70.4266C172.422 69.9931 170.702 69.6718 168.965 69.4648" fill="#FFE7D7"/>
</g>
</g>
<path d="M170.531 78.4797C170.531 78.4797 164.089 86.74 160.916 89.1367C157.743 91.5334 155.522 92.9885 155.522 92.9885C155.522 92.9885 156.966 115.37 158.711 120.605C160.456 125.841 164.309 127.191 164.309 127.191C164.309 127.191 158.33 126.483 156.989 125.146L155.647 123.808C155.647 123.808 152.073 124.052 151.448 121.11C150.823 118.168 145.932 89.2404 147.384 83.5926C148.836 77.9448 169.961 77.7617 169.961 77.7617L170.531 78.4797Z" fill="#373435"/>
<path d="M170.532 78.4752C170.532 78.4752 173.686 82.3639 176.744 83.7017C179.803 85.0395 181.275 85.6294 181.275 85.6294L185.08 114.18C185.08 114.18 185.777 119.412 183.685 122.045C181.593 124.678 180.621 125.011 180.621 125.011C180.621 125.011 184.991 123.964 185.774 122.637C186.206 121.955 186.521 121.206 186.704 120.419C186.704 120.419 188.325 115.589 185.867 97.1506C183.41 78.712 182.822 77.2897 182.822 77.2897L171.905 76.8623L170.532 78.4752Z" fill="#373435"/>
<path d="M273.863 136.479C273.738 136.389 275.448 130.121 276.935 129.193C278.422 128.265 280.925 128.172 280.925 128.172C280.925 128.172 283.152 125.111 284.358 124.461C285.565 123.811 289.462 126.688 289.462 129.657C289.462 132.626 285.565 136.523 284.08 137.358C282.596 138.193 277.244 139.817 277.244 139.817L273.863 136.479Z" fill="#F4BB82"/>
<path d="M281.658 129.659L296.418 104.328H294.287L279.441 130.123L281.658 129.659Z" fill="#8E8D8D"/>
<path d="M304.308 104.328H284.451V94.9561H304.307L304.308 104.328Z" fill="#494848"/>
<defs>
<filter id="filter0_d_417_1998" x="0.5" y="0.793945" width="356" height="416.673" filterUnits="userSpaceOnUse" color-interpolation-filters="sRGB">
<feFlood flood-opacity="0" result="BackgroundImageFix"/>
<feColorMatrix in="SourceAlpha" type="matrix" values="0 0 0 0 0 0 0 0 0 0 0 0 0 0 0 0 0 0 127 0" result="hardAlpha"/>
<feOffset dx="-12" dy="7"/>
<feGaussianBlur stdDeviation="9"/>
<feColorMatrix type="matrix" values="0 0 0 0 0 0 0 0 0 0 0 0 0 0 0 0 0 0 0.161 0"/>
<feBlend mode="normal" in2="BackgroundImageFix" result="effect1_dropShadow_417_1998"/>
<feBlend mode="normal" in="SourceGraphic" in2="effect1_dropShadow_417_1998" result="shape"/>
</filter>
<linearGradient id="paint0_linear_417_1998" x1="81.6937" y1="462.88" x2="372.366" y2="111.208" gradientUnits="userSpaceOnUse">
<stop offset="0.176716" stop-color="#8FC93A"/>
<stop offset="0.864738" stop-color="#E4CC37"/>
</linearGradient>
</defs>
</svg>
