<svg width="320" height="260" viewBox="0 0 320 260" fill="none" xmlns="http://www.w3.org/2000/svg">
<path d="M255.464 47.5477C253.802 65.8632 249.066 85.176 241.639 103.81C232.455 126.854 219.906 147.151 205.35 162.506L204.542 161.802C219.028 146.52 231.519 126.313 240.666 103.365C248.932 82.6266 253.848 61.0455 254.89 40.9641L255.922 41.1369C255.813 43.2578 255.66 45.3947 255.464 47.5477Z" fill="#F2F2F2"/>
<path d="M262.086 153.921C241.641 186.448 216.836 209.689 192.241 219.361L191.744 218.449C216.168 208.844 240.828 185.722 261.179 153.344L262.086 153.921Z" fill="#F2F2F2"/>
<path d="M254.969 70.3509C253.306 88.6665 248.57 107.979 241.143 126.613C231.959 149.657 219.41 169.954 204.854 185.309L204.046 184.605C218.532 169.323 231.023 149.116 240.17 126.168C248.436 105.43 253.352 83.8488 254.394 63.7673L255.426 63.9402C255.317 66.061 255.164 68.1979 254.969 70.3509Z" fill="#F2F2F2"/>
<path d="M25.444 117.373H12.0295C11.7429 117.373 11.4599 117.309 11.2016 117.185C10.9434 117.06 10.7168 116.879 10.5386 116.655C10.3626 116.436 10.2384 116.18 10.1754 115.907C10.1123 115.633 10.1121 115.349 10.1747 115.075C11.4523 109.438 11.372 103.577 9.94049 97.9771C9.84995 97.6083 9.87184 97.2209 10.0034 96.8647C10.1349 96.5086 10.37 96.1999 10.6784 95.9785C17.5762 91.0175 23.0084 91.1615 26.8243 96.4071C26.9963 96.6462 27.1106 96.9219 27.1581 97.2126C28.1777 103.342 28.2341 109.593 27.3254 115.74C27.2622 116.194 27.0368 116.609 26.6909 116.909C26.345 117.209 25.902 117.374 25.444 117.373Z" fill="#E6E6E6"/>
<path d="M21.2865 103.939H16.6719C16.4167 103.939 16.1719 103.838 15.9915 103.657C15.8111 103.477 15.7097 103.232 15.7097 102.977C15.7097 102.722 15.8111 102.477 15.9915 102.297C16.1719 102.116 16.4167 102.015 16.6719 102.015H21.2865C21.5413 102.016 21.7855 102.117 21.9655 102.298C22.1455 102.478 22.2466 102.722 22.2466 102.977C22.2466 103.232 22.1455 103.476 21.9655 103.657C21.7855 103.837 21.5413 103.939 21.2865 103.939Z" fill="white"/>
<path d="M21.2865 107.314H16.6719C16.4167 107.314 16.1719 107.213 15.9915 107.032C15.8111 106.852 15.7097 106.607 15.7097 106.352C15.7097 106.097 15.8111 105.852 15.9915 105.672C16.1719 105.491 16.4167 105.39 16.6719 105.39H21.2865C21.5413 105.391 21.7855 105.492 21.9655 105.673C22.1455 105.853 22.2466 106.097 22.2466 106.352C22.2466 106.607 22.1455 106.851 21.9655 107.032C21.7855 107.212 21.5413 107.314 21.2865 107.314Z" fill="white"/>
<path d="M21.2865 110.687H16.6719C16.4167 110.687 16.1719 110.586 15.9915 110.405C15.8111 110.225 15.7097 109.98 15.7097 109.725C15.7097 109.47 15.8111 109.225 15.9915 109.045C16.1719 108.864 16.4167 108.763 16.6719 108.763H21.2865C21.5413 108.763 21.7855 108.865 21.9655 109.045C22.1455 109.226 22.2466 109.47 22.2466 109.725C22.2466 109.98 22.1455 110.224 21.9655 110.404C21.7855 110.585 21.5413 110.686 21.2865 110.687Z" fill="white"/>
<path d="M269.241 177.266H255.826C255.54 177.267 255.257 177.203 254.999 177.078C254.74 176.954 254.514 176.773 254.336 176.548C254.16 176.329 254.035 176.074 253.972 175.8C253.909 175.526 253.909 175.242 253.972 174.968C255.249 169.331 255.169 163.471 253.737 157.87C253.647 157.502 253.669 157.114 253.8 156.758C253.932 156.402 254.167 156.093 254.475 155.872C261.373 150.911 266.805 151.055 270.621 156.301C270.793 156.54 270.908 156.815 270.955 157.106C271.975 163.235 272.031 169.486 271.122 175.633C271.059 176.087 270.834 176.502 270.488 176.803C270.142 177.103 269.699 177.268 269.241 177.266Z" fill="#E6E6E6"/>
<path d="M265.081 163.833H260.467C260.212 163.832 259.968 163.731 259.788 163.55C259.608 163.37 259.507 163.126 259.507 162.871C259.507 162.616 259.608 162.371 259.788 162.191C259.968 162.011 260.212 161.909 260.467 161.909H265.081C265.337 161.909 265.581 162.01 265.762 162.19C265.942 162.371 266.043 162.616 266.043 162.871C266.043 163.126 265.942 163.371 265.762 163.551C265.581 163.732 265.337 163.833 265.081 163.833Z" fill="white"/>
<path d="M265.081 167.208H260.467C260.212 167.207 259.968 167.106 259.788 166.925C259.608 166.745 259.507 166.501 259.507 166.246C259.507 165.991 259.608 165.746 259.788 165.566C259.968 165.386 260.212 165.284 260.467 165.284H265.081C265.337 165.284 265.581 165.385 265.762 165.565C265.942 165.746 266.043 165.991 266.043 166.246C266.043 166.501 265.942 166.746 265.762 166.926C265.581 167.107 265.337 167.208 265.081 167.208Z" fill="white"/>
<path d="M265.081 170.583H260.467C260.212 170.582 259.968 170.481 259.788 170.3C259.608 170.12 259.507 169.876 259.507 169.621C259.507 169.366 259.608 169.121 259.788 168.941C259.968 168.761 260.212 168.659 260.467 168.659H265.081C265.337 168.659 265.581 168.76 265.762 168.94C265.942 169.121 266.043 169.366 266.043 169.621C266.043 169.876 265.942 170.121 265.762 170.301C265.581 170.482 265.337 170.583 265.081 170.583Z" fill="white"/>
<path d="M320 259.309C320 259.375 319.988 259.44 319.962 259.501C319.937 259.562 319.9 259.617 319.854 259.664C319.807 259.711 319.752 259.748 319.691 259.773C319.63 259.798 319.564 259.811 319.498 259.811H0.502176C0.369056 259.811 0.241392 259.758 0.147262 259.663C0.0531317 259.569 0.000244141 259.442 0.000244141 259.309C0.000244141 259.175 0.0531317 259.048 0.147262 258.954C0.241392 258.86 0.369056 258.807 0.502176 258.807H319.498C319.564 258.806 319.63 258.819 319.691 258.844C319.752 258.87 319.807 258.907 319.854 258.953C319.9 259 319.937 259.055 319.962 259.116C319.988 259.177 320 259.243 320 259.309Z" fill="#CCCCCC"/>
<path d="M84.1488 228.578L83.3122 216.941C77.8317 214.202 71.7652 212.841 65.6396 212.978C74.2575 219.639 73.5673 232.953 79.5356 242.065C81.4188 244.892 83.9142 247.26 86.8368 248.992C89.7595 250.724 93.0344 251.776 96.4189 252.07L103.591 256.196C104.411 250.774 104.047 245.238 102.522 239.97C100.996 234.702 98.3474 229.827 94.757 225.682C92.7197 223.376 90.4002 221.336 87.8531 219.61C86.2854 224.111 84.1488 228.578 84.1488 228.578Z" fill="#F2F2F2"/>
<path d="M235.853 230.265L236.689 218.629C242.17 215.889 248.236 214.529 254.362 214.666C245.744 221.327 246.434 234.641 240.466 243.752C238.583 246.58 236.087 248.947 233.165 250.679C230.242 252.411 226.967 253.463 223.583 253.758L216.41 257.884C215.59 252.461 215.955 246.925 217.48 241.657C219.005 236.389 221.654 231.515 225.244 227.369C227.282 225.063 229.601 223.023 232.148 221.297C233.716 225.798 235.853 230.265 235.853 230.265Z" fill="#F2F2F2"/>
<path d="M156.203 98.9459C160.63 98.9459 164.218 95.3579 164.218 90.9319C164.218 86.5058 160.63 82.9178 156.203 82.9178C151.777 82.9178 148.189 86.5058 148.189 90.9319C148.189 95.3579 151.777 98.9459 156.203 98.9459Z" fill="#0E5AE4"/>
<path d="M160.318 87.5924C160.198 87.4774 160.038 87.4132 159.871 87.4132C159.704 87.4132 159.544 87.4774 159.424 87.5924C157.723 88.9486 156.196 90.5086 154.876 92.2375C154.552 91.6105 154.228 90.9836 153.904 90.3566C153.53 89.633 152.438 90.2722 152.811 90.9953C153.285 91.9123 153.759 92.8293 154.233 93.7463C154.29 93.84 154.371 93.9173 154.466 93.971C154.562 94.0247 154.67 94.0528 154.779 94.0528C154.889 94.0528 154.997 94.0247 155.093 93.971C155.188 93.9173 155.269 93.84 155.326 93.7463C156.732 91.7654 158.413 89.9946 160.318 88.4871C160.436 88.368 160.502 88.2072 160.502 88.0398C160.502 87.8723 160.436 87.7115 160.318 87.5924Z" fill="white"/>
<path d="M120.345 113.657L108.26 94.6785L122.254 87.184L125.927 101.664L151.806 115.648C152.828 115.281 153.935 115.218 154.991 115.468C156.048 115.719 157.009 116.271 157.757 117.058C158.505 117.845 159.008 118.833 159.204 119.901C159.401 120.969 159.282 122.071 158.863 123.073C158.444 124.074 157.743 124.933 156.844 125.543C155.946 126.153 154.89 126.488 153.804 126.508C152.718 126.528 151.65 126.232 150.73 125.655C149.81 125.078 149.077 124.247 148.622 123.261L120.345 113.657Z" fill="#A0616A"/>
<path d="M99.4326 71.9153C95.6354 77.4904 109.129 97.7554 109.129 97.7554C109.787 96.3384 116.071 112.251 117.123 111.311C120.115 108.639 124.797 101.198 127.4 100.866C128.889 100.676 123.948 90.1194 123.948 90.1194C123.948 90.1194 121.69 83.8856 118.626 75.9225C117.801 73.6551 116.417 71.6332 114.6 70.045C112.784 68.4568 110.596 67.3539 108.239 66.839C108.239 66.839 103.23 66.3403 99.4326 71.9153Z" fill="#3F3D56"/>
<path d="M99.6155 253.554L105.355 253.553L108.085 231.416L99.6143 231.416L99.6155 253.554Z" fill="#A0616A"/>
<path d="M98.1525 251.68L99.7679 251.679L106.075 249.115L109.455 251.679H109.456C111.366 251.679 113.198 252.438 114.549 253.789C115.9 255.14 116.659 256.972 116.659 258.882V259.116L98.1528 259.117L98.1525 251.68Z" fill="#2F2E41"/>
<path d="M126.28 253.554L132.019 253.553L134.75 231.416L126.279 231.416L126.28 253.554Z" fill="#A0616A"/>
<path d="M124.816 251.68L126.431 251.679L132.738 249.115L136.119 251.679H136.119C138.029 251.679 139.861 252.438 141.212 253.789C142.563 255.14 143.322 256.972 143.322 258.882V259.116L124.816 259.117L124.816 251.68Z" fill="#2F2E41"/>
<path d="M128.764 132.524L91.433 133.458C84.3429 137.309 84.2353 145.643 86.5583 155.539C86.5583 155.539 85.7741 161.421 87.3426 162.99C88.9111 164.558 89.6953 164.558 88.9111 167.303C88.1268 170.048 92.2703 174.531 91.7671 175.034C91.2638 175.537 90.0874 178.282 90.0874 178.282L94.0086 200.633C94.0086 200.633 96.7535 239.453 97.5377 240.237C98.3219 241.022 99.1062 240.237 98.3219 242.198C97.5377 244.158 96.7535 243.374 97.5377 244.158C98.2324 244.907 98.8868 245.693 99.4983 246.511H108.979C108.979 246.511 109.693 242.59 109.693 242.198C109.693 241.806 110.478 239.453 110.478 239.061C110.478 238.669 109.785 237.976 109.785 237.976C109.545 237.179 109.383 236.36 109.301 235.532C109.301 234.748 106.949 204.554 106.949 204.554L111.654 165.342L123.026 203.77C123.026 203.77 123.026 237.492 123.81 238.277C124.594 239.061 124.594 238.669 124.202 240.237C123.81 241.806 122.241 241.414 123.418 242.59C124.594 243.766 124.986 241.806 124.594 243.766L124.202 245.727L135.965 245.895C135.965 245.895 137.534 242.59 136.75 241.414C135.965 240.237 136.013 240.558 136.969 238.633C137.926 236.708 138.318 236.316 137.926 235.924C137.534 235.532 137.534 233.446 137.534 233.446L135.573 195.928C135.573 195.928 135.181 156.324 135.181 155.147C135.152 154.542 135.263 153.938 135.507 153.383V151.786L134.005 146.128L128.764 132.524Z" fill="#2F2E41"/>
<path d="M106.339 54.9008C112.745 54.9008 117.939 49.7077 117.939 43.3016C117.939 36.8956 112.745 31.7025 106.339 31.7025C99.9335 31.7025 94.7404 36.8956 94.7404 43.3016C94.7404 49.7077 99.9335 54.9008 106.339 54.9008Z" fill="#A0616A"/>
<path d="M112.139 62.5668C114.637 64.0524 116.132 66.782 116.99 69.5596C118.579 74.7019 119.535 80.0187 119.838 85.3923L120.744 101.48L131.969 135.735C122.241 143.967 85.6739 137.606 85.6739 137.606C85.6739 137.606 84.5514 137.232 85.6739 136.109C86.7963 134.987 87.8891 135.981 86.7666 134.859C85.6442 133.736 86.418 134.987 86.7921 133.864C87.1663 132.742 86.7921 133.49 86.418 133.116C86.0438 132.742 89.3145 129.374 89.3145 129.374L86.3212 109.712L82.5796 70.0501C87.0696 64.4376 96.0995 61.1291 96.0995 61.1291L98.4327 56.9293L110.099 57.8626L112.139 62.5668Z" fill="#3F3D56"/>
<path d="M115.901 37.1396C116.802 37.812 117.47 38.7502 117.81 39.8221C117.941 38.0704 117.949 36.3116 117.835 34.5587C117.699 33.3269 116.831 33.0499 115.827 32.7288C114.92 32.4388 113.895 32.1111 113.619 30.9153C109.973 27.3683 103.626 27.5472 99.2819 28.7844C96.8917 29.4653 95.5163 30.34 95.3933 30.8524L95.3678 30.9579L95.2707 31.0065C93.4283 31.9277 93.0697 34.8367 93.0934 37.1148C93.1382 41.4068 94.6202 46.2816 95.4551 46.6776C95.4993 46.6985 95.5104 46.6903 95.5296 46.6744C96.7866 45.6698 98.3203 46.7507 98.9943 47.3383C99.3918 44.6707 100.672 42.2133 102.63 40.3585C104.588 38.5037 107.111 37.3585 109.796 37.1059C110.673 37.0211 111.543 36.8753 112.4 36.6694C112.834 36.5569 113.281 36.4983 113.73 36.4948C114.502 36.4831 115.26 36.7081 115.901 37.1396Z" fill="#2F2E41"/>
<path d="M187.907 141.767L210.219 119.109L216.098 100.987L206.638 97.1609C201.952 101.888 197.128 116.359 197.128 116.359L181.899 136.798C181.777 136.843 181.656 136.891 181.536 136.947C180.835 137.278 180.231 137.785 179.783 138.417C179.335 139.05 179.057 139.788 178.977 140.559C178.897 141.33 179.018 142.109 179.327 142.82C179.636 143.531 180.123 144.151 180.741 144.618C181.36 145.086 182.088 145.387 182.857 145.49C183.625 145.594 184.407 145.498 185.128 145.212C185.848 144.925 186.482 144.457 186.969 143.854C187.456 143.25 187.779 142.531 187.907 141.767Z" fill="#FFB8B8"/>
<path d="M204.057 99.2346L216.02 102.695L216.065 102.687C220.462 101.833 223.941 94.5249 226.084 88.5447C226.79 86.5722 226.72 84.4055 225.889 82.4827C225.057 80.5599 223.527 79.0243 221.607 78.1865C220.187 77.5781 218.624 77.3791 217.097 77.612C215.569 77.8449 214.137 78.5005 212.963 79.5047L206.998 84.641L204.057 99.2346Z" fill="#0E5AE4"/>
<path d="M193.823 252.88L187.389 252.88L184.328 228.064L193.824 228.064L193.823 252.88Z" fill="#FFB8B8"/>
<path d="M195.462 250.779L193.651 250.779L186.581 247.904L182.792 250.779H182.791C180.65 250.779 178.596 251.63 177.082 253.144C175.568 254.658 174.717 256.712 174.717 258.853V259.116L195.462 259.116L195.462 250.779Z" fill="#2F2E41"/>
<path d="M222.369 252.88L215.935 252.88L212.875 228.064L222.37 228.064L222.369 252.88Z" fill="#FFB8B8"/>
<path d="M224.01 250.779L222.2 250.779L215.129 247.904L211.34 250.779H211.339C209.198 250.779 207.144 251.63 205.63 253.144C204.116 254.658 203.265 256.712 203.265 258.853V259.116L224.01 259.116L224.01 250.779Z" fill="#2F2E41"/>
<path d="M232.18 145.987C232.18 145.987 232.931 155.002 231.053 163.642C229.175 172.281 229.175 196.613 229.175 196.613L225.043 244.027L212.647 242.9L209.266 163.642L197.246 190.312L198.373 194.068L196.872 195.007C196.872 195.007 197.997 202.332 197.246 202.332C196.495 202.332 194.617 203.459 194.617 203.459L196.119 242.149L183.348 241.774L178.84 187.307L183.723 156.129L184.099 150.119L185.789 150.189L186.65 147.677L188.231 143.358L232.18 145.987Z" fill="#2F2E41"/>
<path d="M232.83 147.882L232.897 147.788C236.472 142.782 231.095 130.754 230.284 129.01L233.7 127.901L232.931 121.363L232.566 118.447L235.177 115.836L235.184 115.771L236.687 102.624L238.872 93.892C239.695 90.5909 239.625 87.1302 238.668 83.8652C237.712 80.6002 235.904 77.6484 233.43 75.313L228.38 70.5517L222.243 61.4711H212.347L208.953 67.8807C205.663 68.641 202.744 70.5315 200.705 73.2226C198.666 75.9138 197.635 79.2352 197.793 82.6081L198.562 99.4186L195.551 120.349L195.549 124.137L192.161 127.903L192.901 131.602L190.322 132.707L189.183 138.02C188.712 138.642 185.602 142.789 185.602 143.923C185.602 144.093 185.728 144.257 185.997 144.44C188.117 145.875 199.832 148.801 205.017 146.726C210.54 144.518 232.495 147.831 232.716 147.865L232.83 147.882Z" fill="#0E5AE4"/>
<path d="M216.016 58.539C223.255 58.539 229.123 52.6709 229.123 45.4321C229.123 38.1934 223.255 32.3252 216.016 32.3252C208.778 32.3252 202.909 38.1934 202.909 45.4321C202.909 52.6709 208.778 58.539 216.016 58.539Z" fill="#FFB8B8"/>
<path d="M214.761 58.7517C216.791 58.731 218.815 58.5369 220.812 58.1716C222.789 57.7162 227.15 54.3436 228.339 52.3511C229.222 50.8708 229.752 48.581 230.042 46.921C230.432 44.7239 230.357 42.4694 229.821 40.3033C229.284 38.1372 228.299 36.1079 226.929 34.3468C226.401 33.609 225.683 33.0277 224.851 32.6643C224.778 32.6377 224.702 32.6144 224.626 32.5948C223.421 32.3107 222.328 31.6729 221.488 30.7632C221.325 30.579 221.149 30.4069 220.961 30.248C220.018 29.4934 218.911 28.9726 217.728 28.728C215.818 28.2693 213.086 28.8442 209.607 30.438C207.86 31.2388 205.92 31.0154 204.425 30.7313C204.341 30.7174 204.255 30.7256 204.176 30.7552C204.096 30.7848 204.026 30.8347 203.971 30.9C203.354 31.5102 202.529 31.8641 201.661 31.8907C201.13 31.9277 200.592 32.6779 199.943 33.6547C199.796 33.8765 199.624 34.1353 199.499 34.2932L199.474 33.9966L199.182 34.3358C198.723 34.8688 198.406 35.5092 198.261 36.1976C198.117 36.8859 198.148 37.5997 198.354 38.2725C198.559 38.9453 198.931 39.5553 199.436 40.0455C199.94 40.5357 200.56 40.8903 201.239 41.0762C201.777 41.2047 202.327 41.2778 202.88 41.2945C203.215 41.316 203.562 41.3382 203.895 41.3871C204.965 41.5776 205.967 42.0422 206.804 42.7357C207.641 43.4291 208.283 44.3276 208.669 45.3436C208.76 45.5784 208.904 45.7891 209.089 45.9594C209.275 46.1298 209.497 46.2553 209.739 46.3262C209.98 46.3971 210.235 46.4115 210.483 46.3684C210.731 46.3252 210.966 46.2256 211.169 46.0772C211.508 45.7993 211.909 45.6074 212.337 45.5179C212.766 45.4283 213.21 45.4438 213.631 45.5629C213.998 45.7545 214.287 46.0663 214.451 46.4459C214.65 46.8685 214.969 47.2224 215.369 47.4626C216.734 48.1221 216.906 51.1956 216.489 53.7722C216.086 56.2558 215.211 58.0676 214.36 58.178C213.705 58.2629 213.631 58.3115 213.586 58.4289L213.546 58.534L213.623 58.6294C213.989 58.7516 214.377 58.7933 214.761 58.7517Z" fill="#2F2E41"/>
<path d="M203.887 100.635L197.587 92.6077C191.169 94.3748 179.783 104.524 179.783 104.524L156.398 114.672C155.617 114.541 154.816 114.618 154.075 114.895C153.333 115.172 152.678 115.639 152.175 116.25C151.671 116.861 151.338 117.593 151.208 118.374C151.077 119.155 151.155 119.956 151.433 120.697C151.711 121.438 152.179 122.093 152.79 122.595C153.402 123.098 154.135 123.431 154.915 123.56C155.696 123.689 156.497 123.611 157.238 123.332C157.979 123.053 158.633 122.584 159.135 121.972L189.768 113.426L203.887 100.635Z" fill="#FFB8B8"/>
<path d="M202.376 102.471L212.317 91.3897L212.869 83.5376C212.971 81.9957 212.641 80.4558 211.914 79.092C211.188 77.7281 210.094 76.5946 208.757 75.8196C206.938 74.7812 204.792 74.4724 202.754 74.9556C200.716 75.4388 198.937 76.6779 197.777 78.4225C194.265 83.7163 190.486 90.8736 192.43 94.909L192.45 94.9499L202.376 102.471Z" fill="#0E5AE4"/>
<path d="M110.754 144.124L84.9177 130.892C83.08 129.951 82.4712 127.454 83.5608 125.327L100.407 92.4343C101.496 90.3069 103.878 89.3419 105.716 90.2831L131.552 103.515C133.39 104.456 133.999 106.953 132.909 109.08L116.063 141.973C114.974 144.1 112.592 145.065 110.754 144.124Z" fill="#E6E6E6"/>
<path d="M106.339 138.042L88.7853 129.052C87.0642 128.17 86.4939 125.832 87.5143 123.84L101.51 96.5132C102.53 94.5208 104.761 93.6172 106.482 94.4987L127.683 105.357C129.404 106.238 129.974 108.576 128.954 110.569L121.351 125.414C116.806 134.289 114.006 141.968 106.339 138.042Z" fill="white"/>
<path d="M115.019 123.117L99.4715 115.154C99.2814 115.019 99.1464 114.82 99.091 114.593C99.0357 114.366 99.0639 114.127 99.1703 113.919C99.2767 113.711 99.4543 113.549 99.6706 113.461C99.887 113.374 100.128 113.367 100.349 113.442L115.896 121.404C116.087 121.54 116.222 121.739 116.277 121.966C116.332 122.193 116.304 122.432 116.198 122.64C116.091 122.847 115.914 123.01 115.697 123.098C115.481 123.185 115.24 123.192 115.019 123.117Z" fill="#0E5AE4"/>
<path d="M101.285 120.356L97.7371 118.539C97.547 118.403 97.412 118.204 97.3567 117.977C97.3014 117.75 97.3295 117.511 97.4359 117.303C97.5423 117.096 97.7199 116.933 97.9362 116.845C98.1526 116.758 98.3933 116.751 98.6143 116.826L102.162 118.643C102.353 118.779 102.488 118.978 102.543 119.205C102.598 119.432 102.57 119.671 102.464 119.878C102.357 120.086 102.18 120.249 101.963 120.336C101.747 120.424 101.506 120.431 101.285 120.356Z" fill="#0E5AE4"/>
<path d="M105.837 126.959L96.0044 121.923C95.8143 121.788 95.6793 121.588 95.624 121.361C95.5687 121.135 95.5968 120.896 95.7032 120.688C95.8096 120.48 95.9872 120.317 96.2036 120.23C96.4199 120.142 96.6606 120.135 96.8816 120.21L106.714 125.246C106.904 125.381 107.039 125.581 107.094 125.807C107.15 126.034 107.122 126.273 107.015 126.481C106.909 126.689 106.731 126.851 106.515 126.939C106.299 127.027 106.058 127.034 105.837 126.959V126.959Z" fill="#0E5AE4"/>
<path d="M121.17 111.106L105.622 103.143C105.432 103.007 105.297 102.808 105.242 102.581C105.187 102.354 105.215 102.115 105.321 101.908C105.428 101.7 105.605 101.537 105.822 101.45C106.038 101.362 106.279 101.355 106.5 101.43L122.047 109.393C122.238 109.528 122.373 109.728 122.428 109.954C122.483 110.181 122.455 110.42 122.349 110.628C122.242 110.836 122.065 110.998 121.848 111.086C121.632 111.174 121.391 111.181 121.17 111.106Z" fill="#0E5AE4"/>
<path d="M107.438 108.342L103.89 106.525C103.7 106.389 103.565 106.19 103.509 105.963C103.454 105.736 103.482 105.497 103.589 105.29C103.695 105.082 103.873 104.919 104.089 104.832C104.305 104.744 104.546 104.737 104.767 104.812L108.315 106.629C108.505 106.765 108.64 106.964 108.696 107.191C108.751 107.418 108.723 107.657 108.616 107.864C108.51 108.072 108.332 108.235 108.116 108.322C107.9 108.41 107.659 108.417 107.438 108.342Z" fill="#0E5AE4"/>
<path d="M111.99 114.945L102.157 109.909C101.967 109.774 101.832 109.574 101.777 109.347C101.721 109.121 101.75 108.882 101.856 108.674C101.962 108.466 102.14 108.303 102.356 108.216C102.573 108.128 102.813 108.121 103.034 108.196L112.867 113.232C113.057 113.367 113.192 113.567 113.247 113.794C113.302 114.02 113.274 114.259 113.168 114.467C113.062 114.675 112.884 114.838 112.668 114.925C112.451 115.013 112.211 115.02 111.99 114.945L111.99 114.945Z" fill="#0E5AE4"/>
<path d="M89.3434 115.487L83.5066 93.7571L99.1041 90.8044L98.2654 105.719L118.759 126.821C119.844 126.777 120.919 127.049 121.852 127.605C122.784 128.161 123.535 128.976 124.013 129.951C124.491 130.926 124.674 132.019 124.541 133.097C124.408 134.175 123.965 135.191 123.265 136.02C122.564 136.85 121.638 137.459 120.598 137.771C119.558 138.084 118.45 138.087 117.408 137.78C116.366 137.474 115.436 136.871 114.731 136.045C114.027 135.219 113.577 134.205 113.438 133.129L89.3434 115.487Z" fill="#A0616A"/>
<path d="M81.9104 69.3927C76.6161 73.5724 83.4114 96.9515 83.4114 96.9515C84.4635 95.7969 85.6861 112.861 86.9721 112.28C90.6269 110.629 97.3258 104.934 99.9084 105.398C101.385 105.664 99.838 94.1112 99.838 94.1112C99.838 94.1112 99.5534 87.4871 99.0185 78.9716C98.9119 76.5613 98.1972 74.2172 96.941 72.1574C95.6848 70.0976 93.9279 68.3892 91.8338 67.1911C91.8338 67.1911 87.2048 65.2131 81.9104 69.3927Z" fill="#3F3D56"/>
<path d="M170.005 163.718L155.906 157.061C155.605 156.919 155.339 156.711 155.13 156.452C154.92 156.193 154.772 155.89 154.696 155.566C154.619 155.249 154.616 154.918 154.685 154.6C154.755 154.281 154.896 153.982 155.097 153.725C159.181 148.505 161.986 142.402 163.285 135.903C163.384 135.405 163.651 134.957 164.043 134.635C164.435 134.312 164.926 134.136 165.433 134.135C172.624 134.16 177.998 136.785 181.406 141.938C181.585 142.206 181.704 142.51 181.755 142.829C181.805 143.148 181.785 143.474 181.696 143.784C179.723 150.585 176.72 157.044 172.793 162.936C172.501 163.381 172.058 163.706 171.546 163.85C171.033 163.994 170.486 163.947 170.005 163.718Z" fill="#E6E6E6"/>
<path d="M174.153 154.381L163.372 149.29C163.104 149.164 162.897 148.936 162.797 148.657C162.697 148.377 162.712 148.07 162.839 147.802C162.965 147.533 163.193 147.327 163.473 147.226C163.752 147.126 164.059 147.141 164.327 147.268L175.108 152.358C175.24 152.421 175.36 152.509 175.458 152.618C175.557 152.727 175.633 152.854 175.683 152.992C175.732 153.131 175.754 153.277 175.747 153.424C175.74 153.571 175.704 153.714 175.641 153.847C175.579 153.98 175.49 154.099 175.382 154.198C175.273 154.297 175.146 154.373 175.008 154.422C174.869 154.472 174.723 154.494 174.576 154.487C174.429 154.48 174.285 154.444 174.153 154.381H174.153Z" fill="white"/>
<path d="M175.827 150.835L165.047 145.744C164.779 145.617 164.572 145.389 164.472 145.11C164.372 144.831 164.387 144.523 164.514 144.255C164.64 143.987 164.868 143.78 165.147 143.68C165.427 143.58 165.734 143.595 166.002 143.722L176.782 148.812C177.051 148.939 177.258 149.167 177.358 149.446C177.458 149.725 177.443 150.033 177.316 150.301C177.19 150.569 176.962 150.776 176.682 150.876C176.403 150.976 176.096 150.961 175.827 150.835V150.835Z" fill="white"/>
<path d="M161.422 39.5049L160.418 39.6148C155.944 22.0327 147.272 9.85204 135.338 4.38937C120.167 -2.55466 101.408 2.10838 82.5156 17.5197C63.5272 33.0097 46.7175 57.4772 35.1834 86.4162L34.2097 85.9706C45.7945 56.9052 62.6905 32.3195 81.7852 16.7434C100.976 1.08854 120.118 -3.60869 135.686 3.51715C147.962 9.13636 156.861 21.5808 161.422 39.5049Z" fill="#F2F2F2"/>
<path d="M50.7131 62.4022C48.0889 67.9305 45.5928 73.6578 43.2941 79.4248C30.0666 112.612 23.3634 146.505 23.9112 177.442L22.8774 177.332C22.329 146.28 29.0515 112.27 42.3205 78.9793C44.6257 73.1959 47.1289 67.4524 49.7607 61.9086L50.7131 62.4022Z" fill="#F2F2F2"/>
<path d="M50.2171 85.2078C47.5929 90.736 45.0968 96.4633 42.7982 102.23C29.5706 135.418 22.8674 169.311 23.4152 200.248L22.3814 200.137C21.8331 169.086 28.5555 135.076 41.8245 101.785C44.1298 96.0014 46.6329 90.258 49.2647 84.7141L50.2171 85.2078Z" fill="#F2F2F2"/>
<path d="M22.4317 93.4995C23.5745 91.7818 22.8981 89.3229 20.9208 88.0075C18.9436 86.692 16.4143 87.0181 15.2715 88.7358C14.1287 90.4536 14.8051 92.9125 16.7823 94.2279C18.7596 95.5434 21.2889 95.2173 22.4317 93.4995Z" fill="#CCCCCC"/>
<path d="M265.779 155.532C266.922 153.814 266.246 151.355 264.269 150.04C262.291 148.724 259.762 149.05 258.619 150.768C257.476 152.486 258.153 154.945 260.13 156.26C262.107 157.576 264.637 157.25 265.779 155.532Z" fill="#CCCCCC"/>
</svg>

