<svg width="41" height="41" viewBox="0 0 41 41" fill="none" xmlns="http://www.w3.org/2000/svg">
<rect x="0.5" y="0.264648" width="40" height="40" rx="20" fill="#c5d9ff"/>
<path d="M20.5 10.2646C14.9859 10.2646 10.5 14.7506 10.5 20.2647C10.5 25.7787 14.9859 30.2646 20.5 30.2646C26.014 30.2646 30.4999 25.7787 30.4999 20.2647C30.4999 14.7506 26.014 10.2646 20.5 10.2646ZM18.9573 11.2807C18.1456 11.9756 17.3685 12.8407 16.7442 13.7617C16.4631 14.1764 16.2103 14.6047 15.9858 15.0439H13.0324C14.4013 13.0919 16.5149 11.6988 18.9573 11.2807ZM12.4838 15.9288H15.5785C15.0621 17.1849 14.7698 18.5146 14.7176 19.8688H11.394C11.455 18.4477 11.8424 17.1098 12.4838 15.9288ZM11.3981 20.7537H14.7172C14.7681 22.1292 15.0575 23.4467 15.581 24.6937H12.5358C11.878 23.5156 11.4737 22.1776 11.3981 20.7537ZM13.0986 25.5786H15.9984C16.2196 26.0003 16.4684 26.4133 16.7459 26.8167C17.482 27.8869 18.2732 28.683 18.9414 29.2459C16.5447 28.8312 14.4659 27.4775 13.0986 25.5786ZM20.0575 28.9995C19.0692 28.2758 17.9057 27.1214 17.0143 25.5786H20.0575V28.9995ZM20.0575 24.6937H16.5551C16.0281 23.5514 15.6641 22.2337 15.603 20.7537H20.0575L20.0575 24.6937ZM20.0575 19.8688H15.603C15.6581 18.4932 15.971 17.1749 16.5371 15.9288H20.0575V19.8688ZM20.0575 15.0439H16.9885C17.1392 14.7784 17.3017 14.5163 17.4767 14.2582C18.3876 12.9144 19.3862 12.0344 20.0575 11.5357V15.0439ZM29.6059 19.8688H26.2823C26.23 18.5146 25.9378 17.1849 25.4214 15.9288H28.5161C29.1575 17.1098 29.5449 18.4477 29.6059 19.8688ZM27.9675 15.0439H25.0142C24.7897 14.6047 24.5369 14.1764 24.2558 13.7617C23.6315 12.8407 22.8541 11.9758 22.0424 11.2807C24.4849 11.6988 26.5986 13.0918 27.9675 15.0439ZM20.9424 11.5357C21.6138 12.0343 22.6123 12.9143 23.5233 14.2581C23.6982 14.5163 23.8607 14.7783 24.0115 15.0439H20.9424V11.5357ZM20.9424 15.9288H24.4629C25.0289 17.1749 25.3419 18.4932 25.397 19.8688H20.9424V15.9288ZM20.9424 20.7537H25.3969C25.3358 22.2338 24.9718 23.5515 24.4448 24.6937H20.9423L20.9424 20.7537ZM20.9424 25.5786H23.9856C23.0942 27.1213 21.9307 28.2758 20.9424 28.9995V25.5786ZM22.0586 29.2459C22.7268 28.6831 23.518 27.8868 24.254 26.8167C24.5314 26.4133 24.7803 26.0003 25.0015 25.5786H27.9013C26.5341 27.4775 24.4553 28.8312 22.0586 29.2459ZM28.4642 24.6937H25.4188C25.9424 23.4467 26.2317 22.1292 26.2827 20.7537H29.6018C29.5262 22.1776 29.122 23.5156 28.4642 24.6937Z" fill="#649aff"/>
</svg>



