<svg width="24" height="25" viewBox="0 0 24 25" fill="none" xmlns="http://www.w3.org/2000/svg">
<path d="M10.1484 5.13601C10.1484 2.37158 12.3892 0.130859 15.1536 0.130859C17.918 0.130859 20.1587 2.37158 20.1587 5.13601C20.1587 7.90044 17.918 10.1412 15.1536 10.1412C12.3918 10.1438 10.1484 7.90305 10.1484 5.13601Z" fill="#A8A8A8"/>
<path d="M23.6232 18.9082C21.1688 20.4559 18.2637 21.3548 15.1554 21.3548C12.0444 21.3548 9.14188 20.4559 6.6875 18.9082C7.04445 15.026 10.0147 11.8968 13.8239 11.2976C14.2591 11.2298 14.702 11.1934 15.1554 11.1934C15.6087 11.1934 16.0543 11.2298 16.4894 11.2976C20.296 11.8994 23.2663 15.026 23.6232 18.9082Z" fill="#A8A8A8"/>
<path d="M4.21875 6.11718C4.21875 3.04516 6.70727 0.556641 9.77929 0.556641C12.8486 0.556641 15.3398 3.04516 15.3398 6.11718C15.3398 9.18653 12.8513 11.6777 9.77929 11.6777C6.70727 11.6777 4.21875 9.18653 4.21875 6.11718Z" fill="#BBBBBB"/>
<path d="M19.1854 21.4136C16.4598 23.1321 13.2332 24.1313 9.78022 24.1313C6.3272 24.1313 3.10065 23.1321 0.375 21.4136C0.771991 17.1 4.07048 13.6283 8.29883 12.9622C8.78108 12.885 9.27665 12.8477 9.77755 12.8477C10.2811 12.8477 10.7767 12.8876 11.2589 12.9622C15.49 13.6257 18.7884 17.1 19.1854 21.4136Z" fill="#BBBBBB"/>
</svg>

