<svg width="15" height="21" viewBox="0 0 15 21" fill="none" xmlns="http://www.w3.org/2000/svg">
<path d="M2.51013 9.00954C2.51013 7.11272 4.04832 5.57617 5.9435 5.57617C7.83868 5.57617 9.37687 7.11272 9.37687 9.00954C9.37687 10.9047 7.83868 12.4429 5.9435 12.4429C4.04832 12.4429 2.51013 10.9047 2.51013 9.00954Z" fill="url(#paint0_linear_7457_20003)"/>
<path d="M11.7515 18.4526C10.0686 19.5137 8.07632 20.1307 5.94424 20.1307C3.81217 20.1307 1.81992 19.5137 0.136963 18.4526C0.382086 15.7892 2.41875 13.6456 5.02956 13.2343C5.32732 13.1866 5.63332 13.1636 5.9426 13.1636C6.25353 13.1636 6.55952 13.1883 6.85729 13.2343C9.46974 13.6439 11.5064 15.7892 11.7515 18.4526Z" fill="url(#paint1_linear_7457_20003)"/>
<path d="M14.8632 4.06255C14.8632 4.55038 14.4664 4.94584 13.9769 4.94584H11.902L11.912 7.01351C11.912 7.56581 11.4628 8.01354 10.9087 8.01354C10.3545 8.01354 9.90528 7.56581 9.90528 7.01351L9.89529 4.94584L7.86672 4.92925C7.37726 4.92925 6.98047 4.53379 6.98047 4.04596C6.98047 3.55813 7.37725 3.16266 7.86671 3.16266L9.89529 3.17925L9.90528 1.13089C9.90528 0.578587 10.3545 0.130859 10.9087 0.130859C11.4628 0.130859 11.912 0.578587 11.912 1.13089L11.902 3.17925H13.9769C14.4664 3.17925 14.8632 3.57472 14.8632 4.06255Z" fill="url(#paint2_linear_7457_20003)"/>
<defs>
<linearGradient id="paint0_linear_7457_20003" x1="15.3792" y1="1.55839" x2="1.65362" y2="2.11414" gradientUnits="userSpaceOnUse">
<stop stop-color="#001F80"/>
<stop offset="1" stop-color="#0C61FF"/>
</linearGradient>
<linearGradient id="paint1_linear_7457_20003" x1="21.904" y1="9.08708" x2="-1.24436" y2="10.6496" gradientUnits="userSpaceOnUse">
<stop stop-color="#001F80"/>
<stop offset="1" stop-color="#0C61FF"/>
</linearGradient>
<linearGradient id="paint2_linear_7457_20003" x1="6.81178" y1="2.9328" x2="15.0645" y2="2.9772" gradientUnits="userSpaceOnUse">
<stop stop-color="#8FC93A"/>
<stop offset="1" stop-color="#3CD2A2"/>
</linearGradient>
</defs>
</svg>
