<svg width="41" height="41" viewBox="0 0 41 41" fill="none" xmlns="http://www.w3.org/2000/svg">
<rect x="0.5" y="0.264648" width="40" height="40" rx="20" fill="#C5D9FF"/>
<path d="M23.0288 19.3875L18.8389 18.1611C18.5747 18.0835 18.3474 17.9132 18.1985 17.6816C18.0496 17.4499 17.9892 17.1724 18.0284 16.8999C18.0675 16.6273 18.2036 16.378 18.4116 16.1976C18.6196 16.0172 18.8857 15.9179 19.1611 15.9177H21.7345C22.2079 15.918 22.6703 16.06 23.0623 16.3254C23.1783 16.401 23.3167 16.4346 23.4545 16.4205C23.5922 16.4064 23.721 16.3454 23.8193 16.2478L25.1703 14.928C25.2344 14.8641 25.2839 14.787 25.3155 14.7022C25.3472 14.6173 25.3601 14.5266 25.3534 14.4363C25.3467 14.346 25.3206 14.2582 25.2769 14.1789C25.2332 14.0995 25.1729 14.0306 25.1 13.9768C24.141 13.2269 22.9598 12.8172 21.7424 12.8121V10.951C21.7424 10.7858 21.6768 10.6274 21.56 10.5105C21.4432 10.3937 21.2848 10.3281 21.1196 10.3281H19.8768C19.7116 10.3281 19.5532 10.3937 19.4364 10.5105C19.3195 10.6274 19.2539 10.7858 19.2539 10.951V12.8127H19.1588C18.5678 12.8132 17.9834 12.937 17.4428 13.176C16.9023 13.4151 16.4175 13.7642 16.0195 14.201C15.6214 14.6379 15.3187 15.1529 15.1308 15.7133C14.9429 16.2737 14.8739 16.867 14.9281 17.4556C15.0357 18.3333 15.4027 19.1589 15.9822 19.8268C16.5617 20.4948 17.3272 20.9746 18.181 21.205L22.1597 22.3697C22.4239 22.4473 22.6513 22.6176 22.8001 22.8492C22.949 23.0808 23.0094 23.3584 22.9702 23.6309C22.9311 23.9035 22.795 24.1528 22.587 24.3331C22.379 24.5135 22.1129 24.6129 21.8375 24.613H19.2636C18.7902 24.6128 18.3277 24.4708 17.9358 24.2054C17.8198 24.1297 17.6813 24.0962 17.5436 24.1103C17.4058 24.1244 17.277 24.1853 17.1788 24.2829L15.8284 25.6022C15.7642 25.6661 15.7146 25.7431 15.683 25.828C15.6513 25.9128 15.6383 26.0035 15.6449 26.0938C15.6516 26.1841 15.6776 26.2719 15.7213 26.3513C15.7649 26.4306 15.8252 26.4995 15.898 26.5534C16.8571 27.3033 18.0382 27.713 19.2556 27.7181V29.5793C19.2556 29.7444 19.3212 29.9029 19.4381 30.0197C19.5549 30.1365 19.7133 30.2021 19.8785 30.2021H21.1207C21.2859 30.2021 21.4443 30.1365 21.5611 30.0197C21.6779 29.9029 21.7436 29.7444 21.7436 29.5793V27.7108C22.6329 27.712 23.5016 27.4427 24.2344 26.9387C24.9672 26.4347 25.5293 25.7197 25.8463 24.8888C26.0379 24.3433 26.1165 23.7645 26.0774 23.1876C26.0382 22.6108 25.8821 22.0479 25.6185 21.5333C25.355 21.0187 24.9895 20.5631 24.5443 20.1942C24.0991 19.8253 23.5835 19.5508 23.0288 19.3875Z" fill="#649AFF"/>
</svg>
