<svg width="24" height="25" viewBox="0 0 24 25" fill="none" xmlns="http://www.w3.org/2000/svg">
<path d="M4.63672 5.7918C4.63672 2.66431 7.17289 0.130859 10.2977 0.130859C13.4224 0.130859 15.9586 2.66431 15.9586 5.7918C15.9586 8.91657 13.4224 11.4527 10.2977 11.4527C7.17289 11.4527 4.63672 8.91657 4.63672 5.7918Z" fill="#0C61FF"/>
<path d="M19.8727 21.3632C17.0979 23.1127 13.8131 24.1299 10.2977 24.1299C6.78233 24.1299 3.49752 23.1127 0.722656 21.3632C1.12682 16.9717 4.48486 13.4373 8.78956 12.7592C9.28052 12.6806 9.78504 12.6426 10.295 12.6426C10.8076 12.6426 11.3122 12.6833 11.8031 12.7592C16.1105 13.4346 19.4686 16.9717 19.8727 21.3632Z" fill="#0C61FF"/>
<path d="M23.1265 9.99778L21.8748 8.68767C21.8267 8.63505 21.7679 8.5935 21.7037 8.5658C21.6395 8.5381 21.5699 8.52148 21.5004 8.52148C21.4309 8.52148 21.3613 8.53533 21.2945 8.56303C21.2303 8.59073 21.1714 8.63228 21.1206 8.68213L16.4081 13.5265L14.3621 11.3965C14.314 11.3439 14.2551 11.3023 14.1883 11.2746C14.1241 11.247 14.0545 11.2303 13.985 11.2303C13.9155 11.2303 13.8459 11.2442 13.7791 11.2719C13.7149 11.2996 13.656 11.3411 13.6052 11.391L12.3402 12.6872C12.2893 12.7371 12.2492 12.798 12.2225 12.8645C12.1957 12.931 12.1797 13.003 12.1797 13.075C12.1797 13.147 12.1931 13.219 12.2198 13.2883C12.2466 13.3548 12.2867 13.4157 12.3348 13.4683L16.0123 17.3045C16.0604 17.3571 16.1193 17.3986 16.1835 17.4263C16.2476 17.454 16.3172 17.4707 16.3867 17.4707C16.4563 17.4707 16.5258 17.4568 16.5927 17.4291C16.6568 17.4014 16.7157 17.3599 16.7665 17.31L23.1185 10.7816C23.2175 10.6791 23.2763 10.5379 23.2763 10.3911C23.2816 10.2443 23.2282 10.103 23.1265 9.99778Z" fill="#001F80"/>
</svg>

