<svg width="19" height="21" viewBox="0 0 19 21" fill="none" xmlns="http://www.w3.org/2000/svg">
<path d="M16.3979 2.18316H12.2445C12.0413 1.60199 11.6624 1.09839 11.1602 0.742066C10.6581 0.385746 10.0577 0.194336 9.442 0.194336C8.82631 0.194336 8.22585 0.385746 7.72375 0.742066C7.22165 1.09839 6.84274 1.60199 6.63949 2.18316H2.48724C1.96065 2.18465 1.45605 2.3945 1.0837 2.76686C0.711343 3.13922 0.501494 3.64381 0.5 4.1704V18.0811C0.501494 18.6076 0.711343 19.1122 1.0837 19.4846C1.45605 19.857 1.96065 20.0668 2.48724 20.0683H16.3979C16.9245 20.0668 17.4291 19.857 17.8014 19.4846C18.1738 19.1122 18.3836 18.6076 18.3851 18.0811V4.1704C18.3836 3.64381 18.1738 3.13922 17.8014 2.76686C17.4291 2.3945 16.9245 2.18465 16.3979 2.18316ZM9.4454 2.18316C9.6418 2.18372 9.83362 2.24247 9.99665 2.35199C10.1597 2.46151 10.2866 2.61689 10.3614 2.7985C10.4361 2.9801 10.4554 3.1798 10.4167 3.37235C10.3781 3.56491 10.2832 3.74169 10.1442 3.88037C10.0051 4.01905 9.82804 4.1134 9.63537 4.15151C9.44271 4.18962 9.24307 4.16978 9.06167 4.09449C8.88028 4.0192 8.72526 3.89185 8.61621 3.72851C8.50715 3.56517 8.44895 3.37318 8.44895 3.17678C8.4497 2.913 8.55501 2.66027 8.7418 2.47401C8.92859 2.28775 9.18161 2.18316 9.4454 2.18316ZM9.4454 6.15763C10.035 6.15763 10.6113 6.33246 11.1015 6.66C11.5917 6.98754 11.9737 7.45309 12.1994 7.99777C12.425 8.54245 12.484 9.1418 12.369 9.72003C12.254 10.2983 11.9701 10.8294 11.5532 11.2463C11.1363 11.6632 10.6052 11.9471 10.0269 12.0621C9.4487 12.1771 8.84935 12.1181 8.30467 11.8924C7.75999 11.6668 7.29445 11.2848 6.96691 10.7946C6.63937 10.3044 6.46454 9.72805 6.46454 9.13849C6.46402 8.74689 6.54077 8.35904 6.69038 7.99715C6.84 7.63526 7.05955 7.30645 7.33645 7.02954C7.61335 6.75264 7.94217 6.53309 8.30406 6.38348C8.66595 6.23386 9.0538 6.15711 9.4454 6.15763ZM15.4071 18.0811H3.48086V16.69C3.48086 14.7028 7.45533 13.6095 9.44257 13.6095C11.4298 13.6095 15.4043 14.7028 15.4043 16.69L15.4071 18.0811Z" fill="white"/>
</svg>
