<svg width="22" height="25" viewBox="0 0 22 25" fill="none" xmlns="http://www.w3.org/2000/svg">
<path d="M19.3977 2.53259H14.382C14.1366 1.83076 13.679 1.2226 13.0726 0.792304C12.4663 0.362008 11.7412 0.130859 10.9977 0.130859C10.2542 0.130859 9.52904 0.362008 8.9227 0.792304C8.31635 1.2226 7.85878 1.83076 7.61333 2.53259H2.59903C1.96311 2.53439 1.35376 2.7878 0.904099 3.23747C0.454438 3.68713 0.201023 4.29648 0.199219 4.93239V21.7311C0.201023 22.367 0.454438 22.9763 0.904099 23.426C1.35376 23.8756 1.96311 24.1291 2.59903 24.1309H19.3977C20.0336 24.1291 20.643 23.8756 21.0926 23.426C21.5423 22.9763 21.7957 22.367 21.7975 21.7311V4.93239C21.7957 4.29648 21.5423 3.68713 21.0926 3.23747C20.643 2.7878 20.0336 2.53439 19.3977 2.53259ZM11.0018 2.53259C11.2389 2.53326 11.4706 2.60421 11.6675 2.73647C11.8643 2.86872 12.0176 3.05636 12.1079 3.27567C12.1982 3.49498 12.2215 3.73613 12.1748 3.96867C12.1281 4.2012 12.0136 4.41468 11.8456 4.58215C11.6777 4.74962 11.4639 4.86356 11.2312 4.90958C10.9985 4.9556 10.7574 4.93164 10.5384 4.84073C10.3193 4.74981 10.1321 4.59601 10.0004 4.39876C9.86874 4.20152 9.79845 3.96966 9.79845 3.73249C9.79936 3.41394 9.92654 3.10875 10.1521 2.88382C10.3777 2.65889 10.6832 2.53258 11.0018 2.53259ZM11.0018 7.3322C11.7137 7.3322 12.4097 7.54332 13.0017 7.93886C13.5936 8.3344 14.055 8.8966 14.3275 9.55436C14.5999 10.2121 14.6712 10.9359 14.5323 11.6342C14.3934 12.3325 14.0506 12.9739 13.5472 13.4773C13.0437 13.9807 12.4023 14.3236 11.704 14.4625C11.0058 14.6014 10.282 14.5301 9.62422 14.2576C8.96646 13.9852 8.40427 13.5238 8.00872 12.9318C7.61318 12.3398 7.40206 11.6439 7.40206 10.9319C7.40143 10.459 7.49411 9.99064 7.67479 9.55362C7.85547 9.1166 8.1206 8.71952 8.45499 8.38513C8.78938 8.05074 9.18646 7.78561 9.62348 7.60493C10.0605 7.42425 10.5289 7.33157 11.0018 7.3322ZM18.2012 21.7311H3.79893V20.0512C3.79893 17.6514 8.59855 16.3311 10.9984 16.3311C13.3982 16.3311 18.1978 17.6514 18.1978 20.0512L18.2012 21.7311Z" fill="#0C61FF"/>
</svg>
