<svg width="16" height="18" viewBox="0 0 16 18" fill="none" xmlns="http://www.w3.org/2000/svg">
<path d="M11.8095 5.90975V4.83647C11.8095 3.6975 11.357 2.60519 10.5517 1.79982C9.74628 0.994445 8.65397 0.541992 7.515 0.541992C6.37603 0.541992 5.28372 0.994445 4.47834 1.79982C3.67297 2.60519 3.22052 3.6975 3.22052 4.83647V5.90975H0V15.0353C0 15.7472 0.282765 16.4298 0.78609 16.9331C1.28942 17.4365 1.97207 17.7192 2.68388 17.7192H12.3461C13.0579 17.7192 13.7406 17.4365 14.2439 16.9331C14.7472 16.4298 15.03 15.7472 15.03 15.0353V5.90975H11.8095ZM5.36776 4.83647C5.36776 4.26699 5.59399 3.72083 5.99667 3.31814C6.39936 2.91546 6.94552 2.68923 7.515 2.68923C8.08448 2.68923 8.63064 2.91546 9.03333 3.31814C9.43601 3.72083 9.66224 4.26699 9.66224 4.83647V5.90975H5.36776V4.83647ZM10.7355 8.86263C10.5763 8.86263 10.4207 8.81542 10.2883 8.72697C10.1559 8.63852 10.0528 8.5128 9.99183 8.36571C9.93091 8.21863 9.91497 8.05678 9.94603 7.90063C9.97709 7.74448 10.0538 7.60105 10.1663 7.48848C10.2789 7.3759 10.4223 7.29924 10.5785 7.26818C10.7346 7.23712 10.8965 7.25306 11.0436 7.31398C11.1907 7.37491 11.3164 7.47808 11.4048 7.61046C11.4933 7.74283 11.5405 7.89846 11.5405 8.05767C11.5405 8.27104 11.4558 8.47568 11.305 8.62662C11.1541 8.77756 10.9496 8.86245 10.7362 8.86263H10.7355ZM4.2938 8.86263C4.1346 8.86263 3.97896 8.81542 3.84659 8.72697C3.71421 8.63852 3.61104 8.5128 3.55011 8.36571C3.48919 8.21863 3.47325 8.05678 3.50431 7.90063C3.53537 7.74448 3.61203 7.60105 3.72461 7.48848C3.83718 7.3759 3.98061 7.29924 4.13676 7.26818C4.29291 7.23712 4.45476 7.25306 4.60185 7.31398C4.74893 7.37491 4.87465 7.47808 4.9631 7.61046C5.05155 7.74283 5.09876 7.89846 5.09876 8.05767C5.09876 8.27104 5.01405 8.47568 4.86323 8.62662C4.71242 8.77756 4.50785 8.86245 4.29448 8.86263H4.2938Z" fill="#c5d9ff"/>
</svg>
