<svg width="41" height="41" viewBox="0 0 41 41" fill="none" xmlns="http://www.w3.org/2000/svg">
<rect x="0.5" y="0.264648" width="40" height="40" rx="20" fill="#c5d9ff"/>
<path d="M25.5002 16.5145V15.2648C25.5002 13.9387 24.9733 12.6669 24.0356 11.7292C23.0979 10.7915 21.8261 10.2646 20.5 10.2646C19.1738 10.2646 17.902 10.7915 16.9643 11.7292C16.0266 12.6669 15.4998 13.9387 15.4998 15.2648V16.5145H11.75V27.1397C11.75 27.9685 12.0792 28.7633 12.6653 29.3494C13.2513 29.9354 14.0461 30.2646 14.8749 30.2646H26.125C26.9538 30.2646 27.7486 29.9354 28.3346 29.3494C28.9207 28.7633 29.2499 27.9685 29.2499 27.1397V16.5145H25.5002ZM17.9999 15.2648C17.9999 14.6018 18.2633 13.9659 18.7321 13.497C19.201 13.0281 19.8369 12.7647 20.5 12.7647C21.163 12.7647 21.7989 13.0281 22.2678 13.497C22.7366 13.9659 23.0001 14.6018 23.0001 15.2648V16.5145H17.9999V15.2648ZM24.2497 19.9526C24.0643 19.9526 23.8831 19.8977 23.729 19.7947C23.5749 19.6917 23.4547 19.5453 23.3838 19.3741C23.3129 19.2028 23.2943 19.0143 23.3305 18.8325C23.3666 18.6507 23.4559 18.4837 23.587 18.3527C23.7181 18.2216 23.8851 18.1323 24.0669 18.0962C24.2487 18.06 24.4371 18.0786 24.6084 18.1495C24.7796 18.2204 24.926 18.3406 25.029 18.4947C25.132 18.6488 25.1869 18.83 25.1869 19.0154C25.1869 19.2638 25.0883 19.5021 24.9127 19.6778C24.7371 19.8536 24.4989 19.9524 24.2505 19.9526H24.2497ZM16.7494 19.9526C16.564 19.9526 16.3828 19.8977 16.2287 19.7947C16.0746 19.6917 15.9544 19.5453 15.8835 19.3741C15.8126 19.2028 15.794 19.0143 15.8302 18.8325C15.8663 18.6507 15.9556 18.4837 16.0867 18.3527C16.2178 18.2216 16.3848 18.1323 16.5666 18.0962C16.7484 18.06 16.9368 18.0786 17.1081 18.1495C17.2793 18.2204 17.4257 18.3406 17.5287 18.4947C17.6317 18.6488 17.6867 18.83 17.6867 19.0154C17.6867 19.2638 17.588 19.5021 17.4124 19.6778C17.2368 19.8536 16.9986 19.9524 16.7502 19.9526H16.7494Z" fill="#649aff"/>
</svg>
