<svg width="14" height="25" viewBox="0 0 14 25" fill="none" xmlns="http://www.w3.org/2000/svg">
<path d="M10.0542 11.071L4.99439 9.59001C4.67536 9.49627 4.4008 9.2907 4.22103 9.01098C4.04127 8.73125 3.96833 8.3961 4.0156 8.06697C4.06287 7.73784 4.22717 7.43676 4.4784 7.21893C4.72962 7.0011 5.05094 6.88111 5.38345 6.88095H8.49114C9.06279 6.88121 9.62126 7.05268 10.0946 7.37325C10.2347 7.46458 10.4018 7.5051 10.5682 7.48805C10.7346 7.471 10.8901 7.39742 11.0088 7.27958L12.6402 5.68573C12.7176 5.60851 12.7775 5.51547 12.8157 5.41299C12.8538 5.3105 12.8694 5.20099 12.8614 5.09192C12.8533 4.98285 12.8218 4.87681 12.769 4.78104C12.7162 4.68527 12.6434 4.60203 12.5554 4.53701C11.3972 3.63149 9.97086 3.13671 8.50072 3.13052V0.882996C8.50072 0.683517 8.42147 0.492208 8.28042 0.351155C8.13937 0.210102 7.94806 0.130859 7.74858 0.130859L6.24772 0.130859C6.04824 0.130859 5.85694 0.210102 5.71588 0.351155C5.57483 0.492208 5.49559 0.683517 5.49559 0.882996V3.1312H5.38071C4.66698 3.1319 3.96124 3.28135 3.30849 3.57004C2.65575 3.85872 2.07034 4.28028 1.58962 4.80784C1.1089 5.3354 0.743419 5.95737 0.516494 6.63406C0.289568 7.31075 0.206182 8.02732 0.271654 8.73804C0.401593 9.79796 0.844807 10.795 1.54459 11.6016C2.24437 12.4082 3.16889 12.9877 4.19986 13.2659L9.00465 14.6724C9.32367 14.7661 9.59823 14.9717 9.778 15.2514C9.95777 15.5312 10.0307 15.8663 9.98344 16.1954C9.93617 16.5246 9.77186 16.8256 9.52064 17.0435C9.26941 17.2613 8.9481 17.3813 8.61559 17.3815H5.50721C4.93556 17.3812 4.37709 17.2097 3.90379 16.8892C3.76369 16.7978 3.5965 16.7573 3.43013 16.7744C3.26377 16.7914 3.10827 16.865 2.9896 16.9828L1.35883 18.576C1.28136 18.6532 1.22146 18.7462 1.18323 18.8486C1.14501 18.9511 1.12935 19.0606 1.13734 19.1696C1.14532 19.2787 1.17676 19.3848 1.2295 19.4806C1.28224 19.5764 1.35505 19.6596 1.44294 19.7247C2.60112 20.6302 4.02749 21.125 5.49764 21.1312V23.3787C5.49764 23.5782 5.57688 23.7695 5.71793 23.9106C5.85899 24.0516 6.0503 24.1309 6.24977 24.1309H7.74995C7.94943 24.1309 8.14073 24.0516 8.28179 23.9106C8.42284 23.7695 8.50208 23.5782 8.50208 23.3787V21.1223C9.57609 21.1238 10.6252 20.7986 11.5101 20.1899C12.3949 19.5813 13.0738 18.7179 13.4566 17.7145C13.688 17.0557 13.7829 16.3567 13.7356 15.6601C13.6884 14.9635 13.4998 14.2838 13.1816 13.6623C12.8633 13.0409 12.4219 12.4907 11.8843 12.0452C11.3466 11.5997 10.724 11.2683 10.0542 11.071Z" fill="#0C61FF"/>
</svg>
