<svg width="18" height="25" viewBox="0 0 18 25" fill="none" xmlns="http://www.w3.org/2000/svg">
<path d="M15.7495 3.13082H11.9998C11.9998 2.33518 11.6838 1.57213 11.1212 1.00953C10.5586 0.446925 9.79551 0.130859 8.99987 0.130859C8.20423 0.130859 7.44118 0.446925 6.87858 1.00953C6.31598 1.57213 5.99991 2.33518 5.99991 3.13082H2.25022C1.65343 3.13082 1.08107 3.36789 0.659075 3.78989C0.237077 4.21189 0 4.78425 0 5.38104L0 21.8806C0 22.4774 0.237077 23.0498 0.659075 23.4718C1.08107 23.8938 1.65343 24.1309 2.25022 24.1309H15.7495C16.3463 24.1309 16.9187 23.8938 17.3407 23.4718C17.7627 23.0498 17.9997 22.4774 17.9997 21.8806V5.38104C17.9997 4.78425 17.7627 4.21189 17.3407 3.78989C16.9187 3.36789 16.3463 3.13082 15.7495 3.13082ZM8.99953 2.00605C9.22199 2.00605 9.43945 2.07201 9.62442 2.1956C9.80939 2.3192 9.95355 2.49486 10.0387 2.70039C10.1238 2.90591 10.1461 3.13207 10.1027 3.35025C10.0593 3.56843 9.95216 3.76885 9.79486 3.92615C9.63756 4.08345 9.43715 4.19058 9.21896 4.23398C9.00078 4.27738 8.77462 4.2551 8.5691 4.16997C8.36357 4.08484 8.18791 3.94067 8.06432 3.75571C7.94073 3.57074 7.87476 3.35328 7.87476 3.13082C7.8744 2.98301 7.90324 2.83659 7.95964 2.69996C8.01604 2.56333 8.09888 2.4392 8.20339 2.33468C8.30791 2.23016 8.43205 2.14733 8.56867 2.09093C8.7053 2.03453 8.85172 2.00569 8.99953 2.00605ZM14.6808 12.8715L7.98006 19.5183C7.92747 19.5703 7.86514 19.6115 7.79663 19.6394C7.72812 19.6674 7.65477 19.6815 7.58078 19.6811C7.50679 19.6806 7.43362 19.6656 7.36544 19.6369C7.29727 19.6081 7.23544 19.5662 7.18349 19.5135L3.30935 15.6093C3.2573 15.5567 3.21613 15.4944 3.18819 15.4258C3.16025 15.3573 3.1461 15.284 3.14655 15.21C3.14699 15.136 3.16202 15.0628 3.19078 14.9947C3.21954 14.9265 3.26146 14.8647 3.31414 14.8127L4.6454 13.491C4.69799 13.439 4.76032 13.3978 4.82883 13.3698C4.89734 13.3419 4.97069 13.3278 5.04468 13.3282C5.11867 13.3287 5.19184 13.3437 5.26002 13.3724C5.32819 13.4012 5.39002 13.4431 5.44197 13.4958L7.59852 15.6708L12.5673 10.7396C12.6199 10.6875 12.6823 10.6464 12.7508 10.6184C12.8193 10.5905 12.8926 10.5763 12.9666 10.5768C13.0406 10.5772 13.1138 10.5923 13.182 10.621C13.2501 10.6498 13.312 10.6917 13.3639 10.7444L14.6856 12.0756C14.7376 12.1282 14.7786 12.1905 14.8065 12.259C14.8344 12.3274 14.8485 12.4007 14.8481 12.4746C14.8476 12.5485 14.8326 12.6216 14.8039 12.6897C14.7752 12.7578 14.7334 12.8196 14.6808 12.8715Z" fill="#0C61FF"/>
</svg>
