<svg width="26" height="26" viewBox="0 0 26 26" fill="none" xmlns="http://www.w3.org/2000/svg">
<rect x="0.25" y="0.130859" width="25" height="25" rx="12.5" fill="#0C61FF"/>
<path d="M9.21094 8.67053C9.21094 6.71606 10.7959 5.13281 12.7487 5.13281C14.7014 5.13281 16.2864 6.71606 16.2864 8.67053C16.2864 10.6233 14.7014 12.2082 12.7487 12.2082C10.7959 12.2082 9.21094 10.6233 9.21094 8.67053Z" fill="white"/>
<path d="M18.7332 18.401C16.9991 19.4943 14.9463 20.13 12.7494 20.13C10.5525 20.13 8.49973 19.4943 6.76562 18.401C7.0182 15.6566 9.11676 13.4478 11.8069 13.0241C12.1137 12.9749 12.429 12.9512 12.7477 12.9512C13.0681 12.9512 13.3834 12.9766 13.6902 13.0241C16.382 13.4461 18.4806 15.6566 18.7332 18.401Z" fill="white"/>
</svg>
