<svg width="12" height="21" viewBox="0 0 12 21" fill="none" xmlns="http://www.w3.org/2000/svg">
<path d="M8.11869 9.25369L3.92874 8.02728C3.66456 7.94966 3.4372 7.77943 3.28834 7.5478C3.13948 7.31616 3.07908 7.03863 3.11822 6.76608C3.15737 6.49353 3.29342 6.24422 3.50146 6.06384C3.70949 5.88346 3.97557 5.78409 4.25091 5.78396H6.82434C7.29771 5.78417 7.76017 5.92617 8.1521 6.19163C8.26812 6.26725 8.40656 6.30081 8.54432 6.28669C8.68209 6.27257 8.81085 6.21164 8.90912 6.11406L10.2601 4.79422C10.3242 4.73027 10.3738 4.65323 10.4054 4.56837C10.437 4.4835 10.4499 4.39281 10.4432 4.3025C10.4366 4.21218 10.4105 4.12437 10.3668 4.04507C10.323 3.96576 10.2627 3.89683 10.1899 3.84299C9.23081 3.09315 8.04966 2.68343 6.83226 2.6783V0.817167C6.83226 0.651982 6.76664 0.493562 6.64984 0.376759C6.53304 0.259955 6.37462 0.194336 6.20943 0.194336L4.9666 0.194336C4.80142 0.194336 4.643 0.259955 4.5262 0.376759C4.40939 0.493562 4.34377 0.651982 4.34377 0.817167V2.67886H4.24865C3.65762 2.67944 3.07321 2.8032 2.53268 3.04225C1.99216 3.2813 1.50739 3.6304 1.10932 4.06726C0.71124 4.50412 0.408591 5.01916 0.220678 5.57952C0.0327659 6.13987 -0.0362848 6.73325 0.0179316 7.32178C0.125531 8.19948 0.492548 9.02511 1.07202 9.69305C1.6515 10.361 2.41708 10.8408 3.27081 11.0712L7.24956 12.2359C7.51374 12.3135 7.7411 12.4838 7.88996 12.7154C8.03883 12.947 8.09922 13.2246 8.06008 13.4971C8.02094 13.7697 7.88488 14.019 7.67684 14.1994C7.46881 14.3797 7.20273 14.4791 6.92739 14.4792H4.3534C3.88003 14.479 3.41757 14.337 3.02564 14.0716C2.90962 13.9959 2.77118 13.9624 2.63341 13.9765C2.49564 13.9906 2.36688 14.0516 2.26861 14.1491L0.918205 15.4684C0.85405 15.5323 0.80445 15.6093 0.772794 15.6942C0.741138 15.779 0.728174 15.8697 0.734786 15.96C0.741398 16.0503 0.767432 16.1381 0.811107 16.2175C0.854782 16.2968 0.91507 16.3658 0.987849 16.4196C1.94692 17.1695 3.12807 17.5792 4.34547 17.5843V19.4455C4.34547 19.6106 4.41109 19.7691 4.52789 19.8859C4.6447 20.0027 4.80312 20.0683 4.9683 20.0683H6.21057C6.37575 20.0683 6.53417 20.0027 6.65097 19.8859C6.76778 19.7691 6.8334 19.6106 6.8334 19.4455V17.577C7.72276 17.5782 8.59147 17.3089 9.32424 16.8049C10.057 16.3009 10.6192 15.5859 10.9362 14.755C11.1277 14.2095 11.2064 13.6307 11.1672 13.0538C11.128 12.477 10.9719 11.9141 10.7084 11.3995C10.4448 10.8849 10.0793 10.4293 9.63412 10.0604C9.18892 9.69149 8.67332 9.41702 8.11869 9.25369Z" fill="#BBBBBB"/>
</svg>
