<svg width="16" height="17" viewBox="0 0 16 17" fill="none" xmlns="http://www.w3.org/2000/svg">
<path d="M6.31111 11.3309L7.55556 12.5753L12 8.13086L7.55556 3.68642L6.31111 4.93086L8.62222 7.24197H0V9.01975H8.57755L6.31111 11.3309ZM14.2222 0.130859H1.77778C1.30669 0.132182 0.855272 0.319909 0.522161 0.65302C0.189049 0.986132 0.00132312 1.43755 0 1.90864V5.46419H1.77778V1.90864H14.2222V14.3531H1.77778V10.7975H0V14.3531C0.00132312 14.8242 0.189049 15.2756 0.522161 15.6087C0.855272 15.9418 1.30669 16.1295 1.77778 16.1309H14.2222C14.6933 16.1295 15.1447 15.9418 15.4778 15.6087C15.811 15.2756 15.9987 14.8242 16 14.3531V1.90864C15.9987 1.43755 15.811 0.986132 15.4778 0.65302C15.1447 0.319909 14.6933 0.132182 14.2222 0.130859Z" fill="white"/>
</svg>
