<svg width="26" height="26" viewBox="0 0 26 26" fill="none" xmlns="http://www.w3.org/2000/svg">
<rect x="0.5" y="0.130859" width="25" height="25" rx="12.5" fill="#0C61FF"/>
<path d="M11.8047 8.11764C11.8047 6.33423 13.2502 4.88867 15.0337 4.88867C16.8171 4.88867 18.2626 6.33423 18.2626 8.11764C18.2626 9.90105 16.8171 11.3466 15.0337 11.3466C13.2519 11.3483 11.8047 9.90273 11.8047 8.11764Z" fill="#02278F"/>
<path d="M20.4999 17.0025C18.9165 18.0009 17.0424 18.5808 15.0371 18.5808C13.0301 18.5808 11.1576 18.0009 9.57422 17.0025C9.8045 14.498 11.7207 12.4792 14.1781 12.0926C14.4588 12.0489 14.7446 12.0254 15.0371 12.0254C15.3295 12.0254 15.617 12.0489 15.8977 12.0926C18.3534 12.4809 20.2696 14.498 20.4999 17.0025Z" fill="#02278F"/>
<path d="M7.98047 8.75132C7.98047 6.76948 9.58588 5.16406 11.5677 5.16406C13.5479 5.16406 15.155 6.76948 15.155 8.75132C15.155 10.7314 13.5496 12.3386 11.5677 12.3386C9.58588 12.3386 7.98047 10.7314 7.98047 8.75132Z" fill="white"/>
<path d="M17.6351 18.6199C15.8767 19.7285 13.7952 20.3731 11.5676 20.3731C9.33993 20.3731 7.25839 19.7285 5.5 18.6199C5.75611 15.837 7.88406 13.5974 10.6119 13.1677C10.923 13.1178 11.2427 13.0938 11.5659 13.0938C11.8907 13.0938 12.2104 13.1195 12.5215 13.1677C15.2511 13.5957 17.379 15.837 17.6351 18.6199Z" fill="white"/>
</svg>
