<svg width="20" height="25" viewBox="0 0 20 25" fill="none" xmlns="http://www.w3.org/2000/svg">
<path d="M4.33984 5.79197C4.33984 2.66439 6.87609 0.130859 10.001 0.130859C13.1258 0.130859 15.6621 2.66439 15.6621 5.79197C15.6621 8.91684 13.1258 11.4531 10.001 11.4531C6.87609 11.4531 4.33984 8.91684 4.33984 5.79197Z" fill="#0C61FF"/>
<path d="M19.5765 21.3635C16.8015 23.1131 13.5166 24.1303 10.0011 24.1303C6.48564 24.1303 3.20073 23.1131 0.425781 21.3635C0.829953 16.9718 4.1881 13.4374 8.49293 12.7592C8.98391 12.6806 9.48844 12.6426 9.9984 12.6426C10.5111 12.6426 11.0156 12.6833 11.5066 12.7592C15.8141 13.4346 19.1723 16.9718 19.5765 21.3635Z" fill="#0C61FF"/>
</svg>

