<svg width="18" height="21" viewBox="0 0 18 21" fill="none" xmlns="http://www.w3.org/2000/svg">
<path d="M15.8979 2.18316H11.7445C11.5413 1.60199 11.1624 1.09839 10.6602 0.742066C10.1581 0.385746 9.55769 0.194336 8.942 0.194336C8.32631 0.194336 7.72585 0.385746 7.22375 0.742066C6.72165 1.09839 6.34274 1.60199 6.13949 2.18316H1.98724C1.46065 2.18465 0.956055 2.3945 0.583699 2.76686C0.211343 3.13922 0.00149388 3.64381 0 4.1704V18.0811C0.00149388 18.6076 0.211343 19.1122 0.583699 19.4846C0.956055 19.857 1.46065 20.0668 1.98724 20.0683H15.8979C16.4245 20.0668 16.9291 19.857 17.3014 19.4846C17.6738 19.1122 17.8836 18.6076 17.8851 18.0811V4.1704C17.8836 3.64381 17.6738 3.13922 17.3014 2.76686C16.9291 2.3945 16.4245 2.18465 15.8979 2.18316ZM8.9454 2.18316C9.1418 2.18372 9.33362 2.24247 9.49665 2.35199C9.65968 2.46151 9.78659 2.61689 9.86136 2.7985C9.93613 2.9801 9.95541 3.1798 9.91675 3.37235C9.87809 3.56491 9.78323 3.74169 9.64416 3.88037C9.50509 4.01905 9.32804 4.1134 9.13537 4.15151C8.94271 4.18962 8.74307 4.16978 8.56167 4.09449C8.38028 4.0192 8.22526 3.89185 8.11621 3.72851C8.00715 3.56517 7.94895 3.37318 7.94895 3.17678C7.9497 2.913 8.05501 2.66027 8.2418 2.47401C8.42859 2.28775 8.68161 2.18316 8.9454 2.18316ZM8.9454 6.15763C9.53496 6.15763 10.1113 6.33246 10.6015 6.66C11.0917 6.98754 11.4737 7.45309 11.6994 7.99777C11.925 8.54245 11.984 9.1418 11.869 9.72003C11.754 10.2983 11.4701 10.8294 11.0532 11.2463C10.6363 11.6632 10.1052 11.9471 9.52693 12.0621C8.9487 12.1771 8.34935 12.1181 7.80467 11.8924C7.25999 11.6668 6.79445 11.2848 6.46691 10.7946C6.13937 10.3044 5.96454 9.72805 5.96454 9.13849C5.96402 8.74689 6.04077 8.35904 6.19038 7.99715C6.34 7.63526 6.55955 7.30645 6.83645 7.02954C7.11335 6.75264 7.44217 6.53309 7.80406 6.38348C8.16595 6.23386 8.5538 6.15711 8.9454 6.15763ZM14.9071 18.0811H2.98086V16.69C2.98086 14.7028 6.95533 13.6095 8.94257 13.6095C10.9298 13.6095 14.9043 14.7028 14.9043 16.69L14.9071 18.0811Z" fill="#BBBBBB"/>
</svg>
