<svg width="41" height="41" viewBox="0 0 41 41" fill="none" xmlns="http://www.w3.org/2000/svg">
<rect x="0.5" y="0.264648" width="40" height="40" rx="20" fill="#C5D9FF"/>
<path d="M11.5 26.2646V20.2646C11.5 17.8777 12.4482 15.5885 14.136 13.9007C15.8239 12.2129 18.1131 11.2646 20.5 11.2646C22.8869 11.2646 25.1761 12.2129 26.864 13.9007C28.5518 15.5885 29.5 17.8777 29.5 20.2646V26.2646" stroke="#649AFF" stroke-width="3" stroke-linecap="round" stroke-linejoin="round"/>
<path d="M29.5 27.2646C29.5 27.7951 29.2893 28.3038 28.9142 28.6789C28.5391 29.0539 28.0304 29.2646 27.5 29.2646H26.5C25.9696 29.2646 25.4609 29.0539 25.0858 28.6789C24.7107 28.3038 24.5 27.7951 24.5 27.2646V24.2646C24.5 23.7342 24.7107 23.2255 25.0858 22.8504C25.4609 22.4754 25.9696 22.2646 26.5 22.2646H29.5V27.2646ZM11.5 27.2646C11.5 27.7951 11.7107 28.3038 12.0858 28.6789C12.4609 29.0539 12.9696 29.2646 13.5 29.2646H14.5C15.0304 29.2646 15.5391 29.0539 15.9142 28.6789C16.2893 28.3038 16.5 27.7951 16.5 27.2646V24.2646C16.5 23.7342 16.2893 23.2255 15.9142 22.8504C15.5391 22.4754 15.0304 22.2646 14.5 22.2646H11.5V27.2646Z" stroke="#649AFF" stroke-width="3" stroke-linecap="round" stroke-linejoin="round"/>
</svg>
