<svg width="22" height="25" viewBox="0 0 22 25" fill="none" xmlns="http://www.w3.org/2000/svg">
<path d="M17.0491 7.63068V6.1311C17.0491 4.53973 16.4116 3.01355 15.2769 1.88829C14.1422 0.763025 12.6031 0.130859 10.9984 0.130859C9.39365 0.130859 7.85463 0.763025 6.71991 1.88829C5.58518 3.01355 4.9477 4.53973 4.9477 6.1311V7.63068H0.410156V20.3809C0.410156 21.3755 0.808557 22.3293 1.51772 23.0325C2.22687 23.7358 3.1887 24.1309 4.1916 24.1309H17.8052C18.8081 24.1309 19.7699 23.7358 20.4791 23.0325C21.1882 22.3293 21.5866 21.3755 21.5866 20.3809V7.63068H17.0491ZM7.97305 6.1311C7.97305 5.33541 8.29179 4.57232 8.85915 4.00969C9.42651 3.44706 10.196 3.13098 10.9984 3.13098C11.8008 3.13098 12.5703 3.44706 13.1376 4.00969C13.705 4.57232 14.0237 5.33541 14.0237 6.1311V7.63068H7.97305V6.1311ZM15.5359 11.7564C15.3116 11.7564 15.0923 11.6905 14.9058 11.5669C14.7193 11.4433 14.574 11.2677 14.4881 11.0621C14.4023 10.8566 14.3798 10.6305 14.4236 10.4123C14.4673 10.1942 14.5754 9.99376 14.734 9.83647C14.8926 9.67918 15.0947 9.57207 15.3147 9.52867C15.5347 9.48527 15.7627 9.50755 15.97 9.59267C16.1772 9.6778 16.3543 9.82195 16.4789 10.0069C16.6036 10.1919 16.6701 10.4093 16.6701 10.6317C16.6701 10.9299 16.5507 11.2158 16.3382 11.4267C16.1257 11.6376 15.8366 11.7562 15.5359 11.7564ZM6.4599 11.7564C6.23558 11.7564 6.01631 11.6905 5.8298 11.5669C5.64329 11.4433 5.49792 11.2677 5.41208 11.0621C5.32624 10.8566 5.30378 10.6305 5.34754 10.4123C5.3913 10.1942 5.49932 9.99376 5.65793 9.83647C5.81655 9.67918 6.01863 9.57207 6.23863 9.52867C6.45864 9.48527 6.68668 9.50755 6.89391 9.59267C7.10115 9.6778 7.27828 9.82195 7.4029 10.0069C7.52753 10.1919 7.59404 10.4093 7.59404 10.6317C7.59404 10.9299 7.47468 11.2158 7.2622 11.4267C7.04971 11.6376 6.76052 11.7562 6.4599 11.7564Z" fill="#BBBBBB"/>
</svg>

