<svg width="25" height="26" viewBox="0 0 25 26" fill="none" xmlns="http://www.w3.org/2000/svg">
<rect x="0.25" y="0.130859" width="24" height="25" rx="12" fill="#BBBBBB"/>
<path d="M16.5359 9.44323V8.38103C16.5359 7.25381 16.0844 6.17277 15.2806 5.3757C14.4768 4.57864 13.3867 4.13086 12.25 4.13086C11.1133 4.13086 10.0232 4.57864 9.21941 5.3757C8.41564 6.17277 7.96409 7.25381 7.96409 8.38103V9.44323H4.75V18.4747C4.75 19.1791 5.0322 19.8547 5.53452 20.3529C6.03684 20.851 6.71813 21.1309 7.42852 21.1309H17.0715C17.7819 21.1309 18.4632 20.851 18.9655 20.3529C19.4678 19.8547 19.75 19.1791 19.75 18.4747V9.44323H16.5359ZM10.107 8.38103C10.107 7.81742 10.3328 7.2769 10.7347 6.87837C11.1366 6.47984 11.6817 6.25594 12.25 6.25594C12.8183 6.25594 13.3634 6.47984 13.7653 6.87837C14.1672 7.2769 14.393 7.81742 14.393 8.38103V9.44323H10.107V8.38103ZM15.4641 12.3656C15.3052 12.3656 15.1499 12.3189 15.0178 12.2314C14.8857 12.1438 14.7827 12.0194 14.7219 11.8739C14.6611 11.7283 14.6452 11.5681 14.6762 11.4136C14.7072 11.259 14.7837 11.1171 14.896 11.0057C15.0084 10.8943 15.1515 10.8184 15.3074 10.7876C15.4632 10.7569 15.6247 10.7727 15.7715 10.833C15.9183 10.8933 16.0438 10.9954 16.1321 11.1264C16.2203 11.2574 16.2674 11.4114 16.2674 11.569C16.2674 11.7802 16.1829 11.9827 16.0324 12.1321C15.8819 12.2815 15.6777 12.3655 15.4648 12.3656H15.4641ZM9.03523 12.3656C8.87634 12.3656 8.72102 12.3189 8.58891 12.2314C8.4568 12.1438 8.35383 12.0194 8.29303 11.8739C8.23222 11.7283 8.21632 11.5681 8.24731 11.4136C8.27831 11.259 8.35482 11.1171 8.46717 11.0057C8.57953 10.8943 8.72267 10.8184 8.8785 10.7876C9.03434 10.7569 9.19587 10.7727 9.34266 10.833C9.48946 10.8933 9.61492 10.9954 9.7032 11.1264C9.79147 11.2574 9.83859 11.4114 9.83859 11.569C9.83859 11.7802 9.75404 11.9827 9.60353 12.1321C9.45302 12.2815 9.24885 12.3655 9.03591 12.3656H9.03523Z" fill="#878787"/>
</svg>
