<svg width="276" height="130" viewBox="0 0 276 130" fill="none" xmlns="http://www.w3.org/2000/svg">
<path d="M263.885 0.0175781H12.115C5.5187 0.0175781 0.171387 5.36489 0.171387 11.9611V117.542C0.171387 124.139 5.5187 129.486 12.115 129.486H263.885C270.482 129.486 275.829 124.139 275.829 117.542V11.9611C275.829 5.36489 270.482 0.0175781 263.885 0.0175781Z" fill="white"/>
<path d="M263.885 0.257812H12.1151C5.65077 0.257812 0.4104 5.49818 0.4104 11.9625V117.544C0.4104 124.008 5.65077 129.248 12.1151 129.248H263.885C270.35 129.248 275.59 124.008 275.59 117.544V11.9625C275.59 5.49818 270.35 0.257812 263.885 0.257812Z" fill="#E6E6E6"/>
<path d="M149.802 64.5445L129.643 53.5147L130.03 76.2532L149.802 64.5445ZM159.457 64.3804L125.392 84.5526L124.726 45.3777L159.457 64.3804Z" fill="#706666"/>
<path d="M138.823 101.53C159.271 101.182 175.566 84.3239 175.218 63.8756C174.871 43.4272 158.012 27.1323 137.564 27.4799C117.115 27.8276 100.821 44.6861 101.168 65.1344C101.516 85.5828 118.374 101.878 138.823 101.53Z" stroke="#706666" stroke-width="6"/>
</svg>
