<svg width="33" height="33" viewBox="0 0 33 33" fill="none" xmlns="http://www.w3.org/2000/svg">
<rect x="0.699951" y="0.130859" width="32" height="32" rx="16" fill="#001F80"/>
<path d="M16.7017 12.0261C16.154 12.0117 15.6089 12.1071 15.0986 12.3068C14.5884 12.5064 14.1233 12.8063 13.7307 13.1886C13.3382 13.5709 13.0263 14.028 12.8133 14.5328C12.6002 15.0377 12.4905 15.5801 12.4905 16.128C12.4905 16.676 12.6002 17.2184 12.8133 17.7232C13.0263 18.228 13.3382 18.6851 13.7307 19.0674C14.1233 19.4498 14.5884 19.7496 15.0986 19.9493C15.6089 20.1489 16.154 20.2444 16.7017 20.23C17.2495 20.2444 17.7946 20.1489 18.3049 19.9493C18.8151 19.7496 19.2802 19.4498 19.6727 19.0674C20.0653 18.6851 20.3772 18.228 20.5902 17.7232C20.8032 17.2184 20.913 16.676 20.913 16.128C20.913 15.5801 20.8032 15.0377 20.5902 14.5328C20.3772 14.028 20.0653 13.5709 19.6727 13.1886C19.2802 12.8063 18.8151 12.5064 18.3049 12.3068C17.7946 12.1071 17.2495 12.0117 16.7017 12.0261ZM16.7017 18.7946C16.1772 18.7816 15.6681 18.6142 15.2382 18.3133C14.8083 18.0124 14.4768 17.5914 14.285 17.103C14.0932 16.6146 14.0497 16.0804 14.16 15.5674C14.2703 15.0544 14.5295 14.5854 14.9051 14.219C15.2807 13.8525 15.756 13.605 16.2716 13.5074C16.7871 13.4098 17.32 13.4665 17.8036 13.6702C18.2871 13.874 18.6998 14.2159 18.99 14.6531C19.2801 15.0902 19.4349 15.6033 19.435 16.128C19.4247 16.8436 19.1313 17.526 18.619 18.0257C18.1068 18.5255 17.4174 18.802 16.7017 18.7946ZM22.0582 11.8608C22.063 12.0558 22.0096 12.2477 21.9048 12.4122C21.8 12.5766 21.6485 12.706 21.4698 12.784C21.291 12.8619 21.0931 12.8848 20.9013 12.8498C20.7095 12.8147 20.5325 12.7232 20.3929 12.5871C20.2533 12.4509 20.1575 12.2762 20.1176 12.0853C20.0778 11.8945 20.0957 11.696 20.1692 11.5154C20.2427 11.3348 20.3683 11.1801 20.5301 11.0713C20.6919 10.9624 20.8824 10.9042 21.0774 10.9041C21.2047 10.9023 21.3311 10.9256 21.4494 10.9727C21.5677 11.0198 21.6755 11.0898 21.7666 11.1787C21.8577 11.2676 21.9304 11.3736 21.9805 11.4907C22.0305 11.6077 22.0569 11.7335 22.0582 11.8608ZM24.8425 12.8317C24.8547 12.213 24.7439 11.5981 24.5165 11.0226C24.2891 10.4471 23.9496 9.92257 23.5178 9.47938C22.5802 8.62446 21.3503 8.16195 20.0817 8.18724C18.7279 8.11207 14.6699 8.11207 13.3161 8.18724C12.0487 8.16011 10.8192 8.62062 9.88148 9.47371C9.45031 9.91738 9.11126 10.442 8.88389 11.0174C8.65651 11.5928 8.54532 12.2075 8.55671 12.826C8.48012 14.1473 8.48012 18.1059 8.55671 19.4272C8.54411 20.0463 8.65475 20.6618 8.88218 21.2378C9.10961 21.8138 9.44929 22.3388 9.88148 22.7823C10.8194 23.6367 12.049 24.0991 13.3175 24.0745C14.6713 24.1497 18.7293 24.1497 20.0832 24.0745C21.352 24.1029 22.5828 23.6399 23.5185 22.7823C23.9489 22.3382 24.2875 21.8134 24.5148 21.2382C24.7422 20.6629 24.8538 20.0485 24.8432 19.43C24.9198 18.1088 24.9198 14.1536 24.8432 12.8346L24.8425 12.8317ZM23.0937 20.8455C22.9517 21.1924 22.7399 21.5063 22.4715 21.7679C22.2031 22.0294 21.8838 22.233 21.5334 22.366C20.4541 22.7838 17.8925 22.6873 16.6996 22.6873C15.5068 22.6873 12.9409 22.7802 11.8658 22.366C11.5154 22.233 11.1961 22.0294 10.9277 21.7679C10.6593 21.5063 10.4476 21.1924 10.3056 20.8455C9.88006 19.7924 9.97651 17.2932 9.97651 16.1294C9.97651 14.9657 9.88148 12.4629 10.3056 11.4133C10.4476 11.0665 10.6593 10.7526 10.9277 10.491C11.1961 10.2294 11.5154 10.0258 11.8658 9.89284C12.9452 9.47513 15.5068 9.57158 16.6996 9.57158C17.8925 9.57158 20.4583 9.47867 21.5334 9.89284C21.8838 10.0258 22.2031 10.2294 22.4715 10.491C22.7399 10.7526 22.9517 11.0665 23.0937 11.4133C23.5192 12.4665 23.4227 14.9657 23.4227 16.1294C23.4227 17.2932 23.522 19.7945 23.0937 20.8441V20.8455Z" fill="white"/>
</svg>
