<svg width="33" height="33" viewBox="0 0 33 33" fill="none" xmlns="http://www.w3.org/2000/svg">
<rect x="0.699951" y="0.130859" width="32" height="32" rx="16" fill="#001F80"/>
<path d="M18.8973 13.9345C19.7881 14.8246 20.2896 16.0317 20.2917 17.291C20.2937 18.5503 19.7963 19.7591 18.9083 20.6521L18.8973 20.6639L16.7934 22.7677C15.8983 23.6466 14.6923 24.1365 13.4378 24.1308C12.1833 24.1251 10.9818 23.6242 10.0947 22.7371C9.20759 21.85 8.7067 20.6485 8.70098 19.394C8.69525 18.1395 9.18516 16.9335 10.0641 16.0384L11.2255 14.877C11.2941 14.808 11.3813 14.7606 11.4765 14.7405C11.5716 14.7204 11.6706 14.7284 11.7612 14.7636C11.8519 14.7988 11.9303 14.8597 11.9869 14.9388C12.0435 15.0179 12.0758 15.1117 12.0799 15.2089C12.0998 15.7719 12.2021 16.3289 12.3834 16.8623C12.4143 16.9513 12.4195 17.0472 12.3986 17.1391C12.3776 17.231 12.3313 17.3151 12.2649 17.382L11.8554 17.7915C11.6382 17.9979 11.4643 18.2456 11.3439 18.52C11.2235 18.7944 11.159 19.0901 11.1542 19.3897C11.1494 19.6893 11.2044 19.9869 11.316 20.265C11.4276 20.5431 11.5935 20.7962 11.804 21.0094C12.0145 21.2226 12.2654 21.3918 12.5421 21.5069C12.8187 21.622 13.1156 21.6808 13.4152 21.6799C13.7149 21.6789 14.0113 21.6183 14.2873 21.5014C14.5632 21.3845 14.8131 21.2138 15.0222 20.9993L17.1267 18.8933C17.3361 18.6841 17.5022 18.4356 17.6155 18.1621C17.7288 17.8887 17.7871 17.5956 17.7871 17.2995C17.7871 17.0035 17.7288 16.7104 17.6155 16.4369C17.5022 16.1635 17.3361 15.915 17.1267 15.7057C17.0271 15.6068 16.9188 15.5171 16.8031 15.4376C16.7386 15.3933 16.6854 15.3347 16.6476 15.2662C16.6098 15.1977 16.5886 15.1214 16.5855 15.0433C16.5786 14.8708 16.6076 14.6988 16.6706 14.5382C16.7336 14.3775 16.8292 14.2317 16.9514 14.1099L17.6104 13.4508C17.6944 13.3675 17.805 13.3164 17.9228 13.3066C18.0407 13.2967 18.1582 13.3286 18.2549 13.3968C18.4844 13.5571 18.6993 13.7373 18.8973 13.9352V13.9345ZM23.3093 9.52246C22.4163 8.63133 21.2062 8.13086 19.9447 8.13086C18.6831 8.13086 17.473 8.63133 16.58 9.52246L14.4762 11.6263L14.4651 11.6381C13.9759 12.1306 13.6004 12.7241 13.3649 13.377C13.1294 14.03 13.0395 14.7265 13.1017 15.4179C13.1638 16.1092 13.3764 16.7786 13.7246 17.3791C14.0727 17.9796 14.548 18.4967 15.1172 18.894C15.2138 18.9622 15.3314 18.9942 15.4492 18.9843C15.5671 18.9744 15.6777 18.9233 15.7616 18.84L16.4206 18.181C16.5429 18.0592 16.6385 17.9133 16.7015 17.7527C16.7644 17.592 16.7934 17.42 16.7865 17.2476C16.7835 17.1694 16.7622 17.0931 16.7244 17.0246C16.6867 16.9562 16.6334 16.8975 16.5689 16.8533C16.4532 16.7738 16.3449 16.684 16.2453 16.5851C16.0359 16.3758 15.8699 16.1274 15.7566 15.8539C15.6432 15.5804 15.5849 15.2873 15.5849 14.9913C15.5849 14.6953 15.6432 14.4022 15.7566 14.1287C15.8699 13.8552 16.0359 13.6068 16.2453 13.3975L18.3491 11.2944C18.5583 11.0798 18.8082 10.9091 19.0841 10.7922C19.36 10.6754 19.6565 10.6147 19.9561 10.6137C20.2558 10.6128 20.5526 10.6716 20.8293 10.7867C21.1059 10.9018 21.3569 11.071 21.5674 11.2842C21.7779 11.4975 21.9438 11.7505 22.0554 12.0286C22.1669 12.3068 22.2219 12.6043 22.2171 12.9039C22.2123 13.2035 22.1479 13.4992 22.0275 13.7736C21.9071 14.048 21.7332 14.2957 21.5159 14.5021L21.1064 14.9116C21.04 14.9785 20.9937 15.0626 20.9728 15.1545C20.9518 15.2464 20.9571 15.3423 20.9879 15.4313C21.169 15.9638 21.2713 16.5199 21.2914 17.082C21.2955 17.1791 21.3279 17.273 21.3845 17.3521C21.4411 17.4311 21.5195 17.492 21.6101 17.5272C21.7008 17.5625 21.7997 17.5705 21.8949 17.5504C21.99 17.5302 22.0772 17.4828 22.1458 17.4139L23.3072 16.2525C24.1984 15.3595 24.6988 14.1494 24.6988 12.8878C24.6988 11.6262 24.1984 10.4162 23.3072 9.52315L23.3093 9.52246Z" fill="white"/>
</svg>
