<svg xmlns="http://www.w3.org/2000/svg" xmlns:xlink="http://www.w3.org/1999/xlink" preserveAspectRatio="xMidYMid meet" width="1080" height="1080" viewBox="0 0 1080 1080" style="width:100%;height:100%"><defs><animate repeatCount="indefinite" dur="8.4s" begin="0s" xlink:href="#_R_G_L_2_G" fill="freeze" attributeName="opacity" from="0" to="1" keyTimes="0;0.1390278;0.2383355;1" values="0;0;1;1" keySplines="0.167 0 0.36 1;0.393 0.003 0.483 1;0 0 0 0" calcMode="spline"/><animate repeatCount="indefinite" dur="8.4s" begin="0s" xlink:href="#_R_G_L_1_G" fill="freeze" attributeName="opacity" from="0" to="1" keyTimes="0;0.0794465;1" values="0;1;1" keySplines="0.167 0.167 0.833 0.833;0 0 0 0" calcMode="spline"/><animateTransform repeatCount="indefinite" dur="8.4s" begin="0s" xlink:href="#_R_G_L_1_G" fill="freeze" attributeName="transform" from="249" to="0" type="rotate" additive="sum" keyTimes="0;0.1390284;1" values="249;0;0" keySplines="0.309 0 0.265 0.99;0 0 0 0" calcMode="spline"/><animateTransform repeatCount="indefinite" dur="8.4s" begin="0s" xlink:href="#_R_G_L_1_G" fill="freeze" attributeName="transform" from="-378.904 -377.53" to="-378.904 -377.53" type="translate" additive="sum" keyTimes="0;1" values="-378.904 -377.53;-378.904 -377.53" keySplines="0 0 1 1" calcMode="spline"/><animate repeatCount="indefinite" dur="8.4s" begin="0s" xlink:href="#_R_G_L_0_G" fill="freeze" attributeName="opacity" from="0" to="0" keyTimes="0;0.1390278;0.3009206;0.3980635;0.4951905;0.5923413;0.6894722;0.797619;0.9047619;1" values="0;0;1;0;1;0;1;0;1;0" keySplines="0.333 0 0.667 1;0.333 0 0.667 1;0.333 0 0.667 1;0.333 0 0.667 1;0.333 0 0.667 1;0.333 0 0.667 1;0.333 0 0.667 1;0.333 0 0.667 1;0.333 0 0.667 1" calcMode="spline"/><animate attributeType="XML" attributeName="opacity" dur="8s" from="0" to="1" xlink:href="#time_group"/></defs><g id="_R_G"><g id="_R_G_L_2_G" transform=" translate(717.591, 707.769) translate(-202.402, -201.925)"><path id="_R_G_L_2_G_D_0_P_0" fill="#0028a4" fill-opacity="1" fill-rule="nonzero" d=" M25.6 402.77 C25.6,402.77 0.25,228.48 0.25,228.48 C0.25,228.48 8.35,213.5 8.35,213.5 C14.03,214.01 19.79,214.29 25.6,214.29 C25.6,214.29 31.68,226.49 31.68,226.49 C31.68,226.49 25.6,402.77 25.6,402.77z  M214.84 25.49 C214.84,19.68 214.55,13.94 214.02,8.27 C214.02,8.27 239.39,0.25 239.39,0.25 C239.39,0.25 404.05,25.49 404.05,25.49 C404.05,25.49 232.39,36.26 232.39,36.26 C232.39,36.26 214.84,25.49 214.84,25.49z "/><path id="_R_G_L_2_G_D_1_P_0" fill="#0e5ae4" fill-opacity="1" fill-rule="nonzero" d=" M25.62 402.8 C25.62,402.8 25.62,25.5 25.62,25.5 C25.62,25.5 404.08,25.5 404.08,25.5 C404.08,25.5 25.61,402.8 25.61,402.8 C25.61,402.8 25.62,402.8 25.62,402.8z "/></g><g id="_R_G_L_1_G" transform=" translate(539.993, 531.139)"><path id="_R_G_L_1_G_D_0_P_0" fill="#0e5ae4" fill-opacity="1" fill-rule="nonzero" d=" M379.14 0.5 C479.28,0.32 575.39,39.9 646.35,110.56 C717.31,181.21 757.31,277.15 757.56,377.29 C757.56,377.29 567.51,360.06 567.51,360.06 C566.6,354.59 566.26,349.06 565.24,343.5 C559.02,308.79 543.22,276.52 519.64,250.32 C496.05,224.11 465.61,205.02 431.75,195.2 C397.89,185.38 361.96,185.21 328.01,194.72 C294.06,204.23 263.45,223.03 239.62,249.02 C215.79,275 199.69,307.12 193.15,341.77 C186.61,376.41 189.87,412.19 202.58,445.08 C215.29,477.96 236.94,506.64 265.08,527.88 C293.22,549.11 326.74,562.06 361.85,565.27 C361.85,565.27 379.14,754.57 379.14,754.57 C329.47,754.81 280.25,745.24 234.29,726.4 C188.33,707.56 146.55,679.83 111.34,644.79 C76.13,609.76 48.19,568.11 29.13,522.24 C10.06,476.38 0.25,427.2 0.25,377.53 C0.25,327.86 10.06,278.68 29.13,232.81 C48.19,186.95 76.13,145.3 111.34,110.27 C146.55,75.23 188.33,47.5 234.29,28.66 C280.25,9.82 329.47,0.25 379.14,0.49 "/></g><g id="_R_G_L_0_G" transform=" translate(848.293, 838.966) translate(-70.106, -70.107)"><path id="_R_G_L_0_G_D_0_P_0" fill="#0e5ae4" fill-opacity="1" fill-rule="nonzero" d=" M69.44 0.25 C83.12,0.25 96.5,4.31 107.87,11.91 C119.25,19.51 128.12,30.32 133.36,42.96 C138.59,55.6 139.96,69.51 137.29,82.93 C134.63,96.36 128.04,108.68 118.36,118.36 C108.68,128.04 96.35,134.63 82.93,137.29 C69.51,139.97 55.6,138.59 42.96,133.36 C30.32,128.12 19.51,119.25 11.91,107.87 C4.31,96.5 0.25,83.12 0.25,69.44 C0.25,51.09 7.54,33.49 20.51,20.52 C33.49,7.54 51.09,0.25 69.44,0.25z "/></g></g><g id="time_group"/></svg>