<svg width="21" height="21" viewBox="0 0 21 21" fill="none" xmlns="http://www.w3.org/2000/svg">
<path d="M9.4057 1.39581C7.26494 1.39581 5.21187 2.24621 3.69813 3.75992C2.18439 5.27362 1.33398 7.32666 1.33398 9.46736C1.33398 11.6081 2.18439 13.6611 3.69813 15.1748C5.21187 16.6885 7.26494 17.5389 9.4057 17.5389C10.7398 17.5487 12.0551 17.2237 13.2311 16.5938C13.3216 16.7026 13.4219 16.8029 13.5308 16.8934L15.8368 19.1993C16.0549 19.4176 16.3139 19.5908 16.599 19.709C16.8841 19.8272 17.1897 19.8881 17.4983 19.8882C17.8069 19.8883 18.1125 19.8276 18.3977 19.7096C18.6828 19.5916 18.942 19.4186 19.1603 19.2004C19.3786 18.9823 19.5518 18.7233 19.67 18.4382C19.7881 18.1531 19.849 17.8476 19.8491 17.539C19.8492 17.2303 19.7886 16.9247 19.6705 16.6396C19.5525 16.3544 19.3795 16.0953 19.1614 15.877L16.8554 13.5711C16.7436 13.4588 16.6205 13.3584 16.4882 13.2714C17.1435 12.1012 17.4926 10.7843 17.5031 9.44313C17.501 7.3027 16.6494 5.25062 15.1355 3.73753C13.6215 2.22443 11.5689 1.37402 9.42846 1.37305L9.4057 1.39581ZM9.4057 3.70176C10.1639 3.69816 10.9152 3.84484 11.6164 4.13331C12.3175 4.42179 12.9546 4.84634 13.4907 5.38244C14.0268 5.91855 14.4514 6.55557 14.7399 7.25671C15.0283 7.95785 15.175 8.70921 15.1714 9.46736C15.1854 10.9345 14.6412 12.3521 13.649 13.433L13.58 13.502C13.4711 13.5925 13.3708 13.6928 13.2804 13.8017C12.2069 14.7535 10.8175 15.2713 9.38293 15.2543C7.8699 15.2301 6.42701 14.6121 5.36557 13.5336C4.30413 12.4551 3.70923 11.0026 3.70923 9.48939C3.70923 7.9762 4.30413 6.52366 5.36557 5.44516C6.42701 4.36667 7.8699 3.74868 9.38293 3.72453L9.4057 3.70176Z" stroke="white"/>
</svg>
