<svg width="386" height="303" viewBox="0 0 386 303" fill="none" xmlns="http://www.w3.org/2000/svg">
<path d="M350.997 276.505C343.604 284.419 335.134 291.252 325.835 296.803C325.621 296.934 325.405 297.057 325.187 297.184L310.136 283.861C310.294 283.714 310.469 283.55 310.658 283.371C321.874 272.721 377.555 198.256 381.266 180.123C381.01 181.631 384.614 240.874 350.997 276.505Z" fill="#B2C5FF"/>
<path d="M328.741 299.374C328.456 299.442 328.167 299.505 327.876 299.563L316.584 289.568C316.805 289.491 317.063 289.399 317.357 289.295C322.205 287.58 336.634 282.4 350.996 276.501C366.428 270.159 381.786 262.994 385.09 258.404C384.38 259.473 362.555 291.813 328.741 299.374Z" fill="#B2C5FF"/>
<path d="M350.789 79.4155H349.181V35.3585C349.181 28.5957 346.494 22.1099 341.712 17.3279C336.93 12.5459 330.444 9.85938 323.681 9.85938H230.34C223.577 9.85938 217.091 12.5459 212.309 17.3279C207.527 22.1099 204.841 28.5957 204.841 35.3585V277.061C204.841 283.823 207.527 290.309 212.309 295.091C217.091 299.873 223.577 302.56 230.34 302.56H323.681C330.444 302.56 336.93 299.873 341.712 295.091C346.494 290.309 349.181 283.823 349.181 277.061V110.777H350.789V79.4155Z" fill="#3F3D56"/>
<path d="M343.753 35.5348V276.885C343.753 279.386 343.261 281.862 342.303 284.172C341.346 286.483 339.943 288.582 338.175 290.35C336.406 292.118 334.306 293.52 331.996 294.477C329.685 295.433 327.209 295.925 324.708 295.924H230.917C228.416 295.924 225.94 295.431 223.63 294.475C221.32 293.518 219.222 292.115 217.454 290.347C215.686 288.579 214.283 286.48 213.327 284.17C212.37 281.86 211.878 279.384 211.878 276.884V35.5348C211.878 33.0345 212.37 30.5586 213.327 28.2486C214.284 25.9386 215.686 23.8397 217.454 22.0717C219.222 20.3037 221.321 18.9014 223.631 17.9447C225.942 16.9881 228.417 16.4958 230.918 16.4961H242.301C241.742 17.8698 241.529 19.3599 241.681 20.8351C241.833 22.3104 242.345 23.7258 243.172 24.9567C243.999 26.1876 245.117 27.1964 246.425 27.8942C247.734 28.5921 249.194 28.9577 250.677 28.9589H304.15C305.634 28.9605 307.096 28.5968 308.406 27.8998C309.716 27.2029 310.834 26.1941 311.663 24.9626C312.491 23.7311 313.003 22.3147 313.154 20.8385C313.305 19.3622 313.09 17.8714 312.529 16.4977H324.708C327.208 16.4969 329.685 16.9886 331.995 17.9449C334.306 18.9012 336.405 20.3033 338.174 22.0711C339.943 23.839 341.346 25.9379 342.303 28.248C343.26 30.5581 343.753 33.0342 343.753 35.5348Z" fill="#B2C5FF"/>
<path d="M314.578 160.953H232.139C230.695 160.952 229.31 160.378 228.289 159.356C227.268 158.335 226.694 156.951 226.692 155.507V152.796C226.694 151.352 227.268 149.968 228.289 148.947C229.31 147.926 230.695 147.351 232.139 147.35H314.581C316.025 147.351 317.409 147.926 318.43 148.947C319.451 149.968 320.026 151.352 320.027 152.796V155.507C320.026 156.951 319.451 158.335 318.43 159.356C317.409 160.378 316.025 160.952 314.581 160.953H314.578Z" fill="white"/>
<path d="M314.578 184.323H232.139C230.695 184.321 229.31 183.747 228.289 182.726C227.268 181.705 226.694 180.32 226.692 178.876V176.165C226.694 174.721 227.268 173.337 228.289 172.316C229.31 171.295 230.695 170.72 232.139 170.719H314.581C316.025 170.72 317.409 171.295 318.43 172.316C319.451 173.337 320.026 174.721 320.027 176.165V178.876C320.026 180.321 319.451 181.705 318.429 182.727C317.408 183.748 316.023 184.322 314.578 184.323Z" fill="white"/>
<path d="M318.701 155.729H236.262C234.745 155.727 233.292 155.124 232.22 154.052C231.148 152.98 230.545 151.526 230.543 150.01V147.299C230.545 145.783 231.148 144.329 232.22 143.257C233.292 142.185 234.745 141.582 236.262 141.58H318.701C320.217 141.582 321.671 142.185 322.743 143.257C323.815 144.329 324.418 145.783 324.42 147.299V150.01C324.418 151.526 323.815 152.98 322.743 154.052C321.67 155.124 320.217 155.727 318.701 155.729ZM236.262 142.669C235.034 142.671 233.858 143.159 232.99 144.027C232.122 144.895 231.634 146.071 231.632 147.299V150.01C231.634 151.237 232.122 152.414 232.99 153.282C233.857 154.15 235.034 154.638 236.262 154.639H318.701C319.928 154.638 321.105 154.15 321.973 153.282C322.84 152.414 323.329 151.237 323.33 150.01V147.299C323.328 146.071 322.84 144.895 321.972 144.027C321.104 143.159 319.928 142.671 318.701 142.669H236.262Z" fill="#3F3D56"/>
<path d="M318.701 179.095H236.262C234.745 179.093 233.292 178.49 232.22 177.418C231.148 176.346 230.545 174.893 230.543 173.377V170.666C230.545 169.15 231.148 167.696 232.22 166.624C233.292 165.552 234.745 164.949 236.262 164.947H318.701C320.217 164.949 321.671 165.552 322.743 166.624C323.815 167.696 324.418 169.15 324.42 170.666V173.377C324.418 174.893 323.815 176.347 322.742 177.419C321.67 178.491 320.217 179.094 318.701 179.095ZM236.262 166.037C235.034 166.038 233.857 166.526 232.99 167.394C232.122 168.262 231.634 169.439 231.632 170.666V173.377C231.634 174.604 232.122 175.781 232.99 176.649C233.858 177.517 235.034 178.005 236.262 178.006H318.701C319.928 178.005 321.105 177.517 321.973 176.649C322.841 175.781 323.329 174.604 323.33 173.377V170.666C323.329 169.439 322.841 168.262 321.973 167.394C321.105 166.526 319.928 166.038 318.701 166.037H236.262Z" fill="#3F3D56"/>
<path d="M343.752 35.5348V88.032C335.411 90.2266 326.677 90.4784 318.223 88.7681C309.768 87.0577 301.819 83.4308 294.987 78.1663C288.154 72.9018 282.62 66.1401 278.811 58.4014C275.002 50.6627 273.018 42.1533 273.014 33.5279C273.014 31.9884 273.076 30.4648 273.199 28.9573H304.149C305.633 28.9589 307.094 28.5951 308.404 27.8982C309.715 27.2012 310.833 26.1925 311.661 24.961C312.489 23.7295 313.001 22.3131 313.152 20.8368C313.303 19.3606 313.089 17.8698 312.527 16.4961H324.706C327.207 16.4952 329.684 16.9869 331.994 17.9433C334.305 18.8997 336.405 20.3019 338.173 22.0699C339.942 23.8379 341.345 25.937 342.302 28.2474C343.259 30.5577 343.752 33.034 343.752 35.5348Z" fill="white"/>
<path d="M259.269 292.646C259.269 293.753 259.227 294.845 259.138 295.925H230.917C228.416 295.925 225.94 295.433 223.63 294.476C221.32 293.519 219.222 292.116 217.454 290.348C215.686 288.58 214.283 286.481 213.327 284.171C212.37 281.861 211.878 279.385 211.878 276.885V251.069C217.794 250.3 223.805 250.8 229.512 252.537C235.219 254.273 240.491 257.207 244.975 261.141C249.459 265.075 253.053 269.919 255.518 275.352C257.983 280.784 259.261 286.68 259.269 292.645V292.646Z" fill="#0E5AE4"/>
<path d="M31.6549 247.35C32.4479 247.699 33.3468 247.719 34.1545 247.406C34.9622 247.093 35.6128 246.472 35.9635 245.68L61.3864 188.061C61.9683 186.742 62.1462 185.281 61.8974 183.861C61.6487 182.441 60.9845 181.127 59.989 180.085C58.9934 179.043 57.7111 178.32 56.3044 178.006C54.8976 177.693 53.4295 177.804 52.0857 178.325C50.5333 178.918 49.2342 180.03 48.4094 181.473C48.2783 181.701 48.1594 181.936 48.0532 182.177L22.6298 239.796C22.4565 240.189 22.3623 240.612 22.3524 241.041C22.3426 241.47 22.4174 241.896 22.5725 242.297C22.7276 242.697 22.96 243.062 23.2564 243.373C23.5529 243.683 23.9075 243.932 24.3002 244.105L31.6549 247.35Z" fill="#B2C5FF"/>
<path d="M60.3448 211.717L35.1953 206.13L41.4194 189.665C42.4797 185.64 44.9474 182.129 48.3747 179.768C51.8021 177.407 55.9621 176.353 60.1003 176.796L60.3426 176.823L60.3448 211.717Z" fill="#2F2E41"/>
<path d="M111.135 248.175C110.396 248.173 109.672 247.958 109.052 247.554C108.433 247.15 107.943 246.576 107.643 245.9L82.2203 188.28C81.4084 186.446 81.3309 184.371 82.0037 182.482C82.6765 180.592 84.0484 179.033 85.8365 178.126C87.6247 177.218 89.693 177.031 91.6151 177.603C93.5372 178.174 95.1667 179.462 96.1678 181.199C96.3082 181.445 96.4354 181.697 96.549 181.955L121.972 239.574C122.174 240.032 122.284 240.526 122.295 241.026C122.307 241.527 122.219 242.025 122.038 242.491C121.857 242.958 121.586 243.385 121.24 243.747C120.895 244.109 120.481 244.399 120.023 244.601L112.419 247.956L112.415 247.947C112.005 248.096 111.572 248.173 111.135 248.175Z" fill="#B2C5FF"/>
<path d="M75.968 228.387C75.1016 228.388 74.2711 228.732 73.6584 229.345C73.0458 229.958 72.7012 230.788 72.7002 231.655V298.652C72.7012 299.518 73.0458 300.349 73.6584 300.962C74.2711 301.574 75.1016 301.919 75.968 301.92H84.0068C84.8731 301.919 85.7037 301.574 86.3163 300.962C86.929 300.349 87.2736 299.518 87.2746 298.652V231.655C87.2736 230.788 86.929 229.958 86.3163 229.345C85.7037 228.732 84.8731 228.388 84.0068 228.387H75.968Z" fill="#B2C5FF"/>
<path d="M60.0696 228.387C59.2032 228.388 58.3726 228.732 57.76 229.345C57.1474 229.958 56.8028 230.788 56.8018 231.655V298.652C56.8028 299.518 57.1474 300.349 57.76 300.962C58.3726 301.574 59.2032 301.919 60.0696 301.92H68.1083C68.9747 301.919 69.8053 301.574 70.4179 300.962C71.0305 300.349 71.3751 299.518 71.3761 298.652V231.655C71.3751 230.788 71.0305 229.958 70.4179 229.345C69.8053 228.732 68.9747 228.388 68.1083 228.387H60.0696Z" fill="#B2C5FF"/>
<path d="M71.7978 158.195C87.1382 158.195 99.574 145.759 99.574 130.419C99.574 115.078 87.1382 102.643 71.7978 102.643C56.4573 102.643 44.0215 115.078 44.0215 130.419C44.0215 145.759 56.4573 158.195 71.7978 158.195Z" fill="#B2C5FF"/>
<path d="M81.0415 142.08C82.8421 142.03 85.0827 141.967 86.8092 140.706C87.3233 140.315 87.7456 139.817 88.0467 139.245C88.3477 138.674 88.5202 138.044 88.552 137.399C88.5833 136.94 88.5081 136.481 88.3323 136.056C88.1566 135.632 87.8851 135.254 87.539 134.952C86.6377 134.189 85.3207 134.011 83.902 134.428L85.3725 123.685L84.2936 123.537L82.5654 136.167L83.4668 135.754C84.5114 135.274 85.946 135.031 86.837 135.784C87.0562 135.981 87.2269 136.226 87.3359 136.5C87.4448 136.774 87.489 137.069 87.465 137.363C87.4386 137.843 87.3091 138.312 87.0853 138.738C86.8615 139.163 86.5487 139.535 86.1682 139.829C84.8246 140.81 83.0387 140.937 81.0127 140.994L81.0415 142.08Z" fill="#2F2E41"/>
<path d="M96.5758 124.611H90.709V125.701H96.5758V124.611Z" fill="#2F2E41"/>
<path d="M78.0582 124.611H72.1914V125.701H78.0582V124.611Z" fill="#2F2E41"/>
<path d="M99.3208 248.511L89.3235 175.53C89.2164 174.747 88.8293 174.03 88.2341 173.511C87.6388 172.992 86.8756 172.705 86.0857 172.706H78.5365C78.568 172.526 78.5844 172.343 78.5856 172.161V169.438C78.5856 168.571 78.2413 167.74 77.6284 167.127C77.0156 166.514 76.1844 166.17 75.3178 166.17H68.7822C67.9155 166.17 67.0843 166.514 66.4715 167.127C65.8587 167.74 65.5144 168.571 65.5144 169.438V172.161C65.5155 172.343 65.5319 172.526 65.5634 172.706H58.0202C57.2303 172.705 56.4671 172.992 55.8718 173.511C55.2766 174.03 54.8895 174.747 54.7824 175.53L44.7851 248.511C44.7218 248.973 44.7582 249.443 44.8919 249.89C45.0256 250.337 45.2534 250.751 45.5601 251.102C45.8668 251.454 46.2453 251.736 46.67 251.929C47.0947 252.122 47.5558 252.222 48.0224 252.222H96.083C96.5495 252.222 97.0107 252.122 97.4354 251.929C97.8601 251.736 98.2385 251.454 98.5452 251.102C98.8519 250.751 99.0798 250.337 99.2135 249.89C99.3471 249.443 99.3836 248.973 99.3203 248.511H99.3208Z" fill="#2F2E41"/>
<path d="M83.7646 211.716V176.821L84.007 176.794C88.1501 176.351 92.3146 177.409 95.744 179.776C99.1734 182.142 101.64 185.66 102.696 189.691L108.911 206.128L83.7646 211.716Z" fill="#2F2E41"/>
<path d="M70.3989 159.062L51.1864 151.605C48.045 150.386 44.8856 149.203 41.761 147.942C40.4223 147.475 39.1892 146.749 38.1327 145.804C37.2129 144.83 36.5861 143.617 36.3239 142.303C35.6579 139.487 35.7793 136.408 35.8256 133.535C35.8625 130.39 36.1213 127.252 36.6001 124.145C37.439 118.305 39.4093 112.684 42.4004 107.599C47.7885 98.7581 57.0712 92.1071 67.7492 92.6381C72.6929 92.8837 77.6648 94.6576 81.3373 98.0376C81.7204 98.4954 82.1503 98.9119 82.6199 99.2804C82.9464 99.4029 83.3017 99.4268 83.6416 99.3491C84.0897 99.3204 84.5383 99.2984 84.9874 99.2832C86.5453 99.2174 88.1059 99.2828 89.6527 99.4787C92.4715 99.7832 95.143 100.892 97.3484 102.674C99.1838 104.253 100.677 106.482 100.831 108.959C100.906 110.096 100.718 111.235 100.282 112.288C99.8462 113.341 99.1744 114.28 98.3184 115.032C96.026 116.964 92.7561 116.285 90.0068 116.14L79.9343 115.606L74.8311 115.333C73.7805 115.279 73.7832 116.913 74.8311 116.967L88.3925 117.686C90.571 117.801 92.8187 118.084 94.9999 117.954C96.6761 117.878 98.2766 117.234 99.5384 116.128C100.691 115.07 101.549 113.731 102.03 112.242C102.511 110.753 102.597 109.164 102.282 107.632C101.582 104.289 99.0945 101.524 96.178 99.879C92.2098 97.6406 87.4704 97.4281 83.03 97.7549L83.6079 97.994C78.5853 92.6022 70.8912 90.3272 63.6689 91.1235C56.044 91.9644 49.26 96.2191 44.3889 102.037C38.9556 108.523 35.9944 116.611 34.8436 124.928C34.2446 129.418 34.0474 133.953 34.2543 138.478C34.2458 140.474 34.5872 142.456 35.263 144.334C36.0342 146.161 37.4284 147.656 39.198 148.552C41.2267 149.532 43.3124 150.39 45.4438 151.12L52.524 153.867L66.4274 159.264L69.9675 160.638C70.9479 161.019 71.3732 159.439 70.4032 159.062H70.3989Z" fill="#2F2E41"/>
<path d="M40.1938 103.538C38.5241 103.538 36.892 103.043 35.5037 102.115C34.1155 101.188 33.0335 99.8692 32.3945 98.3266C31.7556 96.7841 31.5884 95.0867 31.9142 93.4492C32.2399 91.8116 33.0439 90.3075 34.2245 89.1268C35.4051 87.9462 36.9093 87.1422 38.5468 86.8165C40.1844 86.4908 41.8818 86.6579 43.4243 87.2969C44.9668 87.9358 46.2853 89.0178 47.2129 90.4061C48.1405 91.7943 48.6356 93.4265 48.6356 95.0961C48.6356 97.335 47.7462 99.4822 46.163 101.065C44.5799 102.649 42.4327 103.538 40.1938 103.538ZM40.1938 88.2882C38.8473 88.2882 37.531 88.6875 36.4115 89.4355C35.2919 90.1836 34.4193 91.2468 33.9041 92.4908C33.3888 93.7348 33.254 95.1037 33.5167 96.4243C33.7794 97.7449 34.4277 98.9579 35.3798 99.91C36.3319 100.862 37.545 101.511 38.8656 101.773C40.1862 102.036 41.5551 101.901 42.799 101.386C44.043 100.871 45.1063 99.9979 45.8543 98.8784C46.6024 97.7588 47.0017 96.4426 47.0017 95.0961C47.0017 93.2905 46.2844 91.5589 45.0077 90.2822C43.7309 89.0054 41.9993 88.2882 40.1938 88.2882Z" fill="#2F2E41"/>
<path d="M181.301 155.861L163.036 141.875L149.05 160.139L167.315 174.125L181.301 155.861Z" fill="#B2C5FF"/>
<path d="M78.0464 31.1022C80.9332 31.0998 83.7805 31.7734 86.3602 33.0691C88.94 34.3648 91.1805 36.2465 92.9023 38.5636L103.572 24.6134L71.5587 0.128906L47.0742 32.1419L60.8714 42.6947C62.2522 39.2703 64.6252 36.3369 67.6856 34.2712C70.746 32.2056 74.3541 31.102 78.0464 31.1022Z" fill="#B2C5FF"/>
<path d="M385.055 302.872H0.544633C0.400187 302.872 0.261657 302.815 0.159519 302.713C0.0573804 302.611 0 302.472 0 302.328C0 302.183 0.0573804 302.045 0.159519 301.943C0.261657 301.841 0.400187 301.783 0.544633 301.783H385.055C385.2 301.783 385.338 301.841 385.44 301.943C385.543 302.045 385.6 302.183 385.6 302.328C385.6 302.472 385.543 302.611 385.44 302.713C385.338 302.815 385.2 302.872 385.055 302.872Z" fill="#3F3D56"/>
<path d="M291.208 212.5H252.069C250.625 212.499 249.241 211.924 248.22 210.903C247.199 209.882 246.625 208.498 246.623 207.054V204.343C246.625 202.899 247.199 201.514 248.22 200.493C249.241 199.472 250.625 198.898 252.069 198.896H291.208C292.652 198.898 294.036 199.472 295.057 200.493C296.078 201.514 296.653 202.899 296.654 204.343V207.054C296.653 208.498 296.078 209.882 295.057 210.903C294.036 211.924 292.652 212.499 291.208 212.5Z" fill="#0E5AE4"/>
<path d="M295.333 207.275H256.196C254.68 207.274 253.226 206.671 252.154 205.599C251.082 204.526 250.479 203.073 250.478 201.557V198.846C250.479 197.329 251.082 195.876 252.154 194.804C253.226 193.732 254.68 193.129 256.196 193.127H295.335C296.851 193.129 298.304 193.732 299.376 194.804C300.448 195.876 301.051 197.329 301.053 198.846V201.557C301.051 203.073 300.448 204.526 299.376 205.599C298.304 206.671 296.851 207.274 295.335 207.275H295.333ZM256.196 194.217C254.969 194.218 253.792 194.706 252.924 195.574C252.056 196.442 251.568 197.619 251.567 198.846V201.557C251.568 202.785 252.056 203.961 252.924 204.829C253.792 205.697 254.969 206.185 256.196 206.187H295.335C296.562 206.185 297.739 205.697 298.606 204.829C299.474 203.961 299.963 202.785 299.964 201.557V198.846C299.963 197.619 299.474 196.442 298.606 195.574C297.739 194.706 296.562 194.218 295.335 194.217H256.196Z" fill="#3F3D56"/>
</svg>
