<svg width="360" height="78" viewBox="0 0 360 78" fill="none" xmlns="http://www.w3.org/2000/svg">
<path d="M196.198 21.2788L196.142 1.61812H190.728L184.533 12.0944L178.171 1.61812H172.757V21.2788H178.757V12.6281L182.998 19.5093H185.901L190.142 12.3191L190.198 21.2788H196.198Z" fill="url(#paint0_linear_7428_19835)"/>
<path d="M206.024 5.63451C203.652 5.63451 200.945 6.25242 199.159 7.37588L201.168 11.5608C202.173 10.8025 203.707 10.3531 205.075 10.3531C206.861 10.3531 207.754 10.971 207.949 12.1506H205.41C200.666 12.1506 198.433 13.8077 198.433 16.7849C198.433 19.4251 200.359 21.5597 204.098 21.5597C206.247 21.5597 207.698 20.8013 208.424 19.2565V21.2788H214.284V13.0213C214.284 7.90953 211.27 5.63451 206.024 5.63451ZM205.996 17.7399C205.047 17.7399 204.489 17.2062 204.489 16.5041C204.489 15.6615 205.075 15.2121 206.414 15.2121H207.977V16.2794C207.642 17.2905 206.861 17.7399 205.996 17.7399Z" fill="url(#paint1_linear_7428_19835)"/>
<path d="M223.009 7.57249V5.91538H217.009V21.2788H223.316V14.4537C223.316 12.0102 224.656 11.1395 226.553 11.1395C227 11.1395 227.391 11.1676 227.949 11.2518V5.63451C225.828 5.63451 224.126 6.2805 223.009 7.57249Z" fill="url(#paint2_linear_7428_19835)"/>
<path d="M240.759 21.2788H248.377L241.568 12.5719L247.875 5.91538H240.424L236.043 10.3812V0.438477H229.736V21.2788H236.043V17.6556L237.048 16.5602L240.759 21.2788Z" fill="url(#paint3_linear_7428_19835)"/>
<path d="M265.163 13.583C265.163 8.387 261.284 5.63451 256.763 5.63451C251.824 5.63451 248.112 8.92065 248.112 13.583C248.112 18.1612 251.74 21.5597 257.349 21.5597C260.391 21.5597 262.54 20.7171 264.019 19.088L260.726 15.7457C259.721 16.5041 258.94 16.8692 257.545 16.8692C255.982 16.8692 254.921 16.2513 254.475 15.0716H265.079C265.107 14.6222 265.163 14.0324 265.163 13.583ZM256.819 9.95986C258.103 9.95986 259.024 10.7182 259.275 12.0102H254.363C254.614 10.7182 255.507 9.95986 256.819 9.95986Z" fill="url(#paint4_linear_7428_19835)"/>
<path d="M276.892 16.3355C276.474 16.6164 275.971 16.7568 275.469 16.7568C274.716 16.7568 274.158 16.2232 274.158 15.2682V11.3923H277.283V6.75798H274.158V2.46072H267.851V6.75798H265.758V11.3923H267.851V15.3244C267.851 19.5655 270.307 21.5597 274.52 21.5597C275.999 21.5597 277.423 21.3069 278.399 20.7451L276.892 16.3355Z" fill="url(#paint5_linear_7428_19835)"/>
<path d="M290.175 5.63451C288.277 5.63451 286.91 6.14007 285.989 7.17928V5.91538H279.989V26.7276H286.296V20.2396C287.216 21.1384 288.5 21.5597 290.175 21.5597C294.165 21.5597 297.542 18.5544 297.542 13.6111C297.542 8.66787 294.165 5.63451 290.175 5.63451ZM288.668 16.6164C287.272 16.6164 286.184 15.6053 286.184 13.6111C286.184 11.617 287.272 10.5778 288.668 10.5778C290.063 10.5778 291.151 11.617 291.151 13.6111C291.151 15.6053 290.063 16.6164 288.668 16.6164Z" fill="url(#paint6_linear_7428_19835)"/>
<path d="M299.528 21.2788H305.835V0.438477H299.528V21.2788Z" fill="url(#paint7_linear_7428_19835)"/>
<path d="M315.468 5.63451C313.096 5.63451 310.389 6.25242 308.603 7.37588L310.612 11.5608C311.617 10.8025 313.151 10.3531 314.519 10.3531C316.305 10.3531 317.198 10.971 317.393 12.1506H314.854C310.11 12.1506 307.877 13.8077 307.877 16.7849C307.877 19.4251 309.803 21.5597 313.542 21.5597C315.691 21.5597 317.142 20.8013 317.868 19.2565V21.2788H323.728V13.0213C323.728 7.90953 320.714 5.63451 315.468 5.63451ZM315.44 17.7399C314.491 17.7399 313.933 17.2062 313.933 16.5041C313.933 15.6615 314.519 15.2121 315.858 15.2121H317.421V16.2794C317.086 17.2905 316.305 17.7399 315.44 17.7399Z" fill="url(#paint8_linear_7428_19835)"/>
<path d="M334.93 21.5597C338.642 21.5597 341.432 19.8464 342.437 17.0096L337.553 14.5942C336.912 16.0266 335.991 16.6164 334.902 16.6164C333.479 16.6164 332.307 15.6053 332.307 13.583C332.307 11.5889 333.479 10.5778 334.902 10.5778C335.991 10.5778 336.912 11.1676 337.553 12.6L342.437 10.1846C341.432 7.3478 338.642 5.63451 334.93 5.63451C329.656 5.63451 325.917 8.92065 325.917 13.583C325.917 18.2735 329.656 21.5597 334.93 21.5597Z" fill="url(#paint9_linear_7428_19835)"/>
<path d="M360 13.583C360 8.387 356.121 5.63451 351.6 5.63451C346.661 5.63451 342.949 8.92065 342.949 13.583C342.949 18.1612 346.577 21.5597 352.186 21.5597C355.228 21.5597 357.377 20.7171 358.856 19.088L355.563 15.7457C354.558 16.5041 353.777 16.8692 352.381 16.8692C350.819 16.8692 349.758 16.2513 349.312 15.0716H359.916C359.944 14.6222 360 14.0324 360 13.583ZM351.656 9.95986C352.94 9.95986 353.86 10.7182 354.112 12.0102H349.2C349.451 10.7182 350.344 9.95986 351.656 9.95986Z" fill="url(#paint10_linear_7428_19835)"/>
<path fill-rule="evenodd" clip-rule="evenodd" d="M69.4499 63.751C70.8347 63.751 72.1884 64.1616 73.3398 64.931C74.4912 65.7003 75.3886 66.7938 75.9186 68.0732C76.4485 69.3526 76.5872 70.7604 76.317 72.1186C76.0468 73.4768 75.38 74.7243 74.4008 75.7035C73.4216 76.6827 72.174 77.3496 70.8158 77.6197C69.4577 77.8899 68.0499 77.7512 66.7705 77.2213C65.4911 76.6914 64.3976 75.7939 63.6282 74.6425C62.8589 73.4911 62.4482 72.1374 62.4482 70.7526C62.4482 68.8957 63.1859 67.1148 64.499 65.8017C65.812 64.4886 67.5929 63.751 69.4499 63.751Z" fill="white"/>
<path fill-rule="evenodd" clip-rule="evenodd" d="M38.3411 77.8217L35.7754 60.1831L36.5953 58.6676C37.1702 58.7192 37.7524 58.7478 38.3411 58.7478L38.9565 59.9823L38.3411 77.8217ZM57.4915 39.6407C57.4915 39.0529 57.4621 38.4725 57.4086 37.8986L59.9762 37.0869L76.6401 39.6407L59.2677 40.7315L57.4915 39.6407Z" fill="#0028A4"/>
<path fill-rule="evenodd" clip-rule="evenodd" d="M38.3408 77.8245V39.6416H76.6407L38.3398 77.8245H38.3408Z" fill="white"/>
<path fill-rule="evenodd" clip-rule="evenodd" d="M38.3437 1.5131C48.4773 1.49451 58.2037 5.50057 65.3848 12.6507C72.5658 19.8008 76.6138 29.5098 76.639 39.6435L57.4066 37.8995C57.3144 37.3468 57.2794 36.7866 57.1762 36.2237C56.5466 32.7119 54.9482 29.4459 52.5613 26.7942C50.1743 24.1425 47.0939 22.2105 43.6674 21.2163C40.2409 20.2221 36.6048 20.2052 33.1692 21.1675C29.7337 22.1298 26.6354 24.033 24.2239 26.6625C21.8124 29.2919 20.1836 32.5429 19.5214 36.0487C18.8592 39.5545 19.1898 43.1756 20.476 46.5035C21.7622 49.8313 23.9528 52.7336 26.8006 54.8828C29.6485 57.032 33.0402 58.3426 36.5933 58.6668L38.3437 77.8236C33.3172 77.8483 28.3354 76.8796 23.6845 74.9732C19.0335 73.0667 14.8051 70.2601 11.2421 66.7146C7.67905 63.1691 4.8517 58.9545 2.92243 54.3129C0.993162 49.6714 0 44.6944 0 39.6679C0 34.6414 0.993162 29.6644 2.92243 25.0229C4.8517 20.3813 7.67905 16.1667 11.2421 12.6212C14.8051 9.07566 19.0335 6.26905 23.6845 4.36261C28.3354 2.45618 33.3172 1.48748 38.3437 1.51218" fill="white"/>
<path d="M109.729 40.703C108.901 40.703 108.229 41.3746 108.229 42.203V57.8303C108.229 63.2284 105.697 65.1611 103.098 65.1611C100.165 65.1611 98.3661 63.4284 98.3661 58.2302V42.203C98.3661 41.3746 97.6945 40.703 96.8661 40.703H84.8047C83.9763 40.703 83.3047 41.3746 83.3047 42.203V60.8293C83.3047 72.6918 89.9024 77.8233 98.6327 77.8233C102.565 77.8233 106.23 76.4905 108.962 73.6915V75.6569C108.962 76.4853 109.634 77.1569 110.462 77.1569H121.791C122.619 77.1569 123.291 76.4853 123.291 75.6569V42.203C123.291 41.3746 122.619 40.703 121.791 40.703H109.729Z" fill="white"/>
<path d="M146.299 40.0366C141.129 40.0366 135.292 41.2579 131.07 43.4978C130.394 43.8565 130.157 44.6906 130.49 45.3799L133.91 52.4576C134.321 53.3077 135.409 53.5711 136.243 53.1291C138.521 51.9226 141.406 51.2326 144.033 51.2326C148.298 51.2326 150.431 52.6988 150.897 55.4978H144.833C133.503 55.4978 128.172 59.4298 128.172 66.494C128.172 72.7584 132.77 77.8233 141.7 77.8233C146.832 77.8233 150.297 76.024 152.03 72.3586V75.6569C152.03 76.4853 152.702 77.1569 153.53 77.1569H164.525C165.354 77.1569 166.025 76.4853 166.025 75.6569V57.5638C166.025 45.4347 158.828 40.0366 146.299 40.0366ZM146.232 68.7598C143.966 68.7598 142.633 67.4936 142.633 65.8275C142.633 63.8282 144.033 62.7619 147.232 62.7619H149.464C150.292 62.7619 150.964 63.4335 150.964 64.2619V65.2944C150.164 67.6936 148.298 68.7598 146.232 68.7598Z" fill="white"/>
<path d="M197.859 40.0366C193.594 40.0366 189.728 41.4361 186.863 44.3017V42.203C186.863 41.3746 186.191 40.703 185.363 40.703H174.034C173.206 40.703 172.534 41.3746 172.534 42.203V75.6569C172.534 76.4853 173.206 77.1569 174.034 77.1569H186.096C186.924 77.1569 187.596 76.4853 187.596 75.6569V60.0296C187.596 54.6315 190.195 52.6988 193.26 52.6988C195.993 52.6988 197.726 54.4315 197.726 58.9633V75.6569C197.726 76.4853 198.397 77.1569 199.226 77.1569H211.287C212.115 77.1569 212.787 76.4853 212.787 75.6569V56.3642C212.787 44.9015 206.256 40.0366 197.859 40.0366Z" fill="white"/>
<path d="M243.219 67.2666C242.899 66.3369 241.769 65.9661 240.819 66.2171C240.288 66.3572 239.738 66.4273 239.188 66.4273C237.388 66.4273 236.055 65.1611 236.055 62.8952V53.6984H242.019C242.848 53.6984 243.519 53.0269 243.519 52.1984V44.2023C243.519 43.3739 242.848 42.7023 242.019 42.7023H236.055V34.0059C236.055 33.1774 235.384 32.5059 234.555 32.5059H222.494C221.666 32.5059 220.994 33.1774 220.994 34.0059V42.7023H217.496C216.667 42.7023 215.996 43.3739 215.996 44.2023V52.1984C215.996 53.0269 216.667 53.6984 217.496 53.6984H220.994V63.0285C220.994 73.0917 226.859 77.8233 236.922 77.8233C239.927 77.8233 242.835 77.3893 245.072 76.4391C245.735 76.1575 246.016 75.3977 245.781 74.7165L243.219 67.2666Z" fill="white"/>
<path d="M276.273 40.703C275.444 40.703 274.773 41.3746 274.773 42.203V57.8303C274.773 63.2284 272.24 65.1611 269.641 65.1611C266.709 65.1611 264.909 63.4284 264.909 58.2302V42.203C264.909 41.3746 264.238 40.703 263.409 40.703H251.348C250.52 40.703 249.848 41.3746 249.848 42.203V60.8293C249.848 72.6918 256.446 77.8233 265.176 77.8233C269.108 77.8233 272.773 76.4905 275.506 73.6915V75.6569C275.506 76.4853 276.177 77.1569 277.006 77.1569H288.334C289.162 77.1569 289.834 76.4853 289.834 75.6569V42.203C289.834 41.3746 289.162 40.703 288.334 40.703H276.273Z" fill="white"/>
<path d="M344.764 40.0366C339.766 40.0366 335.501 42.0359 332.569 45.568C330.036 41.7693 325.904 40.0366 321.173 40.0366C317.174 40.0366 313.575 41.3694 310.843 44.1018V42.203C310.843 41.3746 310.171 40.703 309.343 40.703H298.014C297.186 40.703 296.514 41.3746 296.514 42.203V75.6569C296.514 76.4853 297.186 77.1569 298.014 77.1569H310.076C310.904 77.1569 311.576 76.4853 311.576 75.6569V59.3631C311.576 54.4982 313.642 52.6988 316.308 52.6988C318.84 52.6988 320.373 54.4315 320.373 58.9633V75.6569C320.373 76.4853 321.044 77.1569 321.873 77.1569H333.934C334.763 77.1569 335.434 76.4853 335.434 75.6569V59.3631C335.434 54.4982 337.5 52.6988 340.166 52.6988C342.565 52.6988 344.231 54.4315 344.231 58.9633V75.6569C344.231 76.4853 344.903 77.1569 345.731 77.1569H357.792C358.621 77.1569 359.292 76.4853 359.292 75.6569V56.3642C359.292 44.9015 353.028 40.0366 344.764 40.0366Z" fill="white"/>
<defs>
<linearGradient id="paint0_linear_7428_19835" x1="168.75" y1="9.78309" x2="364.5" y2="17.2831" gradientUnits="userSpaceOnUse">
<stop stop-color="#8FC93A"/>
<stop offset="1" stop-color="#3CD2A2"/>
</linearGradient>
<linearGradient id="paint1_linear_7428_19835" x1="168.75" y1="9.78309" x2="364.5" y2="17.2831" gradientUnits="userSpaceOnUse">
<stop stop-color="#8FC93A"/>
<stop offset="1" stop-color="#3CD2A2"/>
</linearGradient>
<linearGradient id="paint2_linear_7428_19835" x1="168.75" y1="9.78309" x2="364.5" y2="17.2831" gradientUnits="userSpaceOnUse">
<stop stop-color="#8FC93A"/>
<stop offset="1" stop-color="#3CD2A2"/>
</linearGradient>
<linearGradient id="paint3_linear_7428_19835" x1="168.75" y1="9.78309" x2="364.5" y2="17.2831" gradientUnits="userSpaceOnUse">
<stop stop-color="#8FC93A"/>
<stop offset="1" stop-color="#3CD2A2"/>
</linearGradient>
<linearGradient id="paint4_linear_7428_19835" x1="168.75" y1="9.78309" x2="364.5" y2="17.2831" gradientUnits="userSpaceOnUse">
<stop stop-color="#8FC93A"/>
<stop offset="1" stop-color="#3CD2A2"/>
</linearGradient>
<linearGradient id="paint5_linear_7428_19835" x1="168.75" y1="9.78309" x2="364.5" y2="17.2831" gradientUnits="userSpaceOnUse">
<stop stop-color="#8FC93A"/>
<stop offset="1" stop-color="#3CD2A2"/>
</linearGradient>
<linearGradient id="paint6_linear_7428_19835" x1="168.75" y1="9.78309" x2="364.5" y2="17.2831" gradientUnits="userSpaceOnUse">
<stop stop-color="#8FC93A"/>
<stop offset="1" stop-color="#3CD2A2"/>
</linearGradient>
<linearGradient id="paint7_linear_7428_19835" x1="168.75" y1="9.78309" x2="364.5" y2="17.2831" gradientUnits="userSpaceOnUse">
<stop stop-color="#8FC93A"/>
<stop offset="1" stop-color="#3CD2A2"/>
</linearGradient>
<linearGradient id="paint8_linear_7428_19835" x1="168.75" y1="9.78309" x2="364.5" y2="17.2831" gradientUnits="userSpaceOnUse">
<stop stop-color="#8FC93A"/>
<stop offset="1" stop-color="#3CD2A2"/>
</linearGradient>
<linearGradient id="paint9_linear_7428_19835" x1="168.75" y1="9.78309" x2="364.5" y2="17.2831" gradientUnits="userSpaceOnUse">
<stop stop-color="#8FC93A"/>
<stop offset="1" stop-color="#3CD2A2"/>
</linearGradient>
<linearGradient id="paint10_linear_7428_19835" x1="168.75" y1="9.78309" x2="364.5" y2="17.2831" gradientUnits="userSpaceOnUse">
<stop stop-color="#8FC93A"/>
<stop offset="1" stop-color="#3CD2A2"/>
</linearGradient>
</defs>
</svg>
