<svg width="42" height="42" viewBox="0 0 42 42" fill="none" xmlns="http://www.w3.org/2000/svg">
<rect width="42" height="42" rx="21" fill="#F5F6FA"/>
<g clip-path="url(#clip0_1_34)">
<path d="M24.366 12.438L27.577 18H31V20H29.833L29.076 29.083C29.0552 29.3329 28.9413 29.5658 28.7568 29.7357C28.5723 29.9055 28.3308 29.9999 28.08 30H13.92C13.6692 29.9999 13.4277 29.9055 13.2432 29.7357C13.0587 29.5658 12.9448 29.3329 12.924 29.083L12.166 20H11V18H14.422L17.634 12.438L19.366 13.438L16.732 18H25.267L22.634 13.438L24.366 12.438V12.438ZM27.826 20H14.173L14.84 28H27.159L27.826 20ZM22 22V26H20V22H22ZM18 22V26H16V22H18ZM26 22V26H24V22H26Z" fill="#0C61FF"/>
</g>
<defs>
<clipPath id="clip0_1_34">
<rect width="24" height="24" fill="white" transform="translate(9 9)"/>
</clipPath>
</defs>
</svg>
