<svg width="181" height="241" viewBox="0 0 181 241" fill="none" xmlns="http://www.w3.org/2000/svg">
<path d="M23.6467 1.50057C23.0238 1.88081 22.509 2.41474 22.1517 3.05114C21.7944 3.68755 21.6067 4.40508 21.6065 5.13491V5.76152H22.1077V5.13491C22.1088 4.30603 22.3832 3.50064 22.8884 2.84356C23.3937 2.18649 24.1016 1.71443 24.9024 1.50057H23.6467ZM85.1899 0.873955H25.8674C24.7377 0.875274 23.6547 1.32462 22.8559 2.12342C22.0571 2.92222 21.6078 4.00524 21.6065 5.13491V92.6098C21.6081 93.7394 22.0575 94.8222 22.8562 95.621C23.655 96.4197 24.7378 96.8692 25.8674 96.8708H91.7869C92.9164 96.8692 93.9993 96.4197 94.798 95.621C95.5968 94.8222 96.0462 93.7394 96.0478 92.6098V10.5689L85.1899 0.873955ZM95.5465 92.6098C95.5453 93.6065 95.1488 94.5621 94.444 95.2669C93.7392 95.9718 92.7836 96.3682 91.7869 96.3695H25.8674C24.8706 96.3682 23.9151 95.9718 23.2103 95.2669C22.5054 94.5621 22.1089 93.6065 22.1077 92.6098L22.1077 5.13491C22.1088 4.30603 22.3832 3.50064 22.8884 2.84356C23.3937 2.18649 24.1016 1.71443 24.9024 1.50057C25.2172 1.41669 25.5416 1.37456 25.8674 1.37524H84.9994L95.5465 10.792V92.6098ZM23.6467 1.50057C23.0238 1.88081 22.509 2.41474 22.1517 3.05114C21.7944 3.68755 21.6067 4.40508 21.6065 5.13491V5.76152H22.1077V5.13491C22.1088 4.30603 22.3832 3.50064 22.8884 2.84356C23.3937 2.18649 24.1016 1.71443 24.9024 1.50057H23.6467Z" fill="#3F3D56"/>
<path d="M95.7974 10.8997H89.03C87.9003 10.8985 86.8173 10.4491 86.0185 9.65032C85.2196 8.85152 84.7703 7.76846 84.769 6.63877V1.1246C84.769 1.05812 84.7955 0.994375 84.8425 0.94737C84.8895 0.900366 84.9532 0.873955 85.0197 0.873955C85.0862 0.873955 85.1499 0.900366 85.1969 0.94737C85.2439 0.994375 85.2703 1.05812 85.2703 1.1246V6.63877C85.2715 7.63555 85.6679 8.59119 86.3728 9.29602C87.0776 10.0008 88.0332 10.3973 89.03 10.3984H95.7974C95.8639 10.3984 95.9276 10.4249 95.9746 10.4719C96.0216 10.5189 96.048 10.5826 96.048 10.6491C96.048 10.7156 96.0216 10.7793 95.9746 10.8263C95.9276 10.8733 95.8639 10.8997 95.7974 10.8997Z" fill="#3F3D56"/>
<path d="M87.4113 27.5676H30.2644C29.7326 27.5676 29.2226 27.3564 28.8466 26.9803C28.4705 26.6043 28.2593 26.0943 28.2593 25.5625C28.2593 25.0307 28.4705 24.5206 28.8466 24.1446C29.2226 23.7686 29.7326 23.5573 30.2644 23.5573H87.4113C87.9431 23.5573 88.4532 23.7686 88.8292 24.1446C89.2052 24.5206 89.4165 25.0307 89.4165 25.5625C89.4165 26.0943 89.2052 26.6043 88.8292 26.9803C88.4532 27.3564 87.9431 27.5676 87.4113 27.5676Z" fill="#DBDBDB"/>
<path d="M58.5872 19.0457H30.2644C29.7326 19.0457 29.2226 18.8344 28.8466 18.4584C28.4705 18.0823 28.2593 17.5723 28.2593 17.0405C28.2593 16.5087 28.4705 15.9987 28.8466 15.6226C29.2226 15.2466 29.7326 15.0353 30.2644 15.0353H58.5872C59.119 15.0353 59.6291 15.2466 60.0051 15.6226C60.3811 15.9987 60.5924 16.5087 60.5924 17.0405C60.5924 17.5723 60.3811 18.0823 60.0051 18.4584C59.6291 18.8344 59.119 19.0457 58.5872 19.0457Z" fill="#DBDBDB"/>
<path d="M87.4113 44.3608H30.2644C29.7326 44.3608 29.2226 44.1495 28.8466 43.7735C28.4705 43.3975 28.2593 42.8874 28.2593 42.3556C28.2593 41.8238 28.4705 41.3138 28.8466 40.9378C29.2226 40.5617 29.7326 40.3505 30.2644 40.3505H87.4113C87.9431 40.3505 88.4532 40.5617 88.8292 40.9378C89.2052 41.3138 89.4165 41.8238 89.4165 42.3556C89.4165 42.8874 89.2052 43.3975 88.8292 43.7735C88.4532 44.1495 87.9431 44.3608 87.4113 44.3608Z" fill="#DBDBDB"/>
<path d="M58.5872 35.8388H30.2644C29.7326 35.8388 29.2226 35.6276 28.8466 35.2516C28.4705 34.8755 28.2593 34.3655 28.2593 33.8337C28.2593 33.3019 28.4705 32.7919 28.8466 32.4158C29.2226 32.0398 29.7326 31.8285 30.2644 31.8285H58.5872C59.119 31.8285 59.6291 32.0398 60.0051 32.4158C60.3811 32.7919 60.5924 33.3019 60.5924 33.8337C60.5924 34.3655 60.3811 34.8755 60.0051 35.2516C59.6291 35.6276 59.119 35.8388 58.5872 35.8388Z" fill="#DBDBDB"/>
<path d="M85.3855 82.8347H32.2489C31.1525 82.8334 30.1013 82.3973 29.3259 81.622C28.5506 80.8467 28.1145 79.7955 28.1133 78.699V57.6449C28.1145 56.5484 28.5506 55.4972 29.3259 54.7219C30.1013 53.9466 31.1525 53.5105 32.2489 53.5093H85.3855C86.482 53.5105 87.5332 53.9466 88.3085 54.7219C89.0838 55.4972 89.5199 56.5484 89.5211 57.6449V78.699C89.5199 79.7955 89.0838 80.8467 88.3085 81.622C87.5332 82.3973 86.482 82.8334 85.3855 82.8347Z" fill="#DBDBDB"/>
<path d="M58.9254 77.6965C64.1314 77.6965 68.3517 73.4762 68.3517 68.2701C68.3517 63.0641 64.1314 58.8438 58.9254 58.8438C53.7193 58.8438 49.499 63.0641 49.499 68.2701C49.499 73.4762 53.7193 77.6965 58.9254 77.6965Z" fill="#FF8282"/>
<path d="M56.8906 65.682L56.3384 66.2342L60.9631 70.8589L61.5153 70.3067L56.8906 65.682Z" fill="white"/>
<path d="M61.5151 66.2337L60.9629 65.6815L56.3382 70.3062L56.8904 70.8584L61.5151 66.2337Z" fill="white"/>
<path d="M135.85 91.5719V80.7809C135.85 76.9459 137.373 73.2679 140.085 70.5561C142.797 67.8444 146.474 66.3209 150.309 66.3209C154.144 66.3209 157.821 67.8444 160.533 70.5561C163.244 73.2679 164.768 76.9459 164.768 80.7809V91.5719C164.767 92.0869 164.562 92.5806 164.198 92.9448C163.834 93.3089 163.34 93.5138 162.825 93.5143H137.792C137.277 93.5138 136.784 93.3089 136.42 92.9448C136.055 92.5806 135.851 92.0869 135.85 91.5719Z" fill="#2F2E41"/>
<path d="M171.69 232.003L166.59 233.415L158.719 214.415L166.246 212.332L171.69 232.003Z" fill="#FFB8B8"/>
<path d="M162.543 232.967L172.378 230.245L174.091 236.438L158.064 240.874C157.839 240.061 157.776 239.211 157.879 238.374C157.983 237.536 158.25 236.727 158.666 235.993C159.082 235.259 159.638 234.613 160.303 234.094C160.968 233.575 161.729 233.192 162.543 232.967V232.967Z" fill="#2F2E41"/>
<path d="M118.521 235.927H113.23L110.712 215.515H118.522L118.521 235.927Z" fill="#FFB8B8"/>
<path d="M109.449 234.416H119.654V240.842H103.024C103.024 239.998 103.19 239.163 103.513 238.383C103.836 237.603 104.309 236.895 104.906 236.298C105.502 235.702 106.211 235.228 106.99 234.905C107.77 234.582 108.605 234.416 109.449 234.416V234.416Z" fill="#2F2E41"/>
<path d="M112.141 121.854C112.518 122.364 113.003 122.785 113.561 123.087C114.119 123.389 114.737 123.565 115.37 123.603C116.003 123.641 116.637 123.539 117.227 123.305C117.817 123.072 118.348 122.711 118.784 122.25L132.85 128.577L131.571 120.664L118.409 115.869C117.586 115.189 116.541 114.834 115.474 114.872C114.406 114.911 113.39 115.339 112.617 116.077C111.844 116.815 111.369 117.81 111.281 118.875C111.194 119.94 111.499 121 112.141 121.854H112.141Z" fill="#FFB8B8"/>
<path d="M141.367 169.439C136.948 169.439 132.373 168.78 128.527 166.822C126.486 165.803 124.677 164.374 123.213 162.624C121.75 160.873 120.663 158.84 120.021 156.65C118.017 150.305 120.544 144.072 122.987 138.044C124.501 134.309 125.931 130.781 126.302 127.303L126.431 126.069C127.009 120.523 127.508 115.734 130.271 113.938C131.703 113.006 133.629 112.953 136.159 113.775L159.916 121.493L159.043 166.595L158.898 166.644C158.774 166.686 150.399 169.439 141.367 169.439Z" fill="#2F2E41"/>
<path d="M135.741 99.7339C135.741 99.7339 147.395 96.2807 156.458 97.5757C156.458 97.5757 151.279 126.064 153.006 135.56C154.732 145.056 123.009 139.229 129.483 130.165L131.641 119.374C131.641 119.374 127.325 115.057 131.21 109.877L135.741 99.7339Z" fill="#0C61FF"/>
<path d="M130.011 168.581L115.648 165.888L120.663 127.296C121 126.219 128.767 101.768 132.295 100.445C134.857 99.5426 137.476 98.8148 140.136 98.2663L140.647 98.1641L137.767 102.484L126.302 129.96L130.011 168.581Z" fill="#3D3D3D"/>
<path d="M122.527 231.198L103.97 228.105L114.384 185.578L129.88 127.419L130.033 128.452C130.045 128.529 131.492 136.127 152.973 132.756L153.162 132.726L153.214 132.91L179.176 224.65L158.031 228.174L138.746 161.241L122.527 231.198Z" fill="#3D3D3D"/>
<path d="M148.248 175.805L148.259 175.478C148.272 175.116 149.549 139.06 149.122 124.559C148.694 110.008 153.405 97.408 153.452 97.2824L153.491 97.1812L153.595 97.1513C159.689 95.4102 164.976 100.607 165.028 100.659L165.103 100.734L163.367 115.054L170.798 167.128L148.248 175.805Z" fill="#3D3D3D"/>
<path d="M147.337 93.2611C153.192 93.2611 157.938 88.5146 157.938 82.6595C157.938 76.8045 153.192 72.058 147.337 72.058C141.483 72.058 136.737 76.8045 136.737 82.6595C136.737 88.5146 141.483 93.2611 147.337 93.2611Z" fill="#FFB8B8"/>
<path d="M132.427 81.6434C132.431 78.6108 133.637 75.7034 135.781 73.559C137.925 71.4146 140.832 70.2084 143.865 70.2049H146.023C149.055 70.2084 151.962 71.4146 154.107 73.559C156.251 75.7034 157.457 78.6108 157.46 81.6434V81.8593H152.9L151.344 77.5032L151.033 81.8593H148.676L147.891 79.6614L147.734 81.8593H132.427V81.6434Z" fill="#2F2E41"/>
<path d="M146.295 94.7268C146.081 94.4368 145.953 94.0923 145.926 93.7328C145.899 93.3734 145.975 93.0136 146.143 92.695C148.43 88.3449 151.632 80.3068 147.382 75.3497L147.076 74.9935H159.415V93.5195L148.206 95.4973C148.093 95.5174 147.978 95.5275 147.863 95.5277C147.557 95.5277 147.255 95.4551 146.982 95.3158C146.71 95.1766 146.474 94.9747 146.295 94.7268Z" fill="#2F2E41"/>
<path d="M96.6172 18.238C87.9834 10.952 77.4181 6.33279 66.2071 4.94243C54.9961 3.55207 43.6227 5.4505 33.4709 10.4067C23.3191 15.3629 14.8265 23.1632 9.02669 32.8584C3.22686 42.5537 0.369793 53.7258 0.803162 65.0153C1.23653 76.3048 4.94165 87.2249 11.4677 96.4469C17.9937 105.669 27.0592 112.795 37.5611 116.958C48.063 121.122 59.5484 122.142 70.6199 119.897C81.6913 117.651 91.8713 112.235 99.9212 104.308L171.403 164.629C172.491 165.549 173.899 165.999 175.318 165.88C176.737 165.761 178.051 165.083 178.971 163.996C179.89 162.908 180.34 161.499 180.221 160.08C180.102 158.661 179.425 157.347 178.337 156.427L178.329 156.42L106.847 96.0994C115.151 84.1805 118.705 69.5899 116.813 55.1869C114.921 40.7839 107.718 27.6069 96.6172 18.238V18.238ZM92.0091 90.2909C86.4403 96.8911 79.0396 101.692 70.7428 104.085C62.446 106.479 53.6258 106.359 45.3974 103.739C37.1691 101.12 29.9022 96.1188 24.5158 89.369C19.1294 82.6192 15.8653 74.4235 15.1363 65.8184C14.4074 57.2134 16.2463 48.5854 20.4205 41.0255C24.5947 33.4656 30.9167 27.3134 38.5872 23.3469C46.2576 19.3803 54.9319 17.7776 63.5131 18.7414C72.0944 19.7051 80.1971 23.1921 86.7967 28.7613H86.7968C91.1788 32.4591 94.7896 36.9839 97.4231 42.0773C100.057 47.1707 101.661 52.7329 102.145 58.4465C102.629 64.16 101.983 69.913 100.244 75.3768C98.5048 80.8407 95.7066 85.9085 92.0091 90.2909V90.2909Z" fill="#878787"/>
<path opacity="0.3" d="M30.4844 95.5027C22.1087 88.434 16.6973 78.4737 15.3248 67.5995C13.9523 56.7253 16.719 45.7326 23.0757 36.8042C22.2409 37.6449 21.4339 38.5255 20.6546 39.4458C16.9571 43.8281 14.1589 48.8959 12.4198 54.3598C10.6806 59.8237 10.0346 65.5766 10.5186 71.2902C11.0026 77.0037 12.6072 82.566 15.2407 87.6594C17.8741 92.7528 21.4849 97.2776 25.8669 100.975C30.2489 104.673 35.3163 107.472 40.7797 109.211C46.2431 110.95 51.9956 111.596 57.7087 111.112C63.4217 110.628 68.9835 109.023 74.0765 106.39C79.1695 103.756 83.6939 100.145 87.3914 95.7626C88.1689 94.8412 88.901 93.8975 89.5878 92.9315C81.8567 100.7 71.4871 105.277 60.5379 105.753C49.5887 106.23 38.8608 102.571 30.4844 95.5027V95.5027Z" fill="#3D3D3D"/>
<path d="M150.74 140.388C151.356 140.539 151.998 140.552 152.621 140.428C153.243 140.304 153.83 140.045 154.341 139.669C154.853 139.293 155.275 138.81 155.58 138.253C155.884 137.696 156.062 137.079 156.102 136.446L170.964 132.32L164.923 127.053L151.736 131.778C150.668 131.781 149.638 132.176 148.841 132.888C148.045 133.6 147.537 134.579 147.414 135.64C147.291 136.702 147.562 137.771 148.175 138.646C148.788 139.521 149.701 140.141 150.74 140.388V140.388Z" fill="#FFB8B8"/>
<path d="M156.918 138.205L156.014 129.612L168.428 122.763L160.334 112.964L161.655 101.958L164.943 100.548L165.046 100.68C166.597 102.674 180.197 120.225 180.197 122.394C180.197 124.623 177.595 131.167 174.036 132.947C170.602 134.664 157.708 138.001 157.16 138.142L156.918 138.205Z" fill="#3D3D3D"/>
</svg>
