<svg width="151" height="117" viewBox="0 0 151 117" fill="none" xmlns="http://www.w3.org/2000/svg">
<path d="M20.0688 51.6863C14.4852 49.3409 10.0092 44.9501 7.55708 39.4125C6.18514 36.2757 5.51534 32.874 5.13397 29.4715C4.75981 26.1334 4.68342 22.6122 6.12003 19.5758C6.9066 17.9134 8.11043 16.4831 9.6142 15.4242C11.118 14.3654 12.8704 13.7142 14.7007 13.5341C16.531 13.354 18.3767 13.6511 20.0581 14.3964C21.7394 15.1418 23.199 16.31 24.2945 17.7873C25.2375 19.0587 25.9005 20.5844 25.9174 22.1673C25.9529 25.4875 23.2831 28.1521 22.1119 31.2591C20.9016 34.4698 21.3378 38.0273 21.5436 41.4525C21.7493 44.8776 21.6189 48.5908 19.5407 51.3211" fill="#F2F2F2"/>
<path d="M120.208 93.6707C126.105 92.2895 131.251 88.7066 134.592 83.6556C136.468 80.7915 137.696 77.5492 138.639 74.258C139.565 71.029 140.228 67.5698 139.317 64.3365C138.819 62.5661 137.871 60.955 136.565 59.6602C135.259 58.3654 133.639 57.4311 131.865 56.9482C130.09 56.4653 128.221 56.4504 126.438 56.9049C124.656 57.3594 123.022 58.2679 121.696 59.5417C120.554 60.6381 119.646 62.0318 119.365 63.5897C118.776 66.8575 120.964 69.93 121.601 73.1888C122.259 76.5565 121.235 79.9914 120.461 83.3342C119.687 86.6771 119.196 90.36 120.79 93.3987" fill="#F2F2F2"/>
<path d="M75.241 88.3361C66.8361 88.3627 58.6587 85.6065 51.9848 80.4976C45.4503 75.5051 40.6763 68.5605 38.3555 60.6713L38.6878 60.5747C43.3813 76.7165 58.4125 87.9901 75.241 87.9901C80.2727 87.9996 85.2558 87.0053 89.8985 85.0655L90.0318 85.3848C85.3468 87.3423 80.3185 88.3456 75.241 88.3361Z" fill="#E6E6E6"/>
<path d="M111.575 38.5522C106.582 22.5904 91.9811 11.8661 75.2417 11.8661C70.2814 11.8571 65.3677 12.8232 60.7801 14.7096L60.6484 14.3896C66.7853 11.8762 73.4678 10.9922 80.0471 11.8233C86.6265 12.6544 92.8792 15.1723 98.1984 19.1327C104.672 23.9826 109.465 30.7371 111.905 38.449L111.575 38.5522Z" fill="#E6E6E6"/>
<path d="M121.953 100.449C106.212 100.449 93.4062 87.6434 93.4062 71.9027C93.4062 56.1619 106.212 43.356 121.953 43.356C137.694 43.356 150.5 56.1619 150.5 71.9027C150.5 87.6434 137.694 100.449 121.953 100.449ZM121.953 43.702C106.403 43.702 93.7523 56.3528 93.7523 71.9027C93.7523 87.4526 106.403 100.103 121.953 100.103C137.503 100.103 150.154 87.4526 150.154 71.9027C150.154 56.3528 137.503 43.702 121.953 43.702Z" fill="#3F3D56"/>
<path d="M29.0467 57.5412C13.306 57.5412 0.5 44.7352 0.5 28.9945C0.5 13.2537 13.306 0.447754 29.0467 0.447754C44.7874 0.447754 57.5934 13.2537 57.5934 28.9945C57.5934 44.7352 44.7874 57.5412 29.0467 57.5412ZM29.0467 0.793775C13.4968 0.793775 0.846021 13.4446 0.846021 28.9945C0.846021 44.5444 13.4968 57.1952 29.0467 57.1952C44.5966 57.1952 57.2474 44.5444 57.2474 28.9945C57.2474 13.4446 44.5966 0.793775 29.0467 0.793775Z" fill="#3F3D56"/>
<path d="M26.8255 29.1559L24.3047 34.0518L26.7937 35.4787C26.7937 35.4787 28.5013 29.9793 28.5516 29.7706C28.809 29.6654 29.0285 29.4845 29.1809 29.2518C29.3333 29.0191 29.4115 28.7457 29.4051 28.4676C29.3988 28.1895 29.3081 27.9199 29.1452 27.6945C28.9823 27.4691 28.7547 27.2984 28.4927 27.2051C28.2307 27.1118 27.9465 27.1002 27.6778 27.1719C27.409 27.2436 27.1684 27.3952 26.9877 27.6067C26.807 27.8181 26.6947 28.0795 26.6658 28.3561C26.6368 28.6327 26.6925 28.9116 26.8255 29.1559V29.1559Z" fill="#A0616A"/>
<path d="M13.8906 29.8208C15.0151 33.987 19.0569 36.633 22.4132 39.8054C22.8265 39.9504 23.2655 40.0076 23.7022 39.9733C24.1388 39.939 24.5635 39.8139 24.9491 39.6062C25.3346 39.3984 25.6726 39.1124 25.9414 38.7666C26.2102 38.4208 26.4038 38.0226 26.51 37.5977L27.6412 33.1707L24.766 33.0938L23.5761 34.387L19.7262 31.6436L13.8906 29.8208Z" fill="#3F3D56"/>
<path d="M117.709 76.3377C118.197 76.3696 118.654 76.5908 118.981 76.9541C119.309 77.3175 119.482 77.7943 119.463 78.2832C119.458 78.3825 119.444 78.4812 119.422 78.5782L124.966 82.0706L121.901 83.4261L117.107 79.9018C116.711 79.781 116.367 79.5326 116.127 79.1954C115.888 78.8582 115.767 78.4512 115.783 78.0379C115.794 77.8028 115.852 77.5722 115.952 77.3594C116.053 77.1466 116.194 76.9556 116.368 76.7975C116.543 76.6393 116.747 76.517 116.968 76.4376C117.19 76.3582 117.425 76.3232 117.66 76.3346C117.676 76.3354 117.693 76.3364 117.709 76.3377Z" fill="#FFB6B6"/>
<path d="M123.054 80.4838L121.68 83.3185L127.112 86.8142C127.498 87.0651 127.943 87.2129 128.402 87.2437C128.862 87.2745 129.322 87.1873 129.739 86.9902C130.245 86.7478 130.659 86.3474 130.918 85.8492C131.177 85.3511 131.267 84.7823 131.175 84.2285L129.412 74.1655C129.294 73.4613 128.91 72.8292 128.34 72.3993C127.77 71.9693 127.057 71.7741 126.347 71.8539C125.649 71.9302 125.01 72.2807 124.57 72.8283C124.131 73.3758 123.927 74.0756 124.003 74.7736C124.006 74.8009 124.009 74.8282 124.013 74.8554C124.026 74.9521 124.045 75.048 124.069 75.1427L125.993 82.2993L123.054 80.4838Z" fill="#CECECE"/>
<path d="M118.118 81.6331L116.073 76.3547C116.003 76.174 116.007 75.973 116.086 75.7958C116.164 75.6186 116.309 75.4797 116.49 75.4095L117.64 74.9637C117.821 74.8939 118.022 74.8986 118.199 74.9768C118.376 75.055 118.515 75.2003 118.585 75.3809L120.631 80.6593C120.701 80.8399 120.696 81.0409 120.618 81.2181C120.54 81.3953 120.394 81.5342 120.214 81.6044L119.063 82.0502C118.883 82.12 118.682 82.1153 118.505 82.0371C118.327 81.9589 118.188 81.8136 118.118 81.6331Z" fill="#3F3D56"/>
<path d="M116.728 75.6251C116.631 75.663 116.552 75.7378 116.51 75.8333C116.468 75.9288 116.465 76.0371 116.503 76.1345L118.549 81.4129C118.587 81.5101 118.661 81.5884 118.757 81.6306C118.852 81.6727 118.961 81.6753 119.058 81.6377L120.208 81.1918C120.306 81.154 120.384 81.0791 120.426 80.9836C120.468 80.8882 120.471 80.7799 120.433 80.6825L118.388 75.4041C118.35 75.3068 118.275 75.2285 118.179 75.1864C118.084 75.1443 117.976 75.1417 117.878 75.1793L116.728 75.6251Z" fill="#CECECE"/>
<path d="M122.669 92.645H130.438V84.8763H122.669V92.645Z" fill="#FFB8B8"/>
<path d="M104.244 107.757L101.277 106.758L99.625 114.834L101.635 115.511L104.244 107.757Z" fill="#FFB6B6"/>
<path d="M109.507 106.219L106.461 106.94L109.326 114.669L111.39 114.181L109.507 106.219Z" fill="#FFB6B6"/>
<path d="M130.158 94.6752C131.715 105.056 110.98 98.9186 110.98 98.9186L104.478 107.887L100.672 107.195C100.672 107.195 102.385 101.811 105.443 94.5933C106.801 91.388 122.225 92.1712 122.225 92.1712L122.545 89.6579L131.369 89.4849L130.158 94.6752Z" fill="#2F2E41"/>
<path d="M110.327 96.6919L104.68 96.8218C105.585 104.608 106.383 107.715 106.383 107.715L109.67 106.677L110.327 96.6919Z" fill="#2F2E41"/>
<path d="M125.721 72.2537L127.284 70.2437L129.515 70.147L129.738 72.0374L130.843 72.547C131.946 76.7397 132.117 81.1234 131.342 85.389C131.194 85.5285 131.086 85.7049 131.029 85.9002C130.971 86.0954 130.967 86.3024 131.017 86.4997L131.089 86.7854L131.082 86.7959C130.847 87.167 130.767 87.6157 130.86 88.0451L131.388 88.983C131.577 89.3202 131.691 89.6947 131.721 90.0804C131.751 90.466 131.696 90.8536 131.561 91.2162C131.427 91.5787 131.214 91.9075 130.939 92.1797C130.665 92.4519 130.334 92.6609 129.97 92.7923C126.725 93.9683 123.684 94.4063 121.434 91.1063L120.727 79.6062L125.721 72.2537Z" fill="#CECECE"/>
<path d="M127.359 70.7762C129.636 70.7762 131.483 68.9297 131.483 66.652C131.483 64.3743 129.636 62.5278 127.359 62.5278C125.081 62.5278 123.234 64.3743 123.234 66.652C123.234 68.9297 125.081 70.7762 127.359 70.7762Z" fill="#FFB8B8"/>
<path d="M129.429 61.6802C131.176 61.7138 132.561 63.3335 132.523 65.298C133.815 66.6464 133.388 68.2963 132.308 70.0607C130.333 70.29 129.872 70.3855 128.14 71.0919L127.911 70.0255L127.394 71.4143C126.954 71.6172 126.517 71.84 126.083 72.0826C125.772 70.6534 125.849 69.2642 126.687 68.0542C127.431 66.9793 125.62 65.7031 124.325 65.8835L124.344 64.8962L124.019 65.8776C123.514 66.2485 122.956 66.1142 122.383 65.8462V65.8462C121.455 61.021 128.643 59.7015 129.429 61.6802Z" fill="#2F2E41"/>
<path d="M102.551 116.876L101.229 116.703L101.157 115.425L100.389 116.594L96.8833 116.136C96.7152 116.114 96.5586 116.039 96.4362 115.921C96.3139 115.804 96.2322 115.651 96.2032 115.484C96.1741 115.317 96.1992 115.145 96.2748 114.993C96.3503 114.842 96.4724 114.718 96.6232 114.641L99.6755 113.073L99.8403 111.811L102.762 112.371L102.551 116.876Z" fill="#2F2E41"/>
<path d="M112.148 116.148L110.826 116.318L110.429 115.1L109.985 116.427L106.478 116.878C106.31 116.899 106.14 116.867 105.991 116.785C105.843 116.702 105.725 116.575 105.654 116.421C105.584 116.267 105.564 116.094 105.599 115.928C105.633 115.762 105.719 115.612 105.845 115.498L108.397 113.204L108.235 111.942L111.203 111.739L112.148 116.148Z" fill="#2F2E41"/>
<path d="M118.209 77.3006C118.697 77.3325 119.154 77.5537 119.481 77.917C119.809 78.2804 119.982 78.7572 119.963 79.2461C119.958 79.3454 119.944 79.4441 119.922 79.5411L125.466 83.0335L122.401 84.389L117.607 80.8647C117.211 80.7439 116.867 80.4955 116.627 80.1583C116.388 79.8211 116.267 79.4141 116.283 79.0008C116.294 78.7657 116.352 78.5351 116.452 78.3223C116.553 78.1095 116.694 77.9185 116.868 77.7604C117.043 77.6022 117.247 77.4799 117.468 77.4005C117.69 77.3211 117.925 77.2861 118.16 77.2975C118.176 77.2983 118.193 77.2993 118.209 77.3006Z" fill="#FFB6B6"/>
<path d="M123.554 81.4467L122.18 84.2814L127.612 87.7771C127.998 88.028 128.443 88.1758 128.902 88.2066C129.362 88.2374 129.822 88.1502 130.239 87.9531C130.745 87.7107 131.159 87.3103 131.418 86.8121C131.677 86.314 131.767 85.7452 131.675 85.1914L129.912 75.1284C129.794 74.4242 129.41 73.7921 128.84 73.3621C128.27 72.9322 127.557 72.737 126.847 72.8168C126.501 72.8546 126.167 72.9601 125.862 73.1273C125.557 73.2945 125.288 73.5201 125.07 73.7912C124.853 74.0623 124.69 74.3736 124.593 74.7074C124.496 75.0412 124.465 75.3909 124.503 75.7365C124.506 75.7638 124.509 75.7911 124.513 75.8183C124.526 75.915 124.545 76.0109 124.569 76.1056L126.493 83.2622L123.554 81.4467Z" fill="#CECECE"/>
<path d="M19.6016 80.8995L21.3441 81.6855L25.2054 75.3384L22.6336 74.1782L19.6016 80.8995Z" fill="#A0616A"/>
<path d="M18.7188 82.6911L24.0772 85.1084L24.1077 85.0407C24.3573 84.4875 24.3769 83.8579 24.1622 83.2903C23.9475 82.7228 23.5162 82.2637 22.9631 82.0141L22.963 82.014L22.3192 80.8299L20.158 80.7486L19.6902 80.5376L18.7188 82.6911Z" fill="#2F2E41"/>
<path d="M41.1845 72.2683L43.0248 71.7517L41.9078 64.4067L39.1914 65.1694L41.1845 72.2683Z" fill="#A0616A"/>
<path d="M41.662 74.2064L47.3217 72.6175L47.3016 72.5459C47.1375 71.9617 46.7482 71.4666 46.2191 71.1694C45.69 70.8722 45.0646 70.7974 44.4803 70.9614L44.4802 70.9614L43.2262 70.4673L41.5175 71.7931L41.0234 71.9318L41.662 74.2064Z" fill="#2F2E41"/>
<path d="M13.3285 50.8065C13.3756 52.1681 16.2714 55.8417 17.7944 56.3684C18.0533 56.458 18.2045 56.5073 18.2045 56.5073L18.7346 56.3471L25.1538 54.405C26.2778 55.0662 29.6309 55.4024 32.3821 55.5705C34.5719 55.7038 35.7925 56.8487 35.7925 56.8487C36.4385 61.7618 38.3009 65.3436 40.4487 69.7458L43.0262 69.2975L40.5912 52.8999C40.5386 52.5458 40.3831 52.215 40.144 51.9485C39.905 51.682 39.5929 51.4916 39.2466 51.401L21.7302 46.8192C21.7302 46.8192 20.7641 46.6443 18.7268 47.6272C15.3726 49.2454 13.2949 49.8158 13.3285 50.8065Z" fill="#2F2E41"/>
<path d="M16.6773 50.5428C16.0899 51.7721 16.9604 56.3681 18.0677 57.5389L18.3616 57.7388L18.4609 57.7906C19.1251 60.0373 26.2528 66.6084 26.2528 66.6084C23.8452 69.6755 21.6997 73.4173 20.7423 77.6097L23.5262 78.6269L31.3626 66.9283C31.5679 66.6218 31.6756 66.2605 31.6715 65.8917C31.6675 65.5229 31.5519 65.164 31.34 64.8621L28.1431 60.3083L22.9338 50.2178C19.2115 50.103 17.1053 49.6488 16.6773 50.5428Z" fill="#2F2E41"/>
<path d="M13.4321 51.343C13.4235 51.343 13.2195 50.8089 13.2153 50.8077C13.146 50.7883 12.2067 50.6956 12.418 49.1406L12.6882 47.4293L12.4244 45.9182L11.9806 45.4744L12.6938 44.7613L12.2567 41.5267L12.0889 35.0505C11.6678 32.826 11.7777 30.7914 13.818 29.8116L16.1571 27.6421L18.8187 27.6099L21.8383 29.4L23.3013 32.3167L23.8688 40.2211L24.2925 41.2098L24.2562 41.2426C24.2534 41.2451 23.9711 41.5004 23.8443 41.6408C23.7829 41.728 23.8981 42.3794 24.0404 42.9325L24.2229 44.2979L23.7631 44.6266L24.361 45.3328L25.9909 48.0879L25.8933 48.0637C25.7833 48.0363 24.7582 49.5749 13.5075 51.2859C13.4555 51.2938 13.4537 51.343 13.4321 51.343Z" fill="#3F3D56"/>
<path d="M26.3201 34.234L25.3887 33.748C25.2426 33.6716 25.1328 33.5403 25.0833 33.3829C25.0339 33.2256 25.0489 33.0551 25.125 32.9088L27.3549 28.6353C27.4314 28.4892 27.5627 28.3793 27.72 28.3299C27.8773 28.2805 28.0479 28.2955 28.1942 28.3716L29.1255 28.8576C29.2717 28.934 29.3815 29.0653 29.4309 29.2227C29.4804 29.38 29.4654 29.5505 29.3892 29.6968L27.1593 33.9703C27.0829 34.1164 26.9516 34.2263 26.7943 34.2757C26.6369 34.3251 26.4664 34.3101 26.3201 34.234Z" fill="#3F3D56"/>
<path d="M27.9701 28.5345C27.8912 28.4935 27.7993 28.4854 27.7145 28.512C27.6298 28.5387 27.559 28.5978 27.5178 28.6766L25.2879 32.9501C25.2469 33.0289 25.2388 33.1208 25.2654 33.2056C25.2921 33.2904 25.3513 33.3611 25.43 33.4023L26.3614 33.8883C26.4402 33.9293 26.5321 33.9374 26.6169 33.9108C26.7017 33.8841 26.7724 33.8249 26.8136 33.7462L29.0435 29.4727C29.0846 29.3939 29.0926 29.302 29.066 29.2172C29.0394 29.1324 28.9802 29.0617 28.9014 29.0205L27.9701 28.5345Z" fill="#CECECE"/>
<path d="M18.0907 27.0256C20.1924 27.0256 21.8962 25.3218 21.8962 23.2201C21.8962 21.1183 20.1924 19.4146 18.0907 19.4146C15.9889 19.4146 14.2852 21.1183 14.2852 23.2201C14.2852 25.3218 15.9889 27.0256 18.0907 27.0256Z" fill="#A0616A"/>
<path d="M16.2205 25.6705C16.0537 25.5378 15.8456 25.4679 15.6325 25.473C15.5663 25.4839 15.5033 25.5087 15.4475 25.5458C15.3917 25.5828 15.3443 25.6313 15.3087 25.688C15.2889 25.713 15.2631 25.7325 15.2338 25.745C15.2045 25.7575 15.1726 25.7624 15.1409 25.7594C14.7348 25.7742 13.8693 25.0209 13.8101 23.5675C13.782 22.8767 13.3687 21.7078 14.0266 21.0747C14.0707 20.8193 14.5845 18.1787 16.9004 18.1059C19.2715 18.0306 20.8498 18.5068 21.229 19.4105C21.4923 20.1279 21.6924 20.867 21.8272 21.6192L21.9067 22.0665L21.7209 21.6519C21.7174 21.6442 21.3786 20.9019 20.7503 20.6543C20.7401 20.7751 20.7094 20.8933 20.6594 21.0038C20.4544 21.4481 19.9376 21.7381 19.3427 21.7425C18.9317 21.7299 18.5263 21.6427 18.1464 21.4853C18.1894 21.5474 18.2136 21.6206 18.216 21.6961C18.2183 21.7716 18.1988 21.8461 18.1598 21.9108C18.1207 21.9754 18.0638 22.0274 17.9959 22.0605C17.928 22.0935 17.852 22.1062 17.777 22.097L17.667 22.0833C17.6324 22.079 17.5973 22.087 17.5679 22.1058C17.5385 22.1246 17.5166 22.1531 17.506 22.1864C17.4954 22.2197 17.4968 22.2557 17.51 22.288C17.5231 22.3204 17.5472 22.3471 17.578 22.3636L17.6748 22.4153L17.5573 22.4722C17.0842 22.6832 16.6944 23.0451 16.4488 23.5013C16.2032 23.9574 16.1157 24.482 16.1999 24.9932L16.3369 25.764L16.2205 25.6705Z" fill="#2F2E41"/>
<path d="M76.4702 84.4755C76.3661 84.4802 76.2631 84.4529 76.1751 84.3972C76.0871 84.3415 76.0183 84.26 75.9781 84.1639C75.9379 84.0678 75.9282 83.9616 75.9504 83.8598C75.9726 83.758 76.0255 83.6655 76.102 83.5948L76.1368 83.4564C76.1322 83.4453 76.1276 83.4342 76.1229 83.4232C76.0181 83.1755 75.8424 82.9644 75.618 82.8163C75.3935 82.6682 75.1303 82.5897 74.8614 82.5907C74.5925 82.5917 74.3298 82.6721 74.1065 82.8219C73.8831 82.9717 73.709 83.1841 73.606 83.4325C73.1944 84.424 72.6703 85.4171 72.5412 86.4654C72.4844 86.9288 72.5084 87.3985 72.6121 87.8537C71.6452 85.7446 71.1432 83.4523 71.1399 81.1321C71.1397 80.5499 71.1721 79.9681 71.2368 79.3895C71.2903 78.9152 71.3646 78.4443 71.4595 77.9767C71.9778 75.4397 73.0904 73.0617 74.7061 71.0382C75.4881 70.6115 76.1205 69.9554 76.5181 69.1582C76.6621 68.8717 76.7639 68.5658 76.8203 68.2501C76.7321 68.2617 76.6424 68.2689 76.5542 68.2747C76.5267 68.2761 76.4978 68.2776 76.4703 68.279L76.46 68.2795C76.363 68.2838 76.2669 68.2601 76.1831 68.211C76.0994 68.162 76.0316 68.0898 75.9879 68.0032C75.9442 67.9165 75.9265 67.8191 75.9369 67.7226C75.9473 67.6261 75.9854 67.5347 76.0465 67.4593C76.0846 67.4125 76.1227 67.3656 76.1609 67.3188C76.2187 67.2465 76.278 67.1756 76.3359 67.1033C76.3425 67.0964 76.3488 67.0892 76.3546 67.0816C76.4212 66.9992 76.4877 66.9182 76.5542 66.8358C76.4328 66.6473 76.2695 66.4894 76.077 66.3745C75.4103 65.984 74.4906 66.2544 74.009 66.8575C73.526 67.4605 73.4349 68.3065 73.6027 69.0599C73.7676 69.701 74.0405 70.3093 74.4096 70.8589C74.3735 70.9052 74.3359 70.95 74.2997 70.9963C73.6388 71.8461 73.0628 72.7586 72.58 73.7208C72.6974 72.6429 72.5572 71.5525 72.171 70.5393C71.7796 69.595 71.046 68.7998 70.3999 67.9835C69.6239 67.003 68.0326 67.4309 67.8958 68.6738C67.8945 68.6859 67.8932 68.6979 67.892 68.7099C67.9879 68.7641 68.0819 68.8215 68.1738 68.8823C68.2892 68.9595 68.3787 69.0697 68.4304 69.1985C68.4822 69.3274 68.4938 69.4689 68.4638 69.6045C68.4337 69.74 68.3634 69.8634 68.2621 69.9583C68.1608 70.0532 68.0331 70.1154 67.8959 70.1365L67.8818 70.1387C67.916 70.4846 67.9765 70.8273 68.0626 71.164C68.3122 72.1039 68.7533 72.9822 69.3583 73.7437C69.9632 74.5051 70.719 75.1334 71.5781 75.5891C71.6345 75.6181 71.6895 75.647 71.7459 75.6744C71.2607 77.0493 70.9564 78.4814 70.8406 79.9347C70.775 80.7921 70.7789 81.6535 70.8522 82.5103L70.8478 82.4799C70.6627 81.5271 70.1545 80.6675 69.4089 80.0461C68.3016 79.1364 66.7372 78.8015 65.5426 78.0703C65.4157 77.9888 65.268 77.9453 65.1172 77.945C64.9663 77.9446 64.8185 77.9874 64.6911 78.0683C64.5638 78.1492 64.4622 78.2648 64.3984 78.4015C64.3346 78.5382 64.3113 78.6903 64.3311 78.8399C64.3327 78.8505 64.3343 78.8612 64.336 78.8718C64.514 78.9444 64.6874 79.0279 64.8551 79.122C64.9511 79.1761 65.045 79.2336 65.1369 79.2944C65.2524 79.3715 65.3418 79.4817 65.3936 79.6106C65.4453 79.7395 65.457 79.8809 65.4269 80.0165C65.3969 80.1521 65.3266 80.2754 65.2253 80.3704C65.1239 80.4653 64.9963 80.5274 64.859 80.5486L64.845 80.5508C64.8349 80.5522 64.8262 80.5537 64.8161 80.5551C65.1203 81.2816 65.5474 81.9503 66.0785 82.5319C66.7347 83.236 67.5277 83.7986 68.409 84.1853C69.2902 84.572 70.2412 84.7746 71.2036 84.7807H71.205C71.4663 85.9159 71.8448 87.0209 72.3344 88.0778H76.3691C76.3836 88.033 76.3966 87.9867 76.4096 87.9419C76.0362 87.9654 75.6612 87.943 75.2932 87.8754C75.5926 87.508 75.8919 87.1378 76.1912 86.7705C76.1979 86.7637 76.2042 86.7564 76.21 86.7488C76.3619 86.5608 76.5152 86.3743 76.667 86.1863L76.6671 86.1861C76.6752 85.6098 76.6091 85.0349 76.4704 84.4755L76.4702 84.4755Z" fill="#E6E6E6"/>
<path d="M95.862 21.914C95.9399 21.9832 95.9946 22.0747 96.0187 22.176C96.0429 22.2774 96.0353 22.3837 95.997 22.4806C95.9587 22.5775 95.8915 22.6602 95.8046 22.7177C95.7177 22.7751 95.6152 22.8044 95.5111 22.8017L95.3895 22.8765C95.3851 22.8876 95.3807 22.8988 95.3763 22.91C95.2785 23.1605 95.2569 23.4343 95.3143 23.697C95.3717 23.9598 95.5054 24.1997 95.6987 24.3867C95.8919 24.5736 96.1362 24.6993 96.4006 24.748C96.6651 24.7966 96.9381 24.766 97.1852 24.66C98.172 24.2373 99.2405 23.8919 100.065 23.2312C100.429 22.939 100.739 22.5859 100.983 22.1876C100.203 24.3728 98.9628 26.3648 97.3457 28.0286C96.9395 28.4457 96.5103 28.8397 96.06 29.2089C95.6907 29.5112 95.3088 29.7967 94.9144 30.0653C92.7726 31.5204 90.3161 32.4467 87.7467 32.7682C86.8889 32.5279 85.978 32.5564 85.1369 32.8498C84.8338 32.9544 84.5473 33.1024 84.2866 33.2892C84.3578 33.3425 84.4271 33.3999 84.4943 33.4573C84.515 33.4754 84.5367 33.4946 84.5574 33.5127L84.5652 33.5196C84.6376 33.5842 84.6899 33.6683 84.7157 33.7619C84.7414 33.8554 84.7396 33.9544 84.7104 34.047C84.6812 34.1395 84.6259 34.2217 84.5511 34.2835C84.4763 34.3453 84.3852 34.3842 84.2888 34.3955C84.2288 34.4025 84.1688 34.4095 84.1088 34.4164C84.0169 34.4278 83.925 34.4371 83.8331 34.4486C83.8236 34.4488 83.814 34.4496 83.8045 34.451C83.6993 34.4636 83.5952 34.4751 83.49 34.4877C83.4454 34.7075 83.4522 34.9345 83.5098 35.1512C83.7147 35.8961 84.5621 36.3444 85.3279 36.2486C86.0946 36.1539 86.7503 35.6117 87.1561 34.955C87.4854 34.3808 87.7146 33.7547 87.8338 33.1035C87.892 33.0956 87.9502 33.0897 88.0084 33.0818C89.0748 32.9345 90.1242 32.6831 91.1416 32.331C90.3052 33.021 89.6445 33.8997 89.2139 34.8948C88.8351 35.8442 88.8055 36.9258 88.6984 37.9613C88.5698 39.2051 90.0081 40.0093 90.9735 39.2147C90.9828 39.207 90.9922 39.1993 91.0015 39.1915C90.9705 39.0858 90.9434 38.9791 90.92 38.8714C90.8911 38.7355 90.904 38.5942 90.9569 38.4658C91.0097 38.3374 91.1002 38.2279 91.2163 38.1518C91.3325 38.0757 91.4689 38.0364 91.6077 38.0392C91.7465 38.0419 91.8813 38.0865 91.9944 38.1671L92.0059 38.1754C92.2229 37.9039 92.4188 37.6162 92.5921 37.315C93.0694 36.4676 93.3665 35.5308 93.4647 34.5633C93.563 33.5957 93.4603 32.6183 93.1631 31.6923C93.1429 31.6322 93.1237 31.5732 93.1025 31.5141C94.4096 30.8681 95.627 30.055 96.7243 29.095C97.3697 28.5268 97.9681 27.9073 98.5137 27.2425L98.4956 27.2673C97.9632 28.0788 97.7271 29.0492 97.8273 30.0145C97.9854 31.4388 98.8719 32.7706 99.2171 34.128C99.2511 34.2749 99.3265 34.4091 99.4343 34.5147C99.5421 34.6203 99.6778 34.6928 99.8255 34.7238C99.9731 34.7547 100.127 34.7428 100.268 34.6894C100.409 34.636 100.532 34.5434 100.622 34.4225C100.628 34.4137 100.634 34.405 100.641 34.3962C100.564 34.22 100.498 34.0391 100.443 33.8547C100.413 33.749 100.385 33.6422 100.362 33.5346C100.333 33.3987 100.346 33.2574 100.399 33.129C100.452 33.0006 100.542 32.8911 100.658 32.815C100.774 32.7389 100.911 32.6996 101.05 32.7023C101.189 32.7051 101.323 32.7497 101.436 32.8303L101.448 32.8386C101.456 32.8446 101.463 32.8496 101.472 32.8556C101.761 32.123 101.922 31.3461 101.947 30.5588C101.969 29.5967 101.794 28.6403 101.432 27.7483C101.071 26.8562 100.532 26.0474 99.8467 25.3713L99.8457 25.3703C100.451 24.375 100.951 23.3195 101.338 22.2208L98.4488 19.4048C98.4071 19.4268 98.3655 19.4509 98.3249 19.4739C98.6087 19.7177 98.8616 19.9954 99.078 20.3007C98.6072 20.3548 98.1345 20.411 97.6637 20.4651C97.6541 20.4654 97.6446 20.4662 97.6351 20.4675C97.3952 20.4962 97.1552 20.5228 96.9152 20.5514L96.915 20.5515C96.507 20.9586 96.1531 21.4164 95.862 21.9138L95.862 21.914Z" fill="#E6E6E6"/>
<path d="M26.3063 33.2053L22.668 37.339L24.7341 39.3296C24.7341 39.3296 27.7308 34.4123 27.8304 34.2222C28.1058 34.1829 28.3627 34.061 28.5672 33.8725C28.7718 33.684 28.9143 33.4378 28.9759 33.1666C29.0375 32.8954 29.0153 32.6118 28.9122 32.3534C28.8092 32.0951 28.6301 31.8741 28.3988 31.7197C28.1674 31.5654 27.8946 31.4849 27.6165 31.4889C27.3384 31.4929 27.068 31.5813 26.8412 31.7423C26.6144 31.9034 26.4418 32.1294 26.3463 32.3907C26.2508 32.6519 26.2368 32.936 26.3063 33.2053Z" fill="#A0616A"/>
<path d="M13.5977 30.6997C13.6726 35.0143 16.9474 38.5659 19.4291 42.4607C19.7945 42.7021 20.2064 42.8646 20.6382 42.9377C21.07 43.0109 21.5124 42.9932 21.937 42.8857C22.3616 42.7782 22.7591 42.5832 23.104 42.3134C23.449 42.0435 23.7339 41.7046 23.9404 41.3183L26.1167 37.3007L23.347 36.5252L21.8778 37.4893L18.8128 33.8901L13.5977 30.6997Z" fill="#3F3D56"/>
</svg>
