<svg width="40" height="40" viewBox="0 0 40 40" fill="none" xmlns="http://www.w3.org/2000/svg">
<path d="M39.6821 20.0831C39.6821 22.4967 37.719 24.4532 35.2974 24.4532H25.0318L25.0813 34.6832C25.0813 37.4157 22.8587 39.6309 20.117 39.6309C17.3754 39.6309 15.1528 37.4157 15.1528 34.6832L15.1034 24.4532L5.06688 24.3712C2.64525 24.3712 0.682129 22.4146 0.682129 20.001C0.682129 17.5874 2.64525 15.6309 5.06688 15.6309L15.1034 15.713L15.1528 5.57855C15.1528 2.84602 17.3754 0.630859 20.117 0.630859C22.8587 0.630859 25.0813 2.84602 25.0813 5.57855L25.0318 15.713H35.2974C37.719 15.713 39.6821 17.6695 39.6821 20.0831Z" fill="url(#paint0_linear_7463_24334)"/>
<defs>
<linearGradient id="paint0_linear_7463_24334" x1="-0.152488" y1="14.4936" x2="40.6781" y2="14.7133" gradientUnits="userSpaceOnUse">
<stop stop-color="#8FC93A"/>
<stop offset="1" stop-color="#3CD2A2"/>
</linearGradient>
</defs>
</svg>
