<svg width="81" height="32" viewBox="0 0 81 32" fill="none" xmlns="http://www.w3.org/2000/svg">
<path d="M12.4003 11.1189C11.9363 11.5829 11.3923 11.8389 10.8483 11.8389C10.4483 11.8389 10.1443 11.7269 9.80831 11.3749C12.0003 10.4949 13.4243 8.51086 13.4243 6.03086C13.4243 2.63886 10.7523 0.174859 7.10431 0.174859C3.45631 0.174859 0.784313 2.63886 0.784313 6.03086C0.784313 8.91086 2.72031 11.1349 5.53631 11.7269C7.55231 13.8389 8.78431 14.4629 10.7683 14.4629C12.1123 14.4629 13.2483 13.9669 14.0323 13.0389L12.4003 11.1189ZM7.10431 3.23086C8.49631 3.23086 9.61631 4.28686 9.61631 6.03086C9.61631 7.77486 8.49631 8.83086 7.10431 8.83086C5.71231 8.83086 4.59231 7.77486 4.59231 6.03086C4.59231 4.28686 5.71231 3.23086 7.10431 3.23086ZM20.6348 2.87886V6.99086C20.6348 8.28686 20.0268 8.75086 19.4028 8.75086C18.6988 8.75086 18.2668 8.33486 18.2668 7.08686V2.87886H14.6508V7.71086C14.6508 10.5589 16.2348 11.7909 18.3308 11.7909C19.2748 11.7909 20.1548 11.4709 20.8108 10.7989V11.6309H24.2508V2.87886H20.6348ZM29.7747 2.71886C28.4147 2.71886 26.8627 3.07086 25.8387 3.71086L26.9907 6.09486C27.5667 5.66286 28.4467 5.40686 29.2307 5.40686C30.2547 5.40686 30.7667 5.75886 30.8787 6.43086H29.4227C26.7027 6.43086 25.4227 7.37486 25.4227 9.07086C25.4227 10.5749 26.5267 11.7909 28.6707 11.7909C29.9027 11.7909 30.7347 11.3589 31.1507 10.4789V11.6309H34.5107V6.92686C34.5107 4.01486 32.7827 2.71886 29.7747 2.71886ZM29.7587 9.61486C29.2147 9.61486 28.8947 9.31086 28.8947 8.91086C28.8947 8.43086 29.2307 8.17486 29.9987 8.17486H30.8947V8.78286C30.7027 9.35886 30.2547 9.61486 29.7587 9.61486ZM42.1534 2.71886C41.1294 2.71886 40.2014 3.05486 39.5134 3.74286V2.87886H36.0734V11.6309H39.6894V7.51886C39.6894 6.22286 40.3134 5.75886 41.0494 5.75886C41.7054 5.75886 42.1214 6.17486 42.1214 7.26286V11.6309H45.7374V6.63886C45.7374 3.88686 44.1694 2.71886 42.1534 2.71886ZM52.8918 8.81486C52.6518 8.97486 52.3638 9.05486 52.0758 9.05486C51.6438 9.05486 51.3238 8.75086 51.3238 8.20686V5.99886H53.1158V3.35886H51.3238V0.910859H47.7078V3.35886H46.5078V5.99886H47.7078V8.23886C47.7078 10.6549 49.1158 11.7909 51.5318 11.7909C52.3798 11.7909 53.1958 11.6469 53.7558 11.3269L52.8918 8.81486ZM60.6192 2.87886V6.99086C60.6192 8.28686 60.0112 8.75086 59.3872 8.75086C58.6832 8.75086 58.2512 8.33486 58.2512 7.08686V2.87886H54.6352V7.71086C54.6352 10.5589 56.2192 11.7909 58.3152 11.7909C59.2592 11.7909 60.1392 11.4709 60.7952 10.7989V11.6309H64.2352V2.87886H60.6192ZM77.4231 2.71886C76.2231 2.71886 75.1991 3.19886 74.4951 4.04686C73.8871 3.13486 72.8951 2.71886 71.7591 2.71886C70.7991 2.71886 69.9351 3.03886 69.2791 3.69486V2.87886H65.8391V11.6309H69.4551V7.35886C69.4551 6.19086 69.9511 5.75886 70.5911 5.75886C71.1991 5.75886 71.5671 6.17486 71.5671 7.26286V11.6309H75.1831V7.35886C75.1831 6.19086 75.6791 5.75886 76.3191 5.75886C76.8951 5.75886 77.2951 6.17486 77.2951 7.26286V11.6309H80.9111V6.63886C80.9111 3.88686 79.4071 2.71886 77.4231 2.71886ZM17.3638 31.7209C20.2078 31.7209 22.3498 30.4249 22.3498 28.0129C22.3498 24.2329 15.6718 25.7269 15.6898 22.5769C15.6898 20.8129 17.2918 19.7509 19.6138 19.7509C20.9098 19.7509 22.1158 20.1109 23.0158 20.7949L23.4478 20.0389C22.5117 19.3369 21.0898 18.9409 19.6498 18.9409C16.8418 18.9409 14.7718 20.2909 14.7718 22.6669C14.7718 26.5549 21.4318 25.0249 21.4318 28.1209C21.4318 29.9209 19.7938 30.9109 17.4358 30.9109C15.8338 30.9109 14.1778 30.2629 13.4038 29.3449L12.9178 30.0469C13.6918 31.0009 15.5278 31.7209 17.3638 31.7209ZM37.8905 22.1629C36.1805 22.1629 34.7405 22.8649 33.8045 24.2689C33.4805 22.9549 32.4185 22.1629 30.6725 22.1629C29.1425 22.1629 27.8105 22.7209 26.9105 23.9989L27.2705 22.2349H26.3885L24.5165 31.6309H25.4165L26.4425 26.5189C26.9105 24.1969 28.3685 22.9729 30.4385 22.9729C32.1305 22.9729 32.9765 23.8369 32.9765 25.2769C32.9765 25.5649 32.9585 25.8709 32.8865 26.1949L31.7885 31.6309H32.6885L33.7685 26.3029C34.2005 24.1069 35.6945 22.9729 37.7105 22.9729C39.4025 22.9729 40.2485 23.8369 40.2485 25.2769C40.2485 25.5649 40.2305 25.8709 40.1585 26.1949L39.0605 31.6309H39.9605L41.0585 26.1949C41.1305 25.8169 41.1665 25.4749 41.1665 25.1329C41.1665 23.2969 40.0325 22.1629 37.8905 22.1629ZM53.0362 22.2349L52.5682 24.5749C52.1182 23.0449 50.8222 22.1629 48.8602 22.1629C45.7822 22.1629 43.5502 24.5569 43.5502 27.7969C43.5502 30.2089 45.1702 31.7029 47.6002 31.7029C49.2742 31.7029 50.6602 30.9829 51.5602 29.7949L51.2002 31.6309H52.0642L53.9362 22.2349H53.0362ZM47.7802 30.8929C45.6742 30.8929 44.4502 29.7409 44.4502 27.7429C44.4502 24.9889 46.3222 22.9729 48.8602 22.9729C50.9662 22.9729 52.1902 24.1249 52.1902 26.1229C52.1902 28.8949 50.3182 30.8929 47.7802 30.8929ZM58.1987 24.2149L58.5947 22.2349H57.7127L55.8407 31.6309H56.7407L57.7127 26.8069C58.2167 24.3049 59.6207 23.0269 61.7447 23.0269C61.8527 23.0269 61.9247 23.0449 62.0327 23.0449L62.1947 22.1629C60.3047 22.1629 59.0267 22.8649 58.1987 24.2149ZM66.0144 23.0089H69.0024L69.1464 22.2349H66.1584L66.5724 20.1829H65.6724L65.2584 22.2349H63.5124L63.3684 23.0089H65.1144L63.9084 28.9849C63.8544 29.2369 63.8364 29.4709 63.8364 29.7049C63.8364 30.9649 64.6284 31.7029 65.9784 31.7029C66.6804 31.7029 67.4364 31.5229 67.9944 31.0729L67.7244 30.4069C67.2924 30.7489 66.7524 30.9289 66.1944 30.9289C65.2224 30.9289 64.7544 30.4609 64.7544 29.5789C64.7544 29.3809 64.7724 29.1649 64.8264 28.9129L66.0144 23.0089Z" fill="#001F80"/>
</svg>
