<svg width="158" height="159" viewBox="0 0 158 159" fill="none" xmlns="http://www.w3.org/2000/svg">
<g filter="url(#filter0_d_12422_3660)">
<rect x="4" y="3.13086" width="150" height="150" rx="30" fill="white"/>
<path d="M38.7489 69.9349C37.6722 69.9349 36.6715 69.7639 35.7469 69.4219C34.8349 69.0799 34.0432 68.5985 33.3719 67.9779C32.7005 67.3445 32.1749 66.6035 31.7949 65.7549C31.4275 64.9062 31.2439 63.9815 31.2439 62.9809C31.2439 61.9675 31.4275 61.0429 31.7949 60.2069C32.1749 59.3582 32.7005 58.6235 33.3719 58.0029C34.0432 57.3695 34.8349 56.8819 35.7469 56.5399C36.6715 56.1979 37.6722 56.0269 38.7489 56.0269C39.8382 56.0269 40.8389 56.1979 41.7509 56.5399C42.6629 56.8819 43.4545 57.3695 44.1259 58.0029C44.7972 58.6235 45.3165 59.3582 45.6839 60.2069C46.0639 61.0429 46.2539 61.9675 46.2539 62.9809C46.2539 63.9815 46.0639 64.9062 45.6839 65.7549C45.3165 66.6035 44.7972 67.3445 44.1259 67.9779C43.4545 68.5985 42.6629 69.0799 41.7509 69.4219C40.8389 69.7639 39.8382 69.9349 38.7489 69.9349ZM43.0999 72.9939C42.4792 72.9939 41.9029 72.9305 41.3709 72.8039C40.8389 72.6899 40.3195 72.4935 39.8129 72.2149C39.3189 71.9362 38.7995 71.5499 38.2549 71.0559C37.7102 70.5745 37.1022 69.9729 36.4309 69.2509L41.0669 68.1109C41.3709 68.5795 41.6305 68.9405 41.8459 69.1939C42.0612 69.4472 42.2702 69.6245 42.4729 69.7259C42.6882 69.8272 42.9289 69.8779 43.1949 69.8779C43.8535 69.8779 44.4679 69.5929 45.0379 69.0229L46.9759 71.3029C46.0259 72.4302 44.7339 72.9939 43.0999 72.9939ZM38.7489 66.3059C39.1669 66.3059 39.5532 66.2299 39.9079 66.0779C40.2752 65.9259 40.5919 65.7105 40.8579 65.4319C41.1365 65.1405 41.3519 64.7922 41.5039 64.3869C41.6559 63.9689 41.7319 63.5002 41.7319 62.9809C41.7319 62.4615 41.6559 61.9992 41.5039 61.5939C41.3519 61.1759 41.1365 60.8275 40.8579 60.5489C40.5919 60.2575 40.2752 60.0359 39.9079 59.8839C39.5532 59.7319 39.1669 59.6559 38.7489 59.6559C38.3309 59.6559 37.9382 59.7319 37.5709 59.8839C37.2162 60.0359 36.8995 60.2575 36.6209 60.5489C36.3549 60.8275 36.1459 61.1759 35.9939 61.5939C35.8419 61.9992 35.7659 62.4615 35.7659 62.9809C35.7659 63.5002 35.8419 63.9689 35.9939 64.3869C36.1459 64.7922 36.3549 65.1405 36.6209 65.4319C36.8995 65.7105 37.2162 65.9259 37.5709 66.0779C37.9382 66.2299 38.3309 66.3059 38.7489 66.3059ZM52.0803 69.8209C51.257 69.8209 50.5097 69.6562 49.8383 69.3269C49.1797 68.9849 48.6603 68.4592 48.2803 67.7499C47.9003 67.0279 47.7103 66.1032 47.7103 64.9759V59.2379H52.0043V64.2349C52.0043 64.9695 52.1247 65.4825 52.3653 65.7739C52.606 66.0652 52.9353 66.2109 53.3533 66.2109C53.6067 66.2109 53.841 66.1475 54.0563 66.0209C54.2843 65.8815 54.468 65.6599 54.6073 65.3559C54.7467 65.0392 54.8163 64.6275 54.8163 64.1209V59.2379H59.1103V69.6309H55.0253V66.6289L55.8423 67.4459C55.475 68.2565 54.9493 68.8582 54.2653 69.2509C53.594 69.6309 52.8657 69.8209 52.0803 69.8209ZM67.3039 69.6309V67.7879L66.9999 67.2939V63.7979C66.9999 63.2912 66.8416 62.9049 66.5249 62.6389C66.2209 62.3729 65.7206 62.2399 65.0239 62.2399C64.5553 62.2399 64.0803 62.3159 63.5989 62.4679C63.1176 62.6072 62.7059 62.8035 62.3639 63.0569L60.9959 60.2259C61.6039 59.8459 62.3323 59.5545 63.1809 59.3519C64.0296 59.1492 64.8593 59.0479 65.6699 59.0479C67.4559 59.0479 68.8366 59.4469 69.8119 60.2449C70.7999 61.0429 71.2939 62.3095 71.2939 64.0449V69.6309H67.3039ZM64.3589 69.8209C63.5103 69.8209 62.8009 69.6752 62.2309 69.3839C61.6609 69.0925 61.2303 68.7062 60.9389 68.2249C60.6476 67.7309 60.5019 67.1862 60.5019 66.5909C60.5019 65.9195 60.6729 65.3495 61.0149 64.8809C61.3569 64.4122 61.8763 64.0575 62.5729 63.8169C63.2823 63.5762 64.1753 63.4559 65.2519 63.4559H67.4179V65.5269H65.9359C65.4799 65.5269 65.1443 65.6029 64.9289 65.7549C64.7263 65.8942 64.6249 66.1095 64.6249 66.4009C64.6249 66.6415 64.7136 66.8442 64.8909 67.0089C65.0809 67.1609 65.3343 67.2369 65.6509 67.2369C65.9423 67.2369 66.2083 67.1609 66.4489 67.0089C66.7023 66.8442 66.8859 66.5909 66.9999 66.2489L67.5509 67.5219C67.3863 68.2945 67.0379 68.8709 66.5059 69.2509C65.9739 69.6309 65.2583 69.8209 64.3589 69.8209ZM80.3697 59.0479C81.1677 59.0479 81.8897 59.2125 82.5357 59.5419C83.1817 59.8585 83.6884 60.3589 84.0557 61.0429C84.4357 61.7269 84.6257 62.6135 84.6257 63.7029V69.6309H80.3317V64.4439C80.3317 63.7979 80.2177 63.3419 79.9897 63.0759C79.7617 62.7972 79.4514 62.6579 79.0587 62.6579C78.7674 62.6579 78.495 62.7275 78.2417 62.8669C78.001 62.9935 77.8047 63.2089 77.6527 63.5129C77.5134 63.8169 77.4437 64.2285 77.4437 64.7479V69.6309H73.1497V59.2379H77.2347V62.2779L76.4177 61.4039C76.823 60.6185 77.3677 60.0295 78.0517 59.6369C78.7484 59.2442 79.521 59.0479 80.3697 59.0479ZM91.5065 69.8209C90.0752 69.8209 88.9605 69.4789 88.1625 68.7949C87.3645 68.0982 86.9655 67.0342 86.9655 65.6029V56.9009H91.2595V65.5649C91.2595 65.8815 91.3419 66.1285 91.5065 66.3059C91.6839 66.4832 91.8992 66.5719 92.1525 66.5719C92.5199 66.5719 92.8429 66.4769 93.1215 66.2869L94.1475 69.2699C93.8182 69.4599 93.4192 69.5992 92.9505 69.6879C92.4945 69.7765 92.0132 69.8209 91.5065 69.8209ZM85.5405 62.9429V59.8079H93.3875V62.9429H85.5405ZM99.5618 69.8209C98.7385 69.8209 97.9911 69.6562 97.3198 69.3269C96.6611 68.9849 96.1418 68.4592 95.7618 67.7499C95.3818 67.0279 95.1918 66.1032 95.1918 64.9759V59.2379H99.4858V64.2349C99.4858 64.9695 99.6061 65.4825 99.8468 65.7739C100.087 66.0652 100.417 66.2109 100.835 66.2109C101.088 66.2109 101.322 66.1475 101.538 66.0209C101.766 65.8815 101.949 65.6599 102.089 65.3559C102.228 65.0392 102.298 64.6275 102.298 64.1209V59.2379H106.592V69.6309H102.507V66.6289L103.324 67.4459C102.956 68.2565 102.431 68.8582 101.747 69.2509C101.075 69.6309 100.347 69.8209 99.5618 69.8209ZM122.252 59.0479C123.038 59.0479 123.741 59.2125 124.361 59.5419C124.995 59.8585 125.489 60.3589 125.843 61.0429C126.211 61.7269 126.394 62.6135 126.394 63.7029V69.6309H122.1V64.4439C122.1 63.7979 121.993 63.3419 121.777 63.0759C121.562 62.7972 121.283 62.6579 120.941 62.6579C120.688 62.6579 120.46 62.7212 120.257 62.8479C120.055 62.9745 119.89 63.1772 119.763 63.4559C119.649 63.7219 119.592 64.0892 119.592 64.5579V69.6309H115.298V64.4439C115.298 63.7979 115.197 63.3419 114.994 63.0759C114.792 62.7972 114.507 62.6579 114.139 62.6579C113.886 62.6579 113.658 62.7212 113.455 62.8479C113.253 62.9745 113.088 63.1772 112.961 63.4559C112.847 63.7219 112.79 64.0892 112.79 64.5579V69.6309H108.496V59.2379H112.581V62.2209L111.745 61.3849C112.138 60.5995 112.664 60.0169 113.322 59.6369C113.981 59.2442 114.716 59.0479 115.526 59.0479C116.438 59.0479 117.243 59.2885 117.939 59.7699C118.649 60.2385 119.124 60.9859 119.364 62.0119L118.053 61.8029C118.433 60.9415 118.984 60.2702 119.706 59.7889C120.441 59.2949 121.29 59.0479 122.252 59.0479Z" fill="#001F80"/>
<path d="M31.0799 101.726C30.4339 101.726 29.8006 101.65 29.1799 101.498C28.5719 101.333 28.0209 101.118 27.5269 100.852C27.0456 100.586 26.6656 100.288 26.3869 99.9589L26.8999 99.2179C27.1786 99.5345 27.5396 99.8195 27.9829 100.073C28.4389 100.326 28.9393 100.523 29.4839 100.662C30.0413 100.801 30.5986 100.871 31.1559 100.871C31.9793 100.871 32.7076 100.757 33.3409 100.529C33.9869 100.301 34.4873 99.9715 34.8419 99.5409C35.1966 99.0975 35.3739 98.5592 35.3739 97.9259C35.3739 97.4572 35.2409 97.0772 34.9749 96.7859C34.7216 96.4945 34.3859 96.2539 33.9679 96.0639C33.5626 95.8739 33.1066 95.7155 32.5999 95.5889C32.1059 95.4495 31.6056 95.2975 31.0989 95.1329C30.6049 94.9682 30.1489 94.7719 29.7309 94.5439C29.3256 94.3032 28.9899 93.9929 28.7239 93.6129C28.4706 93.2329 28.3439 92.7515 28.3439 92.1689C28.3439 91.3329 28.5656 90.6235 29.0089 90.0409C29.4649 89.4582 30.0793 89.0149 30.8519 88.7109C31.6246 88.3942 32.5049 88.2359 33.4929 88.2359C34.2529 88.2359 34.9876 88.3372 35.6969 88.5399C36.4063 88.7299 37.0079 89.0149 37.5019 89.3949L37.0459 90.1929C36.5773 89.8382 36.0326 89.5659 35.4119 89.3759C34.7913 89.1859 34.1389 89.0909 33.4549 89.0909C32.6443 89.0909 31.9223 89.2112 31.2889 89.4519C30.6683 89.6799 30.1806 90.0155 29.8259 90.4589C29.4839 90.9022 29.3129 91.4405 29.3129 92.0739C29.3129 92.5425 29.4396 92.9289 29.6929 93.2329C29.9463 93.5242 30.2756 93.7712 30.6809 93.9739C31.0989 94.1639 31.5613 94.3285 32.0679 94.4679C32.5746 94.6072 33.0749 94.7592 33.5689 94.9239C34.0629 95.0759 34.5189 95.2722 34.9369 95.5129C35.3549 95.7409 35.6906 96.0385 35.9439 96.4059C36.2099 96.7732 36.3429 97.2419 36.3429 97.8119C36.3429 98.6605 36.1086 99.3762 35.6399 99.9589C35.1839 100.542 34.5569 100.985 33.7589 101.289C32.9736 101.58 32.0806 101.726 31.0799 101.726ZM52.747 91.6369C53.6464 91.6369 54.3684 91.8142 54.913 92.1689C55.4704 92.5109 55.8504 93.0049 56.053 93.6509C56.2557 94.2842 56.2684 95.0315 56.091 95.8929L54.932 101.631H53.982L55.141 95.8929C55.3437 94.8415 55.2297 94.0119 54.799 93.4039C54.381 92.7959 53.6337 92.4919 52.557 92.4919C51.493 92.4919 50.5937 92.7895 49.859 93.3849C49.1244 93.9675 48.6367 94.8415 48.396 96.0069L47.256 101.631H46.306L47.465 95.8929C47.6677 94.8415 47.5537 94.0119 47.123 93.4039C46.705 92.7959 45.9577 92.4919 44.881 92.4919C43.7917 92.4919 42.8797 92.8085 42.145 93.4419C41.4104 94.0752 40.9164 95.0062 40.663 96.2349L39.58 101.631H38.63L40.606 91.7129H41.537L40.967 94.5819L40.72 94.3349C41.1887 93.3975 41.803 92.7135 42.563 92.2829C43.323 91.8522 44.178 91.6369 45.128 91.6369C45.8374 91.6369 46.439 91.7572 46.933 91.9979C47.4397 92.2385 47.826 92.5805 48.092 93.0239C48.358 93.4672 48.5037 93.9992 48.529 94.6199L48.054 94.5059C48.5354 93.5432 49.1814 92.8275 49.992 92.3589C50.8027 91.8775 51.721 91.6369 52.747 91.6369ZM62.9777 101.707C62.129 101.707 61.3817 101.542 60.7357 101.213C60.0897 100.884 59.5893 100.409 59.2347 99.7879C58.88 99.1672 58.7027 98.4325 58.7027 97.5839C58.7027 96.7225 58.8357 95.9309 59.1017 95.2089C59.3803 94.4869 59.773 93.8599 60.2797 93.3279C60.7863 92.7959 61.3817 92.3842 62.0657 92.0929C62.7497 91.7889 63.497 91.6369 64.3077 91.6369C65.1817 91.6369 65.9227 91.7952 66.5307 92.1119C67.1387 92.4159 67.601 92.8655 67.9177 93.4609C68.247 94.0435 68.4117 94.7529 68.4117 95.5889C68.4243 96.7669 68.2027 97.8182 67.7467 98.7429C67.3033 99.6675 66.67 100.396 65.8467 100.928C65.036 101.447 64.0797 101.707 62.9777 101.707ZM63.1677 100.852C64.067 100.852 64.865 100.637 65.5617 100.206C66.2583 99.7752 66.8093 99.1799 67.2147 98.4199C67.62 97.6472 67.8227 96.7795 67.8227 95.8169C67.8227 94.7529 67.5123 93.9359 66.8917 93.3659C66.2837 92.7832 65.4223 92.4919 64.3077 92.4919C63.421 92.4919 62.623 92.7135 61.9137 93.1569C61.217 93.5875 60.666 94.1829 60.2607 94.9429C59.8553 95.7029 59.6527 96.5642 59.6527 97.5269C59.6527 98.5782 59.9567 99.3952 60.5647 99.9779C61.1853 100.561 62.053 100.852 63.1677 100.852ZM66.7777 101.631L67.3857 98.5339L67.9367 96.8049L68.0697 94.9809L68.7157 91.7129H69.6657L67.6897 101.631H66.7777ZM71.6759 101.631L73.6519 91.7129H74.5829L73.9749 94.6959L73.8609 94.3539C74.2916 93.4545 74.8743 92.7769 75.6089 92.3209C76.3436 91.8649 77.2683 91.6369 78.3829 91.6369L78.2119 92.5679C78.1613 92.5679 78.1106 92.5679 78.0599 92.5679C78.0093 92.5552 77.9586 92.5489 77.9079 92.5489C76.7933 92.5489 75.8686 92.8845 75.1339 93.5559C74.4119 94.2145 73.9179 95.2089 73.6519 96.5389L72.6259 101.631H71.6759ZM82.3768 101.707C81.8321 101.707 81.3698 101.593 80.9898 101.365C80.6225 101.137 80.3691 100.808 80.2298 100.377C80.0905 99.9462 80.0778 99.4332 80.1918 98.8379L82.0538 89.5469H83.0038L81.1608 98.7619C81.0215 99.4585 81.0658 99.9905 81.2938 100.358C81.5345 100.713 81.9715 100.89 82.6048 100.89C82.9088 100.89 83.1938 100.846 83.4598 100.757C83.7385 100.656 83.9918 100.516 84.2198 100.339L84.5048 101.042C84.2008 101.283 83.8588 101.454 83.4788 101.555C83.1115 101.656 82.7441 101.707 82.3768 101.707ZM79.6218 92.5299L79.7738 91.7129H85.7208L85.5688 92.5299H79.6218ZM92.205 101.631L94.865 88.3309H99.501C100.97 88.3309 102.11 88.6539 102.921 89.2999C103.732 89.9332 104.137 90.8325 104.137 91.9979C104.137 93.1379 103.89 94.1005 103.396 94.8859C102.902 95.6712 102.193 96.2665 101.268 96.6719C100.356 97.0772 99.273 97.2799 98.019 97.2799H93.611L94.143 96.8239L93.174 101.631H92.205ZM94.124 96.8809L93.782 96.4059H98.019C99.653 96.4059 100.913 96.0449 101.8 95.3229C102.699 94.5882 103.149 93.5052 103.149 92.0739C103.149 91.1492 102.826 90.4399 102.18 89.9459C101.547 89.4519 100.635 89.2049 99.444 89.2049H95.245L95.758 88.7109L94.124 96.8809ZM111.81 101.726C110.505 101.726 109.397 101.498 108.485 101.042C107.586 100.586 106.902 99.9462 106.433 99.1229C105.964 98.2995 105.73 97.3432 105.73 96.2539C105.73 95.1772 105.914 94.1575 106.281 93.1949C106.648 92.2322 107.174 91.3772 107.858 90.6299C108.555 89.8825 109.391 89.2999 110.366 88.8819C111.354 88.4512 112.462 88.2359 113.691 88.2359C114.996 88.2359 116.104 88.4639 117.016 88.9199C117.928 89.3759 118.618 90.0155 119.087 90.8389C119.556 91.6622 119.79 92.6185 119.79 93.7079C119.79 94.7845 119.606 95.8042 119.239 96.7669C118.872 97.7295 118.34 98.5845 117.643 99.3319C116.946 100.079 116.104 100.668 115.116 101.099C114.141 101.517 113.039 101.726 111.81 101.726ZM111.905 100.833C112.956 100.833 113.906 100.649 114.755 100.282C115.604 99.9019 116.326 99.3889 116.921 98.7429C117.529 98.0842 117.991 97.3305 118.308 96.4819C118.637 95.6205 118.802 94.7085 118.802 93.7459C118.802 92.8212 118.606 92.0169 118.213 91.3329C117.82 90.6362 117.238 90.0979 116.465 89.7179C115.705 89.3252 114.755 89.1289 113.615 89.1289C112.564 89.1289 111.614 89.3189 110.765 89.6989C109.916 90.0662 109.188 90.5792 108.58 91.2379C107.985 91.8839 107.522 92.6375 107.193 93.4989C106.864 94.3475 106.699 95.2532 106.699 96.2159C106.699 97.1279 106.895 97.9322 107.288 98.6289C107.681 99.3255 108.263 99.8702 109.036 100.263C109.809 100.643 110.765 100.833 111.905 100.833ZM125.412 101.726C124.766 101.726 124.133 101.65 123.512 101.498C122.904 101.333 122.353 101.118 121.859 100.852C121.378 100.586 120.998 100.288 120.719 99.9589L121.232 99.2179C121.511 99.5345 121.872 99.8195 122.315 100.073C122.771 100.326 123.271 100.523 123.816 100.662C124.373 100.801 124.931 100.871 125.488 100.871C126.311 100.871 127.04 100.757 127.673 100.529C128.319 100.301 128.819 99.9715 129.174 99.5409C129.529 99.0975 129.706 98.5592 129.706 97.9259C129.706 97.4572 129.573 97.0772 129.307 96.7859C129.054 96.4945 128.718 96.2539 128.3 96.0639C127.895 95.8739 127.439 95.7155 126.932 95.5889C126.438 95.4495 125.938 95.2975 125.431 95.1329C124.937 94.9682 124.481 94.7719 124.063 94.5439C123.658 94.3032 123.322 93.9929 123.056 93.6129C122.803 93.2329 122.676 92.7515 122.676 92.1689C122.676 91.3329 122.898 90.6235 123.341 90.0409C123.797 89.4582 124.411 89.0149 125.184 88.7109C125.957 88.3942 126.837 88.2359 127.825 88.2359C128.585 88.2359 129.32 88.3372 130.029 88.5399C130.738 88.7299 131.34 89.0149 131.834 89.3949L131.378 90.1929C130.909 89.8382 130.365 89.5659 129.744 89.3759C129.123 89.1859 128.471 89.0909 127.787 89.0909C126.976 89.0909 126.254 89.2112 125.621 89.4519C125 89.6799 124.513 90.0155 124.158 90.4589C123.816 90.9022 123.645 91.4405 123.645 92.0739C123.645 92.5425 123.772 92.9289 124.025 93.2329C124.278 93.5242 124.608 93.7712 125.013 93.9739C125.431 94.1639 125.893 94.3285 126.4 94.4679C126.907 94.6072 127.407 94.7592 127.901 94.9239C128.395 95.0759 128.851 95.2722 129.269 95.5129C129.687 95.7409 130.023 96.0385 130.276 96.4059C130.542 96.7732 130.675 97.2419 130.675 97.8119C130.675 98.6605 130.441 99.3762 129.972 99.9589C129.516 100.542 128.889 100.985 128.091 101.289C127.306 101.58 126.413 101.726 125.412 101.726Z" fill="#001F80"/>
</g>
<defs>
<filter id="filter0_d_12422_3660" x="0" y="0.130859" width="158" height="158" filterUnits="userSpaceOnUse" color-interpolation-filters="sRGB">
<feFlood flood-opacity="0" result="BackgroundImageFix"/>
<feColorMatrix in="SourceAlpha" type="matrix" values="0 0 0 0 0 0 0 0 0 0 0 0 0 0 0 0 0 0 127 0" result="hardAlpha"/>
<feOffset dy="1"/>
<feGaussianBlur stdDeviation="2"/>
<feComposite in2="hardAlpha" operator="out"/>
<feColorMatrix type="matrix" values="0 0 0 0 0 0 0 0 0 0 0 0 0 0 0 0 0 0 0.09 0"/>
<feBlend mode="normal" in2="BackgroundImageFix" result="effect1_dropShadow_12422_3660"/>
<feBlend mode="normal" in="SourceGraphic" in2="effect1_dropShadow_12422_3660" result="shape"/>
</filter>
</defs>
</svg>
