<svg width="53" height="70" viewBox="0 0 53 70" fill="none" xmlns="http://www.w3.org/2000/svg">
<path fill-rule="evenodd" clip-rule="evenodd" d="M48.029 43.0409C48.9867 43.0409 49.9228 43.3249 50.7191 43.8569C51.5153 44.389 52.1359 45.1452 52.5024 46.0299C52.8689 46.9147 52.9648 47.8883 52.7779 48.8275C52.5911 49.7668 52.13 50.6295 51.4528 51.3067C50.7756 51.9838 49.9129 52.445 48.9736 52.6318C48.0344 52.8187 47.0608 52.7228 46.1761 52.3563C45.2913 51.9898 44.5351 51.3692 44.003 50.5729C43.471 49.7767 43.187 48.8405 43.187 47.8829C43.187 46.5987 43.6972 45.3671 44.6052 44.4591C45.5133 43.551 46.7448 43.0409 48.029 43.0409Z" fill="#0E5AE4"/>
<path fill-rule="evenodd" clip-rule="evenodd" d="M26.5136 52.7726L24.7393 40.5746L25.3063 39.5266C25.7038 39.5622 26.1065 39.582 26.5136 39.582L26.9392 40.4357L26.5136 52.7726ZM39.7571 26.3685C39.7571 25.962 39.7367 25.5606 39.6997 25.1637L41.4753 24.6024L52.9993 26.3685L40.9854 27.1228L39.7571 26.3685Z" fill="#0028A4"/>
<path fill-rule="evenodd" clip-rule="evenodd" d="M26.5138 52.7742V26.3688H53.0001L26.5132 52.7742H26.5138Z" fill="#0E5AE4"/>
<path fill-rule="evenodd" clip-rule="evenodd" d="M26.5166 0.00095594C33.5245 -0.0119019 40.2508 2.75849 45.2168 7.70317C50.1829 12.6478 52.9823 19.3621 52.9997 26.37L39.6995 25.164C39.6358 24.7817 39.6116 24.3944 39.5402 24.0051C39.1048 21.5765 37.9994 19.3179 36.3488 17.4841C34.6981 15.6503 32.5678 14.3143 30.1982 13.6267C27.8286 12.9392 25.3141 12.9275 22.9382 13.593C20.5623 14.2585 18.4197 15.5746 16.752 17.393C15.0843 19.2114 13.958 21.4596 13.5 23.884C13.0421 26.3085 13.2707 28.8126 14.1602 31.114C15.0497 33.4154 16.5646 35.4225 18.534 36.9088C20.5034 38.395 22.849 39.3014 25.3061 39.5256L26.5166 52.7735C23.0405 52.7906 19.5954 52.1207 16.379 50.8023C13.1626 49.4839 10.2384 47.543 7.77445 45.0911C5.31045 42.6391 3.35519 39.7245 2.02101 36.5147C0.686821 33.3048 0 29.863 0 26.3869C0 22.9108 0.686821 19.469 2.02101 16.2591C3.35519 13.0493 5.31045 10.1347 7.77445 7.68276C10.2384 5.23084 13.1626 3.28993 16.379 1.97154C19.5954 0.653139 23.0405 -0.0167619 26.5166 0.000318579" fill="#0E5AE4"/>
<path d="M8.63413 63.3631C8.63413 64.2383 8.49518 64.9932 8.21728 65.6278C7.93937 66.2583 7.54948 66.7519 7.0476 67.1086L8.66524 68.3778L7.8502 69.1307L5.94013 67.6126C5.64149 67.6872 5.32626 67.7246 4.99443 67.7246C4.28101 67.7246 3.64847 67.5503 3.09681 67.2019C2.54515 66.8494 2.11585 66.3496 1.80891 65.7025C1.50612 65.0513 1.35058 64.2985 1.34229 63.444V62.7907C1.34229 61.9197 1.49368 61.1503 1.79647 60.4825C2.09926 59.8147 2.52648 59.3045 3.07814 58.9519C3.63395 58.5952 4.26856 58.4169 4.98199 58.4169C5.712 58.4169 6.35284 58.5932 6.9045 58.9457C7.4603 59.2983 7.88753 59.8064 8.18617 60.47C8.48481 61.1295 8.63413 61.901 8.63413 62.7845V63.3631ZM7.43956 62.7783C7.43956 61.7123 7.22595 60.891 6.79873 60.3145C6.37565 59.7338 5.77007 59.4435 4.98199 59.4435C4.23123 59.4435 3.6381 59.7317 3.20258 60.3083C2.77121 60.8807 2.5493 61.677 2.53685 62.6974V63.3631C2.53685 64.4001 2.75254 65.2172 3.18391 65.8145C3.61943 66.4118 4.22294 66.7104 4.99443 66.7104C5.76592 66.7104 6.36321 66.4304 6.78628 65.8705C7.20936 65.3064 7.42712 64.4996 7.43956 63.4502V62.7783Z" fill="#3D3D3D"/>
<path d="M14.4514 66.9344C14.0035 67.4612 13.346 67.7246 12.4792 67.7246C11.7616 67.7246 11.2141 67.5172 10.8366 67.1024C10.4633 66.6835 10.2746 66.0654 10.2704 65.2483V60.8682H11.4215V65.2172C11.4215 66.2376 11.8362 66.7477 12.6658 66.7477C13.5451 66.7477 14.13 66.4201 14.4203 65.7647V60.8682H15.5713V67.6001H14.4763L14.4514 66.9344Z" fill="#3D3D3D"/>
<path d="M21.482 67.6001C21.4156 67.4674 21.3617 67.231 21.3202 66.8908C20.7851 67.4466 20.1464 67.7246 19.4039 67.7246C18.7403 67.7246 18.1948 67.5379 17.7676 67.1646C17.3445 66.7871 17.133 66.3102 17.133 65.7336C17.133 65.0326 17.3985 64.4893 17.9294 64.1035C18.4644 63.7136 19.2152 63.5187 20.1816 63.5187H21.3015V62.9898C21.3015 62.5875 21.1813 62.2681 20.9407 62.0317C20.7001 61.7911 20.3455 61.6708 19.8768 61.6708C19.4661 61.6708 19.1219 61.7745 18.844 61.9819C18.5661 62.1893 18.4271 62.4402 18.4271 62.7347H17.2699C17.2699 62.3988 17.3881 62.0752 17.6245 61.7642C17.8651 61.4489 18.1886 61.2 18.5951 61.0175C19.0057 60.835 19.4558 60.7438 19.9452 60.7438C20.7208 60.7438 21.3285 60.9387 21.7682 61.3286C22.2078 61.7144 22.436 62.2474 22.4526 62.9276V66.026C22.4526 66.644 22.5314 67.1356 22.689 67.5006V67.6001H21.482ZM19.5719 66.7229C19.9328 66.7229 20.275 66.6295 20.5985 66.4429C20.922 66.2562 21.1564 66.0136 21.3015 65.7149V64.3337H20.3994C18.9891 64.3337 18.284 64.7464 18.284 65.5718C18.284 65.9327 18.4043 66.2148 18.6449 66.418C18.8854 66.6212 19.1945 66.7229 19.5719 66.7229Z" fill="#3D3D3D"/>
<path d="M25.3457 60.8682L25.383 61.7144C25.8973 61.0673 26.5693 60.7438 27.3988 60.7438C28.8215 60.7438 29.5391 61.5464 29.5515 63.1516V67.6001H28.4005V63.1454C28.3964 62.6601 28.2844 62.3013 28.0645 62.069C27.8489 61.8367 27.5108 61.7206 27.0504 61.7206C26.6771 61.7206 26.3494 61.8201 26.0674 62.0192C25.7853 62.2183 25.5655 62.4796 25.4079 62.8032V67.6001H24.2569V60.8682H25.3457Z" fill="#3D3D3D"/>
<path d="M32.849 59.2381V60.8682H34.1058V61.7579H32.849V65.9327C32.849 66.2023 32.905 66.4056 33.017 66.5424C33.129 66.6752 33.3198 66.7415 33.5894 66.7415C33.7222 66.7415 33.9047 66.7166 34.1369 66.6669V67.6001C33.8341 67.6831 33.5396 67.7246 33.2535 67.7246C32.7391 67.7246 32.3513 67.569 32.09 67.2579C31.8287 66.9468 31.698 66.5051 31.698 65.9327V61.7579H30.4723V60.8682H31.698V59.2381H32.849Z" fill="#3D3D3D"/>
<path d="M39.612 66.9344C39.1641 67.4612 38.5067 67.7246 37.6398 67.7246C36.9222 67.7246 36.3747 67.5172 35.9972 67.1024C35.6239 66.6835 35.4352 66.0654 35.4311 65.2483V60.8682H36.5821V65.2172C36.5821 66.2376 36.9968 66.7477 37.8264 66.7477C38.7057 66.7477 39.2906 66.4201 39.5809 65.7647V60.8682H40.732V67.6001H39.6369L39.612 66.9344Z" fill="#3D3D3D"/>
<path d="M43.5691 60.8682L43.6002 61.6148C44.0938 61.0341 44.7595 60.7438 45.5973 60.7438C46.5389 60.7438 47.1797 61.1047 47.5198 61.8264C47.7438 61.5028 48.0342 61.2415 48.3909 61.0424C48.7517 60.8433 49.1769 60.7438 49.6663 60.7438C51.143 60.7438 51.8937 61.5257 51.9186 63.0894V67.6001H50.7676V63.1578C50.7676 62.6767 50.6577 62.3179 50.4378 62.0815C50.218 61.8409 49.8488 61.7206 49.3304 61.7206C48.9031 61.7206 48.5485 61.8492 48.2664 62.1063C47.9844 62.3594 47.8206 62.7016 47.7749 63.1329V67.6001H46.6177V63.1889C46.6177 62.21 46.1386 61.7206 45.1805 61.7206C44.4256 61.7206 43.9092 62.0421 43.6313 62.685V67.6001H42.4803V60.8682H43.5691Z" fill="#3D3D3D"/>
</svg>
