<svg width="774" height="545" viewBox="0 0 774 545" fill="none" xmlns="http://www.w3.org/2000/svg">
<path d="M395.486 543.804C418.744 543.804 437.598 524.95 437.598 501.691C437.598 478.433 418.744 459.579 395.486 459.579C372.227 459.579 353.373 478.433 353.373 501.691C353.373 524.95 372.227 543.804 395.486 543.804Z" fill="#0E5AE4"/>
<path d="M647.07 541.439C670.63 534.363 695.677 526.985 714.362 510.165C731.059 495.134 742.329 472.182 735.414 449.64C728.511 427.144 707.835 412.144 686.492 404.684C674.381 400.452 661.718 398.105 649.056 396.261C635.292 394.257 621.466 392.615 607.648 391.034C551.694 384.634 495.53 380.725 439.156 379.305C411.339 378.605 383.527 378.622 355.706 379.026C330.86 379.387 304.693 379.377 281.644 368.817C263.716 360.606 247.452 345.666 242.458 326.031C236.692 303.368 247.326 280.289 262.58 263.876C270.62 255.225 280.017 247.941 289.712 241.248C300.229 233.984 311.112 227.235 322.231 220.935C344.131 208.534 367.026 197.98 390.679 189.383C402.348 185.14 414.19 181.48 426.136 178.102C436.222 175.25 446.34 172.395 456.087 168.51C474.932 160.999 492.854 148.277 497.646 127.421C502.188 107.654 494.531 86.1953 481.107 71.5108C465.578 54.522 442.163 47.0746 419.715 45.8699C394.513 44.5154 369.891 50.8242 346.203 58.8294C320.938 67.3676 296.218 77.1846 270.42 84.0998C244.837 90.9518 218.759 95.8002 192.424 98.601C179.531 99.9738 166.25 101.524 153.281 100.473C142.411 99.5922 131.598 96.3956 123.587 88.6804C116.719 82.0672 112.627 72.976 114.034 63.3829C114.29 61.6404 116.937 62.3814 116.682 64.1128C114.964 75.7879 122.902 86.5443 132.683 92.0595C143.988 98.4337 157.744 98.4385 170.33 97.7102C197.619 96.0624 224.723 92.1447 251.362 85.9977C277.538 80.0219 302.78 71.4725 327.992 62.3423C351.937 53.6711 376.419 45.2117 402.001 43.3298C424.198 41.7004 447.548 44.9337 466.886 56.5339C483.881 66.7325 496.378 83.7309 500.361 103.241C504.252 122.306 498.863 141.494 484.431 154.799C469.489 168.574 449.001 174.463 429.907 179.887C405.69 186.766 381.992 194.808 359.055 205.249C335.804 215.803 313.506 228.339 292.406 242.719C272.04 256.637 251.941 274.148 245.5 298.977C242.499 310.543 243.054 322.809 248.074 333.734C252.536 343.447 259.89 351.618 268.455 357.92C288.889 372.957 314.644 376.043 339.327 376.351C367.05 376.696 394.772 375.76 422.504 376.215C479.022 377.142 535.423 380.58 591.708 386.529C605.812 388.021 619.897 389.672 633.965 391.479C646.618 393.105 659.315 394.72 671.755 397.608C693.875 402.742 715.401 412.614 729.149 431.37C735.251 439.499 739.031 449.133 740.086 459.243C741.049 469.793 738.465 480.363 733.696 489.748C723.138 510.521 703.362 523.734 682.361 532.415C671.112 537.064 659.444 540.586 647.799 544.083C646.103 544.592 645.378 541.943 647.069 541.435L647.07 541.439Z" fill="#F2F2F2"/>
<path d="M115.802 85.5987C127.937 85.5987 137.774 75.7616 137.774 63.6269C137.774 51.4923 127.937 41.6552 115.802 41.6552C103.667 41.6552 93.8302 51.4923 93.8302 63.6269C93.8302 75.7616 103.667 85.5987 115.802 85.5987Z" fill="#F2F2F2"/>
<path d="M268.232 127.254C280.366 127.254 290.203 117.417 290.203 105.282C290.203 93.1476 280.366 83.3105 268.232 83.3105C256.097 83.3105 246.26 93.1476 246.26 105.282C246.26 117.417 256.097 127.254 268.232 127.254Z" fill="#F2F2F2"/>
<path d="M397.317 43.9436C409.451 43.9436 419.288 34.1065 419.288 21.9718C419.288 9.8371 409.451 0 397.317 0C385.182 0 375.345 9.8371 375.345 21.9718C375.345 34.1065 385.182 43.9436 397.317 43.9436Z" fill="#F2F2F2"/>
<path d="M477.88 137.324C490.015 137.324 499.852 127.487 499.852 115.353C499.852 103.218 490.015 93.3809 477.88 93.3809C465.746 93.3809 455.909 103.218 455.909 115.353C455.909 127.487 465.746 137.324 477.88 137.324Z" fill="#F2F2F2"/>
<path d="M368.936 245.352C381.071 245.352 390.908 235.515 390.908 223.38C390.908 211.246 381.071 201.409 368.936 201.409C356.802 201.409 346.965 211.246 346.965 223.38C346.965 235.515 356.802 245.352 368.936 245.352Z" fill="#F2F2F2"/>
<path d="M230.696 297.536C242.831 297.536 252.668 287.699 252.668 275.564C252.668 263.429 242.831 253.592 230.696 253.592C218.562 253.592 208.725 263.429 208.725 275.564C208.725 287.699 218.562 297.536 230.696 297.536Z" fill="#F2F2F2"/>
<path d="M377.176 379.015C389.311 379.015 399.148 369.178 399.148 357.043C399.148 344.908 389.311 335.071 377.176 335.071C365.041 335.071 355.204 344.908 355.204 357.043C355.204 369.178 365.041 379.015 377.176 379.015Z" fill="#F2F2F2"/>
<path d="M534.641 424.79C546.776 424.79 556.613 414.953 556.613 402.818C556.613 390.684 546.776 380.846 534.641 380.846C522.506 380.846 512.669 390.684 512.669 402.818C512.669 414.953 522.506 424.79 534.641 424.79Z" fill="#F2F2F2"/>
<path d="M718.656 414.719C730.791 414.719 740.628 404.882 740.628 392.748C740.628 380.613 730.791 370.776 718.656 370.776C706.522 370.776 696.685 380.613 696.685 392.748C696.685 404.882 706.522 414.719 718.656 414.719Z" fill="#F2F2F2"/>
<path d="M390.975 62.2575C325.162 62.722 271.268 116.208 270.333 182.019C270.325 182.627 270.321 186.899 270.321 192.487C270.322 200.68 273.576 208.537 279.369 214.33C285.162 220.124 293.019 223.379 301.212 223.381V223.381C305.273 223.38 309.294 222.579 313.045 221.024C316.797 219.468 320.205 217.189 323.075 214.317C325.945 211.444 328.222 208.034 329.774 204.281C331.326 200.529 332.123 196.507 332.121 192.446C332.121 188.638 332.116 186.007 332.116 185.846C332.114 175.674 334.759 165.678 339.792 156.839C344.825 148.001 352.073 140.624 360.821 135.436C369.57 130.248 379.518 127.427 389.688 127.25C399.857 127.073 409.898 129.546 418.822 134.426C427.746 139.307 435.245 146.426 440.583 155.084C445.921 163.742 448.913 173.64 449.265 183.805C449.617 193.971 447.317 204.052 442.591 213.059C437.865 222.065 430.875 229.686 422.31 235.172L422.321 235.185C422.321 235.185 378.351 263.492 364.946 302.323H364.957C362.6 310.278 361.405 318.533 361.411 326.83C361.411 330.24 361.611 360.082 361.999 384.302C362.134 392.659 365.55 400.628 371.508 406.49C377.467 412.351 385.491 415.635 393.849 415.633C398.049 415.633 402.207 414.802 406.084 413.189C409.962 411.575 413.482 409.211 416.442 406.233C419.403 403.254 421.745 399.719 423.334 395.831C424.923 391.944 425.728 387.781 425.702 383.581C425.568 361.4 425.495 335.571 425.495 333.696C425.495 309.852 448.497 286.095 467.392 270.602C489.149 252.762 504.807 228.453 511.095 201.025C512.487 195.38 513.256 189.599 513.386 183.786C513.386 167.752 510.213 151.877 504.051 137.075C497.888 122.273 488.857 108.836 477.479 97.5398C466.1 86.2434 452.599 77.3101 437.752 71.2547C422.906 65.1993 407.008 62.1415 390.975 62.2575V62.2575Z" fill="#0E5AE4"/>
<path d="M772.757 544.96H1.63734C1.34826 544.96 1.07103 544.845 0.866614 544.641C0.662203 544.437 0.547363 544.159 0.547363 543.87C0.547363 543.581 0.662203 543.304 0.866614 543.1C1.07103 542.895 1.34826 542.78 1.63734 542.78H772.753C773.042 542.78 773.319 542.895 773.524 543.1C773.728 543.304 773.843 543.581 773.843 543.87C773.843 544.159 773.728 544.437 773.524 544.641C773.319 544.845 773.042 544.96 772.753 544.96H772.757Z" fill="#3F3D56"/>
<path d="M575.89 249.926C591.058 249.926 603.355 237.63 603.355 222.462C603.355 207.293 591.058 194.997 575.89 194.997C560.722 194.997 548.425 207.293 548.425 222.462C548.425 237.63 560.722 249.926 575.89 249.926Z" fill="#2F2E41"/>
<path d="M525.138 532.937H513.915L508.576 489.645H525.142L525.138 532.937Z" fill="#A0616A"/>
<path d="M505.897 529.73H527.543V543.359H492.269C492.269 539.744 493.704 536.277 496.26 533.722C498.816 531.166 502.283 529.73 505.897 529.73V529.73Z" fill="#2F2E41"/>
<path d="M612.11 532.937H600.886L595.548 489.645H612.114L612.11 532.937Z" fill="#A0616A"/>
<path d="M592.869 529.73H614.515V543.359H579.24C579.24 539.744 580.676 536.277 583.232 533.722C585.788 531.166 589.254 529.73 592.869 529.73V529.73Z" fill="#2F2E41"/>
<path d="M571.716 250.088C584.135 250.088 594.202 240.021 594.202 227.602C594.202 215.184 584.135 205.116 571.716 205.116C559.298 205.116 549.231 215.184 549.231 227.602C549.231 240.021 559.298 250.088 571.716 250.088Z" fill="#A0616A"/>
<path d="M585.118 322.626L595.177 299.51C597.619 294.087 598.319 288.041 597.18 282.204C596.04 276.367 593.117 271.027 588.814 266.922C587.93 266.048 586.991 265.231 586.003 264.477C581.039 260.594 574.921 258.477 568.619 258.462C564.38 258.478 560.194 259.409 556.348 261.191C556.018 261.337 555.698 261.493 555.368 261.648C554.736 261.95 554.114 262.28 553.51 262.618C549.569 264.881 546.215 268.039 543.718 271.836C541.221 275.634 539.652 279.965 539.136 284.48L534.702 321.683C533.586 324.603 493.743 430.069 507.677 510.586C507.825 511.446 508.244 512.236 508.873 512.841C509.503 513.445 510.309 513.833 511.174 513.946L525.3 515.869C526.331 516.01 527.378 515.755 528.228 515.155C529.079 514.556 529.672 513.656 529.886 512.637L553.585 399.659C553.733 398.957 554.111 398.325 554.661 397.863C555.21 397.402 555.898 397.138 556.615 397.114C557.332 397.089 558.037 397.306 558.616 397.73C559.195 398.153 559.616 398.758 559.81 399.449L593.303 518.259C593.541 519.122 594.056 519.883 594.769 520.425C595.482 520.968 596.353 521.262 597.248 521.262C597.515 521.26 597.782 521.235 598.045 521.188L615.301 517.865C616.305 517.677 617.202 517.122 617.817 516.307C618.431 515.492 618.72 514.477 618.625 513.461C616.089 485.182 602.614 343.527 585.118 322.626Z" fill="#2F2E41"/>
<path d="M484.332 246.314C484.176 247.651 484.315 249.006 484.739 250.283C485.163 251.56 485.862 252.729 486.787 253.706C487.712 254.684 488.84 255.447 490.091 255.942C491.343 256.437 492.688 256.651 494.031 256.57L506.6 286.775L516.107 272.682L502.714 246.16C502.428 243.912 501.327 241.847 499.621 240.357C497.914 238.866 495.72 238.054 493.454 238.073C491.189 238.092 489.009 238.941 487.327 240.46C485.646 241.979 484.58 244.062 484.332 246.314V246.314Z" fill="#A0616A"/>
<path d="M570.469 353.039C571.805 352.879 573.09 352.428 574.233 351.718C575.377 351.008 576.35 350.056 577.086 348.929C577.821 347.802 578.301 346.527 578.49 345.195C578.68 343.862 578.575 342.505 578.183 341.217L604.627 321.957L588.706 315.995L566.035 335.197C563.915 335.999 562.164 337.55 561.112 339.557C560.06 341.564 559.781 343.887 560.327 346.086C560.874 348.285 562.208 350.207 564.077 351.488C565.946 352.77 568.22 353.321 570.468 353.037L570.469 353.039Z" fill="#A0616A"/>
<path d="M527.36 306.912C526.346 306.911 525.335 306.811 524.34 306.614C521.935 306.156 519.679 305.114 517.772 303.578C515.864 302.043 514.364 300.062 513.402 297.81L495.794 276.339C495.421 275.885 495.151 275.357 494.999 274.789C494.848 274.222 494.819 273.629 494.915 273.05C495.012 272.471 495.231 271.919 495.558 271.432C495.885 270.944 496.312 270.532 496.811 270.223L509.339 262.468C509.801 262.182 510.316 261.99 510.853 261.903C511.39 261.817 511.939 261.838 512.468 261.965C512.997 262.091 513.495 262.322 513.935 262.642C514.374 262.963 514.746 263.367 515.028 263.832L527.439 284.279L551.206 266.714C553.098 265.719 555.286 265.438 557.369 265.923C559.451 266.409 561.289 267.628 562.547 269.357C563.804 271.087 564.397 273.212 564.217 275.342C564.036 277.473 563.094 279.468 561.564 280.961L537.842 302.601C535.054 305.364 531.287 306.913 527.362 306.912H527.36Z" fill="#2F2E41"/>
<path d="M591.582 339.204H591.485C590.908 339.19 590.341 339.055 589.819 338.808C589.298 338.561 588.834 338.208 588.457 337.77L577.319 324.776C576.94 324.334 576.659 323.816 576.494 323.257C576.33 322.697 576.286 322.11 576.366 321.532C576.445 320.955 576.647 320.401 576.956 319.907C577.266 319.413 577.677 318.991 578.162 318.667L599.018 304.763L580.123 282.047C579.022 280.215 578.618 278.047 578.984 275.941C579.349 273.835 580.461 271.931 582.115 270.578C583.769 269.224 585.855 268.51 587.992 268.568C590.129 268.626 592.173 269.451 593.752 270.892L616.716 293.333C618.523 294.984 619.903 297.049 620.737 299.351C621.57 301.653 621.833 304.122 621.502 306.548C621.171 308.973 620.256 311.282 618.837 313.277C617.417 315.271 615.535 316.891 613.351 317.997L594.582 337.917C594.197 338.325 593.732 338.65 593.216 338.873C592.701 339.095 592.145 339.21 591.584 339.211L591.582 339.204Z" fill="#2F2E41"/>
<path d="M565.999 291.324C565.82 291.324 565.642 291.313 565.465 291.291C564.689 291.197 563.956 290.882 563.354 290.384C562.752 289.886 562.305 289.226 562.067 288.482L553.701 262.821C553.491 262.172 553.523 261.469 553.791 260.842C554.06 260.215 554.546 259.707 555.16 259.411L555.432 259.282C555.678 259.165 555.922 259.05 556.171 258.939C560.074 257.129 564.323 256.185 568.625 256.172C574.21 256.182 579.671 257.823 584.336 260.892C584.961 261.309 585.398 261.954 585.552 262.69C585.707 263.425 585.566 264.191 585.162 264.824L569.461 289.421C569.093 290.005 568.583 290.486 567.978 290.819C567.373 291.152 566.694 291.326 566.004 291.325L565.999 291.324Z" fill="#E6E6E6"/>
<path d="M597.543 210.199C602.506 210.199 606.53 206.176 606.53 201.213C606.53 196.249 602.506 192.226 597.543 192.226C592.58 192.226 588.556 196.249 588.556 201.213C588.556 206.176 592.58 210.199 597.543 210.199Z" fill="#2F2E41"/>
<path d="M566.735 191.335C560.422 191.335 554.368 193.843 549.904 198.307C545.44 202.771 542.932 208.825 542.932 215.138V225.208H555.318L561.242 215.138L563.02 225.208H600.61L590.539 215.138C590.539 208.825 588.031 202.771 583.568 198.307C579.104 193.843 573.049 191.335 566.736 191.335H566.735Z" fill="#2F2E41"/>
<path d="M602.163 195.056C603.156 191.948 605.214 189.29 607.974 187.55C610.733 185.809 614.018 185.097 617.251 185.539C622.978 186.495 627.506 191.1 630.205 196.242C632.904 201.383 634.149 207.138 635.963 212.655C637.777 218.172 640.349 223.718 644.928 227.289C649.508 230.86 656.534 231.83 661.032 228.155C660.518 231.983 658.814 235.552 656.16 238.359C653.506 241.165 650.037 243.066 646.244 243.793C642.45 244.52 638.525 244.036 635.021 242.409C631.518 240.783 628.615 238.096 626.722 234.729C624.349 230.506 623.737 225.559 623.033 220.767C622.33 215.975 621.415 211.017 618.582 207.089C615.748 203.161 610.445 200.595 605.944 202.388L602.163 195.056Z" fill="#2F2E41"/>
<path d="M309.936 208.769C301.744 208.768 293.887 205.513 288.093 199.72C282.3 193.927 279.045 186.07 279.044 177.878C279.044 172.286 279.044 168.014 279.056 167.407C279.316 148.267 284.136 129.464 293.116 112.56C278.362 132.758 270.249 157.043 269.9 182.054C269.891 182.662 269.887 186.935 269.888 192.522C269.888 200.715 273.143 208.573 278.936 214.366C284.729 220.16 292.586 223.415 300.779 223.416C307.512 223.415 314.06 221.215 319.428 217.153C324.797 213.09 328.693 207.386 330.524 200.907C324.867 205.98 317.534 208.781 309.936 208.772V208.769Z" fill="#3F3D56"/>
<path d="M393.069 127.354C402.541 127.806 411.762 130.551 419.939 135.352C428.117 140.152 435.007 146.866 440.018 154.917C445.03 162.967 448.012 172.113 448.71 181.57C449.408 191.027 447.8 200.512 444.025 209.211C449.486 202.798 453.499 195.282 455.792 187.177C458.085 179.072 458.603 170.567 457.312 162.244C456.02 153.92 452.949 145.973 448.307 138.944C443.666 131.915 437.563 125.969 430.416 121.512C423.268 117.056 415.244 114.192 406.889 113.118C398.535 112.043 390.047 112.783 382.004 115.286C373.961 117.789 366.553 121.997 360.284 127.623C354.015 133.249 349.033 140.161 345.677 147.887C351.477 141.064 358.766 135.664 366.983 132.104C375.2 128.544 384.125 126.919 393.07 127.354H393.069Z" fill="#3F3D56"/>
<path d="M402.574 401.022C394.214 401.024 386.19 397.739 380.231 391.876C374.272 386.013 370.858 378.043 370.723 369.685C370.336 345.471 370.135 315.629 370.135 312.219C370.13 303.922 371.325 295.668 373.682 287.713H373.671C375.063 283.72 376.744 279.834 378.701 276.085C372.694 284.091 367.914 292.947 364.518 302.361H364.529C362.172 310.316 360.978 318.571 360.983 326.868C360.983 330.278 361.184 360.12 361.571 384.34C361.706 392.698 365.122 400.666 371.08 406.528C377.039 412.389 385.063 415.673 393.421 415.671V415.671C400.312 415.67 407.016 413.435 412.529 409.302C418.042 405.168 422.067 399.359 423.999 392.745C418.141 398.083 410.498 401.035 402.574 401.022V401.022Z" fill="#3F3D56"/>
<path d="M116.395 533.354H127.618L132.956 490.062H116.392L116.395 533.354Z" fill="#FFB8B8"/>
<path d="M149.262 543.776L113.987 543.778L113.986 530.149L135.632 530.148C139.247 530.148 142.713 531.584 145.269 534.139C147.825 536.695 149.262 540.162 149.262 543.776V543.776Z" fill="#2F2E41"/>
<path d="M76.1132 533.354H87.3366L92.6749 490.062H76.1108L76.1132 533.354Z" fill="#FFB8B8"/>
<path d="M108.98 543.776L73.7053 543.778L73.7046 530.149L95.3505 530.148C98.9651 530.148 102.432 531.584 104.988 534.139C107.544 536.695 108.98 540.162 108.98 543.776V543.776Z" fill="#2F2E41"/>
<path d="M85.9215 520.039L74.9587 519.463C74.3934 519.433 73.8396 519.291 73.3294 519.046C72.8193 518.801 72.3628 518.457 71.9866 518.034C71.6103 517.611 71.3217 517.117 71.1375 516.582C70.9533 516.047 70.8772 515.48 70.9135 514.915L84.0164 369.841L144.356 386.124L150.172 384.537L131.991 512.967C131.835 513.933 131.355 514.817 130.63 515.474C129.905 516.13 128.977 516.52 128.001 516.578L116.183 517.129C115.592 517.162 115.001 517.071 114.446 516.864C113.892 516.657 113.387 516.336 112.963 515.924C112.538 515.511 112.204 515.015 111.982 514.467C111.759 513.919 111.652 513.33 111.668 512.739L113.81 435.657C113.821 435.3 113.698 434.952 113.465 434.681C113.231 434.411 112.905 434.237 112.55 434.196C112.195 434.154 111.838 434.248 111.548 434.457C111.259 434.667 111.059 434.977 110.987 435.327L90.3348 516.635C90.1399 517.6 89.6164 518.467 88.8536 519.089C88.0909 519.711 87.136 520.049 86.1517 520.046C86.076 520.047 85.9995 520.044 85.9215 520.039Z" fill="#2F2E41"/>
<path d="M118.411 251.139C130.829 251.139 140.896 241.072 140.896 228.653C140.896 216.235 130.829 206.168 118.411 206.168C105.992 206.168 95.9249 216.235 95.9249 228.653C95.9249 241.072 105.992 251.139 118.411 251.139Z" fill="#FFB8B8"/>
<path d="M80.9727 294.714L83.4427 348.058L84.3367 367.465C84.3719 368.31 84.6585 369.125 85.1598 369.807C85.6612 370.488 86.3544 371.004 87.1509 371.289L145.134 392.294C145.603 392.468 146.099 392.555 146.599 392.55C147.17 392.553 147.736 392.441 148.262 392.22C148.789 392 149.266 391.675 149.664 391.266C150.063 390.857 150.375 390.372 150.582 389.84C150.789 389.307 150.886 388.739 150.869 388.168L148.492 292.254C148.337 284.385 145.441 276.816 140.303 270.853C135.166 264.889 128.108 260.906 120.348 259.588C119.791 259.503 119.217 259.417 118.646 259.341C113.835 258.744 108.951 259.208 104.338 260.701C99.7245 262.195 95.4948 264.681 91.9458 267.985C88.2711 271.364 85.3836 275.51 83.4875 280.129C81.5914 284.747 80.7329 289.726 80.9727 294.713V294.714Z" fill="#CCCCCC"/>
<path d="M172.837 381.648C171.465 381.223 170.211 380.483 169.176 379.487C168.141 378.49 167.353 377.266 166.876 375.911C166.398 374.557 166.244 373.109 166.426 371.684C166.607 370.259 167.119 368.897 167.921 367.705L148.259 341.558L165.23 340.508L181.301 365.498C183.021 366.828 184.218 368.722 184.682 370.846C185.145 372.971 184.846 375.191 183.837 377.117C182.828 379.043 181.173 380.553 179.162 381.38C177.151 382.208 174.913 382.302 172.84 381.644L172.837 381.648Z" fill="#FFB8B8"/>
<path d="M159.012 362.977C158.491 362.765 158.017 362.453 157.618 362.057C157.219 361.661 156.902 361.19 156.686 360.671L127.062 290.091C126.465 288.707 126.149 287.218 126.131 285.71C126.113 284.203 126.395 282.707 126.958 281.308C127.522 279.91 128.357 278.638 129.416 277.564C130.474 276.491 131.735 275.638 133.125 275.054C134.515 274.471 136.007 274.169 137.515 274.165C139.022 274.162 140.515 274.457 141.908 275.034C143.301 275.611 144.566 276.458 145.629 277.527C146.692 278.595 147.534 279.864 148.104 281.26L177.728 351.84C178.166 352.887 178.171 354.064 177.741 355.114C177.312 356.164 176.484 357.001 175.439 357.441L162.287 362.961C161.769 363.18 161.213 363.294 160.651 363.297C160.089 363.3 159.531 363.191 159.012 362.977H159.012Z" fill="#CCCCCC"/>
<path d="M111.181 360.487L139.633 306.007C140.182 304.96 141.124 304.172 142.253 303.818C143.381 303.464 144.604 303.572 145.653 304.118L186.952 325.688C188 326.236 188.787 327.178 189.141 328.307C189.496 329.435 189.388 330.658 188.841 331.707L160.388 386.187C159.84 387.235 158.898 388.023 157.769 388.377C156.641 388.731 155.418 388.623 154.369 388.076L113.069 366.508C112.021 365.959 111.234 365.017 110.88 363.889C110.526 362.76 110.634 361.537 111.181 360.488V360.487Z" fill="#3F3D56"/>
<path d="M130.263 335.597C129.757 334.254 128.944 333.046 127.889 332.073C126.833 331.099 125.565 330.385 124.185 329.988C122.805 329.591 121.352 329.523 119.94 329.788C118.529 330.053 117.199 330.644 116.057 331.514L88.7946 313.427L88.7444 330.43L114.639 344.997C116.069 346.635 118.03 347.717 120.178 348.054C122.326 348.391 124.525 347.961 126.387 346.84C128.25 345.718 129.659 343.977 130.366 341.921C131.074 339.865 131.035 337.625 130.256 335.595L130.263 335.597Z" fill="#FFB8B8"/>
<path d="M95.7942 339.419L73.5141 321.77C71.1039 320.961 68.9262 319.579 67.1677 317.742C65.4093 315.906 64.1227 313.67 63.4183 311.228C62.714 308.785 62.613 306.207 63.1239 303.717C63.6349 301.226 64.7426 298.897 66.3519 296.928L86.5819 270.416C87.9875 268.697 89.9647 267.542 92.152 267.162C94.3392 266.781 96.5903 267.201 98.4937 268.343C100.397 269.486 101.826 271.276 102.518 273.385C103.21 275.495 103.12 277.783 102.264 279.831L86.2561 306.016L109.779 317.17C110.326 317.43 110.812 317.802 111.204 318.263C111.597 318.725 111.887 319.264 112.055 319.845C112.224 320.427 112.267 321.037 112.182 321.637C112.097 322.236 111.886 322.81 111.562 323.322L102.067 338.349C101.746 338.857 101.322 339.291 100.823 339.624C100.323 339.957 99.7594 340.181 99.1677 340.282L99.0968 340.293C98.5158 340.381 97.923 340.348 97.355 340.198C96.787 340.047 96.2558 339.782 95.7942 339.419V339.419Z" fill="#CCCCCC"/>
<path d="M101.419 243.709C101.322 243.427 101.292 243.126 101.329 242.831C101.367 242.535 101.472 242.251 101.636 242.002C101.8 241.753 102.019 241.545 102.276 241.393C102.533 241.242 102.821 241.151 103.118 241.129C103.727 241.162 104.323 241.318 104.87 241.588C105.417 241.858 105.904 242.236 106.3 242.699C107.114 243.637 108.062 244.451 109.112 245.113C110.2 245.661 111.675 245.583 112.295 244.538C112.878 243.556 112.479 242.242 112.126 241.101C111.229 238.201 110.727 235.192 110.634 232.157C110.533 228.769 111.01 225.234 112.886 222.596C115.306 219.185 119.634 217.895 123.73 217.985C127.825 218.075 131.857 219.339 135.912 220.142C137.313 220.418 138.959 220.559 139.896 219.474C140.892 218.319 140.527 216.452 140.103 214.893C139.003 210.849 137.837 206.668 135.282 203.401C132.52 200.008 128.575 197.787 124.241 197.187C120.08 196.671 115.856 197.151 111.916 198.586C105.498 200.607 99.8495 204.54 95.7265 209.858C91.4774 215.515 89.6414 222.625 90.62 229.633C91.576 235.736 94.8101 241.25 99.6705 245.063L101.419 243.709Z" fill="#2F2E41"/>
<path d="M386.207 533.532C380.225 530.927 374.93 526.966 370.74 521.964C366.55 516.962 363.581 511.054 362.065 504.707C360.55 498.36 360.53 491.748 362.007 485.393C363.485 479.037 366.419 473.112 370.579 468.084C365.756 471.606 361.738 476.113 358.79 481.306C355.842 486.499 354.032 492.26 353.481 498.206C352.93 504.152 353.649 510.148 355.592 515.794C357.535 521.441 360.657 526.61 364.75 530.958C368.843 535.306 373.814 538.734 379.334 541.014C384.853 543.294 390.794 544.374 396.762 544.182C402.731 543.991 408.59 542.532 413.952 539.903C419.314 537.273 424.055 533.534 427.861 528.932C421.925 533.271 414.955 535.979 407.647 536.786C400.339 537.593 392.947 536.472 386.207 533.533V533.532Z" fill="#3F3D56"/>
</svg>
