<svg id="erWVvHd1om21" xmlns="http://www.w3.org/2000/svg" xmlns:xlink="http://www.w3.org/1999/xlink" viewBox="0 0 1920 1080" shape-rendering="geometricPrecision" text-rendering="geometricPrecision"><path d="M1920,6L0,6v1074h1920v-1074Z" fill="#fff"/><path d="M960.077,618.311l-7.3-50.182l2.333-4.312c1.636.147,3.292.228,4.967.228l1.751,3.512-1.751,50.754Zm54.483-108.626c0-1.672-.08-3.324-.24-4.957l7.31-2.309l47.41,7.266-49.43,3.103-5.05-3.103Z" clip-rule="evenodd" fill="#0028a4" fill-rule="evenodd"/><path d="M960.078,618.318v-108.632h108.962L960.075,618.318h.003Z" clip-rule="evenodd" fill="#0e5ae4" fill-rule="evenodd"/><path d="M960.089,401.209c28.831-.052,56.501,11.345,76.931,31.687c20.43,20.343,31.95,47.965,32.02,76.796l-54.72-4.962c-.26-1.572-.36-3.166-.65-4.767-1.79-9.991-6.34-19.283-13.13-26.828-6.792-7.544-15.556-13.04-25.304-15.869-9.749-2.829-20.094-2.877-29.868-.139s-18.589,8.153-25.45,15.633c-6.861,7.481-11.495,16.73-13.379,26.705-1.884,9.974-.943,20.276,2.716,29.744s9.892,17.725,17.994,23.84c8.102,6.114,17.752,9.843,27.86,10.765l4.98,54.502c-14.3.07-28.474-2.686-41.706-8.109-13.232-5.424-25.262-13.409-35.399-23.496-10.137-10.088-18.181-22.078-23.67-35.284-5.488-13.205-8.314-27.365-8.314-41.665c0-14.301,2.826-28.461,8.314-41.666c5.489-13.206,13.533-25.196,23.67-35.283c10.137-10.088,22.167-18.073,35.399-23.497c13.232-5.423,27.406-8.179,41.706-8.109" clip-rule="evenodd" fill="#0e5ae4" fill-rule="evenodd"/><g id="erWVvHd1om26" opacity="0"><path d="M886.52,661.881c0,3.6-.572,6.706-1.715,9.317-1.144,2.594-2.748,4.624-4.812,6.092l6.655,5.221-3.353,3.098-7.858-6.246c-1.229.307-2.526.461-3.891.461-2.935,0-5.537-.717-7.807-2.15-2.269-1.451-4.036-3.507-5.298-6.169-1.246-2.679-1.886-5.776-1.92-9.291v-2.688c0-3.583.623-6.749,1.869-9.496c1.245-2.747,3.003-4.846,5.272-6.297c2.287-1.467,4.898-2.201,7.833-2.201c3.003,0,5.639.725,7.909,2.176c2.287,1.45,4.044,3.54,5.273,6.271c1.228,2.713,1.843,5.887,1.843,9.521v2.381Zm-4.915-2.406c0-4.386-.879-7.764-2.636-10.136-1.741-2.389-4.232-3.584-7.474-3.584-3.089,0-5.529,1.186-7.321,3.558-1.774,2.355-2.687,5.631-2.739,9.829v2.739c0,4.266.888,7.628,2.662,10.085c1.792,2.457,4.275,3.686,7.449,3.686s5.631-1.152,7.372-3.456c1.74-2.321,2.636-5.639,2.687-9.957v-2.764Z" fill="#3d3d3d"/><path d="M910.452,676.573c-1.843,2.167-4.547,3.251-8.114,3.251-2.952,0-5.204-.853-6.757-2.56-1.536-1.723-2.312-4.266-2.329-7.627v-18.02h4.735v17.892c0,4.197,1.706,6.296,5.119,6.296c3.618,0,6.024-1.348,7.218-4.044v-20.144h4.735v27.695h-4.504l-.103-2.739Z" fill="#3d3d3d"/><path d="M939.376,679.312c-.273-.546-.495-1.519-.666-2.918-2.201,2.287-4.829,3.43-7.883,3.43-2.731,0-4.974-.768-6.732-2.304-1.741-1.553-2.611-3.515-2.611-5.887c0-2.884,1.092-5.119,3.276-6.706c2.202-1.604,5.29-2.406,9.266-2.406h4.608v-2.176c0-1.655-.495-2.969-1.485-3.942-.99-.989-2.449-1.484-4.377-1.484-1.689,0-3.106.426-4.249,1.28-1.143.853-1.715,1.885-1.715,3.097h-4.761c0-1.382.487-2.713,1.459-3.993.99-1.297,2.321-2.321,3.993-3.072c1.69-.751,3.541-1.126,5.555-1.126c3.191,0,5.69.802,7.499,2.406c1.809,1.587,2.748,3.78,2.816,6.578v12.747c0,2.543.324,4.565.972,6.066v.41h-4.965Zm-7.858-3.609c1.484,0,2.892-.384,4.223-1.152s2.295-1.766,2.893-2.995v-5.682h-3.712c-5.802,0-8.703,1.698-8.703,5.094c0,1.484.495,2.645,1.485,3.481s2.261,1.254,3.814,1.254Z" fill="#3d3d3d"/><path d="M955.271,651.617l.154,3.481c2.116-2.662,4.88-3.993,8.293-3.993c5.853,0,8.805,3.302,8.856,9.906v18.301h-4.735v-18.327c-.017-1.996-.478-3.472-1.382-4.428-.888-.956-2.278-1.433-4.173-1.433-1.535,0-2.883.409-4.044,1.228-1.16.819-2.065,1.894-2.713,3.225v19.735h-4.735v-27.695h4.479Z" fill="#3d3d3d"/><path d="M986.14,644.911v6.706h5.17v3.66h-5.17v17.175c0,1.109.23,1.945.691,2.509.461.546,1.246.819,2.355.819.546,0,1.297-.103,2.252-.307v3.839c-1.245.341-2.457.512-3.634.512-2.116,0-3.712-.64-4.787-1.92s-1.612-3.097-1.612-5.452v-17.175h-5.043v-3.66h5.043v-6.706h4.735Z" fill="#3d3d3d"/><path d="M1013.96,676.573c-1.84,2.167-4.54,3.251-8.11,3.251-2.95,0-5.21-.853-6.758-2.56-1.536-1.723-2.312-4.266-2.33-7.627v-18.02h4.738v17.892c0,4.197,1.7,6.296,5.12,6.296c3.61,0,6.02-1.348,7.22-4.044v-20.144h4.73v27.695h-4.5l-.11-2.739Z" fill="#3d3d3d"/><path d="M1030.24,651.617l.13,3.071c2.03-2.389,4.77-3.583,8.22-3.583c3.87,0,6.51,1.485,7.91,4.454.92-1.331,2.11-2.406,3.58-3.225c1.48-.82,3.23-1.229,5.25-1.229c6.07,0,9.16,3.217,9.26,9.65v18.557h-4.73v-18.276c0-1.979-.46-3.455-1.36-4.428-.9-.99-2.42-1.484-4.56-1.484-1.75,0-3.21.529-4.37,1.587-1.16,1.04-1.84,2.448-2.02,4.223v18.378h-4.77v-18.148c0-4.027-1.97-6.04-5.91-6.04-3.1,0-5.23,1.322-6.37,3.967v20.221h-4.74v-27.695h4.48Z" fill="#3d3d3d"/><path d="M847.88,81c1.293,0,2.42.2133,3.38.64s1.7,1.04,2.22,1.84.78,1.7333.78,2.8-.26,2-.78,2.8-1.26,1.4133-2.22,1.84-2.087.64-3.38.64h-2.02v3.44h-4.72v-14h6.74Zm-.3,6.92c.64,0,1.12-.14,1.44-.42.32-.2933.48-.7.48-1.22s-.16-.92-.48-1.2c-.32-.2933-.8-.44-1.44-.44h-1.72v3.28h1.72Zm13.868,7.28c-1.213,0-2.307-.24-3.28-.72-.96-.4933-1.713-1.1667-2.26-2.02-.547-.8667-.82-1.8467-.82-2.94s.273-2.0667.82-2.92c.547-.8667,1.3-1.54,2.26-2.02.973-.48,2.067-.72,3.28-.72c1.227,0,2.32.24,3.28.72.973.48,1.727,1.1533,2.26,2.02.547.8533.82,1.8267.82,2.92s-.273,2.0733-.82,2.94c-.533.8533-1.287,1.5267-2.26,2.02-.96.48-2.053.72-3.28.72Zm0-3.52c.52,0,.947-.1867,1.28-.56.333-.3867.5-.92.5-1.6s-.167-1.2067-.5-1.58-.76-.56-1.28-.56-.947.1867-1.28.56-.5.9-.5,1.58.167,1.2133.5,1.6c.333.3733.76.56,1.28.56Zm26.142-7.62L883.79,95h-4.4l-1.66-5.06L876.01,95h-4.4l-3.8-10.94h4.28l1.88,5.78l1.96-5.78h3.84l1.9,5.84l1.96-5.84h3.96Zm12.218,5.46c0,.0667-.02.42-.06,1.06h-7.6c.16.4133.427.7333.8.96.373.2133.84.32,1.4.32.48,0,.88-.06,1.2-.18.333-.12.693-.3267,1.08-.62l2.36,2.38c-1.067,1.1733-2.66,1.76-4.78,1.76-1.32,0-2.48-.24-3.48-.72-1-.4933-1.773-1.1733-2.32-2.04s-.82-1.84-.82-2.92c0-1.0933.267-2.0667.8-2.92.547-.8667,1.287-1.54,2.22-2.02.947-.48,2.007-.72,3.18-.72c1.107,0,2.113.22,3.02.66.92.44,1.647,1.0867,2.18,1.94.547.8533.82,1.8733.82,3.06Zm-5.98-2.58c-.467,0-.853.1267-1.16.38s-.507.6133-.6,1.08h3.52c-.093-.4533-.293-.8067-.6-1.06-.307-.2667-.693-.4-1.16-.4Zm11.706-1.7c.8-.92,1.98-1.38,3.54-1.38v4c-.36-.0533-.693-.08-1-.08-1.546,0-2.32.7867-2.32,2.36v4.86h-4.52v-10.94h4.3v1.18Zm16.364,4.28c0,.0667-.02.42-.06,1.06h-7.6c.16.4133.426.7333.8.96.373.2133.84.32,1.4.32.48,0,.88-.06,1.2-.18.333-.12.693-.3267,1.08-.62l2.36,2.38c-1.067,1.1733-2.66,1.76-4.78,1.76-1.32,0-2.48-.24-3.48-.72-1-.4933-1.774-1.1733-2.32-2.04-.547-.8667-.82-1.84-.82-2.92c0-1.0933.266-2.0667.8-2.92.546-.8667,1.286-1.54,2.22-2.02.946-.48,2.006-.72,3.18-.72c1.106,0,2.113.22,3.02.66.92.44,1.646,1.0867,2.18,1.94.546.8533.82,1.8733.82,3.06Zm-5.98-2.58c-.467,0-.854.1267-1.16.38-.307.2533-.507.6133-.6,1.08h3.52c-.094-.4533-.294-.8067-.6-1.06-.307-.2667-.694-.4-1.16-.4Zm19.506-6.78v14.84h-4.3v-.9c-.653.7333-1.653,1.1-3,1.1-.96,0-1.846-.2267-2.66-.68-.8-.4667-1.44-1.1333-1.92-2-.466-.8667-.7-1.8667-.7-3s.234-2.1267.7-2.98c.48-.8667,1.12-1.5267,1.92-1.98.814-.4667,1.7-.7,2.66-.7c1.214,0,2.14.3133,2.78.94v-4.64h4.52Zm-6.22,11.52c.52,0,.947-.1867,1.28-.56.334-.3867.5-.92.5-1.6s-.166-1.2067-.5-1.58c-.333-.3733-.76-.56-1.28-.56s-.946.1867-1.28.56c-.333.3733-.5.9-.5,1.58s.167,1.2133.5,1.6c.334.3733.76.56,1.28.56Zm21.518-7.82c.96,0,1.84.2333,2.64.7.813.4533,1.453,1.1133,1.92,1.98.48.8533.72,1.8467.72,2.98s-.24,2.1333-.72,3c-.467.8667-1.107,1.5333-1.92,2-.8.4533-1.68.68-2.64.68-1.347,0-2.347-.3667-3-1.1v.9h-4.3v-14.84h4.52v4.64c.64-.6267,1.567-.94,2.78-.94Zm-1.08,7.82c.52,0,.947-.1867,1.28-.56.333-.3867.5-.92.5-1.6s-.167-1.2067-.5-1.58-.76-.56-1.28-.56-.947.1867-1.28.56-.5.9-.5,1.58.167,1.2133.5,1.6c.333.3733.76.56,1.28.56Zm19.671-7.62l-4.5,11.16c-.574,1.4267-1.287,2.4267-2.14,3-.854.5733-1.9.86-3.14.86-.614,0-1.234-.0933-1.86-.28-.614-.1733-1.1-.4067-1.46-.7l1.5-3.1c.226.1733.48.3133.76.42.293.1067.573.16.84.16.493,0,.866-.1467,1.12-.44l-4.6-11.08h4.64l2.26,5.86l2.3-5.86h4.28Zm18.027,3.62c.827.3067,1.467.7533,1.92,1.34s.68,1.2933.68,2.12c0,1.2267-.507,2.18-1.52,2.86-1.013.6667-2.48,1-4.4,1h-7.88v-14h7.48c1.867,0,3.273.3333,4.22,1c.96.6667,1.44,1.5533,1.44,2.66c0,.6533-.167,1.24-.5,1.76-.32.52-.8.94-1.44,1.26Zm-6.56-3.38v2.08h2.2c1.027,0,1.54-.3467,1.54-1.04s-.513-1.04-1.54-1.04h-2.2Zm2.84,7.4c1.04,0,1.56-.3667,1.56-1.1s-.52-1.1-1.56-1.1h-2.84v2.2h2.84Zm12.749-7.84c1.92,0,3.386.4333,4.401,1.3c1.01.8533,1.52,2.1733,1.52,3.96v5.88h-4.201v-1.44c-.52,1.0933-1.554,1.64-3.1,1.64-.867,0-1.607-.1467-2.22-.44-.6-.3067-1.06-.7133-1.38-1.22-.307-.52-.46-1.1-.46-1.74c0-1.08.413-1.9,1.24-2.46.826-.56,2.08-.84,3.76-.84h1.82c-.147-.8533-.834-1.28-2.06-1.28-.494,0-.994.08-1.5.24-.507.1467-.94.3533-1.3.62l-1.44-2.98c.626-.3867,1.38-.6867,2.26-.9.893-.2267,1.78-.34,2.66-.34Zm-.02,8.62c.32,0,.606-.0867.86-.26.253-.1733.44-.4333.56-.78v-.76h-1.12c-.92,0-1.38.3067-1.38.92c0,.2533.093.4667.28.64.2.16.466.24.8.24Zm15.491-8.62c1.35,0,2.43.4067,3.24,1.22.83.8133,1.24,2.04,1.24,3.68v6.24h-4.52v-5.46c0-1.2533-.44-1.88-1.34-1.88-.5,0-.92.18-1.24.54-.3.3467-.46.9-.46,1.66v5.14h-4.52v-10.94h4.3v1.08c.43-.4267.92-.7467,1.48-.96s1.17-.32,1.82-.32Zm12.52,11.34c-1.24,0-2.35-.24-3.34-.72-.97-.48-1.74-1.1533-2.3-2.02-.55-.8667-.82-1.8467-.82-2.94s.27-2.0667.82-2.92c.56-.8667,1.33-1.54,2.3-2.02.99-.48,2.1-.72,3.34-.72c1.33,0,2.47.2867,3.42.86s1.6,1.3667,1.96,2.38l-3.5,1.72c-.43-.96-1.06-1.44-1.9-1.44-.53,0-.98.1867-1.34.56-.35.3733-.52.9-.52,1.58c0,.6933.17,1.2267.52,1.6.36.3733.81.56,1.34.56.84,0,1.47-.48,1.9-1.44l3.5,1.72c-.36,1.0133-1.01,1.8067-1.96,2.38s-2.09.86-3.42.86Zm12.11,0c-1.22,0-2.31-.24-3.28-.72-.96-.4933-1.72-1.1667-2.26-2.02-.55-.8667-.82-1.8467-.82-2.94s.27-2.0667.82-2.92c.54-.8667,1.3-1.54,2.26-2.02.97-.48,2.06-.72,3.28-.72s2.32.24,3.28.72c.97.48,1.72,1.1533,2.26,2.02.54.8533.82,1.8267.82,2.92s-.28,2.0733-.82,2.94c-.54.8533-1.29,1.5267-2.26,2.02-.96.48-2.06.72-3.28.72Zm0-3.52c.52,0,.94-.1867,1.28-.56.33-.3867.5-.92.5-1.6s-.17-1.2067-.5-1.58c-.34-.3733-.76-.56-1.28-.56s-.95.1867-1.28.56c-.34.3733-.5.9-.5,1.58s.16,1.2133.5,1.6c.33.3733.76.56,1.28.56Zm14.61,3.64c-2.14,0-3.82-.58-5.02-1.74s-1.8-2.7867-1.8-4.88v-7.7h4.72v7.56c0,1.0267.18,1.7733.54,2.24.38.4667.91.7,1.6.7.7,0,1.22-.2333,1.58-.7.38-.4667.56-1.2133.56-2.24v-7.56h4.64v7.7c0,2.0933-.6,3.72-1.8,4.88s-2.87,1.74-5.02,1.74Zm23.33-11.46c1.32,0,2.37.4067,3.16,1.22.8.8133,1.2,2.04,1.2,3.68v6.24h-4.52v-5.46c0-1.2533-.41-1.88-1.22-1.88-.43,0-.78.16-1.04.48s-.38.8267-.38,1.52v5.34h-4.52v-5.46c0-1.2533-.41-1.88-1.22-1.88-.43,0-.78.16-1.04.48s-.38.8267-.38,1.52v5.34h-4.52v-10.94h4.3v1.02c.81-.8133,1.84-1.22,3.1-1.22.73,0,1.39.14,1.98.42.58.2667,1.06.68,1.44,1.24.44-.5333.97-.94,1.6-1.22.62-.2933,1.31-.44,2.06-.44Z" fill="#a7a9ac"/></g><path id="erWVvHd1om215" d="M1048.59,578.275c3.94,0,7.79,1.169,11.07,3.358c3.28,2.188,5.83,5.299,7.34,8.939c1.5,3.64,1.9,7.645,1.13,11.51-.77,3.864-2.67,7.413-5.45,10.199-2.79,2.786-6.34,4.683-10.2,5.452-3.87.768-7.87.374-11.51-1.134s-6.75-4.061-8.94-7.337-3.36-7.127-3.36-11.067c0-5.283,2.1-10.349,5.84-14.085c3.73-3.736,8.8-5.835,14.08-5.835" transform="matrix(500 0 0 500-523247.063191-298499.415279)" clip-rule="evenodd" fill="#0e5ae4" fill-rule="evenodd"/><script><![CDATA[!function(t,n){"object"==typeof exports&&"undefined"!=typeof module?module.exports=n():"function"==typeof define&&define.amd?define(n):((t="undefined"!=typeof globalThis?globalThis:t||self).__SVGATOR_PLAYER__=t.__SVGATOR_PLAYER__||{},t.__SVGATOR_PLAYER__["5c7f360c"]=n())}(this,(function(){"use strict";function t(t,n){var e=Object.keys(t);if(Object.getOwnPropertySymbols){var r=Object.getOwnPropertySymbols(t);n&&(r=r.filter((function(n){return Object.getOwnPropertyDescriptor(t,n).enumerable}))),e.push.apply(e,r)}return e}function n(n){for(var e=1;e<arguments.length;e++){var r=null!=arguments[e]?arguments[e]:{};e%2?t(Object(r),!0).forEach((function(t){o(n,t,r[t])})):Object.getOwnPropertyDescriptors?Object.defineProperties(n,Object.getOwnPropertyDescriptors(r)):t(Object(r)).forEach((function(t){Object.defineProperty(n,t,Object.getOwnPropertyDescriptor(r,t))}))}return n}function e(t){return(e="function"==typeof Symbol&&"symbol"==typeof Symbol.iterator?function(t){return typeof t}:function(t){return t&&"function"==typeof Symbol&&t.constructor===Symbol&&t!==Symbol.prototype?"symbol":typeof t})(t)}function r(t,n){if(!(t instanceof n))throw new TypeError("Cannot call a class as a function")}function i(t,n){for(var e=0;e<n.length;e++){var r=n[e];r.enumerable=r.enumerable||!1,r.configurable=!0,"value"in r&&(r.writable=!0),Object.defineProperty(t,r.key,r)}}function u(t,n,e){return n&&i(t.prototype,n),e&&i(t,e),t}function o(t,n,e){return n in t?Object.defineProperty(t,n,{value:e,enumerable:!0,configurable:!0,writable:!0}):t[n]=e,t}function a(t){return(a=Object.setPrototypeOf?Object.getPrototypeOf:function(t){return t.__proto__||Object.getPrototypeOf(t)})(t)}function l(t,n){return(l=Object.setPrototypeOf||function(t,n){return t.__proto__=n,t})(t,n)}function s(){if("undefined"==typeof Reflect||!Reflect.construct)return!1;if(Reflect.construct.sham)return!1;if("function"==typeof Proxy)return!0;try{return Boolean.prototype.valueOf.call(Reflect.construct(Boolean,[],(function(){}))),!0}catch(t){return!1}}function f(t,n,e){return(f=s()?Reflect.construct:function(t,n,e){var r=[null];r.push.apply(r,n);var i=new(Function.bind.apply(t,r));return e&&l(i,e.prototype),i}).apply(null,arguments)}function c(t,n){if(n&&("object"==typeof n||"function"==typeof n))return n;if(void 0!==n)throw new TypeError("Derived constructors may only return object or undefined");return function(t){if(void 0===t)throw new ReferenceError("this hasn't been initialised - super() hasn't been called");return t}(t)}function h(t,n,e){return(h="undefined"!=typeof Reflect&&Reflect.get?Reflect.get:function(t,n,e){var r=function(t,n){for(;!Object.prototype.hasOwnProperty.call(t,n)&&null!==(t=a(t)););return t}(t,n);if(r){var i=Object.getOwnPropertyDescriptor(r,n);return i.get?i.get.call(e):i.value}})(t,n,e||t)}function v(t){return function(t){if(Array.isArray(t))return y(t)}(t)||function(t){if("undefined"!=typeof Symbol&&null!=t[Symbol.iterator]||null!=t["@@iterator"])return Array.from(t)}(t)||function(t,n){if(!t)return;if("string"==typeof t)return y(t,n);var e=Object.prototype.toString.call(t).slice(8,-1);"Object"===e&&t.constructor&&(e=t.constructor.name);if("Map"===e||"Set"===e)return Array.from(t);if("Arguments"===e||/^(?:Ui|I)nt(?:8|16|32)(?:Clamped)?Array$/.test(e))return y(t,n)}(t)||function(){throw new TypeError("Invalid attempt to spread non-iterable instance.\nIn order to be iterable, non-array objects must have a [Symbol.iterator]() method.")}()}function y(t,n){(null==n||n>t.length)&&(n=t.length);for(var e=0,r=new Array(n);e<n;e++)r[e]=t[e];return r}Number.isInteger||(Number.isInteger=function(t){return"number"==typeof t&&isFinite(t)&&Math.floor(t)===t}),Number.EPSILON||(Number.EPSILON=2220446049250313e-31);var g=d(Math.pow(10,-6));function d(t){var n=arguments.length>1&&void 0!==arguments[1]?arguments[1]:6;if(Number.isInteger(t))return t;var e=Math.pow(10,n);return Math.round((+t+Number.EPSILON)*e)/e}function p(t,n){var e=arguments.length>2&&void 0!==arguments[2]?arguments[2]:g;return Math.abs(t-n)<e}var m=Math.PI/180;function b(t){return t}function w(t,n,e){var r=1-e;return 3*e*r*(t*r+n*e)+e*e*e}function x(){var t=arguments.length>0&&void 0!==arguments[0]?arguments[0]:0,n=arguments.length>1&&void 0!==arguments[1]?arguments[1]:0,e=arguments.length>2&&void 0!==arguments[2]?arguments[2]:1,r=arguments.length>3&&void 0!==arguments[3]?arguments[3]:1;return t<0||t>1||e<0||e>1?null:p(t,n)&&p(e,r)?b:function(i){if(i<=0)return t>0?i*n/t:0===n&&e>0?i*r/e:0;if(i>=1)return e<1?1+(i-1)*(r-1)/(e-1):1===e&&t<1?1+(i-1)*(n-1)/(t-1):1;for(var u,o=0,a=1;o<a;){var l=w(t,e,u=(o+a)/2);if(p(i,l))break;l<i?o=u:a=u}return w(n,r,u)}}function A(){return 1}function k(t){return 1===t?1:0}function _(){var t=arguments.length>0&&void 0!==arguments[0]?arguments[0]:1,n=arguments.length>1&&void 0!==arguments[1]?arguments[1]:0;if(1===t){if(0===n)return k;if(1===n)return A}var e=1/t;return function(t){return t>=1?1:(t+=n*e)-t%e}}var S=Math.sin,O=Math.cos,j=Math.acos,M=Math.asin,P=Math.tan,E=Math.atan2,I=Math.PI/180,R=180/Math.PI,F=Math.sqrt,N=function(){function t(){var n=arguments.length>0&&void 0!==arguments[0]?arguments[0]:1,e=arguments.length>1&&void 0!==arguments[1]?arguments[1]:0,i=arguments.length>2&&void 0!==arguments[2]?arguments[2]:0,u=arguments.length>3&&void 0!==arguments[3]?arguments[3]:1,o=arguments.length>4&&void 0!==arguments[4]?arguments[4]:0,a=arguments.length>5&&void 0!==arguments[5]?arguments[5]:0;r(this,t),this.m=[n,e,i,u,o,a],this.i=null,this.w=null,this.s=null}return u(t,[{key:"determinant",get:function(){var t=this.m;return t[0]*t[3]-t[1]*t[2]}},{key:"isIdentity",get:function(){if(null===this.i){var t=this.m;this.i=1===t[0]&&0===t[1]&&0===t[2]&&1===t[3]&&0===t[4]&&0===t[5]}return this.i}},{key:"point",value:function(t,n){var e=this.m;return{x:e[0]*t+e[2]*n+e[4],y:e[1]*t+e[3]*n+e[5]}}},{key:"translateSelf",value:function(){var t=arguments.length>0&&void 0!==arguments[0]?arguments[0]:0,n=arguments.length>1&&void 0!==arguments[1]?arguments[1]:0;if(!t&&!n)return this;var e=this.m;return e[4]+=e[0]*t+e[2]*n,e[5]+=e[1]*t+e[3]*n,this.w=this.s=this.i=null,this}},{key:"rotateSelf",value:function(){var t=arguments.length>0&&void 0!==arguments[0]?arguments[0]:0;if(t%=360){var n=S(t*=I),e=O(t),r=this.m,i=r[0],u=r[1];r[0]=i*e+r[2]*n,r[1]=u*e+r[3]*n,r[2]=r[2]*e-i*n,r[3]=r[3]*e-u*n,this.w=this.s=this.i=null}return this}},{key:"scaleSelf",value:function(){var t=arguments.length>0&&void 0!==arguments[0]?arguments[0]:1,n=arguments.length>1&&void 0!==arguments[1]?arguments[1]:1;if(1!==t||1!==n){var e=this.m;e[0]*=t,e[1]*=t,e[2]*=n,e[3]*=n,this.w=this.s=this.i=null}return this}},{key:"skewSelf",value:function(t,n){if(n%=360,(t%=360)||n){var e=this.m,r=e[0],i=e[1],u=e[2],o=e[3];t&&(t=P(t*I),e[2]+=r*t,e[3]+=i*t),n&&(n=P(n*I),e[0]+=u*n,e[1]+=o*n),this.w=this.s=this.i=null}return this}},{key:"resetSelf",value:function(){var t=arguments.length>0&&void 0!==arguments[0]?arguments[0]:1,n=arguments.length>1&&void 0!==arguments[1]?arguments[1]:0,e=arguments.length>2&&void 0!==arguments[2]?arguments[2]:0,r=arguments.length>3&&void 0!==arguments[3]?arguments[3]:1,i=arguments.length>4&&void 0!==arguments[4]?arguments[4]:0,u=arguments.length>5&&void 0!==arguments[5]?arguments[5]:0,o=this.m;return o[0]=t,o[1]=n,o[2]=e,o[3]=r,o[4]=i,o[5]=u,this.w=this.s=this.i=null,this}},{key:"recomposeSelf",value:function(){var t=arguments.length>0&&void 0!==arguments[0]?arguments[0]:null,n=arguments.length>1&&void 0!==arguments[1]?arguments[1]:null,e=arguments.length>2&&void 0!==arguments[2]?arguments[2]:null,r=arguments.length>3&&void 0!==arguments[3]?arguments[3]:null,i=arguments.length>4&&void 0!==arguments[4]?arguments[4]:null;return this.isIdentity||this.resetSelf(),t&&(t.x||t.y)&&this.translateSelf(t.x,t.y),n&&this.rotateSelf(n),e&&(e.x&&this.skewSelf(e.x,0),e.y&&this.skewSelf(0,e.y)),!r||1===r.x&&1===r.y||this.scaleSelf(r.x,r.y),i&&(i.x||i.y)&&this.translateSelf(i.x,i.y),this}},{key:"decompose",value:function(){var t=arguments.length>0&&void 0!==arguments[0]?arguments[0]:0,n=arguments.length>1&&void 0!==arguments[1]?arguments[1]:0,e=this.m,r=e[0]*e[0]+e[1]*e[1],i=[[e[0],e[1]],[e[2],e[3]]],u=F(r);if(0===u)return{origin:{x:d(e[4]),y:d(e[5])},translate:{x:d(t),y:d(n)},scale:{x:0,y:0},skew:{x:0,y:0},rotate:0};i[0][0]/=u,i[0][1]/=u;var o=e[0]*e[3]-e[1]*e[2]<0;o&&(u=-u);var a=i[0][0]*i[1][0]+i[0][1]*i[1][1];i[1][0]-=i[0][0]*a,i[1][1]-=i[0][1]*a;var l=F(i[1][0]*i[1][0]+i[1][1]*i[1][1]);if(0===l)return{origin:{x:d(e[4]),y:d(e[5])},translate:{x:d(t),y:d(n)},scale:{x:d(u),y:0},skew:{x:0,y:0},rotate:0};i[1][0]/=l,i[1][1]/=l,a/=l;var s=0;return i[1][1]<0?(s=j(i[1][1])*R,i[0][1]<0&&(s=360-s)):s=M(i[0][1])*R,o&&(s=-s),a=E(a,F(i[0][0]*i[0][0]+i[0][1]*i[0][1]))*R,o&&(a=-a),{origin:{x:d(e[4]),y:d(e[5])},translate:{x:d(t),y:d(n)},scale:{x:d(u),y:d(l)},skew:{x:d(a),y:0},rotate:d(s)}}},{key:"clone",value:function(){var t=this.m;return new this.constructor(t[0],t[1],t[2],t[3],t[4],t[5])}},{key:"toString",value:function(){var t=arguments.length>0&&void 0!==arguments[0]?arguments[0]:" ";if(null===this.s){var n=this.m.map((function(t){return d(t)}));1===n[0]&&0===n[1]&&0===n[2]&&1===n[3]?this.s="translate("+n[4]+t+n[5]+")":this.s="matrix("+n.join(t)+")"}return this.s}}],[{key:"create",value:function(t){return t?Array.isArray(t)?f(this,v(t)):t instanceof this?t.clone():(new this).recomposeSelf(t.origin,t.rotate,t.skew,t.scale,t.translate):new this}}]),t}();function T(t,n,e){return t>=.5?e:n}function q(t,n,e){return 0===t||n===e?n:t*(e-n)+n}function B(t,n,e){var r=q(t,n,e);return r<=0?0:r}function L(t,n,e){var r=q(t,n,e);return r<=0?0:r>=1?1:r}function C(t,n,e){return 0===t?n:1===t?e:{x:q(t,n.x,e.x),y:q(t,n.y,e.y)}}function D(t,n,e){var r=function(t,n,e){return Math.round(q(t,n,e))}(t,n,e);return r<=0?0:r>=255?255:r}function z(t,n,e){return 0===t?n:1===t?e:{r:D(t,n.r,e.r),g:D(t,n.g,e.g),b:D(t,n.b,e.b),a:q(t,null==n.a?1:n.a,null==e.a?1:e.a)}}function V(t,n){for(var e=[],r=0;r<t;r++)e.push(n);return e}function G(t,n){if(--n<=0)return t;var e=(t=Object.assign([],t)).length;do{for(var r=0;r<e;r++)t.push(t[r])}while(--n>0);return t}var Y,$=function(){function t(n){r(this,t),this.list=n,this.length=n.length}return u(t,[{key:"setAttribute",value:function(t,n){for(var e=this.list,r=0;r<this.length;r++)e[r].setAttribute(t,n)}},{key:"removeAttribute",value:function(t){for(var n=this.list,e=0;e<this.length;e++)n[e].removeAttribute(t)}},{key:"style",value:function(t,n){for(var e=this.list,r=0;r<this.length;r++)e[r].style[t]=n}}]),t}(),U=/-./g,Q=function(t,n){return n.toUpperCase()};function H(t){return"function"==typeof t?t:T}function J(t){return t?"function"==typeof t?t:Array.isArray(t)?function(t){var n=arguments.length>1&&void 0!==arguments[1]?arguments[1]:b;if(!Array.isArray(t))return n;switch(t.length){case 1:return _(t[0])||n;case 2:return _(t[0],t[1])||n;case 4:return x(t[0],t[1],t[2],t[3])||n}return n}(t,null):function(t,n){var e=arguments.length>2&&void 0!==arguments[2]?arguments[2]:b;switch(t){case"linear":return b;case"steps":return _(n.steps||1,n.jump||0)||e;case"bezier":case"cubic-bezier":return x(n.x1||0,n.y1||0,n.x2||0,n.y2||0)||e}return e}(t.type,t.value,null):null}function Z(t,n,e){var r=arguments.length>3&&void 0!==arguments[3]&&arguments[3],i=n.length-1;if(t<=n[0].t)return r?[0,0,n[0].v]:n[0].v;if(t>=n[i].t)return r?[i,1,n[i].v]:n[i].v;var u,o=n[0],a=null;for(u=1;u<=i;u++){if(!(t>n[u].t)){a=n[u];break}o=n[u]}return null==a?r?[i,1,n[i].v]:n[i].v:o.t===a.t?r?[u,1,a.v]:a.v:(t=(t-o.t)/(a.t-o.t),o.e&&(t=o.e(t)),r?[u,t,e(t,o.v,a.v)]:e(t,o.v,a.v))}function K(t,n){var e=arguments.length>2&&void 0!==arguments[2]?arguments[2]:null;return t&&t.length?"function"!=typeof n?null:("function"!=typeof e&&(e=null),function(r){var i=Z(r,t,n);return null!=i&&e&&(i=e(i)),i}):null}function W(t,n){return t.t-n.t}function X(t,n,r,i,u){var o,a="@"===r[0],l="#"===r[0],s=Y[r],f=T;switch(a?(o=r.substr(1),r=o.replace(U,Q)):l&&(r=r.substr(1)),e(s)){case"function":if(f=s(i,u,Z,J,r,a,n,t),l)return f;break;case"string":f=K(i,H(s));break;case"object":if((f=K(i,H(s.i),s.f))&&"function"==typeof s.u)return s.u(n,f,r,a,t)}return f?function(t,n,e){if(arguments.length>3&&void 0!==arguments[3]&&arguments[3])return t instanceof $?function(r){return t.style(n,e(r))}:function(r){return t.style[n]=e(r)};if(Array.isArray(n)){var r=n.length;return function(i){var u=e(i);if(null==u)for(var o=0;o<r;o++)t[o].removeAttribute(n);else for(var a=0;a<r;a++)t[a].setAttribute(n,u)}}return function(r){var i=e(r);null==i?t.removeAttribute(n):t.setAttribute(n,i)}}(n,r,f,a):null}function tt(t,n,r,i){if(!i||"object"!==e(i))return null;var u=null,o=null;return Array.isArray(i)?o=function(t){if(!t||!t.length)return null;for(var n=0;n<t.length;n++)t[n].e&&(t[n].e=J(t[n].e));return t.sort(W)}(i):(o=i.keys,u=i.data||null),o?X(t,n,r,o,u):null}function nt(t,n,e){if(!e)return null;var r=[];for(var i in e)if(e.hasOwnProperty(i)){var u=tt(t,n,i,e[i]);u&&r.push(u)}return r.length?r:null}function et(t,n){if(!n.settings.duration||n.settings.duration<0)return null;var e,r,i,u,o,a=function(t,n){if(!n)return null;var e=[];if(Array.isArray(n))for(var r=n.length,i=0;i<r;i++){var u=n[i];if(2===u.length){var o=null;if("string"==typeof u[0])o=t.getElementById(u[0]);else if(Array.isArray(u[0])){o=[];for(var a=0;a<u[0].length;a++)if("string"==typeof u[0][a]){var l=t.getElementById(u[0][a]);l&&o.push(l)}o=o.length?1===o.length?o[0]:new $(o):null}if(o){var s=nt(t,o,u[1]);s&&(e=e.concat(s))}}}else for(var f in n)if(n.hasOwnProperty(f)){var c=t.getElementById(f);if(c){var h=nt(t,c,n[f]);h&&(e=e.concat(h))}}return e.length?e:null}(t,n.elements);return a?(e=a,r=n.settings,i=r.duration,u=e.length,o=null,function(t,n){var a=r.iterations||1/0,l=(r.alternate&&a%2==0)^r.direction>0?i:0,s=t%i,f=1+(t-s)/i;n*=r.direction,r.alternate&&f%2==0&&(n=-n);var c=!1;if(f>a)s=l,c=!0,-1===r.fill&&(s=r.direction>0?0:i);else if(n<0&&(s=i-s),s===o)return!1;o=s;for(var h=0;h<u;h++)e[h](s);return c}):null}function rt(t,n){if(Y=n,!t||!t.root||!Array.isArray(t.animations))return null;var e=function(t){for(var n=document.getElementsByTagName("svg"),e=0;e<n.length;e++)if(n[e].id===t.root&&!n[e].svgatorAnimation)return n[e].svgatorAnimation=!0,n[e];return null}(t);if(!e)return null;var r=t.animations.map((function(t){return et(e,t)})).filter((function(t){return!!t}));return r.length?{svg:e,animations:r,animationSettings:t.animationSettings,options:t.options||void 0}:null}function it(t){return+("0x"+(t.replace(/[^0-9a-fA-F]+/g,"")||27))}function ut(t,n,e){return!t||!e||n>t.length?t:t.substring(0,n)+ut(t.substring(n+1),e,e)}function ot(t){var n=arguments.length>1&&void 0!==arguments[1]?arguments[1]:27;return!t||t%n?t%n:ot(t/n,n)}function at(t,n,e){if(t&&t.length){var r=it(e),i=it(n),u=ot(r)+5,o=ut(t,ot(r,5),u);return o=o.replace(/\x7c$/g,"==").replace(/\x2f$/g,"="),o=function(t,n,e){var r=+("0x"+t.substring(0,4));t=t.substring(4);for(var i=n%r+e%27,u=[],o=0;o<t.length;o+=2)if("|"!==t[o]){var a=+("0x"+t[o]+t[o+1])-i;u.push(a)}else{var l=+("0x"+t.substring(o+1,o+1+4))-i;o+=3,u.push(l)}return String.fromCharCode.apply(String,u)}(o=(o=atob(o)).replace(/[\x41-\x5A]/g,""),i,r),o=JSON.parse(o)}}var lt=[{key:"alternate",def:!1},{key:"fill",def:1},{key:"iterations",def:0},{key:"direction",def:1},{key:"speed",def:1},{key:"fps",def:100}],st=function(){function t(n,e){var i=this,u=arguments.length>2&&void 0!==arguments[2]?arguments[2]:null;r(this,t),this._id=0,this._running=!1,this._rollingBack=!1,this._animations=n,this._settings=e,(!u||u<"2022-05-02")&&delete this._settings.speed,lt.forEach((function(t){i._settings[t.key]=i._settings[t.key]||t.def})),this.duration=e.duration,this.offset=e.offset||0,this.rollbackStartOffset=0}return u(t,[{key:"alternate",get:function(){return this._settings.alternate}},{key:"fill",get:function(){return this._settings.fill}},{key:"iterations",get:function(){return this._settings.iterations}},{key:"direction",get:function(){return this._settings.direction}},{key:"speed",get:function(){return this._settings.speed}},{key:"fps",get:function(){return this._settings.fps}},{key:"maxFiniteDuration",get:function(){return this.iterations>0?this.iterations*this.duration:this.duration}},{key:"_apply",value:function(t){for(var n=arguments.length>1&&void 0!==arguments[1]?arguments[1]:{},e=this._animations,r=e.length,i=0,u=0;u<r;u++)n[u]?i++:(n[u]=e[u](t,1),n[u]&&i++);return i}},{key:"_rollback",value:function(t){var n=this,e=1/0,r=null;this.rollbackStartOffset=t,this._rollingBack=!0,this._running=!0;this._id=window.requestAnimationFrame((function i(u){if(n._rollingBack){null==r&&(r=u);var o=Math.round(t-(u-r)*n.speed);if(o>n.duration&&e!==1/0){var a=!!n.alternate&&o/n.duration%2>1,l=o%n.duration;o=(l+=a?n.duration:0)||n.duration}var s=(n.fps?1e3/n.fps:0)*n.speed,f=Math.max(0,o);f<e-s&&(n.offset=f,e=f,n._apply(f));var c=n.iterations>0&&-1===n.fill&&o>=n.maxFiniteDuration;(o<=0||n.offset<o||c)&&n.stop(),n._id=window.requestAnimationFrame(i)}}))}},{key:"_start",value:function(){var t=this,n=arguments.length>0&&void 0!==arguments[0]?arguments[0]:0,e=-1/0,r=null,i={};this._running=!0;var u=function u(o){null==r&&(r=o);var a=Math.round((o-r)*t.speed+n),l=(t.fps?1e3/t.fps:0)*t.speed;if(a>e+l&&!t._rollingBack&&(t.offset=a,e=a,t._apply(a,i)===t._animations.length))return void t.pause(!0);t._id=window.requestAnimationFrame(u)};this._id=window.requestAnimationFrame(u)}},{key:"_pause",value:function(){this._id&&window.cancelAnimationFrame(this._id),this._running=!1}},{key:"play",value:function(){if(!this._running)return this._rollingBack?this._rollback(this.offset):this._start(this.offset)}},{key:"stop",value:function(){this._pause(),this.offset=0,this.rollbackStartOffset=0,this._rollingBack=!1,this._apply(0)}},{key:"reachedToEnd",value:function(){return this.iterations>0&&this.offset>=this.iterations*this.duration}},{key:"restart",value:function(){var t=arguments.length>0&&void 0!==arguments[0]&&arguments[0];this.stop(t),this.play(t)}},{key:"pause",value:function(){this._pause()}},{key:"reverse",value:function(){this.direction=-this.direction}}],[{key:"build",value:function(t,n){delete t.animationSettings,t.options=at(t.options,t.root,"5c7f360c"),t.animations.map((function(n){n.settings=at(n.s,t.root,"5c7f360c"),delete n.s,t.animationSettings||(t.animationSettings=n.settings)}));var e=t.version;if(!(t=rt(t,n)))return null;var r=t.options||{},i=new this(t.animations,t.animationSettings,e);return{el:t.svg,options:r,player:i}}},{key:"push",value:function(t){return this.build(t)}},{key:"init",value:function(){var t=this,n=window.__SVGATOR_PLAYER__&&window.__SVGATOR_PLAYER__["5c7f360c"];Array.isArray(n)&&n.splice(0).forEach((function(n){return t.build(n)}))}}]),t}();function ft(t){return d(t)+""}function ct(t){var n=arguments.length>1&&void 0!==arguments[1]?arguments[1]:" ";return t&&t.length?t.map(ft).join(n):""}function ht(t){if(!t)return"transparent";if(null==t.a||t.a>=1){var n=function(t){return 1===(t=parseInt(t).toString(16)).length?"0"+t:t},e=function(t){return t.charAt(0)===t.charAt(1)},r=n(t.r),i=n(t.g),u=n(t.b);return e(r)&&e(i)&&e(u)&&(r=r.charAt(0),i=i.charAt(0),u=u.charAt(0)),"#"+r+i+u}return"rgba("+t.r+","+t.g+","+t.b+","+t.a+")"}function vt(t){return t?"url(#"+t+")":"none"}!function(){for(var t=0,n=["ms","moz","webkit","o"],e=0;e<n.length&&!window.requestAnimationFrame;++e)window.requestAnimationFrame=window[n[e]+"RequestAnimationFrame"],window.cancelAnimationFrame=window[n[e]+"CancelAnimationFrame"]||window[n[e]+"CancelRequestAnimationFrame"];window.requestAnimationFrame||(window.requestAnimationFrame=function(n){var e=Date.now(),r=Math.max(0,16-(e-t)),i=window.setTimeout((function(){n(e+r)}),r);return t=e+r,i},window.cancelAnimationFrame=window.clearTimeout)}();var yt={f:null,i:function(t,n,e){return 0===t?n:1===t?e:{x:B(t,n.x,e.x),y:B(t,n.y,e.y)}},u:function(t,n){return function(e){var r=n(e);t.setAttribute("rx",ft(r.x)),t.setAttribute("ry",ft(r.y))}}},gt={f:null,i:function(t,n,e){return 0===t?n:1===t?e:{width:B(t,n.width,e.width),height:B(t,n.height,e.height)}},u:function(t,n){return function(e){var r=n(e);t.setAttribute("width",ft(r.width)),t.setAttribute("height",ft(r.height))}}};Object.freeze({M:2,L:2,Z:0,H:1,V:1,C:6,Q:4,T:2,S:4,A:7});var dt={},pt=null;function mt(t){var n=function(){if(pt)return pt;if("object"!==("undefined"==typeof document?"undefined":e(document))||!document.createElementNS)return{};var t=document.createElementNS("http://www.w3.org/2000/svg","svg");return t&&t.style?(t.style.position="absolute",t.style.opacity="0.01",t.style.zIndex="-9999",t.style.left="-9999px",t.style.width="1px",t.style.height="1px",pt={svg:t}):{}}().svg;if(!n)return function(t){return null};var r=document.createElementNS(n.namespaceURI,"path");r.setAttributeNS(null,"d",t),r.setAttributeNS(null,"fill","none"),r.setAttributeNS(null,"stroke","none"),n.appendChild(r);var i=r.getTotalLength();return function(t){var n=r.getPointAtLength(i*t);return{x:n.x,y:n.y}}}function bt(t){return dt[t]?dt[t]:dt[t]=mt(t)}function wt(t,n,e,r){if(!t||!r)return!1;var i=["M",t.x,t.y];if(n&&e&&(i.push("C"),i.push(n.x),i.push(n.y),i.push(e.x),i.push(e.y)),n?!e:e){var u=n||e;i.push("Q"),i.push(u.x),i.push(u.y)}return n||e||i.push("L"),i.push(r.x),i.push(r.y),i.join(" ")}function xt(t,n,e,r){var i=arguments.length>4&&void 0!==arguments[4]?arguments[4]:1,u=wt(t,n,e,r),o=bt(u);try{return o(i)}catch(t){return null}}function At(t,n,e){return t+(n-t)*e}function kt(t,n,e){var r=arguments.length>3&&void 0!==arguments[3]&&arguments[3],i={x:At(t.x,n.x,e),y:At(t.y,n.y,e)};return r&&(i.a=_t(t,n)),i}function _t(t,n){return Math.atan2(n.y-t.y,n.x-t.x)}function St(t,n,e,r){var i=1-r;return i*i*t+2*i*r*n+r*r*e}function Ot(t,n,e,r){return 2*(1-r)*(n-t)+2*r*(e-n)}function jt(t,n,e,r){var i=arguments.length>4&&void 0!==arguments[4]&&arguments[4],u=xt(t,n,null,e,r);return u||(u={x:St(t.x,n.x,e.x,r),y:St(t.y,n.y,e.y,r)}),i&&(u.a=Mt(t,n,e,r)),u}function Mt(t,n,e,r){return Math.atan2(Ot(t.y,n.y,e.y,r),Ot(t.x,n.x,e.x,r))}function Pt(t,n,e,r,i){var u=i*i;return i*u*(r-t+3*(n-e))+3*u*(t+e-2*n)+3*i*(n-t)+t}function Et(t,n,e,r,i){var u=1-i;return 3*(u*u*(n-t)+2*u*i*(e-n)+i*i*(r-e))}function It(t,n,e,r,i){var u=arguments.length>5&&void 0!==arguments[5]&&arguments[5],o=xt(t,n,e,r,i);return o||(o={x:Pt(t.x,n.x,e.x,r.x,i),y:Pt(t.y,n.y,e.y,r.y,i)}),u&&(o.a=Rt(t,n,e,r,i)),o}function Rt(t,n,e,r,i){return Math.atan2(Et(t.y,n.y,e.y,r.y,i),Et(t.x,n.x,e.x,r.x,i))}function Ft(t,n,e){var r=arguments.length>3&&void 0!==arguments[3]&&arguments[3];if(Tt(n)){if(qt(e))return jt(n,e.start,e,t,r)}else if(Tt(e)){if(Bt(n))return jt(n,n.end,e,t,r)}else{if(Bt(n))return qt(e)?It(n,n.end,e.start,e,t,r):jt(n,n.end,e,t,r);if(qt(e))return jt(n,e.start,e,t,r)}return kt(n,e,t,r)}function Nt(t,n,e){var r=Ft(t,n,e,!0);return r.a=function(t){return arguments.length>1&&void 0!==arguments[1]&&arguments[1]?t+Math.PI:t}(r.a)/m,r}function Tt(t){return!t.type||"corner"===t.type}function qt(t){return null!=t.start&&!Tt(t)}function Bt(t){return null!=t.end&&!Tt(t)}var Lt=new N;var Ct={f:ft,i:q},Dt={f:ft,i:L};function zt(t,n,e){return t.map((function(t){return function(t,n,e){var r=t.v;if(!r||"g"!==r.t||r.s||!r.v||!r.r)return t;var i=e.getElementById(r.r),u=i&&i.querySelectorAll("stop")||[];return r.s=r.v.map((function(t,n){var e=u[n]&&u[n].getAttribute("offset");return{c:t,o:e=d(parseInt(e)/100)}})),delete r.v,t}(t,0,e)}))}var Vt={gt:"gradientTransform",c:{x:"cx",y:"cy"},rd:"r",f:{x:"x1",y:"y1"},to:{x:"x2",y:"y2"}};function Gt(t,n,r,i,u,o,a,l){return zt(t,0,l),n=function(t,n,e){for(var r,i,u,o=t.length-1,a={},l=0;l<=o;l++)(r=t[l]).e&&(r.e=n(r.e)),r.v&&"g"===(i=r.v).t&&i.r&&(u=e.getElementById(i.r))&&(a[i.r]={e:u,s:u.querySelectorAll("stop")});return a}(t,i,l),function(i){var u=r(i,t,Yt);if(!u)return"none";if("c"===u.t)return ht(u.v);if("g"===u.t){if(!n[u.r])return vt(u.r);var o=n[u.r];return function(t,n){for(var e=t.s,r=e.length;r<n.length;r++){var i=e[e.length-1].cloneNode();i.id=Qt(i.id),t.e.appendChild(i),e=t.s=t.e.querySelectorAll("stop")}for(var u=0,o=e.length,a=n.length-1;u<o;u++)e[u].setAttribute("stop-color",ht(n[Math.min(u,a)].c)),e[u].setAttribute("offset",n[Math.min(u,a)].o)}(o,u.s),Object.keys(Vt).forEach((function(t){if(void 0!==u[t])if("object"!==e(Vt[t])){var n,r="gt"===t?(n=u[t],Array.isArray(n)?"matrix("+n.join(" ")+")":""):u[t],i=Vt[t];o.e.setAttribute(i,r)}else Object.keys(Vt[t]).forEach((function(n){if(void 0!==u[t][n]){var e=u[t][n],r=Vt[t][n];o.e.setAttribute(r,e)}}))})),vt(u.r)}return"none"}}function Yt(t,e,r){if(0===t)return e;if(1===t)return r;if(e&&r){var i=e.t;if(i===r.t)switch(e.t){case"c":return{t:i,v:z(t,e.v,r.v)};case"g":if(e.r===r.r){var u={t:i,s:$t(t,e.s,r.s),r:e.r};return e.gt&&r.gt&&(u.gt=function(t,n,e){var r=n.length;if(r!==e.length)return T(t,n,e);for(var i=new Array(r),u=0;u<r;u++)i[u]=q(t,n[u],e[u]);return i}(t,e.gt,r.gt)),e.c?(u.c=C(t,e.c,r.c),u.rd=B(t,e.rd,r.rd)):e.f&&(u.f=C(t,e.f,r.f),u.to=C(t,e.to,r.to)),u}}if("c"===e.t&&"g"===r.t||"c"===r.t&&"g"===e.t){var o="c"===e.t?e:r,a="g"===e.t?n({},e):n({},r),l=a.s.map((function(t){return{c:o.v,o:t.o}}));return a.s="c"===e.t?$t(t,l,a.s):$t(t,a.s,l),a}}return T(t,e,r)}function $t(t,n,e){if(n.length===e.length)return n.map((function(n,r){return Ut(t,n,e[r])}));for(var r=Math.max(n.length,e.length),i=[],u=0;u<r;u++){var o=Ut(t,n[Math.min(u,n.length-1)],e[Math.min(u,e.length-1)]);i.push(o)}return i}function Ut(t,n,e){return{o:L(t,n.o,e.o||0),c:z(t,n.c,e.c||{})}}function Qt(t){return t.replace(/-fill-([0-9]+)$/,(function(t,n){return"-fill-"+(+n+1)}))}var Ht={fill:Gt,"fill-opacity":Dt,stroke:Gt,"stroke-opacity":Dt,"stroke-width":Ct,"stroke-dashoffset":{f:ft,i:q},"stroke-dasharray":{f:function(t){var n=arguments.length>1&&void 0!==arguments[1]?arguments[1]:" ";return t&&t.length>0&&(t=t.map((function(t){return d(t,4)}))),ct(t,n)},i:function(t,n,e){var r,i,u,o=n.length,a=e.length;if(o!==a)if(0===o)n=V(o=a,0);else if(0===a)a=o,e=V(o,0);else{var l=(u=(r=o)*(i=a)/function(t,n){for(var e;n;)e=n,n=t%n,t=e;return t||1}(r,i))<0?-u:u;n=G(n,Math.floor(l/o)),e=G(e,Math.floor(l/a)),o=a=l}for(var s=[],f=0;f<o;f++)s.push(d(B(t,n[f],e[f])));return s}},opacity:Dt,transform:function(t,n,r,i){if(!(t=function(t,n){if(!t||"object"!==e(t))return null;var r=!1;for(var i in t)t.hasOwnProperty(i)&&(t[i]&&t[i].length?(t[i].forEach((function(t){t.e&&(t.e=n(t.e))})),r=!0):delete t[i]);return r?t:null}(t,i)))return null;var u=function(e,i,u){var o=arguments.length>3&&void 0!==arguments[3]?arguments[3]:null;return t[e]?r(i,t[e],u):n&&n[e]?n[e]:o};return n&&n.a&&t.o?function(n){var e=r(n,t.o,Nt);return Lt.recomposeSelf(e,u("r",n,q,0)+e.a,u("k",n,C),u("s",n,C),u("t",n,C)).toString()}:function(t){return Lt.recomposeSelf(u("o",t,Ft,null),u("r",t,q,0),u("k",t,C),u("s",t,C),u("t",t,C)).toString()}},r:Ct,"#size":gt,"#radius":yt,_:function(t,n){if(Array.isArray(t))for(var e=0;e<t.length;e++)this[t[e]]=n;else this[t]=n}},Jt=function(t){!function(t,n){if("function"!=typeof n&&null!==n)throw new TypeError("Super expression must either be null or a function");t.prototype=Object.create(n&&n.prototype,{constructor:{value:t,writable:!0,configurable:!0}}),n&&l(t,n)}(o,t);var n,e,i=(n=o,e=s(),function(){var t,r=a(n);if(e){var i=a(this).constructor;t=Reflect.construct(r,arguments,i)}else t=r.apply(this,arguments);return c(this,t)});function o(){return r(this,o),i.apply(this,arguments)}return u(o,null,[{key:"build",value:function(t){var n=h(a(o),"build",this).call(this,t,Ht);if(!n)return null;n.el,n.options,function(t,n,e){t.play()}(n.player)}}]),o}(st);return Jt.init(),Jt}));
(function(s,i,o,w,a,b){w[o]=w[o]||{};w[o][s]=w[o][s]||[];w[o][s].push(i);})('5c7f360c',{"root":"erWVvHd1om21","version":"2022-05-04","animations":[{"elements":{"erWVvHd1om26":{"opacity":[{"t":2000,"v":0,"e":[0.48,0.04,0.265,1]},{"t":3200,"v":1}]},"erWVvHd1om215":{"transform":{"data":{"o":{"x":1048.591309,"y":598.195221,"type":"corner"},"t":{"x":-1048.591309,"y":-598.195221}},"keys":{"s":[{"t":300,"v":{"x":500,"y":500},"e":[0.38,0.105,0.085,1.145]},{"t":2000,"v":{"x":1,"y":1}}]}}}},"s":"MIDA1MzlmWDQ2ODg5OUDc5Njg1WTk4OGQ5M00L5MjQ2NWVJNThHNTQ1PNDU0NTBSNDY4ODhkOYTY4OUk4Nzk4VDhkSTAkzOTI0NjVlNTU1MFMC0NjhkOTg4OTk2ODU5XODhkOTM5Mjk3NDZDNUWU1NTUwNDY4YThkOTPA5MDQ2NWU1NTUwNDZLWODU5MDk4ODk5Nk85NMjg1OThJODk0NjVlOXGE4NTkwOTc4OTUwSDWQ2OTc5NDg5ODlTODgA0NjVlNTVSYTE/"}],"options":"MYDAxMDg4MmY4MDgxNmYVQN2ZQODEyZjQ3MmYY3OTdjNmU3MTJmOGE/Y"},'__SVGATOR_PLAYER__',window)]]></script></svg>