<svg width="326" height="361" viewBox="0 0 326 361" fill="none" xmlns="http://www.w3.org/2000/svg">
<path d="M191.206 313.836L195.749 299.04C190.282 293.024 183.43 288.433 175.787 285.667C183.254 298.038 176.019 314.176 179.034 328.308C180.008 332.709 181.96 336.833 184.745 340.377C187.53 343.92 191.077 346.792 195.123 348.778L202.017 357.32C205.631 351.006 207.833 343.983 208.472 336.735C209.111 329.488 208.171 322.188 205.716 315.338C204.301 311.51 202.41 307.874 200.087 304.518C195.99 309.334 191.206 313.836 191.206 313.836Z" fill="#F2F2F2"/>
<path d="M166.225 315.727L163.692 300.458C156.117 297.511 147.936 296.458 139.861 297.391C152.062 305.133 152.783 322.805 161.785 334.109C164.619 337.613 168.206 340.434 172.279 342.364C176.352 344.293 180.807 345.281 185.314 345.255L195.294 349.826C195.713 342.562 194.552 335.294 191.891 328.522C189.231 321.751 185.134 315.636 179.882 310.6C176.908 307.804 173.594 305.394 170.018 303.426C168.499 309.564 166.225 315.727 166.225 315.727Z" fill="#F2F2F2"/>
<path d="M69.5994 129.77C69.4262 129.551 69.2397 129.342 69.041 129.145C69.0896 129.079 69.1382 129.006 69.1867 128.939L69.5994 129.77Z" fill="#2F2E41"/>
<path d="M72.0829 181.101C69.9953 184.809 65.826 186.878 61.6932 187.892C57.0511 189.108 52.1628 189.013 47.5711 187.619C46.9886 187.431 46.4059 187.212 45.8416 186.969C46.1129 186.249 46.328 185.508 46.4849 184.754C46.6961 183.734 46.8018 182.695 46.8004 181.653C46.3406 182.55 45.7449 183.371 45.0344 184.087C44.4863 184.663 43.8639 185.163 43.1834 185.574C41.073 184.293 39.2455 182.595 37.8126 180.585C37.9036 180.361 37.9947 180.136 38.0796 179.911C38.5203 178.739 38.8693 177.533 39.1234 176.307C39.4682 174.648 39.6411 172.958 39.6393 171.263C38.891 172.723 37.9206 174.058 36.7627 175.22C36.4155 175.592 36.0467 175.942 35.6582 176.27C35.0565 174.443 34.8239 172.514 34.9739 170.596C35.1239 168.678 35.6536 166.809 36.532 165.098C38.9353 160.655 43.5961 158.015 47.7472 155.145C51.9043 152.274 56.0614 148.39 56.4133 143.347C56.65 139.943 55.0722 136.532 55.7033 133.182C55.9688 131.769 56.6168 130.456 57.5768 129.387C58.5368 128.317 59.772 127.531 61.1478 127.115C62.5236 126.699 63.9873 126.668 65.3793 127.026C66.7713 127.384 68.0384 128.118 69.0425 129.146C66.6878 132.484 64.3452 135.937 63.3924 139.906C62.4214 143.948 63.2165 148.688 66.4026 151.364C67.4949 152.286 68.8361 152.942 69.6797 154.095C70.8024 155.624 70.8085 157.663 70.9905 159.545C71.3547 163.204 72.5502 166.724 73.1935 170.347C73.8429 173.964 73.8793 177.891 72.0829 181.101Z" fill="#2F2E41"/>
<path d="M29.2871 331.597L34.826 335.876L53.9683 316.549L45.7934 310.233L29.2871 331.597Z" fill="#A0616A"/>
<path d="M29.5229 327.415L38.6821 333.658L35.7836 337.409L39.6655 349.59C39.8573 350.191 39.8518 350.838 39.6497 351.437C39.4477 352.035 39.0597 352.553 38.5424 352.915C38.0252 353.277 37.4057 353.464 36.7744 353.45C36.1432 353.435 35.5332 353.218 35.0336 352.832L24.6099 344.778L25.6804 339.679L22.1118 342.848L18.1816 339.811L29.5229 327.415Z" fill="#2F2E41"/>
<path d="M57.3867 140.552C57.3859 142.716 57.9163 144.847 58.9315 146.759C59.9466 148.67 61.4153 150.303 63.2088 151.514C65.0022 152.725 67.0655 153.477 69.2176 153.704C71.3696 153.932 73.5447 153.628 75.5517 152.818C77.5587 152.009 79.3363 150.719 80.7285 149.063C82.1208 147.406 83.085 145.433 83.5367 143.316C83.9883 141.2 83.9135 139.005 83.3189 136.924C82.7242 134.843 81.6278 132.941 80.126 131.382L80.0626 131.319C79.9568 131.208 79.851 131.097 79.74 130.991C79.7393 130.991 79.7386 130.991 79.738 130.991C79.7373 130.99 79.7367 130.99 79.7362 130.99C79.7357 130.989 79.7353 130.988 79.7351 130.988C79.7348 130.987 79.7347 130.987 79.7347 130.986C79.5972 130.859 79.4597 130.732 79.3169 130.61C76.9901 128.569 73.7198 126.354 70.3829 126.354C63.0799 126.354 57.3867 133.249 57.3867 140.552Z" fill="#2F2E41"/>
<path d="M132.744 133.763C132.807 134.469 132.715 135.179 132.474 135.845C132.233 136.51 131.849 137.115 131.349 137.616C130.849 138.118 130.246 138.503 129.581 138.746C128.916 138.988 128.205 139.082 127.5 139.021L94.7626 168.579L89.1289 159.681L123.08 133.424C123.262 132.246 123.87 131.176 124.788 130.416C125.706 129.656 126.872 129.26 128.063 129.301C129.254 129.343 130.389 129.82 131.251 130.643C132.114 131.465 132.645 132.576 132.744 133.763V133.763Z" fill="#A0616A"/>
<path d="M80.7692 177.501C80.7692 177.501 81.9872 179.75 86.148 176.277C89.479 173.496 105.438 161.422 108.876 156.475C109.661 156.786 110.527 156.827 111.338 156.592C112.149 156.356 112.858 155.858 113.355 155.175L103.935 146.925C101.116 147.249 101.177 149.143 101.47 150.218L94.3645 153.437L76.0156 165.163L79.8598 175.89L80.7692 177.501Z" fill="#0A7003"/>
<path d="M62.9915 198.227L62.3053 201.495L61.7227 213.548L87.3739 214.957L86.5774 196.419L84.091 192.334L62.9915 198.227Z" fill="#A0616A"/>
<path d="M73.8633 154.698C79.986 154.698 84.9493 149.734 84.9493 143.612C84.9493 137.489 79.986 132.526 73.8633 132.526C67.7407 132.526 62.7773 137.489 62.7773 143.612C62.7773 149.734 67.7407 154.698 73.8633 154.698Z" fill="#A0616A"/>
<path d="M54.1834 184.502L54.1152 175.286C54.1137 171.971 55.2357 168.752 57.2984 166.156C59.361 163.56 62.2425 161.74 65.4728 160.992L65.5146 160.982L67.7067 158.028L76.6129 158.919L78.2453 162.255L84.6989 166.098L87.1836 174.086C88.2613 174.804 89.1798 175.736 89.882 176.825C90.5842 177.913 91.0551 179.134 91.2654 180.412C92.109 185.8 88.3362 191.192 87.8874 191.81L86.7312 198.322L61.5771 202.76L61.3728 202.786L54.1834 184.502Z" fill="#0A7003"/>
<path d="M87.431 141.635C86.1379 142.454 84.7963 143.194 83.4135 143.851C82.01 144.525 80.542 145.055 79.0318 145.435C78.5997 144.486 78.071 143.586 77.454 142.746C77.6127 143.741 77.6168 144.754 77.4661 145.75C74.963 146.154 72.3992 145.944 69.9954 145.137L67.9078 141.635L67.75 145.544C66.0204 145.859 64.2968 146.157 62.5673 146.466C62.4641 146.478 62.3609 146.503 62.2638 146.521C61.1896 141.678 62.7129 136.343 66.0993 133.115C67.7806 131.529 69.878 130.453 72.1471 130.012C74.4162 129.572 76.7638 129.785 78.9165 130.627C79.1896 130.736 79.4688 130.857 79.7358 130.985C79.7358 130.986 79.7359 130.986 79.7362 130.987C79.7365 130.988 79.737 130.989 79.7375 130.989C79.7381 130.99 79.7388 130.99 79.7395 130.99C79.7403 130.991 79.7411 130.991 79.7419 130.991C79.8997 131.07 80.0332 131.258 80.2092 131.24C87.783 130.396 88.0258 136.271 87.431 141.635Z" fill="#2F2E41"/>
<path d="M68.9863 317.303L74.5337 321.57L93.6373 302.205L85.4499 295.906L68.9863 317.303Z" fill="#A0616A"/>
<path d="M69.7186 313.506L78.8903 319.731L75.9994 323.488L79.9059 335.66C80.0989 336.262 80.0947 336.909 79.8938 337.507C79.693 338.106 79.3061 338.625 78.7895 338.988C78.273 339.351 77.6539 339.54 77.0226 339.526C76.3913 339.512 75.7809 339.297 75.2805 338.912L64.8407 330.879L65.9008 325.778L62.3386 328.954L58.4023 325.925L69.7186 313.506Z" fill="#2F2E41"/>
<path d="M50.9868 293.666L50.9865 293.594L53.6157 289.063L50.931 283.165L50.8505 268.013L51.2857 265.739C51.871 262.68 51.7007 259.524 50.7895 256.545L50.7405 247.322C50.6462 245.012 54.2254 242.98 53.3907 241.054C45.5013 222.847 61.447 208.958 61.5548 208.847L61.8806 208.508L63.6486 209.847L65.3314 209.849L88.0398 213.987L88.2038 214.293C89.097 215.968 90.8207 221.743 90.9229 224.356C92.0547 225.666 104.946 240.583 106.092 241.62C113.836 248.627 118.27 260.224 120.224 266.514C120.709 268.068 120.807 269.718 120.509 271.318C120.211 272.919 119.526 274.423 118.513 275.698L89.1964 307.81L81.307 300.528L97.1701 271.621L96.0262 268.688C93.9738 268.31 92.1163 267.231 90.7708 265.635L87.5586 261.822C86.6693 260.77 86.1041 259.482 85.9316 258.115L83.9837 257.88L77.006 250.554L72.165 294.394L70.8488 297.857L47.9288 324.803L38.2188 318.734L50.9868 293.666Z" fill="#B2C5FF"/>
<path d="M47.4849 105.422C47.0446 105.977 46.7311 106.621 46.5667 107.309C46.4022 107.998 46.3907 108.714 46.533 109.408C46.6753 110.101 46.968 110.755 47.3903 111.323C47.8127 111.892 48.3545 112.36 48.9776 112.696L41.6895 134.273L47.6406 157.138L57.2368 152.8L51.3152 135.553L55.7455 110.449C56.2408 109.365 56.3213 108.137 55.9715 106.998C55.6218 105.858 54.8663 104.886 53.848 104.267C52.8298 103.647 51.6197 103.423 50.4469 103.636C49.2741 103.848 48.2202 104.484 47.4849 105.422Z" fill="#A0616A"/>
<path d="M56.2703 175.977C56.2703 175.977 54.0164 177.187 52.4489 171.999C51.194 167.845 42.6539 145.291 42.5 139.269C41.6731 139.097 40.9269 138.655 40.3787 138.013C39.8306 137.371 39.5118 136.564 39.4724 135.721L51.876 134.004C54.0525 135.824 52.9616 137.373 52.1257 138.11L56.3503 145.266L65.1803 164.584L57.915 175.131L56.2703 175.977Z" fill="#0A7003"/>
<path d="M62.5645 146.464C63.8382 142.623 66.1222 139.195 69.1769 136.541C72.2316 133.886 75.9443 132.103 79.9257 131.377C79.9415 131.372 79.9944 131.351 80.0632 131.319C80.1055 131.292 80.1584 131.266 80.2113 131.24C80.0526 131.15 79.8993 131.07 79.7406 130.991C79.7399 130.991 79.7392 130.991 79.7385 130.991C79.7379 130.99 79.7373 130.99 79.7368 130.989C79.7363 130.989 79.7359 130.988 79.7357 130.988C79.7354 130.987 79.7353 130.986 79.7353 130.986C79.5978 130.859 79.4603 130.732 79.3175 130.61L78.9156 130.626C78.9156 130.626 64.7908 128.389 62.5645 146.464Z" fill="#FD6584"/>
<path d="M244.825 270C246.366 267.683 245.454 264.366 242.787 262.592C240.12 260.818 236.708 261.257 235.166 263.575C233.625 265.892 234.537 269.208 237.204 270.983C239.871 272.757 243.283 272.318 244.825 270Z" fill="#F2F2F2"/>
<path d="M213.532 183.518C215.073 181.201 214.161 177.884 211.494 176.11C208.827 174.335 205.415 174.775 203.873 177.092C202.332 179.409 203.244 182.726 205.911 184.501C208.578 186.275 211.99 185.835 213.532 183.518Z" fill="#F2F2F2"/>
<path d="M79.825 38.4321C81.3666 36.115 80.4542 32.7981 77.7871 31.0237C75.1199 29.2492 71.7081 29.6891 70.1665 32.0062C68.6249 34.3233 69.5374 37.6401 72.2045 39.4146C74.8716 41.1891 78.2835 40.7492 79.825 38.4321Z" fill="#F2F2F2"/>
<path d="M203.292 11.1213C204.833 8.80416 203.921 5.48731 201.254 3.71285C198.587 1.9384 195.175 2.37828 193.633 4.69538C192.092 7.01247 193.004 10.3294 195.671 12.1038C198.338 13.8783 201.75 13.4383 203.292 11.1213Z" fill="#F2F2F2"/>
<path d="M144.858 240.253C146.4 237.936 145.487 234.619 142.82 232.844C140.153 231.07 136.741 231.51 135.199 233.827C133.658 236.144 134.57 239.461 137.237 241.235C139.905 243.01 143.316 242.57 144.858 240.253Z" fill="#E6E6E6"/>
<path d="M305.357 360.5H1.07115C0.923667 360.5 0.782373 360.452 0.678236 360.368C0.5741 360.283 0.515625 360.169 0.515625 360.05C0.515625 359.93 0.5741 359.816 0.678236 359.731C0.782373 359.647 0.923667 359.599 1.07115 359.599H305.357C305.505 359.599 305.646 359.647 305.751 359.731C305.855 359.816 305.914 359.93 305.914 360.05C305.914 360.169 305.855 360.284 305.751 360.368C305.646 360.453 305.505 360.5 305.357 360.5Z" fill="#CCCCCC"/>
<path d="M98.4095 135.853C95.2972 135.844 92.2973 134.689 89.9834 132.607C87.6695 130.526 86.2039 127.664 85.8667 124.57L78.6435 57.4855C78.2886 54.1547 79.2694 50.8191 81.3708 48.2106C83.4722 45.6021 86.5225 43.9337 89.8525 43.5714L304.327 20.4783C307.657 20.1232 310.993 21.104 313.602 23.2053C316.21 25.3066 317.879 28.357 318.241 31.687L325.464 98.7716C325.819 102.103 324.838 105.438 322.737 108.047C320.636 110.655 317.585 112.324 314.255 112.686L314.225 112.403L314.255 112.686L99.7811 135.779C99.3255 135.829 98.8677 135.853 98.4095 135.853Z" fill="#E6E6E6"/>
<path d="M301.965 23.5928C301.562 23.5929 301.159 23.6146 300.759 23.6578L94.0172 45.9183C92.5716 46.074 91.1708 46.5128 89.8948 47.2098C88.6189 47.9068 87.4927 48.8484 86.5805 49.9806C85.6684 51.1129 84.9882 52.4137 84.5788 53.8088C84.1694 55.2039 84.0388 56.666 84.1945 58.1116L87.8467 92.0304C88.437 97.5138 90.1016 102.827 92.7454 107.667C95.3893 112.507 98.9605 116.779 103.255 120.239C107.55 123.699 112.484 126.279 117.776 127.832C123.068 129.385 128.614 129.88 134.098 129.29L279.471 113.637C284.938 113.048 290.235 111.389 295.06 108.753C299.886 106.117 304.145 102.557 307.594 98.2749C311.043 93.9932 313.616 89.074 315.164 83.7981C316.712 78.5223 317.206 72.9932 316.617 67.5265L312.952 33.4805C312.659 30.7686 311.377 28.26 309.349 26.4354C307.322 24.6108 304.692 23.5986 301.965 23.5928V23.5928Z" fill="white"/>
<path d="M258.427 58.8923L142.877 71.334C142.547 71.37 142.212 71.3406 141.893 71.2473C141.574 71.154 141.277 70.9988 141.018 70.7905C140.759 70.5822 140.544 70.3248 140.384 70.0332C140.225 69.7416 140.124 69.4214 140.089 69.091C140.053 68.7605 140.083 68.4263 140.177 68.1074C140.27 67.7885 140.426 67.4913 140.635 67.2326C140.843 66.9739 141.101 66.7589 141.393 66.5999C141.685 66.4408 142.005 66.3409 142.336 66.3058L257.886 53.864C258.216 53.828 258.551 53.8575 258.87 53.9507C259.189 54.044 259.486 54.1992 259.745 54.4075C260.004 54.6159 260.219 54.8732 260.379 55.1648C260.538 55.4564 260.639 55.7766 260.674 56.1071C260.71 56.4375 260.68 56.7717 260.586 57.0906C260.492 57.4095 260.337 57.7068 260.128 57.9654C259.919 58.2241 259.662 58.4391 259.37 58.5981C259.078 58.7572 258.758 58.8571 258.427 58.8923Z" fill="#8FC93A"/>
<path d="M260.09 74.3236L144.54 86.7653C143.873 86.8371 143.205 86.6411 142.683 86.2203C142.16 85.7996 141.827 85.1887 141.755 84.5219C141.683 83.8551 141.879 83.1871 142.3 82.6648C142.72 82.1426 143.331 81.8088 143.998 81.737L259.549 69.2953C260.215 69.2235 260.883 69.4195 261.406 69.8403C261.928 70.261 262.262 70.8719 262.333 71.5387C262.405 72.2055 262.209 72.8735 261.788 73.3958C261.368 73.918 260.757 74.2518 260.09 74.3236Z" fill="#8FC93A"/>
<path d="M159.667 100.748L146.202 102.198C145.535 102.27 144.867 102.074 144.345 101.653C143.822 101.232 143.489 100.621 143.417 99.9547C143.345 99.2879 143.541 98.6199 143.962 98.0977C144.383 97.5754 144.994 97.2417 145.66 97.1699L159.126 95.72C159.456 95.684 159.791 95.7134 160.11 95.8067C160.429 95.8999 160.726 96.0552 160.985 96.2635C161.244 96.4718 161.459 96.7292 161.619 97.0208C161.778 97.3124 161.879 97.6326 161.914 97.963C161.95 98.2935 161.92 98.6277 161.826 98.9466C161.732 99.2654 161.577 99.5627 161.368 99.8214C161.16 100.08 160.902 100.295 160.61 100.454C160.318 100.613 159.998 100.713 159.667 100.748Z" fill="#8FC93A"/>
<path d="M93.8645 60.3168C96.3783 60.3168 98.4162 58.279 98.4162 55.7651C98.4162 53.2513 96.3783 51.2134 93.8645 51.2134C91.3506 51.2134 89.3127 53.2513 89.3127 55.7651C89.3127 58.279 91.3506 60.3168 93.8645 60.3168Z" fill="#3F3D56"/>
<path d="M297.554 37.5583C300.068 37.5583 302.106 35.5204 302.106 33.0066C302.106 30.4927 300.068 28.4548 297.554 28.4548C295.04 28.4548 293.002 30.4927 293.002 33.0066C293.002 35.5204 295.04 37.5583 297.554 37.5583Z" fill="#3F3D56"/>
<path d="M236.017 131.003C235.599 130.635 235.267 130.179 235.047 129.668C234.827 129.157 234.724 128.603 234.745 128.046C234.973 121.435 233.885 114.844 231.542 108.658C231.343 108.138 231.263 107.58 231.307 107.025C231.351 106.47 231.518 105.932 231.795 105.45C232.062 104.986 232.426 104.587 232.864 104.279C233.301 103.971 233.8 103.763 234.327 103.669C239.617 100.476 245.041 99.5801 250.45 101.005C251.322 100.877 252.212 101.064 252.959 101.532C253.706 102 254.261 102.72 254.526 103.561C256.716 110.671 257.934 118.044 258.147 125.48C258.167 126.372 257.865 127.242 257.296 127.929C256.727 128.616 255.929 129.075 255.049 129.221L239.042 131.866C238.505 131.956 237.955 131.925 237.432 131.775C236.909 131.626 236.425 131.362 236.017 131.003Z" fill="#8FC93A"/>
<path d="M237.436 111.74L250.908 109.515C251.019 109.497 251.125 109.457 251.221 109.398C251.316 109.339 251.399 109.261 251.465 109.17C251.53 109.079 251.577 108.976 251.602 108.866C251.628 108.757 251.632 108.644 251.613 108.533C251.595 108.422 251.555 108.316 251.496 108.221C251.436 108.126 251.359 108.043 251.268 107.978C251.176 107.913 251.073 107.866 250.964 107.841C250.854 107.816 250.741 107.812 250.63 107.831L237.158 110.056C236.935 110.094 236.736 110.218 236.604 110.402C236.473 110.586 236.42 110.814 236.457 111.037C236.494 111.26 236.617 111.459 236.801 111.591C236.984 111.723 237.213 111.777 237.436 111.74Z" fill="white"/>
<path d="M238.551 118.477L252.024 116.251C252.247 116.214 252.447 116.09 252.578 115.906C252.71 115.722 252.763 115.493 252.727 115.27C252.69 115.046 252.566 114.847 252.382 114.715C252.198 114.583 251.969 114.53 251.745 114.567L238.273 116.793C238.162 116.811 238.056 116.85 237.961 116.909C237.865 116.969 237.782 117.046 237.717 117.137C237.651 117.228 237.605 117.332 237.579 117.441C237.553 117.55 237.55 117.663 237.568 117.774C237.586 117.885 237.626 117.991 237.686 118.086C237.745 118.181 237.823 118.264 237.914 118.329C238.005 118.395 238.108 118.441 238.218 118.466C238.327 118.492 238.44 118.495 238.551 118.477Z" fill="white"/>
<path d="M239.664 125.212L253.137 122.986C253.36 122.95 253.56 122.826 253.692 122.642C253.823 122.458 253.877 122.229 253.84 122.005C253.803 121.782 253.679 121.583 253.495 121.451C253.311 121.319 253.082 121.266 252.859 121.302L239.386 123.528C239.276 123.546 239.17 123.586 239.075 123.646C238.979 123.705 238.897 123.782 238.832 123.873C238.766 123.964 238.72 124.067 238.694 124.177C238.669 124.286 238.665 124.399 238.683 124.509C238.702 124.62 238.741 124.726 238.801 124.821C238.86 124.916 238.937 124.999 239.028 125.064C239.119 125.129 239.222 125.176 239.332 125.201C239.441 125.227 239.554 125.231 239.664 125.212Z" fill="white"/>
<path d="M314.086 88.7158C318.306 88.7158 321.727 85.2949 321.727 81.0751C321.727 76.8552 318.306 73.4343 314.086 73.4343C309.866 73.4343 306.445 76.8552 306.445 81.0751C306.445 85.2949 309.866 88.7158 314.086 88.7158Z" fill="#0A7003"/>
<path d="M313.519 83.3869C313.383 83.387 313.251 83.3436 313.143 83.2633L313.136 83.2583L311.719 82.189C311.587 82.0888 311.5 81.9407 311.478 81.7774C311.456 81.614 311.501 81.4488 311.603 81.318C311.704 81.1873 311.854 81.1017 312.02 81.0802C312.185 81.0586 312.353 81.1028 312.485 81.203L313.403 81.8974L315.572 79.1059C315.673 78.9752 315.823 78.8897 315.989 78.8681C316.154 78.8466 316.321 78.8907 316.454 78.9909L316.441 79.0093L316.454 78.9909C316.587 79.0913 316.673 79.2393 316.695 79.4026C316.717 79.5658 316.672 79.731 316.571 79.8617L314.02 83.1435C313.961 83.2192 313.885 83.2804 313.798 83.3224C313.711 83.3644 313.615 83.386 313.519 83.3857L313.519 83.3869Z" fill="white"/>
</svg>
