<svg width="108" height="30" viewBox="0 0 108 30" fill="none" xmlns="http://www.w3.org/2000/svg">
<path d="M105.192 0.940918H103.301C100.88 0.940918 100.728 1.20462 100.538 1.62061L96.7905 10.6275C95.5426 13.6174 94.2537 16.8339 93.7635 18.4978C93.3103 16.8339 92.4784 14.6016 90.7364 10.4752L86.9888 1.62061C86.7622 1.08949 85.8151 0.940918 83.7723 0.940918H81.6515C79.5716 0.940918 79.1556 1.13034 79.1556 1.54633V28.7155C79.1556 29.2058 79.5716 29.3209 81.7295 29.3209H82.9032C85.024 29.3209 85.6294 29.2058 85.6294 28.7155V12.596H85.7817C85.7817 12.596 85.9711 13.3537 86.272 14.0334L90.5841 24.1359C90.7735 24.5891 91.0001 24.7785 93.0058 24.7785H94.2909C96.3337 24.7785 96.4859 24.6262 96.6754 24.1359L100.612 14.4122C100.991 13.5023 101.255 12.596 101.255 12.596H101.407V28.7155C101.407 29.2058 101.823 29.3209 104.055 29.3209H105.192C107.272 29.3209 107.877 29.2058 107.877 28.7155V1.54633C107.877 1.13034 107.272 0.940918 105.192 0.940918ZM73.7849 1.54633C73.7849 1.13034 73.1795 0.940918 71.0996 0.940918H69.8887C67.6937 0.940918 67.3148 1.13034 67.3148 1.54633V28.7155C67.3148 29.2058 67.6937 29.3209 69.8887 29.3209H71.0996C73.1795 29.3209 73.7849 29.2058 73.7849 28.7155V1.54633ZM62.245 0.940918C62.8133 0.940918 62.9247 1.0152 62.9247 3.02086V4.87423C62.9247 6.8056 62.7724 7.03216 62.245 7.03216H55.812V28.7155C55.812 29.2058 55.2066 29.3209 53.0487 29.3209H51.9122C49.7171 29.3209 49.3382 29.2058 49.3382 28.7155V7.03216H42.9053C42.3742 7.03216 42.2256 6.87988 42.2256 4.87423V3.02086C42.2256 0.94092 42.337 0.940918 42.9053 0.940918H62.2413H62.245Z" fill="white"/>
<path d="M14.2649 23.2483H2.31265C1.85952 23.2483 1.45096 23.4303 1.15754 23.7274C0.864123 24.0208 0.682129 24.4294 0.682129 24.8788V27.683C0.682129 28.1324 0.864119 28.5373 1.15382 28.8344C1.45096 29.1315 1.85952 29.3172 2.31265 29.3172H14.2649V23.2483ZM34.1691 23.7311C33.872 23.434 33.4634 23.2483 33.0103 23.2483H21.0581V29.3172H33.0103C33.4634 29.3172 33.8757 29.1315 34.1691 28.8344C34.4625 28.541 34.6408 28.1324 34.6408 27.6867V24.8825C34.6408 24.4331 34.4625 24.0283 34.1691 23.7348M34.1691 12.5849C33.872 12.284 33.4634 12.102 33.0103 12.102H21.0581V18.171H33.0103C33.4634 18.171 33.872 17.9853 34.1691 17.6882C34.4625 17.3947 34.6408 16.9862 34.6408 16.5405V13.7363C34.6408 13.2906 34.4625 12.882 34.1691 12.5886M14.2649 12.1058H2.31265C1.85952 12.1058 1.45096 12.2878 1.15754 12.5849C0.864123 12.8783 0.682129 13.2869 0.682129 13.7363V16.5405C0.682129 16.9899 0.864119 17.3947 1.15382 17.6919C1.45096 17.989 1.85952 18.1747 2.31265 18.1747H14.2649V12.1058ZM33.0103 7.02477H2.31265C1.85952 7.02477 1.45096 6.83906 1.15382 6.54193C0.860405 6.24851 0.682129 5.83995 0.682129 5.39053V2.58634C0.682129 2.13692 0.864123 1.72836 1.15754 1.43494C1.45468 1.13781 1.86324 0.955811 2.31265 0.955811H33.0103C33.4634 0.955811 33.8757 1.14152 34.1691 1.43865C34.4625 1.73207 34.6408 2.14064 34.6408 2.58634V5.39053C34.6408 5.83995 34.4588 6.2448 34.1691 6.53822C33.872 6.83535 33.4634 7.02106 33.0103 7.02106" fill="#EB0029"/>
</svg>
