<svg width="11" height="16" viewBox="0 0 11 16" fill="none" xmlns="http://www.w3.org/2000/svg">
<path fill-rule="evenodd" clip-rule="evenodd" d="M6.28899 15.5021C5.94449 15.6663 5.60001 15.6859 5.25551 15.4881L1.96241 13.5903C0.837957 12.8141 -0.00922331 11.8307 7.58161e-05 10.2073V2.74413L1.44952 1.90733V5.61565L2.21687 5.1719V1.4677L3.66629 0.630859L3.66748 4.33897L3.68204 4.33056L4.69316 3.74679C4.98598 3.57774 5.40423 3.58904 5.72147 3.77187L8.48081 5.36205C9.37547 5.87765 10.3165 7.17694 10.3165 8.59417V12.5742C10.3165 13.0615 10.1112 13.2987 9.30792 13.7625L8.40571 14.2834C8.7161 14.0654 8.86712 13.4945 8.86712 12.5965V9.53697C8.86712 7.97389 8.14127 6.83852 6.94231 6.14759L4.30097 4.6254C3.90596 4.38901 3.55269 4.40524 3.14777 4.63903L3.22505 4.59441L3.19666 4.60953L2.53713 4.98878V4.98881C2.77611 4.89295 3.19794 4.8936 3.50471 5.04831L6.26403 6.63849C7.15871 7.15408 8.09979 8.45337 8.09979 9.87063V13.8506C8.09979 14.3379 7.89438 14.5752 7.09114 15.039L6.29802 15.4969C6.30396 15.4934 6.30974 15.4899 6.3155 15.4863C6.30673 15.4917 6.29787 15.4969 6.28893 15.5021L6.28899 15.5021ZM1.44952 5.73572V9.4345C1.44952 11.2209 2.16172 12.033 3.38659 12.7389L6.64612 14.6139C6.65038 14.4996 6.65041 14.3818 6.65041 14.2643V13.7378L6.6437 13.7342L4.17916 12.3139C3.05474 11.5376 2.21686 10.8775 2.21686 8.93085V5.97829L2.08427 5.90184C1.86515 5.77073 1.65888 5.71738 1.44952 5.73572H1.44952ZM6.65042 12.0659V10.8134C6.65042 9.25036 5.92456 8.11499 4.7256 7.42403L3.66629 6.81355V8.44085C3.66629 10.2778 4.12316 10.5984 5.60339 11.4625L6.65042 12.0659Z" fill="#A7A9AC"/>
</svg>
