<svg width="119" height="119" viewBox="0 0 119 119" fill="none" xmlns="http://www.w3.org/2000/svg">
<path fill-rule="evenodd" clip-rule="evenodd" d="M56.3245 43.3433V67.4409C56.3245 69.1953 57.7467 70.6175 59.501 70.6175C61.2553 70.6175 62.6775 69.1953 62.6775 67.4409V43.3457L70.4892 51.1573C71.7297 52.3979 73.741 52.3979 74.9815 51.1573C76.222 49.9168 76.222 47.9056 74.9815 46.6651L61.7988 33.4824C61.2204 32.8766 60.4048 32.4991 59.501 32.4991C59.5008 32.4991 59.5006 32.4991 59.5004 32.4991C59.4242 32.4991 59.348 32.5018 59.272 32.5073C59.0998 32.5195 58.9314 32.5455 58.768 32.5841C58.213 32.715 57.6864 32.9968 57.2536 33.4295L44.0181 46.6651C42.7776 47.9056 42.7776 49.9168 44.0181 51.1573C45.2586 52.3979 47.2699 52.3979 48.5104 51.1573L56.3245 43.3433ZM35.676 64.2653C37.4304 64.2653 38.8526 65.6875 38.8526 67.4418V78.0302C38.8526 78.5919 39.0757 79.1305 39.4728 79.5277C39.87 79.9248 40.4086 80.1479 40.9703 80.1479H78.0297C78.5914 80.1479 79.13 79.9248 79.5272 79.5277C79.9243 79.1305 80.1474 78.5919 80.1474 78.0302V67.4418C80.1474 65.6875 81.5696 64.2653 83.3239 64.2653C85.0783 64.2653 86.5005 65.6875 86.5005 67.4418V78.0302C86.5005 80.2768 85.608 82.4314 84.0195 84.0199C82.4309 85.6085 80.2763 86.501 78.0297 86.501H40.9703C38.7237 86.501 36.5691 85.6085 34.9805 84.0199C33.392 82.4314 32.4995 80.2768 32.4995 78.0302V67.4418C32.4995 65.6875 33.9217 64.2653 35.676 64.2653Z" fill="url(#paint0_linear_4573_27606)"/>
<rect x="3" y="3" width="113" height="113" rx="56.5" stroke="url(#paint1_linear_4573_27606)" stroke-width="5"/>
<defs>
<linearGradient id="paint0_linear_4573_27606" x1="133.703" y1="0.902269" x2="25.7638" y2="5.27268" gradientUnits="userSpaceOnUse">
<stop stop-color="#001F80"/>
<stop offset="1" stop-color="#0C61FF"/>
</linearGradient>
<linearGradient id="paint1_linear_4573_27606" x1="221.645" y1="-68.5427" x2="-14.2186" y2="-58.9926" gradientUnits="userSpaceOnUse">
<stop stop-color="#001F80"/>
<stop offset="1" stop-color="#0C61FF"/>
</linearGradient>
</defs>
</svg>
