<svg width="126" height="41" viewBox="0 0 126 41" fill="none" xmlns="http://www.w3.org/2000/svg">
<path d="M47.8404 0.72402L31.3443 40.3791H20.5819L12.4641 8.73254C11.9712 6.7833 11.5427 6.0692 10.0439 5.24798C7.59671 3.91037 3.55554 2.6554 0 1.8765L0.241498 0.72402H17.5658C19.774 0.72402 21.7592 2.20512 22.2605 4.76729L26.5478 27.7137L37.1436 0.723359H47.8404V0.72402ZM90.0095 27.4327C90.0528 16.9665 75.6455 16.3899 75.7446 11.7146C75.7755 10.2917 77.1201 8.77882 80.0634 8.39268C81.5222 8.20026 85.5417 8.05347 90.1007 10.1673L91.889 1.75814C89.4392 0.862209 86.2872 0 82.3655 0C72.302 0 65.2197 5.39014 65.16 13.1084C65.0951 18.8172 70.2151 22.0029 74.0725 23.8999C78.0408 25.8425 79.3724 27.0909 79.3573 28.8285C79.329 31.4886 76.1922 32.6629 73.2607 32.7091C68.1433 32.7885 65.1738 31.314 62.8067 30.2052L60.9614 38.8927C63.3403 39.9923 67.7312 40.9517 72.2836 41C82.9798 41 89.9767 35.6766 90.0095 27.4327ZM116.584 40.3798H126L117.781 0.724678H109.089C107.135 0.724678 105.486 1.87121 104.757 3.63398L89.4786 40.3798H100.169L102.292 34.4567H115.354L116.584 40.3798ZM105.223 26.3292L110.582 11.4402L113.666 26.3292H105.223ZM62.3874 0.724678L53.9684 40.3798H43.7874L52.2097 0.724678H62.3874Z" fill="#1434CB"/>
</svg>
