<svg width="36" height="36" viewBox="0 0 36 36" fill="none" xmlns="http://www.w3.org/2000/svg">
<rect x="0.5" y="0.130859" width="35" height="35" rx="17.5" fill="#6BD4E9"/>
<path d="M16.987 24.5922C17.6748 24.5922 18.3626 24.6232 19.0504 24.5776C19.6762 24.5467 20.3347 24.4864 20.9459 24.3334C25.806 23.1437 28.4039 17.7858 26.2786 13.2546C24.9943 10.5219 22.7941 8.96437 19.7838 8.64374C17.476 8.3996 15.4126 9.08643 13.6704 10.6424C11.959 12.1837 11.0724 14.1058 11.0121 16.4105C10.9974 16.9443 11.0121 17.4944 11.0121 18.0283C10.9958 19.1903 10.339 20.0904 9.22258 20.4403C9.20791 20.4403 9.17694 20.4712 9.16064 20.4712C9.58929 21.6008 11.3299 23.2641 12.4154 23.6759C13.7779 21.814 16.5274 22.4715 16.987 24.5922Z" fill="white"/>
<path d="M16.9564 25.6142C16.7885 26.3776 16.3762 26.9423 15.703 27.2923C14.8474 27.7349 13.9754 27.7203 13.1654 27.2011C12.3244 26.6673 11.9577 25.8584 12.0196 24.8656C12.0343 24.6979 11.9887 24.6361 11.8518 24.5596C10.3686 23.7816 9.19354 22.6976 8.38352 21.2328C8.23032 20.9431 8.10808 20.6371 8.03148 20.3165C7.92391 19.8738 8.09342 19.6606 8.55139 19.615C9.10227 19.5532 9.59122 19.34 9.83569 18.8208C9.94326 18.5913 10.0036 18.3179 10.0036 18.0575C10.0345 17.4016 10.0036 16.7456 10.0345 16.0881C10.2024 13.554 11.2569 11.4496 13.1833 9.80083C14.9549 8.27743 17.033 7.5613 19.3701 7.63617C23.4512 7.78916 26.9504 10.6586 27.7751 14.6721C28.5232 18.3048 27.3937 21.3419 24.5041 23.7067C24.3362 23.8434 24.152 23.9818 23.9532 24.1039C23.8456 24.1803 23.8163 24.2406 23.8619 24.3626C24.2433 25.5231 23.7087 26.804 22.6395 27.3541C21.1874 28.0719 19.507 27.3394 19.0637 25.7819C19.0491 25.72 18.9725 25.6452 18.9268 25.6452C18.2863 25.5996 17.6279 25.6142 16.9564 25.6142ZM16.9873 24.5921C17.6751 24.5921 18.3629 24.623 19.0507 24.5775C19.6765 24.5466 20.335 24.4863 20.9462 24.3333C25.8063 23.1436 28.4042 17.7857 26.2789 13.2545C24.9946 10.5218 22.7944 8.96426 19.7841 8.64363C17.4763 8.3995 15.4129 9.08633 13.6707 10.6423C11.9593 12.1836 11.0727 14.1057 11.0124 16.4104C10.9978 16.9442 11.0124 17.4943 11.0124 18.0282C10.9961 19.1902 10.3393 20.0903 9.22288 20.4402C9.20821 20.4402 9.17724 20.4711 9.16095 20.4711C9.58959 21.6007 11.3302 23.264 12.4157 23.6758C13.7782 21.8139 16.5277 22.4714 16.9873 24.5921Z" fill="black"/>
<path d="M20.2113 20.6096C18.4071 20.5184 17.2157 19.8007 16.4513 18.3668C16.2671 18.0152 16.4366 17.6653 16.787 17.5888C17.0005 17.5433 17.1994 17.6962 17.3526 17.9404C17.5514 18.2464 17.7503 18.5507 18.0094 18.7948C19.4453 20.1522 21.7987 19.7258 22.7016 17.9713C22.8092 17.7581 22.9461 17.5905 23.2053 17.5905C23.5866 17.6051 23.8018 17.9876 23.6339 18.3375C23.1596 19.2994 22.4115 20.0009 21.4027 20.3362C20.9594 20.4875 20.5014 20.5477 20.2113 20.6096Z" fill="black"/>
<path d="M17.0165 15.6032C16.4656 15.6032 16.0239 15.1605 16.0239 14.612C16.0239 14.0635 16.4672 13.6208 17.0165 13.6208C17.5657 13.6208 18.009 14.0635 18.009 14.612C18.0107 15.1459 17.5674 15.6032 17.0165 15.6032Z" fill="black"/>
<path d="M24.0166 14.5957C24.0166 15.1458 23.5733 15.5869 23.0387 15.6031C22.4878 15.6031 22.0461 15.1751 22.0461 14.612C22.0461 14.0618 22.4748 13.6208 23.024 13.6045C23.5586 13.6045 24.0003 14.0472 24.0166 14.5957Z" fill="black"/>
</svg>
