<svg width="36" height="36" viewBox="0 0 36 36" fill="none" xmlns="http://www.w3.org/2000/svg">
<rect x="0.5" y="0.130859" width="35" height="35" rx="17.5" fill="#3EBE2B"/>
<path fill-rule="evenodd" clip-rule="evenodd" d="M9.3793 22.6309L8 27.6309L13.1034 26.2516C14.5862 27.0791 16.2414 27.6309 17.9655 27.6309C23.4483 27.6309 28 23.0101 28 17.5619C28 12.1136 23.4482 7.63086 17.9655 7.63086C12.4828 7.63086 8 12.1136 8 17.5619C8 19.355 8.48277 21.0791 9.3793 22.6309ZM13.6897 24.6308L13.3793 24.4584L10.4138 25.217L11.2069 22.3204L11 22.0101C10.1724 20.6997 9.72415 19.148 9.72415 17.5618C9.72415 13.0101 13.4138 9.35492 17.9655 9.35492C22.5172 9.35492 26.2759 12.9756 26.2759 17.5618C26.2759 22.148 22.5172 25.9066 18 25.9066C16.4483 25.9066 14.9655 25.4239 13.6897 24.6308Z" fill="white"/>
<path d="M15.3105 12.9412L14.6553 12.9067C14.4484 12.9067 14.2415 12.9757 14.1036 13.1137C13.7932 13.3895 13.276 13.9067 13.1381 14.5964C12.8967 15.6309 13.276 16.8723 14.1726 18.1137C15.0691 19.355 16.7933 21.355 19.8277 22.2171C20.7932 22.493 21.5519 22.3205 22.1726 21.9412C22.6553 21.6309 22.9657 21.1481 23.0691 20.6309L23.1726 20.1481C23.2071 20.0102 23.1381 19.8378 23.0001 19.7688L20.8277 18.7688C20.6898 18.6998 20.5174 18.7343 20.4139 18.8722L19.5519 19.9757C19.4829 20.0447 19.3794 20.0791 19.276 20.0447C18.6898 19.8378 16.7243 19.0102 15.6553 16.9412C15.6208 16.8378 15.6208 16.7343 15.6898 16.6654L16.5174 15.7344C16.5864 15.6309 16.6208 15.493 16.5864 15.3895L15.5864 13.1481C15.5518 13.0447 15.4484 12.9412 15.3105 12.9412Z" fill="white"/>
</svg>
