<svg width="33" height="33" viewBox="0 0 33 33" fill="none" xmlns="http://www.w3.org/2000/svg">
<rect x="0.699951" y="0.130859" width="32" height="32" rx="16" fill="#001F80"/>
<path d="M22.3051 10.4519C20.9443 9.09238 19.1359 8.27355 17.2165 8.14783C15.2971 8.02211 13.3974 8.59806 11.8709 9.7685C10.3444 10.9389 9.29521 12.6241 8.91852 14.5104C8.54182 16.3967 8.86331 18.3556 9.82314 20.0226L8.69775 24.1309L12.9026 23.0268C14.0652 23.6609 15.3685 23.9929 16.6928 23.9922H16.6964C18.8068 23.9918 20.8317 23.1584 22.3308 21.6732C23.83 20.1879 24.6822 18.1708 24.7022 16.0606C24.6908 15.014 24.4733 13.98 24.062 13.0176C23.6507 12.0552 23.0536 11.1834 22.3051 10.4519ZM16.6964 22.6554C15.515 22.6564 14.3551 22.3392 13.3385 21.7373L13.0992 21.5945L10.6056 22.2484L11.2701 19.8158L11.1132 19.5658C10.5856 18.6974 10.2656 17.7189 10.178 16.7066C10.0903 15.6943 10.2374 14.6754 10.6077 13.7293C10.9781 12.7831 11.5618 11.9351 12.3134 11.2513C13.0649 10.5675 13.9641 10.0663 14.941 9.78674C15.9179 9.50717 16.9461 9.45675 17.9456 9.6394C18.9452 9.82205 19.8891 10.2328 20.704 10.8398C21.5188 11.4468 22.1827 12.2336 22.6438 13.139C23.105 14.0444 23.3511 15.044 23.3629 16.0601C23.3443 17.8157 22.6337 19.493 21.3856 20.7278C20.1375 21.9626 18.4526 22.6551 16.6969 22.6549L16.6964 22.6554ZM20.3119 17.7184C20.1153 17.6168 19.1403 17.1397 18.9579 17.0752C18.7755 17.0107 18.6434 16.9736 18.5113 17.1768C18.3792 17.38 18.0006 17.82 17.8828 17.9557C17.7649 18.0914 17.6506 18.1081 17.4539 18.0065C16.3124 17.5508 15.3608 16.7189 14.7566 15.6485C14.5533 15.2985 14.9598 15.3234 15.3388 14.5663C15.3646 14.5116 15.3765 14.4513 15.3734 14.3908C15.3703 14.3304 15.3523 14.2716 15.321 14.2198C15.2702 14.1182 14.8744 13.1447 14.7113 12.7464C14.5508 12.3608 14.3862 12.4141 14.2647 12.407C14.1433 12.3999 14.0183 12.3999 13.8862 12.3999C13.7859 12.4026 13.6872 12.4259 13.5962 12.4683C13.5053 12.5107 13.424 12.5713 13.3573 12.6463C13.1329 12.8585 12.9551 13.1151 12.8352 13.3997C12.7153 13.6843 12.6559 13.9908 12.6608 14.2996C12.7261 15.0467 13.0065 15.759 13.4681 16.3502C13.5697 16.4823 14.8648 18.4841 16.8549 19.3438C18.1124 19.8869 18.6052 19.9331 19.2342 19.8402C19.5101 19.7841 19.7714 19.6713 20.0014 19.509C20.2314 19.3467 20.4252 19.1383 20.5705 18.8972C20.6998 18.6007 20.7395 18.2729 20.6848 17.9542C20.6401 17.8648 20.508 17.815 20.3119 17.7184Z" fill="white"/>
</svg>
